<?xml version="1.0" encoding="UTF-8"?><svg id="a" xmlns="http://www.w3.org/2000/svg" width="175" height="175" viewBox="0 0 175 175"><defs><style>.b{fill:#0e9ad7;}</style></defs><path d="M56.8163,60.5751c0-5.9445,3.6715-10.4902,9.616-10.4902,4.8954,0,7.8676,2.9722,8.2173,6.8187h-4.0212c-.3497-2.098-1.7484-3.3219-4.1961-3.3219-3.6716,0-5.42,3.1471-5.42,7.1683s2.0981,6.9935,5.5948,6.9935c2.4477,0,4.0213-1.3987,4.371-3.4967h4.0209c-.1745,1.7483-.8739,3.4967-2.2726,4.7206-1.5735,1.2239-3.4967,2.0981-6.2941,2.0981-5.5948,0-9.616-4.371-9.616-10.4902Z"/><path d="M76.048,63.3723c0-4.371,3.1471-7.6929,7.5184-7.6929,4.5458,0,7.5177,3.3219,7.5177,7.6929s-3.1471,7.6928-7.5177,7.6928-7.5184-3.3219-7.5184-7.6928Zm11.1897,0c0-2.7974-1.3987-4.7206-3.6712-4.7206-2.4477,0-3.672,1.9232-3.672,4.7206s1.2242,4.7206,3.672,4.7206,3.6712-1.9232,3.6712-4.7206Z"/><path d="M93.1822,50.4343h3.8464v20.1063h-3.8464v-20.1063Z"/><path d="M108.7439,70.5406v-1.7483c-1.049,1.3986-2.0981,2.098-4.1961,2.098-3.1471,0-5.0707-2.098-5.0707-5.2451v-9.4412h3.8464v8.9167c0,1.7484,.6994,2.6226,2.4477,2.6226s2.9726-1.3987,2.9726-3.3219v-8.2173h3.8464v14.5115h-3.8464v-.1748Z"/><path d="M115.0374,56.2042h3.6712v1.9232c.8746-1.3987,2.2733-2.2729,4.1961-2.2729,1.7484,0,3.3223,1.049,4.0216,2.4478,1.049-1.5736,2.4477-2.4478,4.3706-2.4478,2.9726,0,4.721,1.9232,4.721,5.0703v9.616h-3.8464v-9.0915c0-1.5735-.8746-2.4477-2.2733-2.4477-1.5732,0-2.6222,1.2239-2.6222,3.1471v8.3922h-3.672v-9.0915c0-1.5735-.8738-2.4477-2.2725-2.4477-1.5739,0-2.623,1.2239-2.623,3.1471v8.3922h-3.8464v-14.3366h.1752Z"/><path d="M142.3114,68.7922v1.7484h-3.672v-20.1063h3.8464v7.3431c.8746-1.2238,2.0981-2.098,4.0216-2.098,3.6712,0,6.2942,3.1471,6.2942,7.6929,0,4.7206-2.4477,7.6928-6.1197,7.6928-2.0981,0-3.4968-.8742-4.3706-2.2729Zm6.4686-5.4199c0-2.6226-1.049-4.5458-3.1471-4.5458-2.4477,0-3.3216,1.9232-3.3216,4.5458s1.3987,4.3709,3.4968,4.3709c1.9228,0,2.9719-1.5735,2.9719-4.3709Z"/><path d="M154.5508,50.4343h3.8464v3.4967h-3.8464v-3.4967Zm0,5.7696h3.8464v14.5115h-3.8464v-14.5115Z"/><path d="M169.5854,68.9672c-.8738,1.049-1.7484,1.9232-4.3706,1.9232-2.9726,0-5.0707-1.5735-5.0707-4.3709,0-3.1471,2.6229-4.1961,5.77-4.7206,2.4477-.3497,3.4968-.5245,3.4968-1.5735s-.8746-1.7483-2.4477-1.7483c-1.7484,0-2.623,.6993-2.7974,2.098h-3.3223c.1752-2.4477,1.9236-4.7206,6.2942-4.7206s6.1197,1.9232,6.1197,5.2451v7.3432c0,1.049,.1745,1.7483,.5241,1.9231v.1748h-3.6712c-.3497-.1748-.3497-.8742-.5249-1.5735Zm0-3.4967v-2.0981c-.6994,.3497-1.7484,.6994-2.6222,.8742-1.9236,.5245-2.9726,.8742-2.9726,2.2729s.8746,1.7484,2.2733,1.7484c2.0981,0,3.3216-1.3987,3.3216-2.7974Z"/><path d="M57.691,77.3591h8.9168c2.098,0,3.8464,.5245,4.8954,1.3987,1.049,1.049,1.5735,2.2729,1.5735,3.8464,0,2.0981-1.2239,3.3219-3.1471,4.0213,2.2729,.6994,3.6716,2.4477,3.6716,4.8955,0,1.9231-.5245,3.147-1.7484,4.196-1.2239,1.049-2.9723,1.5735-5.0702,1.5735h-9.2664v-19.9314h.1748Zm8.3922,8.0425c1.7483,0,2.9722-.8742,2.9722-2.4477s-1.049-2.4477-2.9722-2.4477h-4.5458v4.7206h4.5458v.1748Zm-4.371,8.7418h4.7206c1.9231,0,3.147-1.049,3.147-2.7973,0-1.9232-1.3986-2.9723-3.3219-2.9723h-4.5458v5.7696Z"/><path d="M84.9644,97.4655v-1.7484c-1.049,1.3987-2.0981,2.0981-4.1961,2.0981-3.1471,0-5.0699-2.0981-5.0699-5.2452v-9.616h3.8464v9.0915c0,1.7484,.6994,2.6226,2.4477,2.6226s2.9719-1.3987,2.9719-3.3219v-8.3922h3.672v14.3367h-3.672v.1748Z"/><path d="M90.3855,92.745h3.4968c.1745,1.5735,1.3987,2.4477,3.1471,2.4477s2.6222-.6994,2.6222-1.5735c0-1.3987-1.7484-1.5735-3.8464-1.9232-2.6222-.5245-5.0699-1.2239-5.0699-4.371s2.6222-4.5457,5.9445-4.5457c3.8464,0,5.9445,1.9232,6.119,4.7206h-3.4968c-.1745-1.5735-1.2235-2.098-2.7974-2.098s-2.4477,.5244-2.4477,1.5735c0,1.2239,1.9236,1.3987,4.0217,1.7484,2.4477,.5245,5.0699,1.2239,5.0699,4.5458,0,2.9722-2.4477,4.7206-6.119,4.7206-4.0217-.1748-6.4694-2.0981-6.6439-5.2451Z"/><path d="M105.0705,77.3591h3.8464v3.4968h-3.8464v-3.4968Zm0,5.5948h3.8464v14.3367h-3.8464v-14.3367Z"/><path d="M115.2118,85.0519c1.049-1.5735,2.4477-2.4477,4.3713-2.4477,2.9719,0,4.8955,2.2729,4.8955,5.42v9.4412h-3.8464v-8.9167c0-1.5735-.8746-2.6226-2.4477-2.6226-1.7484,0-2.9726,1.3987-2.9726,3.3219v8.2173h-3.8457v-14.3367h3.6712v1.9232h.1745Z"/><path d="M126.227,90.2973c0-4.1961,2.9719-7.518,7.168-7.518,4.721,0,7.1687,3.4967,7.1687,8.7418h-10.4903c.3497,2.2729,1.5732,3.6716,3.6712,3.6716,1.5739,0,2.4477-.6994,2.7974-1.7484h3.8464c-.5242,2.6225-2.7974,4.7206-6.4686,4.7206-4.8955-.3497-7.6929-3.6715-7.6929-7.8677Zm3.8464-1.5735h6.4686c-.1745-1.7484-1.3987-3.1471-3.1471-3.1471-1.9229,0-2.9719,1.2239-3.3216,3.1471Z"/><path d="M141.4383,92.745h3.4968c.1745,1.5735,1.3987,2.4477,3.1471,2.4477s2.6222-.6994,2.6222-1.5735c0-1.3987-1.7484-1.5735-3.8464-1.9232-2.6222-.5245-5.0699-1.2239-5.0699-4.371s2.6222-4.5457,5.9445-4.5457c3.8464,0,5.9445,1.9232,6.119,4.7206h-3.4968c-.1745-1.5735-1.2235-2.098-2.7974-2.098s-2.4477,.5244-2.4477,1.5735c0,1.2239,1.9236,1.3987,4.0217,1.7484,2.4477,.5245,5.0699,1.2239,5.0699,4.5458,0,2.9722-2.4477,4.7206-6.119,4.7206-4.0216-.1748-6.2942-2.0981-6.6438-5.2451Z"/><path d="M155.2494,92.745h3.4968c.1745,1.5735,1.3987,2.4477,3.1464,2.4477s2.623-.6994,2.623-1.5735c0-1.3987-1.7484-1.5735-3.8464-1.9232-2.6222-.5245-5.0699-1.2239-5.0699-4.371s2.6222-4.5457,5.9438-4.5457c3.8465,0,5.9445,1.9232,6.1197,4.7206h-3.4968c-.1752-1.5735-1.2242-2.098-2.7974-2.098s-2.4477,.5244-2.4477,1.5735c0,1.2239,1.9229,1.3987,4.0209,1.7484,2.4477,.5245,5.0707,1.2239,5.0707,4.5458,0,2.9722-2.4477,4.7206-6.1197,4.7206-4.0209-.1748-6.4686-2.0981-6.6431-5.2451Z"/><path d="M56.8163,118.0964h4.0213c.3497,2.4477,1.5735,3.3219,4.5458,3.3219,2.098,0,3.8464-.6994,3.8464-2.6226s-1.9232-2.4477-4.8954-3.1471c-3.6716-.8742-6.8187-1.7484-6.8187-5.9444,0-4.0213,3.1471-5.9445,7.6929-5.9445s7.518,2.2729,7.6928,6.2942h-3.8464c-.1748-2.0981-1.7484-2.9723-3.8464-2.9723-2.2729,0-3.6716,.8742-3.6716,2.4477s1.3987,2.0981,4.371,2.7974c4.196,.8741,7.518,1.9231,7.518,6.2941,0,4.0213-3.3219,6.2943-7.8676,6.2943-5.5948-.1752-8.7419-2.6226-8.7419-6.8188Z"/><path d="M74.8238,117.2223c0-4.371,2.7974-7.6929,7.1687-7.6929,3.6712,0,6.119,2.0981,6.4686,5.2452h-3.6712c-.1752-1.2239-1.2242-2.2729-2.6229-2.2729-2.2725,0-3.4968,1.7484-3.4968,4.5458s1.049,4.5457,3.4968,4.5457c1.5739,0,2.6229-.8742,2.9726-2.4477h3.4968c-.1752,3.1471-2.6229,5.5945-6.4694,5.5945-4.5458,0-7.3432-3.3216-7.3432-7.5177Z"/><path d="M94.232,111.8019c1.049-1.5735,2.2725-2.2729,4.1961-2.2729,2.9719,0,4.8955,2.2729,4.8955,5.42v9.4413h-3.8464v-8.9168c0-1.5735-.8746-2.6226-2.4477-2.6226-1.7484,0-2.9726,1.3987-2.9726,3.3219v8.2174h-3.6712v-20.1063h3.8464v7.518Z"/><path d="M105.2464,117.2223c0-4.371,3.1471-7.6929,7.5177-7.6929,4.5458,0,7.5184,3.3219,7.5184,7.6929s-3.1471,7.6929-7.5184,7.6929c-4.3706-.1752-7.5177-3.4968-7.5177-7.6929Zm11.1897,0c0-2.7974-1.3987-4.7206-3.672-4.7206-2.4477,0-3.6712,1.9232-3.6712,4.7206s1.2235,4.7206,3.6712,4.7206c2.4477-.1748,3.672-1.9232,3.672-4.7206Z"/><path d="M121.506,117.2223c0-4.371,3.1471-7.6929,7.5177-7.6929,4.5458,0,7.5184,3.3219,7.5184,7.6929s-3.1471,7.6929-7.5184,7.6929c-4.3706-.1752-7.5177-3.4968-7.5177-7.6929Zm11.1897,0c0-2.7974-1.3987-4.7206-3.672-4.7206-2.4477,0-3.6712,1.9232-3.6712,4.7206s1.2235,4.7206,3.6712,4.7206c2.4477-.1748,3.672-1.9232,3.672-4.7206Z"/><path d="M138.6394,104.2839h3.8464v20.1063h-3.8464v-20.1063Z"/><path class="b" d="M43.1793,74.9115l3.4968-3.4968H25.6956v-20.9805L1.2184,74.9115H22.1989v3.4967H11.5338l-3.4967,3.4968h14.1618v3.4967h-3.6715l-3.4968,3.4968h7.1683v6.9935l3.4968-3.4967v-3.4968h3.4968l3.4967-3.4968h-6.9935v-3.4967h10.4902l3.4968-3.4968h-13.987v-3.4967h17.4837Zm-33.5687-3.4968l12.5882-12.5883v12.5883H9.6107Z"/></svg>