<?xml version="1.0" encoding="utf-8"?>
<!-- Generator: Adobe Illustrator 26.4.1, SVG Export Plug-In . SVG Version: 6.00 Build 0)  -->
<svg version="1.1" id="Layer_1" xmlns="http://www.w3.org/2000/svg" xmlns:xlink="http://www.w3.org/1999/xlink" x="0px" y="0px"
	 viewBox="0 0 663 223" style="enable-background:new 0 0 663 223;" xml:space="preserve">
<style type="text/css">
	.st0{fill:#FFFFFF;}
	.st1{fill:url(#SVGID_1_);}
	.st2{fill:url(#SVGID_00000029744250753412458550000005462548761010447021_);}
	.st3{fill:url(#SVGID_00000010284077414847396290000007696370512906159807_);}
	.st4{fill:url(#SVGID_00000170977776548482149480000012804080407411858322_);}
	.st5{fill:url(#SVGID_00000020360208331698004100000001677503170528321431_);}
	.st6{fill:url(#SVGID_00000064319859812270406110000009257633012925492870_);}
	.st7{fill:url(#SVGID_00000114767532331753119870000013153965769618149548_);}
	.st8{fill:url(#SVGID_00000032634103015304318390000003729591339058929552_);}
	.st9{fill:url(#SVGID_00000011717986560572878990000007763032351049523604_);}
	.st10{fill:url(#SVGID_00000160873936830196573480000008402446830234055809_);}
	.st11{fill:url(#SVGID_00000140736380509688151530000007316135179693531310_);}
	.st12{fill:url(#SVGID_00000129924276267237553910000011058757965877324433_);}
	.st13{fill:url(#SVGID_00000088827739061061532880000011270843736325864345_);}
</style>
<path class="st0" d="M47.6,95.8h-2c-2.8,0-4.9-0.7-6.3-2c-1.4-1.3-2-2.8-2-4.3c0-1.6,0.6-2.7,1.7-3.3c1.1-0.7,2.5-1,4.2-1
	c0.5,0,1,0,1.6,0.1c0.6,0,1,0.1,1.4,0.2l0.5-4c-0.6-0.1-1.2-0.2-1.9-0.3c-0.7,0-1.4-0.1-2.1-0.1c-3,0-5.3,0.8-6.9,2.3
	c-1.6,1.6-2.4,3.4-2.4,5.5c0,0.9,0.2,2,0.7,3.3c0.5,1.2,1.3,2.5,2.6,3.6h-6.1v4.1h17.1L47.6,95.8L47.6,95.8z"/>
<path class="st0" d="M114,71.5c-1.3,0-2.4,0.5-3.3,1.4c-0.9,0.9-1.4,2-1.4,3.3s0.5,2.4,1.4,3.3c0.9,0.9,2,1.4,3.3,1.4
	c1.3,0,2.4-0.5,3.3-1.4c0.9-0.9,1.4-2,1.4-3.3s-0.5-2.4-1.4-3.3C116.4,72,115.3,71.5,114,71.5z"/>
<path class="st0" d="M103.8,125.9H90h-1.4h-1.1c-2.1,0-3.9-0.3-5.4-0.9c-1.5-0.6-2.6-1.5-3.5-2.5c-0.9-1.1-1.5-2.3-1.9-3.8
	c-0.4-1.4-0.6-3-0.6-4.8V61.5h-8v56.7c0,2.4-0.4,4.3-1.1,5.7c-0.7,1.4-2.4,2-5,2H13.8c-0.8,0-1.5-0.1-2.2-0.2s-1.3-0.5-1.9-1
	c-0.5-0.5-1-1.3-1.2-2.3c-0.3-1-0.4-2.3-0.4-4.1v-13.9H0v16.1c0,1.8,0.2,3.5,0.7,5.2c0.5,1.6,1.2,3.1,2.2,4.3c1,1.2,2.3,2.2,4,3
	c1.6,0.7,3.7,1.1,6.1,1.1h49.5c1.2,0,2.4-0.1,3.6-0.2c1.2-0.2,2.3-0.5,3.4-1.1c1.1-0.5,2.2-1.3,3.1-2.4c0.9-1,1.8-2.5,2.6-4.2
	c0.9,3,2.4,5.1,4.5,6.2c2.1,1.1,4.6,1.7,7.7,1.7h1.4H90h21.9V95.6h-8.1L103.8,125.9L103.8,125.9z"/>
<path class="st0" d="M100.5,80.9c1.3,0,2.4-0.5,3.3-1.4c0.9-0.9,1.4-2,1.4-3.3s-0.5-2.4-1.4-3.3c-0.9-0.9-2-1.4-3.3-1.4
	c-1.3,0-2.4,0.5-3.3,1.4c-0.9,0.9-1.4,2-1.4,3.3s0.5,2.4,1.4,3.3C98.2,80.5,99.3,80.9,100.5,80.9z"/>
<path class="st0" d="M133.9,122.6c-1.7,0-3.1,0.6-4.3,1.7c-1.2,1.2-1.8,2.6-1.8,4.3c0,1.7,0.6,3.1,1.9,4.3s2.7,1.8,4.2,1.8
	c1.6,0,3-0.6,4.2-1.8c1.2-1.2,1.9-2.6,1.9-4.3c0-1.7-0.6-3.1-1.8-4.3C137,123.2,135.6,122.6,133.9,122.6z"/>
<path class="st0" d="M181.2,80.9c1.3,0,2.4-0.5,3.3-1.4c0.9-0.9,1.4-2,1.4-3.3s-0.5-2.4-1.4-3.3c-0.9-0.9-2-1.4-3.3-1.4
	c-1.3,0-2.4,0.5-3.3,1.4c-0.9,0.9-1.4,2-1.4,3.3s0.5,2.4,1.4,3.3C178.9,80.5,179.9,80.9,181.2,80.9z"/>
<path class="st0" d="M194.7,80.9c1.3,0,2.4-0.5,3.3-1.4c0.9-0.9,1.4-2,1.4-3.3s-0.5-2.4-1.4-3.3c-0.9-0.9-2-1.4-3.3-1.4
	c-1.3,0-2.4,0.5-3.3,1.4c-0.9,0.9-1.4,2-1.4,3.3s0.5,2.4,1.4,3.3C192.3,80.5,193.4,80.9,194.7,80.9z"/>
<path class="st0" d="M215.3,125.9h-52c-2.6,0-4.5-0.5-5.6-1.5c-1.1-1-1.7-3-1.7-6.1v-13.9h-8v16.1c0,1.8,0.2,3.5,0.7,5.2
	c0.5,1.6,1.3,3.1,2.4,4.3c1.1,1.2,2.6,2.2,4.5,3c1.9,0.7,4.2,1.1,7.1,1.1h60.8V95.6h-8.1L215.3,125.9L215.3,125.9z"/>
<path class="st0" d="M247.2,61.5h-7.8v72.6h7.8V61.5z"/>
<path class="st0" d="M266.1,133.6c0,4.6-0.7,8.1-2.1,10.4c-1.4,2.3-4,3.4-7.9,3.4c-0.7,0-1.3,0-2-0.1c-0.7,0-1.4-0.1-2-0.2l-2.4-0.4
	c-0.1,1.3-0.3,2.6-0.5,3.9c-0.2,1.3-0.4,2.7-0.5,4.1c0.8,0.1,1.8,0.2,3.1,0.4c1.3,0.1,2.8,0.2,4.3,0.2c2.9,0,5.5-0.5,7.7-1.6
	c2.3-1.1,4.2-2.6,5.7-4.5c1.5-1.9,2.7-4.1,3.5-6.7c0.8-2.6,1.2-5.3,1.2-8.2V95.6h-8.1L266.1,133.6L266.1,133.6z"/>
<path class="st0" d="M361.5,80.9c1.3,0,2.4-0.5,3.3-1.4c0.9-0.9,1.4-2,1.4-3.3s-0.5-2.4-1.4-3.3c-0.9-0.9-2-1.4-3.3-1.4
	c-1.3,0-2.4,0.5-3.3,1.4c-0.9,0.9-1.4,2-1.4,3.3s0.5,2.4,1.4,3.3C359,80.5,360.1,80.9,361.5,80.9z"/>
<path class="st0" d="M374.9,80.9c1.3,0,2.4-0.5,3.3-1.4c0.9-0.9,1.4-2,1.4-3.3s-0.5-2.4-1.4-3.3c-0.9-0.9-2-1.4-3.3-1.4
	c-1.3,0-2.4,0.5-3.3,1.4c-0.9,0.9-1.4,2-1.4,3.3s0.5,2.4,1.4,3.3C372.6,80.5,373.6,80.9,374.9,80.9z"/>
<path class="st0" d="M385.8,102.8c-0.8-2.3-2-4.3-3.6-5.9c-1.6-1.7-3.4-3-5.6-3.9c-2.2-0.9-4.6-1.4-7.4-1.4c-3.2,0-6.2,0.6-8.8,1.8
	c-2.7,1.2-5,2.8-6.9,4.8c-1.9,1.9-3.4,4.2-4.5,6.8c-1,2.6-1.5,5.2-1.5,7.8c0,2.9,0.5,5.4,1.4,7.7c1,2.2,2.2,4.1,3.7,5.4h-15.5h-1.4
	h-0.9c-4.1,0-7.1-1.1-9-3.3c-1.9-2.2-2.8-5.5-2.8-10c0-3-0.3-5.8-1-8.4c-0.7-2.6-1.8-4.8-3.3-6.7c-1.6-1.9-3.6-3.4-6.2-4.5
	c-2.6-1.1-5.8-1.6-9.6-1.6h-10.5v7.8h8.1c3.4,0,6.1,0.4,8.1,1.2c2,0.8,3.4,1.9,4.5,3.5c1,1.6,1.6,3.5,1.9,6c0.2,2.4,0.4,5.3,0.4,8.5
	c0,2.5-0.5,4.4-1.4,5.6c-0.9,1.2-2.6,1.8-5,1.8h-22.3v8.2h23.2c1.3,0,2.6-0.2,4-0.5c1.4-0.3,2.6-0.8,3.7-1.5c1.1-0.7,2.1-1.6,3-2.7
	c0.9-1.1,1.5-2.4,1.9-3.9c0.4,1.8,1,3.2,1.8,4.3c0.8,1.1,1.8,2,2.9,2.6c1.1,0.6,2.3,1,3.6,1.2c1.3,0.2,2.6,0.4,4,0.4h1.1h1.4H387
	v-23.6C387,107.6,386.6,105.1,385.8,102.8z M378.9,125.9h-11.5c-2.4-0.3-4.4-1-6-2c-1.6-0.8-3-2.1-4.2-3.9c-1.2-1.8-1.8-4.2-1.8-7.3
	c0-2,0.4-3.8,1.1-5.5c0.7-1.6,1.6-3,2.8-4.2c1.2-1.2,2.5-2.1,4-2.7c1.5-0.6,3.1-0.9,4.7-0.9c1.9,0,3.6,0.3,4.9,1
	c1.4,0.6,2.5,1.5,3.4,2.5c0.9,1,1.5,2.2,1.9,3.4c0.4,1.3,0.6,2.5,0.6,3.7V125.9z"/>
<path class="st0" d="M76.1,180c0.6,0,1.2-0.2,1.6-0.7c0.4-0.4,0.7-1,0.7-1.6s-0.2-1.2-0.7-1.6c-0.4-0.5-1-0.7-1.6-0.7
	c-0.6,0-1.2,0.2-1.6,0.7c-0.4,0.5-0.7,1-0.7,1.6s0.2,1.2,0.7,1.6C75,179.7,75.5,180,76.1,180z"/>
<path class="st0" d="M69.5,180c0.6,0,1.2-0.2,1.6-0.7c0.5-0.4,0.7-1,0.7-1.6s-0.2-1.2-0.7-1.6c-0.5-0.5-1-0.7-1.6-0.7
	c-0.6,0-1.1,0.2-1.6,0.7c-0.5,0.5-0.7,1-0.7,1.6s0.2,1.2,0.7,1.6S68.9,180,69.5,180z"/>
<path class="st0" d="M104,211.6c-0.6,0-1.2,0.2-1.6,0.7c-0.4,0.4-0.7,1-0.7,1.6c0,0.6,0.2,1.1,0.7,1.6c0.4,0.4,1,0.7,1.6,0.7
	c0.6,0,1.2-0.2,1.6-0.7c0.5-0.4,0.7-1,0.7-1.6c0-0.6-0.2-1.2-0.7-1.6C105.2,211.9,104.7,211.6,104,211.6z"/>
<path class="st0" d="M97.4,211.6c-0.6,0-1.2,0.2-1.6,0.7c-0.4,0.4-0.7,1-0.7,1.6c0,0.6,0.2,1.1,0.7,1.6c0.4,0.4,1,0.7,1.6,0.7
	c0.6,0,1.2-0.2,1.6-0.7c0.4-0.4,0.7-1,0.7-1.6c0-0.6-0.2-1.2-0.7-1.6C98.6,211.9,98.1,211.6,97.4,211.6z"/>
<path class="st0" d="M152,180c0.6,0,1.2-0.2,1.6-0.7c0.5-0.4,0.7-1,0.7-1.6s-0.2-1.2-0.7-1.6c-0.5-0.5-1-0.7-1.6-0.7
	c-0.6,0-1.2,0.2-1.6,0.7c-0.4,0.5-0.7,1-0.7,1.6s0.2,1.2,0.7,1.6C150.8,179.7,151.4,180,152,180z"/>
<path class="st0" d="M158.6,180c0.6,0,1.2-0.2,1.6-0.7c0.4-0.4,0.7-1,0.7-1.6s-0.2-1.2-0.7-1.6c-0.4-0.5-1-0.7-1.6-0.7
	c-0.6,0-1.2,0.2-1.6,0.7c-0.5,0.5-0.7,1-0.7,1.6s0.2,1.2,0.7,1.6C157.4,179.7,158,180,158.6,180z"/>
<path class="st0" d="M164.5,194.4c0-1.4-0.2-2.6-0.6-3.8c-0.4-1.1-1-2.1-1.7-2.9c-0.8-0.8-1.7-1.4-2.7-1.9c-1.1-0.4-2.3-0.7-3.6-0.7
	c-1.6,0-3,0.3-4.3,0.9s-2.4,1.4-3.4,2.3c-0.9,0.9-1.7,2-2.2,3.3c-0.5,1.3-0.8,2.5-0.8,3.8c0,1.4,0.2,2.6,0.7,3.7
	c0.5,1.1,1.1,2,1.8,2.7h-7.5h-0.7H139c-1.3,0-2.3-0.2-3.1-0.6c-0.7-0.4-1.3-0.9-1.7-1.4c-0.4-0.5-0.6-1.1-0.7-1.7
	c-0.1-0.6-0.2-1.1-0.2-1.5c0-3.6-0.8-6.4-2.5-8.4c-1.7-2-4-3-7-3c-1.4,0-2.8,0.3-4,0.8c-1.2,0.5-2.2,1.3-3.1,2.2
	c-0.9,0.9-1.5,2.1-2,3.4c-0.5,1.3-0.7,2.7-0.7,4.2c0,1.2-0.1,2.2-0.4,3c-0.2,0.8-0.6,1.4-1,1.8c-0.4,0.4-0.8,0.7-1.3,0.9
	c-0.5,0.2-1,0.2-1.6,0.2h-0.6h-0.7h-0.4c-1,0-1.9-0.2-2.7-0.5c-0.7-0.3-1.3-0.7-1.8-1.2c-0.5-0.5-0.8-1.1-0.9-1.8
	c-0.2-0.7-0.3-1.5-0.3-2.3v-8.9h-3.9v11c0,1.2-0.2,2.1-0.6,2.7c-0.4,0.7-1.2,1-2.4,1h-3.5h-0.7H86h-0.7H82v-7.3
	c0-1.4-0.2-2.7-0.7-3.8s-1-2.2-1.8-3c-0.8-0.8-1.7-1.5-2.8-1.9c-1.1-0.5-2.4-0.7-3.8-0.7c-1.5,0-2.8,0.3-4,0.9
	c-1.2,0.6-2.3,1.4-3.2,2.4c-0.9,1-1.6,2.2-2.1,3.6c-0.5,1.4-0.8,2.8-0.8,4.3c0,1.1,0.2,2.3,0.6,3.4c0.4,1.1,1,2.2,1.8,3
	c0.8,0.9,1.9,1.6,3.3,2.2c1.4,0.6,3,0.8,5,0.8h11.8H86h5.3h0.7h3.8c0.6,0,1.3,0,1.9-0.1c0.6-0.1,1.2-0.3,1.7-0.5
	c0.5-0.3,1-0.7,1.4-1.2c0.4-0.5,0.8-1.2,1.2-2c0.4,1.4,1.1,2.4,2.2,3c1.1,0.6,2.3,0.9,3.8,0.9h0.5h0.7h0.9c1,0,2.1-0.3,3.1-1
	c1-0.7,1.7-1.7,2.2-3.1c0.9,1.5,2,2.6,3.3,3.3s2.9,1.1,4.8,1.1c0.8,0,1.5,0,2.3-0.1c0.7-0.1,1.5-0.3,2.2-0.6
	c0.7-0.3,1.4-0.8,2.1-1.4c0.7-0.6,1.3-1.5,2-2.5c0.2,0.9,0.6,1.6,1,2.2c0.5,0.6,1,1,1.6,1.4c0.6,0.3,1.2,0.6,1.9,0.7
	s1.4,0.2,2.1,0.2h0.6h0.7h24.3L164.5,194.4L164.5,194.4z M78.1,201.9h-4.7c-0.9,0-1.7-0.1-2.5-0.4c-0.8-0.2-1.5-0.6-2.1-1.1
	c-0.6-0.5-1.1-1.2-1.5-2c-0.4-0.8-0.5-1.8-0.5-3c0-1,0.2-1.9,0.5-2.7c0.3-0.8,0.8-1.5,1.3-2.1c0.6-0.6,1.2-1,1.9-1.3
	c0.7-0.3,1.4-0.4,2.2-0.4c1.8,0,3.2,0.6,4.1,1.9c0.9,1.3,1.4,3,1.4,5.4L78.1,201.9L78.1,201.9z M129.4,198.4
	c-0.2,0.7-0.6,1.4-1.1,1.9c-0.5,0.6-1.1,1-1.8,1.3c-0.8,0.3-1.6,0.5-2.6,0.5c-1,0-1.9-0.2-2.7-0.5c-0.7-0.3-1.3-0.8-1.8-1.3
	c-0.5-0.6-0.9-1.2-1.1-1.9c-0.2-0.7-0.3-1.5-0.3-2.4c0-1.1,0.2-2,0.5-2.9c0.3-0.9,0.7-1.6,1.3-2.2c0.5-0.6,1.2-1.1,1.9-1.4
	c0.7-0.3,1.5-0.5,2.3-0.5c0.7,0,1.5,0.2,2.2,0.5c0.7,0.3,1.3,0.8,1.9,1.4c0.5,0.6,1,1.3,1.3,2.2c0.3,0.9,0.5,1.8,0.5,2.9
	C129.7,196.9,129.6,197.7,129.4,198.4z M160.5,201.9h-5.6c-1.2-0.2-2.1-0.5-2.9-1c-0.8-0.4-1.4-1-2-1.9c-0.6-0.9-0.9-2.1-0.9-3.6
	c0-1,0.2-1.9,0.5-2.7c0.3-0.8,0.8-1.5,1.4-2.1s1.2-1,2-1.3c0.7-0.3,1.5-0.4,2.3-0.4c0.9,0,1.7,0.2,2.4,0.5c0.7,0.3,1.2,0.7,1.6,1.2
	c0.4,0.5,0.7,1.1,0.9,1.7c0.2,0.6,0.3,1.2,0.3,1.8L160.5,201.9L160.5,201.9z"/>
<path class="st0" d="M194.2,201.9h-5.6h-0.7h-5.3h-0.7h-0.4c-1.1,0-2-0.1-2.7-0.5c-0.7-0.3-1.3-0.7-1.8-1.2s-0.8-1.1-0.9-1.8
	c-0.2-0.7-0.3-1.5-0.3-2.3v-8.9h-3.9v18.6c0,2.3-0.3,4-1,5.1c-0.7,1.1-2,1.7-3.9,1.7c-0.3,0-0.7,0-1,0c-0.4,0-0.7-0.1-1-0.1
	l-1.2-0.2l-0.4,3.9c0.4,0.1,0.9,0.1,1.5,0.2c0.6,0.1,1.3,0.1,2.1,0.1c1.4,0,2.7-0.3,3.8-0.8c1.1-0.5,2-1.2,2.8-2.2
	c0.7-0.9,1.3-2,1.7-3.3c0.4-1.2,0.6-2.6,0.6-4v-3.7c0.3,0.8,0.6,1.4,1.1,1.9s0.9,0.8,1.5,1.1c0.5,0.3,1.1,0.4,1.6,0.5
	c0.6,0.1,1.1,0.1,1.7,0.1h0.2h0.7h5.3h0.7h9.6v-35.5h-3.9L194.2,201.9L194.2,201.9z"/>
<path class="st0" d="M209.8,170.5H206v35.5h3.8V170.5z"/>
<path class="st0" d="M257.3,201.9h-25.4c-1.3,0-2.2-0.2-2.7-0.7c-0.5-0.5-0.8-1.5-0.8-3v-6.8h-3.9v7.9c0,0.9,0.1,1.7,0.3,2.5
	c0.2,0.8,0.6,1.5,1.2,2.1c0.5,0.6,1.3,1.1,2.2,1.5c0.9,0.4,2.1,0.5,3.5,0.5h29.7v-18.8h-4L257.3,201.9L257.3,201.9z"/>
<path class="st0" d="M247.2,180c0.6,0,1.2-0.2,1.6-0.7c0.4-0.4,0.7-1,0.7-1.6s-0.2-1.2-0.7-1.6c-0.4-0.5-1-0.7-1.6-0.7
	c-0.6,0-1.2,0.2-1.6,0.7c-0.4,0.5-0.7,1-0.7,1.6s0.2,1.2,0.7,1.6C246,179.7,246.6,180,247.2,180z"/>
<path class="st0" d="M240.6,180c0.6,0,1.2-0.2,1.6-0.7s0.7-1,0.7-1.6s-0.2-1.2-0.7-1.6c-0.4-0.5-1-0.7-1.6-0.7
	c-0.6,0-1.1,0.2-1.6,0.7c-0.4,0.5-0.7,1-0.7,1.6s0.2,1.2,0.7,1.6C239.5,179.7,240,180,240.6,180z"/>
<path class="st0" d="M272.9,170.5h-3.8v35.5h3.8V170.5z"/>
<path class="st0" d="M282.2,205.7c0,2.3-0.3,4-1,5.1c-0.7,1.1-2,1.7-3.9,1.7c-0.3,0-0.7,0-1,0c-0.3,0-0.7-0.1-1-0.1l-1.2-0.2
	c-0.1,0.6-0.1,1.3-0.2,1.9c-0.1,0.6-0.2,1.3-0.3,2c0.4,0.1,0.9,0.1,1.5,0.2c0.6,0.1,1.3,0.1,2.1,0.1c1.4,0,2.7-0.3,3.8-0.8
	c1.1-0.5,2-1.2,2.8-2.2c0.8-0.9,1.3-2,1.7-3.3c0.4-1.2,0.6-2.6,0.6-4v-19h-4V205.7z"/>
<path class="st0" d="M371.4,201.9h-5.6H365h-5.3H359h-0.5c-1.3,0-2.3-0.2-3.1-0.6c-0.7-0.4-1.3-0.9-1.7-1.4
	c-0.4-0.5-0.6-1.1-0.7-1.7c-0.1-0.6-0.2-1.1-0.2-1.5c0-3.6-0.8-6.4-2.5-8.4c-1.7-2-4-3-7-3c-1.4,0-2.8,0.3-4,0.8
	c-1.2,0.5-2.2,1.3-3.1,2.2c-0.9,0.9-1.5,2.1-2,3.4c-0.5,1.3-0.7,2.7-0.7,4.2c0,1.2-0.1,2.2-0.4,3c-0.2,0.8-0.6,1.4-1,1.8
	c-0.4,0.4-0.8,0.7-1.3,0.9c-0.5,0.2-1,0.2-1.6,0.2h-0.6h-0.7h-7.5c0.4-0.5,0.8-1,1.2-1.6c0.4-0.6,0.7-1.3,1-2.1s0.6-1.5,0.7-2.3
	c0.2-0.8,0.3-1.6,0.3-2.3c0-2.7-0.7-4.8-2.1-6.2c-1.4-1.5-3.3-2.2-5.6-2.2c-1.3,0-2.5,0.3-3.7,0.8c-1.2,0.5-2.2,1.4-3,2.5
	c-0.9,1.1-1.6,2.4-2.1,4c-0.5,1.6-0.8,3.4-0.8,5.5v4h-4.9h-0.6h-3.2v-31.5h-3.9v35.5h7.1h0.6h5.1v5.9c0,1.4,0.2,2.7,0.5,4
	c0.4,1.3,0.9,2.5,1.7,3.5c0.8,1,1.7,1.8,3,2.4c1.2,0.6,2.7,0.9,4.5,0.9c1.3,0,2.5-0.2,3.5-0.7c1-0.5,1.9-1.1,2.7-1.9
	c0.7-0.8,1.3-1.8,1.7-2.9c0.4-1.1,0.6-2.3,0.6-3.6c0-1.1-0.3-2.3-0.8-3.6c-0.5-1.4-1.5-2.7-2.8-4.1h6.9h0.7h0.9c1,0,2.1-0.3,3.1-1
	c1-0.7,1.7-1.7,2.2-3.1c0.9,1.5,2,2.6,3.3,3.3c1.3,0.7,2.9,1.1,4.8,1.1c0.8,0,1.5,0,2.3-0.1c0.7-0.1,1.5-0.3,2.2-0.6
	c0.7-0.3,1.4-0.8,2.1-1.4c0.7-0.6,1.3-1.5,2-2.5c0.2,0.9,0.6,1.6,1,2.2c0.5,0.6,1,1,1.6,1.4c0.6,0.3,1.2,0.6,1.9,0.7
	s1.4,0.2,2.1,0.2h0.6h0.7h5.3h0.7h9.6v-35.5h-3.9L371.4,201.9L371.4,201.9z M310,198.7c0-2,0.2-3.7,0.6-5c0.4-1.3,0.8-2.3,1.4-3
	c0.6-0.7,1.2-1.2,1.8-1.5c0.7-0.3,1.3-0.4,1.8-0.4c1.4,0,2.6,0.5,3.5,1.5c0.9,1,1.3,2.3,1.3,4c0,1-0.1,2-0.4,2.9
	c-0.3,0.9-0.6,1.7-1,2.4c-0.4,0.7-0.9,1.2-1.5,1.6c-0.6,0.4-1.1,0.6-1.7,0.6H310L310,198.7L310,198.7z M321.5,214.1
	c0,0.7-0.1,1.3-0.4,1.9c-0.3,0.6-0.6,1.2-1,1.6c-0.4,0.5-1,0.8-1.6,1.1c-0.6,0.3-1.3,0.4-2,0.4c-0.7,0-1.4-0.1-2.2-0.4
	c-0.8-0.3-1.4-0.7-2.1-1.3c-0.6-0.6-1.1-1.4-1.5-2.4c-0.4-1-0.6-2.2-0.6-3.7v-5.4h6.2c0.7,0.5,1.3,1.1,2,1.8
	c0.6,0.7,1.2,1.4,1.6,2.1c0.5,0.7,0.8,1.5,1.1,2.2C321.4,212.8,321.5,213.5,321.5,214.1z M349,198.4c-0.2,0.7-0.6,1.4-1.1,1.9
	c-0.5,0.6-1.1,1-1.8,1.3c-0.8,0.3-1.6,0.5-2.6,0.5c-1,0-1.9-0.2-2.7-0.5c-0.7-0.3-1.4-0.8-1.8-1.3c-0.5-0.6-0.9-1.2-1.1-1.9
	c-0.2-0.7-0.3-1.5-0.3-2.4c0-1.1,0.2-2,0.5-2.9c0.3-0.9,0.7-1.6,1.3-2.2c0.5-0.6,1.2-1.1,1.9-1.4s1.5-0.5,2.3-0.5
	c0.7,0,1.5,0.2,2.2,0.5s1.3,0.8,1.9,1.4c0.5,0.6,1,1.3,1.3,2.2c0.3,0.9,0.5,1.8,0.5,2.9C349.3,196.9,349.2,197.7,349,198.4z"/>
<path class="st0" d="M387,170.5h-3.8v35.5h3.8V170.5z"/>
<linearGradient id="SVGID_1_" gradientUnits="userSpaceOnUse" x1="650.418" y1="213.1836" x2="650.418" y2="40.2" gradientTransform="matrix(1 0 0 -1 0 223)">
	<stop  offset="0" style="stop-color:#29B3B4"/>
	<stop  offset="0.2747" style="stop-color:#0F92B5"/>
	<stop  offset="0.4756" style="stop-color:#007EB5"/>
	<stop  offset="1" style="stop-color:#6F4B99"/>
</linearGradient>
<path class="st1" d="M650.4,91.9c6.6,0,11.9-5.3,11.9-11.9c0-6.6-5.3-11.9-11.9-11.9c-6.6,0-11.9,5.3-11.9,11.9
	C638.5,86.5,643.9,91.9,650.4,91.9z"/>
<linearGradient id="SVGID_00000180351898793873581430000007143677652812345231_" gradientUnits="userSpaceOnUse" x1="602.181" y1="213.1836" x2="602.181" y2="40.2" gradientTransform="matrix(1 0 0 -1 0 223)">
	<stop  offset="0" style="stop-color:#29B3B4"/>
	<stop  offset="0.2747" style="stop-color:#0F92B5"/>
	<stop  offset="0.4756" style="stop-color:#007EB5"/>
	<stop  offset="1" style="stop-color:#6F4B99"/>
</linearGradient>
<path style="fill:url(#SVGID_00000180351898793873581430000007143677652812345231_);" d="M602.2,43.1c6.6,0,11.9-5.3,11.9-11.9
	c0-6.6-5.3-11.9-11.9-11.9c-6.6,0-11.9,5.3-11.9,11.9C590.3,37.8,595.6,43.1,602.2,43.1z"/>
<linearGradient id="SVGID_00000145032546542233727420000003626435046754076548_" gradientUnits="userSpaceOnUse" x1="504.104" y1="213.1836" x2="504.104" y2="40.2" gradientTransform="matrix(1 0 0 -1 0 223)">
	<stop  offset="0" style="stop-color:#29B3B4"/>
	<stop  offset="0.2747" style="stop-color:#0F92B5"/>
	<stop  offset="0.4756" style="stop-color:#007EB5"/>
	<stop  offset="1" style="stop-color:#6F4B99"/>
</linearGradient>
<path style="fill:url(#SVGID_00000145032546542233727420000003626435046754076548_);" d="M504.1,43.1c6.6,0,11.9-5.3,11.9-11.9
	c0-6.6-5.3-11.9-11.9-11.9c-6.6,0-11.9,5.3-11.9,11.9C492.2,37.8,497.5,43.1,504.1,43.1z"/>
<linearGradient id="SVGID_00000040535020852460898500000004203428671319167926_" gradientUnits="userSpaceOnUse" x1="553.16" y1="213.1848" x2="553.16" y2="40.193" gradientTransform="matrix(1 0 0 -1 0 223)">
	<stop  offset="0" style="stop-color:#29B3B4"/>
	<stop  offset="0.2747" style="stop-color:#0F92B5"/>
	<stop  offset="0.4756" style="stop-color:#007EB5"/>
	<stop  offset="1" style="stop-color:#6F4B99"/>
</linearGradient>
<path style="fill:url(#SVGID_00000040535020852460898500000004203428671319167926_);" d="M553.2,23.8c6.6,0,11.9-5.3,11.9-11.9
	C565,5.3,559.7,0,553.2,0c-6.6,0-11.9,5.3-11.9,11.9C541.3,18.5,546.6,23.8,553.2,23.8z"/>
<linearGradient id="SVGID_00000007396454563473697840000004999606549905580198_" gradientUnits="userSpaceOnUse" x1="625.6136" y1="213.1836" x2="625.6136" y2="40.2" gradientTransform="matrix(1 0 0 -1 0 223)">
	<stop  offset="0" style="stop-color:#29B3B4"/>
	<stop  offset="0.2747" style="stop-color:#0F92B5"/>
	<stop  offset="0.4756" style="stop-color:#007EB5"/>
	<stop  offset="1" style="stop-color:#6F4B99"/>
</linearGradient>
<path style="fill:url(#SVGID_00000007396454563473697840000004999606549905580198_);" d="M604.1,164.9c-3,0-5.4-2.4-5.4-5.4v-47.1
	c0-1.8,0.9-3.4,2.3-4.4l43-30.1c2.5-1.7,5.8-1.1,7.6,1.3c1.7,2.5,1.1,5.8-1.3,7.6l-40.6,28.4v44.2
	C609.6,162.5,607.1,164.9,604.1,164.9z"/>
<linearGradient id="SVGID_00000035497976148717997630000016390679754808844967_" gradientUnits="userSpaceOnUse" x1="580.0936" y1="213.1837" x2="580.0936" y2="40.2" gradientTransform="matrix(1 0 0 -1 0 223)">
	<stop  offset="0" style="stop-color:#29B3B4"/>
	<stop  offset="0.2747" style="stop-color:#0F92B5"/>
	<stop  offset="0.4756" style="stop-color:#007EB5"/>
	<stop  offset="1" style="stop-color:#6F4B99"/>
</linearGradient>
<path style="fill:url(#SVGID_00000035497976148717997630000016390679754808844967_);" d="M553.1,70.4c-1.7,0-3.4-0.8-4.4-2.3
	c-1.7-2.5-1.1-5.8,1.3-7.6l53.9-37.7c2.5-1.7,5.8-1.1,7.6,1.3c1.7,2.5,1.1,5.8-1.3,7.6l-53.9,37.7C555.3,70.1,554.2,70.4,553.1,70.4
	z"/>
<linearGradient id="SVGID_00000011747388296395912890000010846850980078177156_" gradientUnits="userSpaceOnUse" x1="506.0286" y1="213.1837" x2="506.0286" y2="40.202" gradientTransform="matrix(1 0 0 -1 0 223)">
	<stop  offset="0" style="stop-color:#29B3B4"/>
	<stop  offset="0.2747" style="stop-color:#0F92B5"/>
	<stop  offset="0.4756" style="stop-color:#007EB5"/>
	<stop  offset="1" style="stop-color:#6F4B99"/>
</linearGradient>
<path style="fill:url(#SVGID_00000011747388296395912890000010846850980078177156_);" d="M537.3,191.3c-3,0-5.4-2.4-5.4-5.4V98.4
	l-60.3-42.3c-2.5-1.7-3.1-5.1-1.3-7.6c1.7-2.5,5.1-3.1,7.6-1.3l62.6,43.9c1.4,1,2.3,2.7,2.3,4.4v90.2
	C542.7,188.8,540.3,191.3,537.3,191.3z"/>
<linearGradient id="SVGID_00000158025546748647880900000007839334514597631891_" gradientUnits="userSpaceOnUse" x1="455.843" y1="213.1836" x2="455.843" y2="40.2" gradientTransform="matrix(1 0 0 -1 0 223)">
	<stop  offset="0" style="stop-color:#29B3B4"/>
	<stop  offset="0.2747" style="stop-color:#0F92B5"/>
	<stop  offset="0.4756" style="stop-color:#007EB5"/>
	<stop  offset="1" style="stop-color:#6F4B99"/>
</linearGradient>
<path style="fill:url(#SVGID_00000158025546748647880900000007839334514597631891_);" d="M455.8,91.9c6.6,0,11.9-5.3,11.9-11.9
	c0-6.6-5.3-11.9-11.9-11.9c-6.6,0-11.9,5.3-11.9,11.9C444,86.5,449.3,91.9,455.8,91.9z"/>
<linearGradient id="SVGID_00000152948394318952151260000004444700686307363465_" gradientUnits="userSpaceOnUse" x1="536.756" y1="213.1834" x2="536.756" y2="40.2" gradientTransform="matrix(1 0 0 -1 0 223)">
	<stop  offset="0" style="stop-color:#29B3B4"/>
	<stop  offset="0.2747" style="stop-color:#0F92B5"/>
	<stop  offset="0.4756" style="stop-color:#007EB5"/>
	<stop  offset="1" style="stop-color:#6F4B99"/>
</linearGradient>
<path style="fill:url(#SVGID_00000152948394318952151260000004444700686307363465_);" d="M536.8,197.4c6.6,0,11.9-5.3,11.9-11.9
	s-5.3-11.9-11.9-11.9c-6.6,0-11.9,5.3-11.9,11.9S530.2,197.4,536.8,197.4z"/>
<linearGradient id="SVGID_00000173121907379607510850000009028450864904288658_" gradientUnits="userSpaceOnUse" x1="480.6619" y1="213.1859" x2="480.6619" y2="40.2" gradientTransform="matrix(1 0 0 -1 0 223)">
	<stop  offset="0" style="stop-color:#29B3B4"/>
	<stop  offset="0.2747" style="stop-color:#0F92B5"/>
	<stop  offset="0.4756" style="stop-color:#007EB5"/>
	<stop  offset="1" style="stop-color:#6F4B99"/>
</linearGradient>
<path style="fill:url(#SVGID_00000173121907379607510850000009028450864904288658_);" d="M502.1,164.9c-3,0-5.4-2.4-5.4-5.4v-44.2
	l-40.6-28.4c-2.5-1.7-3.1-5.1-1.3-7.6c1.7-2.5,5.1-3.1,7.6-1.3l42.9,30.1c1.4,1,2.3,2.7,2.3,4.4v47
	C507.5,162.5,505.1,164.9,502.1,164.9z"/>
<linearGradient id="SVGID_00000047756170994487168950000004676681604691078812_" gradientUnits="userSpaceOnUse" x1="526.1795" y1="213.1837" x2="526.1795" y2="40.2" gradientTransform="matrix(1 0 0 -1 0 223)">
	<stop  offset="0" style="stop-color:#29B3B4"/>
	<stop  offset="0.2747" style="stop-color:#0F92B5"/>
	<stop  offset="0.4756" style="stop-color:#007EB5"/>
	<stop  offset="1" style="stop-color:#6F4B99"/>
</linearGradient>
<path style="fill:url(#SVGID_00000047756170994487168950000004676681604691078812_);" d="M553.1,70.4c-1.1,0-2.2-0.3-3.1-1
	l-53.9-37.7c-2.5-1.7-3.1-5.1-1.3-7.6c1.7-2.5,5.1-3.1,7.6-1.3l53.9,37.7c2.5,1.7,3.1,5.1,1.3,7.6C556.5,69.6,554.8,70.4,553.1,70.4
	z"/>
<linearGradient id="SVGID_00000131366068008054403760000004039353323922549667_" gradientUnits="userSpaceOnUse" x1="600.1614" y1="213.1837" x2="600.1614" y2="40.202" gradientTransform="matrix(1 0 0 -1 0 223)">
	<stop  offset="0" style="stop-color:#29B3B4"/>
	<stop  offset="0.2747" style="stop-color:#0F92B5"/>
	<stop  offset="0.4756" style="stop-color:#007EB5"/>
	<stop  offset="1" style="stop-color:#6F4B99"/>
</linearGradient>
<path style="fill:url(#SVGID_00000131366068008054403760000004039353323922549667_);" d="M568.9,191.3c3,0,5.4-2.4,5.4-5.4V98.4
	l60.3-42.3c2.5-1.7,3.1-5.1,1.3-7.6c-1.7-2.5-5.1-3.1-7.6-1.3l-62.6,43.9c-1.4,1-2.3,2.7-2.3,4.4v90.2
	C563.4,188.8,565.9,191.3,568.9,191.3z"/>
<linearGradient id="SVGID_00000067930094785507938370000010697485587317953166_" gradientUnits="userSpaceOnUse" x1="569.457" y1="213.1834" x2="569.457" y2="40.2" gradientTransform="matrix(1 0 0 -1 0 223)">
	<stop  offset="0" style="stop-color:#29B3B4"/>
	<stop  offset="0.2747" style="stop-color:#0F92B5"/>
	<stop  offset="0.4756" style="stop-color:#007EB5"/>
	<stop  offset="1" style="stop-color:#6F4B99"/>
</linearGradient>
<path style="fill:url(#SVGID_00000067930094785507938370000010697485587317953166_);" d="M569.5,197.4c6.6,0,11.9-5.3,11.9-11.9
	s-5.3-11.9-11.9-11.9c-6.6,0-11.9,5.3-11.9,11.9S562.9,197.4,569.5,197.4z"/>
</svg>
