<?xml version="1.0" encoding="UTF-8"?><svg id="a" xmlns="http://www.w3.org/2000/svg" width="175" height="175" xmlns:xlink="http://www.w3.org/1999/xlink" viewBox="0 0 175 175"><defs><style>.d{fill:url(#c);}.e{fill:url(#b);}.f{fill:#545454;}</style><linearGradient id="b" x1="-45.2238" y1="119.2621" x2="-29" y2="119.2621" gradientTransform="translate(204 206.5) scale(1 -1)" gradientUnits="userSpaceOnUse"><stop offset="0" stop-color="#2b7542"/><stop offset=".03" stop-color="#2c7944"/><stop offset=".26" stop-color="#369453"/><stop offset=".5" stop-color="#3da75e"/><stop offset=".74" stop-color="#42b264"/><stop offset="1" stop-color="#43b666"/></linearGradient><linearGradient id="c" x1="-61.4187" y1="119.1315" x2="-45.1897" y2="119.1315" gradientTransform="translate(204 206.5) scale(1 -1)" gradientUnits="userSpaceOnUse"><stop offset="0" stop-color="#57259c"/><stop offset=".23" stop-color="#542497"/><stop offset=".5" stop-color="#4b2089"/><stop offset=".78" stop-color="#3d1972"/><stop offset="1" stop-color="#2f135b"/></linearGradient></defs><path class="f" d="M41.8978,104.5118c-.1714,.0029-.3416-.0279-.5009-.0909-.1594-.0629-.3049-.1567-.428-.2759s-.2215-.2615-.2895-.4188c-.068-.1574-.1043-.3265-.1069-.4978v-.9765h-.0377c-.7131,.8534-1.5872,1.5582-2.5723,2.0743-1.2132,.5839-2.5509,.8617-3.8963,.8091-1.2309,.018-2.4522-.2196-3.5866-.6975-1.0286-.4317-1.9479-1.0875-2.691-1.9195-.7624-.8335-1.3459-1.8144-1.7145-2.8821-.402-1.1742-.6001-2.4084-.5859-3.6494v-14.6797c0-.3463,.1374-.6783,.3819-.9233,.2445-.2451,.5762-.3831,.9224-.3838h3.1416c.1714-.0028,.3416,.0283,.5011,.0914,.1594,.063,.3047,.157,.4278,.2763s.2215,.2618,.2895,.4191c.068,.1574,.1043,.3266,.1069,.498v13.3545c-.0587,1.3823,.3388,2.7455,1.1313,3.8795,.4212,.5109,.961,.9111,1.5723,1.1657,.6113,.2546,1.2755,.3558,1.9348,.2949,.6448,.0321,1.2884-.0829,1.8822-.3362,.5938-.2533,1.1222-.6383,1.5453-1.1258,.8408-1.0849,1.2695-2.433,1.2094-3.8042v-13.406c-.0003-.3461,.1367-.6782,.3811-.9233,.2443-.2451,.5758-.3832,.922-.3839h3.1415c.1715-.0028,.3417,.0283,.5011,.0914,.1594,.063,.3047,.157,.4278,.2763s.2215,.2618,.2895,.4191c.068,.1574,.1043,.3266,.1069,.498,.0008,.0075,.0008,.0149,0,.0224v21.9017c0,.3462-.1374,.6782-.3819,.9233-.2445,.245-.5763,.3831-.9225,.3838h-3.1011l-.0014-.0042Z"/><path class="e" d="M164.0871,84.3456c-.6544-1.118-.9916-2.3931-.977-3.6884-.0494-.9848,.1212-1.9682,.4993-2.8789,.3781-.9107,.9546-1.7257,1.6869-2.3858l.0779-.0781,6.01-4.7249c.3249-.2754,.7347-.4298,1.1607-.4369,.426-.0071,.8419,.1334,1.1761,.3978,.3758,.2924,.6714,.6768,.8558,1.116,.3241,.7079,.4198,1.4992,.2732,2.2638-.1474,.7646-.5286,1.4644-1.092,2.0021l-8.1832,6.4547c-.6444,.5257-1.1545,1.197-1.4878,1.9586h0Zm7.4408,19.5581c.2377,.2037,.5263,.3396,.835,.3936,.3087,.0539,.6266,.024,.9199-.0867,.3226-.1316,.6143-.3293,.8566-.5803,.2415-.251,.4283-.5499,.5479-.8774,.2006-.5012,.3064-1.0352,.311-1.575,.0162-.507-.081-1.0112-.2832-1.4765-.2014-.4652-.5039-.88-.8851-1.2145l-8.3367-6.3821-2.1052-1.575c-2.2156-1.8316-3.6749-4.4179-4.097-7.261-.3488,1.3421-.5194,2.7244-.507,4.1111-.0671,1.9361,.301,3.8625,1.0765,5.6377,.7756,1.7752,1.9393,3.3538,3.4063,4.6198l8.2611,6.2664Z"/><path class="d" d="M150.3315,90.2612c.6544,1.1181,.9916,2.3931,.977,3.6884,.0494,.9849-.1204,1.9685-.4985,2.8792-.3781,.9108-.9546,1.7258-1.6877,2.3856l-.0779,.0767-5.9985,4.7263c-.3257,.275-.7362,.4291-1.1622,.4359-.4267,.0069-.8419-.1339-1.1761-.3983-.3766-.2926-.6721-.6768-.8581-1.116-.3241-.7078-.419-1.499-.2716-2.2634,.1466-.7644,.5286-1.4639,1.092-2.0011l8.221-6.5315c.6328-.4944,1.1282-1.1421,1.4408-1.8819Zm-7.4431-19.5552c-.2377-.2043-.5255-.3409-.8342-.3957-.3079-.0547-.6251-.0255-.9183,.0845-.3233,.1317-.615,.3297-.8574,.5813-.2423,.2516-.4283,.5511-.5471,.8793-.2006,.5013-.3064,1.0352-.3125,1.575-.0162,.5073,.081,1.0119,.2832,1.4774s.5055,.8804,.8867,1.215l8.3413,6.3794,2.1044,1.5764c2.2163,1.8313,3.6756,4.4177,4.0977,7.261,.3473-1.3424,.5178-2.7245,.5062-4.1111,.0664-1.9364-.3017-3.863-1.0773-5.6384-.7756-1.7754-1.9401-3.3542-3.4063-4.6205l-8.2665-6.2636Z"/><path class="f" d="M0,71.1643c-.0002-.1714,.0334-.3411,.0989-.4995,.0655-.1584,.1615-.3024,.2826-.4236,.1211-.1213,.265-.2175,.4233-.2831,.1583-.0656,.3281-.0994,.4995-.0994H21.6631c.1771-.003,.3531,.0292,.5177,.0945,.1647,.0653,.3148,.1625,.4417,.2861,.1269,.1236,.2282,.271,.2979,.4339,.0698,.1628,.1066,.3379,.1083,.515v2.8207c-.0004,.3568-.1423,.6989-.3947,.951-.2524,.2522-.5947,.3938-.9514,.3938H7.2541c-.1477-.0019-.2944,.0256-.4314,.0809-.137,.0553-.2617,.1372-.3668,.241-.1051,.1038-.1886,.2275-.2455,.3638-.057,.1363-.0863,.2826-.0863,.4303v7.148c0,.1477,.0293,.294,.0863,.4303,.057,.1364,.1404,.26,.2455,.3638,.1051,.1039,.2298,.1857,.3668,.241,.137,.0553,.2837,.0828,.4314,.081h11.9273c.1713-.0028,.3415,.0282,.5008,.0912,.1594,.063,.3047,.1568,.4278,.276,.1231,.1192,.2214,.2614,.2895,.4186,.0681,.1572,.1045,.3263,.1072,.4976v2.8277c0,.1766-.0348,.3516-.1025,.5147-.0677,.1631-.1669,.3114-.2919,.4362-.1251,.1248-.2735,.2236-.4368,.291-.1633,.0674-.3383,.1019-.515,.1015H7.2541c-.1477-.0019-.2944,.0256-.4314,.0809-.137,.0553-.2617,.1372-.3668,.241-.1051,.1039-.1886,.2275-.2455,.3638-.057,.1364-.0863,.2826-.0863,.4304v11.9482c0,.3463-.1376,.6784-.3825,.9233-.2449,.2449-.577,.3825-.9233,.3825H1.3309c-.346,.0049-.6797-.1276-.9282-.3685-.2484-.2408-.3912-.5704-.3971-.9163v-32.0992L0,71.1643Z"/><path class="f" d="M59.2823,104.8247c-.9642,.1001-1.9389-.0056-2.8592-.3104-.9203-.3047-1.7655-.8013-2.4795-1.4571-1.155-1.5446-1.7093-3.4563-1.5596-5.3792v-12.1366c0-.1477-.0292-.294-.0863-.4303-.057-.1364-.1404-.26-.2456-.3638-.1051-.1038-.2297-.1857-.3668-.241-.137-.0553-.2836-.0827-.4313-.0809-.1713,.0028-.3414-.0282-.5008-.0913-.1593-.063-.3047-.1567-.4278-.2759-.1231-.1192-.2214-.2615-.2895-.4187-.0681-.1572-.1046-.3263-.1073-.4975v-1.7898c-.0003-.1714,.0331-.3412,.0984-.4997,.0653-.1585,.1612-.3025,.2822-.4239,.121-.1215,.2648-.2178,.423-.2836,.1583-.0658,.328-.0998,.4994-.0999h.0223c.1477,.0019,.2943-.0257,.4313-.081,.1371-.0553,.2617-.1371,.3668-.241,.1052-.1038,.1886-.2274,.2456-.3638,.057-.1363,.0863-.2825,.0863-.4303v-5.149c0-.3461,.1374-.678,.382-.9228,.2446-.2448,.5763-.3826,.9223-.3829h3.1416c.1714-.0028,.3416,.0283,.5011,.0914,.1594,.0631,.3047,.157,.4278,.2763,.1231,.1193,.2215,.2618,.2895,.4191,.0681,.1574,.1043,.3266,.1069,.498v5.1294c.0022,.298,.1226,.5829,.3347,.7921,.2121,.2093,.4987,.3258,.7966,.324h1.6391c.1715-.0028,.3417,.0282,.5011,.0913,.1594,.0631,.3048,.157,.4279,.2763,.1231,.1194,.2214,.2618,.2894,.4191,.068,.1574,.1043,.3266,.1069,.498v1.7898c.0004,.1714-.033,.3411-.0984,.4995-.0653,.1584-.1612,.3024-.2822,.4236-.121,.1213-.2648,.2175-.4231,.2832-.1582,.0657-.3279,.0995-.4992,.0995h-1.6643c-.298-.0019-.5845,.1146-.7966,.3239-.2121,.2092-.3325,.4941-.3347,.7921h0v11.9106c-.0412,.3254-.0102,.6558,.0908,.9678,.101,.312,.2696,.5979,.4937,.8374,.5123,.3577,1.1296,.5335,1.7535,.4994h.4687c.1714-.0028,.3417,.0282,.5011,.0914,.1594,.063,.3049,.157,.428,.2763,.123,.1193,.2214,.2617,.2894,.419,.068,.1574,.1043,.3266,.1068,.4981v2.4803c.0004,.1713-.033,.341-.0983,.4994s-.1612,.3024-.2822,.4237c-.1211,.1212-.2648,.2175-.4231,.2831-.1583,.0657-.3279,.0995-.4992,.0995h-1.6978l-.0014,.0377Z"/><path class="f" d="M82.822,104.5118c-.1713,.0028-.3419-.0282-.5008-.0913-.1597-.063-.3048-.1567-.4283-.276-.1227-.1192-.2207-.2614-.2894-.4186-.0679-.1572-.1042-.3263-.1073-.4975v-.9765h-.037c-.7131,.8537-1.5874,1.5585-2.5729,2.0743-1.2131,.5838-2.5509,.8616-3.8962,.8091-1.2309,.0177-2.4521-.2197-3.5866-.6975-1.0284-.4314-1.9472-1.0872-2.6895-1.9195-.7633-.8331-1.3472-1.814-1.7158-2.8821-.4011-1.1743-.5983-2.4086-.5832-3.6494v-14.6797c-.0004-.1715,.033-.3412,.0983-.4997,.0654-.1585,.1612-.3026,.2822-.424s.2648-.2178,.4231-.2836c.1583-.0657,.328-.0997,.4994-.0999h3.1415c.1714-.0028,.3418,.0283,.5011,.0914,.1594,.063,.3048,.157,.4279,.2763,.123,.1193,.2214,.2618,.2894,.4191,.068,.1574,.1043,.3266,.1068,.498,.0009,.0075,.0009,.0149,0,.0224v13.3321c-.0598,1.3822,.3373,2.7456,1.13,3.8795,.4212,.5109,.9609,.9111,1.5722,1.1657,.6113,.2546,1.2756,.3558,1.9349,.2949,.6453,.0321,1.2889-.0828,1.8831-.3361,.5934-.2533,1.1228-.6383,1.5457-1.1259,.8396-1.0853,1.2679-2.4332,1.2085-3.8042v-13.406c0-.3463,.1374-.6783,.3812-.9233,.2446-.2451,.5765-.3831,.923-.3838h3.1416c.3457-.0052,.6799,.1273,.9284,.3681,.2485,.2409,.3913,.5707,.3967,.9167v21.9227c0,.3462-.1374,.6783-.382,.9233-.2446,.2451-.5765,.3831-.9222,.3838h-3.1015l-.0023-.0028Z"/><path class="f" d="M94.3212,104.5167c-.3465,.0052-.6806-.1273-.9291-.3682-.2485-.2408-.3913-.5706-.3967-.9167v-21.924c0-.3462,.1374-.6783,.382-.9233,.2446-.2451,.5765-.3831,.9222-.3838h3.1416c.1713-.0028,.3419,.0283,.5016,.0914,.159,.0631,.3048,.157,.4275,.2763,.1235,.1194,.2215,.2618,.2894,.4192,.0679,.1574,.1042,.3266,.1073,.498v1.289h.0386c.6019-.9828,1.4639-1.7804,2.4903-2.3045,1.0611-.5173,2.2156-.8145,3.394-.874,1.1792-.0594,2.3576,.1202,3.4657,.5281,.8797,.3237,1.6777,.8365,2.3375,1.5024,.108,.085,.1798,.2072,.2014,.3426,.0216,.1354-.0085,.274-.0841,.3883l-2.7311,3.415c-.0656,.1102-.1713,.1901-.2956,.2223-.1243,.0322-.2554,.0139-.3658-.0508-.0286-.0162-.0556-.0354-.0795-.0572-.5525-.3554-1.1398-.6519-1.7541-.8845-.6166-.2053-1.2625-.3098-1.9123-.3097-.6853-.058-1.3744,.0597-2.0018,.3422-.6274,.2824-1.1722,.7202-1.5835,1.2718-.8111,1.381-1.1915,2.9728-1.092,4.5714v12.4896c0,.3462-.1374,.6782-.382,.9233-.2446,.2451-.5765,.3831-.9222,.3838h-3.1779l.0085,.0419Z"/><path class="f" d="M122.811,105.0932c-2.3522,.0769-4.6734-.5518-6.6652-1.8051-1.7796-1.1981-3.0884-2.9772-3.7026-5.0332-.3017-.8456-.5109-1.7218-.622-2.6128-.1659-1.1194-.2439-2.25-.2331-3.3815-.0023-1.1412,.0633-2.2815,.1952-3.415,.1265-.9007,.3349-1.788,.6235-2.6505,.6143-2.0465,1.9246-3.8138,3.7042-4.9956,1.9046-1.2155,4.1302-1.8313,6.3889-1.7674,2.3143-.0676,4.5955,.5613,6.5479,1.8052,1.7587,1.1869,3.0644,2.9329,3.7057,4.955,.1528,.4251,.2701,.8623,.3503,1.3071,.125,.505,.2184,1.0176,.2786,1.5345,.0779,.5762,.1173,1.229,.1559,1.953,.0394,.724,.0394,1.575,.0394,2.5738,0,.346-.1952,.4994-.5842,.4994h-15.2882c-.037-.0044-.0749-.0012-.1111,.0093-.0363,.0105-.0695,.0282-.0988,.0521-.0293,.0238-.0532,.0533-.0702,.0866-.0177,.0333-.0278,.0698-.0309,.1073-.0015,.0171-.0015,.0344,0,.0515-.0046,.349,.0339,.6972,.1158,1.0366,.0756,.3,.169,.5954,.2794,.8844,.3642,1.1635,1.1159,2.1674,2.1299,2.8454,1.0132,.6779,2.2279,.9892,3.4426,.8821,1.2031,.0328,2.3985-.1897,3.5089-.6529,.8882-.3953,1.6839-.9711,2.3375-1.6907,.2794-.279,.5471-.3069,.7787-.1144l3.0413,2.6506c.2331,.1912,.2786,.4185,.0378,.7296-1.1506,1.2989-2.5752,2.3254-4.1711,3.0049-1.9262,.8016-3.9982,1.1934-6.0841,1.1508h0Zm4.9096-16.4458c-.0471-.4069-.1405-.8071-.2794-1.1927-.3195-.9598-.9507-1.785-1.7942-2.3437-.9245-.5534-1.9817-.8456-3.059-.8456s-2.1345,.2922-3.059,.8456c-.8543,.5463-1.4894,1.3753-1.7942,2.3423-.1158,.3919-.2084,.7901-.2786,1.1927-.0139,.1435,.0015,.288,.0448,.4255,.0424,.1375,.1127,.2652,.2045,.3757,.0926,.1105,.206,.2016,.3341,.268,.1273,.0665,.267,.107,.4105,.1193,.0471,.0036,.0934,.0036,.1397,0h8.0296c.2824,.0068,.5564-.0987,.7609-.2932s.3241-.4623,.3318-.7446c.0062-.0495,.0093-.0994,.0093-.1493h-.0008Z"/></svg>