<?xml version="1.0" encoding="UTF-8"?><svg id="a" xmlns="http://www.w3.org/2000/svg" width="175" height="175" viewBox="0 0 175 175"><defs><style>.b{fill:#ee3446;}.c{fill:#fff;}</style></defs><path d="M72.7492,61.7895c1.0211,0,1.9254,.0876,2.7427,.4085,.8173,.2918,1.4301,.7004,1.9262,1.2256,.496,.496,.8166,1.2256,1.1089,1.9259,.2045,.7003,.2916,1.5175,.2045,2.3346l-4.3773,.817c0-.7003-.2045-1.2256-.409-1.7217-.2916-.4086-.6128-.7004-1.1089-.7004-.2916,0-.496,.0876-.6999,.2043-.2045,.0875-.2922,.2918-.409,.4085-.2916,.2918-.4083,.4961-.4083,.7004s-.0877,.4085-.0877,.496v11.9059c0,.2918,.0877,.6128,.2045,.9047,.2045,.2918,.496,.4086,1.1089,.4086,.4083,0,.8173-.0876,1.1089-.2918,.2916-.2043,.4083-.4961,.4083-.9047v-3.5601h-1.5172v-3.9686h6.099v7.2369c0,1.926-.496,3.3558-1.5178,4.3772-1.0211,1.0213-2.4512,1.5174-4.3767,1.5174-2.1305,0-3.6771-.4961-4.5817-1.4299-.9046-1.0214-1.4299-2.4512-1.4299-4.3772v-11.8184c0-1.8384,.4961-3.3558,1.5174-4.4939,1.0213-.9922,2.539-1.605,4.4942-1.605h0Zm7.8496,23.5202v-23.3158h10.7091v4.3772h-6.099v4.99h5.3991v4.3772h-5.3991v5.2818h6.099v4.3771h-10.7091s0-.0875,0-.0875Zm20.6605-12.3145v-11.0013h4.4934v23.3158h-3.8806l-2.7435-6.8284-1.6339-4.3772h-.2045v11.2056h-4.5812v-23.3158h3.9683l2.7435,6.7117,1.5172,4.2897s.3213,0,.3213,0Zm6.9156,12.3145v-23.3158h10.7099v4.3772h-6.099v4.99h5.3985v4.3772h-5.3985v5.2818h6.099v4.3771h-10.6808v-.0875h-.029Zm17.8299-23.3158c.9044,0,1.8384,.0876,2.6557,.2918,.8166,.2043,1.5172,.6128,2.0422,1.2256,.6128,.4961,1.0218,1.2256,1.3133,2.1302,.2915,.9047,.496,1.9259,.496,3.2683,0,1.6341-.2045,2.8597-.6128,3.8811-.4083,1.0213-1.1089,1.8384-1.9262,2.4512l3.3563,10.0967h-4.6986l-2.7427-9.0753h-.9044v9.0753h-4.5818v-23.3158l5.603-.0292h0Zm-.9044,4.3773v5.4861h.6999c.2922,0,.6128,0,.905-.0876,.2915-.0875,.496-.2042,.8166-.4085,.2045-.2043,.409-.496,.496-.9047,.0877-.4085,.2045-.8171,.2045-1.4299,0-.9047-.2045-1.5174-.6128-1.9259s-1.0211-.6128-1.7217-.6128h-.8173c.029-.0292,.0297-.1168,.0297-.1168h0Z"/><path d="M142.2001,80.7277h-3.4723l-.7005,4.5815h-4.7857l4.3773-23.3158h5.603l4.4934,23.3158h-4.7857l-.7296-4.5815h0Zm-2.3345-7.9374l-.496,3.6769h2.1299l-.4083-3.6769-.496-4.6981h-.2335l-.496,4.6981h0Zm8.9585,12.5187v-23.3157h4.5818v18.9387h6.099v4.3771h-10.6808Zm-74.6456,23.3158h-3.4724l-.6128,4.5815h-4.7858l4.3772-23.3158h5.6026l4.3773,23.3158h-4.7857l-.7005-4.5815h0Zm-2.2467-7.9374l-.496,3.6769h2.1299l-.4083-3.6769-.6128-4.7857h-.2045l-.4083,4.7857h0Zm20.456,5.6903c0,1.1089-.0877,2.0427-.2915,2.9473-.2045,.9047-.496,1.6342-1.0218,2.247-.4083,.6128-1.1089,1.1089-1.8384,1.4299-.8166,.2918-1.7217,.496-2.9472,.496-1.1089,0-2.0422-.2042-2.7427-.496-.8173-.2918-1.4301-.7004-1.8384-1.3132-.496-.496-.8173-1.2256-1.0218-1.9259-.2038-.7003-.2916-1.5174-.2916-2.3346l4.5818-.9046c0,.8171,.2038,1.5174,.4083,1.926,.2045,.4085,.6128,.6128,1.2256,.6128,.2916,0,.6128-.0875,.8173-.2043,.2038-.2043,.2916-.4085,.4083-.6128,.0877-.2043,.2045-.4961,.2045-.9047v-1.0213c0-.4961,0-.8171-.0877-1.1089s-.2045-.6128-.2922-.8171c-.2038-.2043-.4083-.4085-.6999-.6128-.2922-.2043-.6128-.2918-1.1089-.4961-1.1089-.496-2.0429-.9046-2.7435-1.4298-.6999-.4961-1.2256-1.0214-1.6339-1.6342-.4083-.6128-.6128-1.1089-.7005-1.8384-.0877-.6128-.2045-1.3131-.2045-2.1302,0-.9047,.0877-1.8384,.2922-2.6555,.2045-.8171,.6128-1.5174,1.0211-2.1302,.496-.6129,1.1089-1.0214,1.8384-1.3132,.8173-.2918,1.7217-.496,2.7435-.496,1.1089,0,2.1299,.2042,2.8595,.496,.7005,.4086,1.3134,.8171,1.8384,1.4299,.4083,.6128,.7005,1.2256,.9044,1.9259,.2045,.7004,.2922,1.3132,.2922,2.0427l-4.4941,1.0214v-.963c0-.2918-.0877-.496-.2045-.817-.0871-.2043-.2916-.4086-.4083-.4961-.2045-.0875-.4083-.2043-.8173-.2043-.2916,0-.496,.0875-.6999,.2043-.2045,.0875-.2922,.2918-.409,.4961-.0871,.2042-.2038,.4085-.2038,.7003v.817c0,.2918,0,.6129,.0871,.8171,0,.2043,.2045,.4961,.2922,.7004,.2038,.2042,.4083,.4085,.8166,.6128l1.4301,.7003c1.0218,.4085,1.9262,.9047,2.539,1.3131,.6128,.4961,1.1089,1.0214,1.4301,1.5174,.2915,.4961,.496,1.2256,.6128,1.926,.058,.7587,.058,1.5757,.058,2.4804h0Zm13.5694,0c0,1.1089-.0877,2.0427-.2915,2.9473-.2045,.9047-.496,1.6342-1.0218,2.247-.4083,.6128-1.1089,1.1089-1.8384,1.4299-.8166,.2918-1.7217,.496-2.9472,.496-1.1089,0-2.0429-.2042-2.7427-.496-.8173-.2918-1.4301-.7004-1.8384-1.3132-.496-.496-.8173-1.2256-1.0218-1.9259-.2038-.7003-.2915-1.5174-.2915-2.3346l4.5812-.9046c0,.8171,.2045,1.5174,.409,1.926,.2038,.4085,.6128,.6128,1.2256,.6128,.2915,0,.6128-.0875,.8166-.2043,.2045-.2043,.2922-.4085,.409-.6128,.0871-.2043,.2038-.4961,.2038-.9047v-1.0213c0-.4961,0-.8171-.0871-1.1089-.0877-.2918-.2045-.6128-.2922-.8171-.2038-.2043-.4083-.4085-.6999-.6128-.2922-.2043-.6128-.2918-1.1089-.4961-1.1095-.496-2.0429-.9046-2.7435-1.4298-.7005-.4961-1.2256-1.0214-1.6339-1.6342-.409-.6128-.6128-1.1089-.7005-1.8384-.0877-.6128-.2045-1.3131-.2045-2.1302,0-.9047,.0877-1.8384,.2922-2.6555,.2038-.8171,.6128-1.5174,1.0211-2.1302,.496-.6129,1.1089-1.0214,1.8384-1.3132,.8173-.2918,1.7217-.496,2.7435-.496,1.1089,0,2.13,.2042,2.8595,.496,.7005,.4086,1.3133,.8171,1.8384,1.4299,.4083,.6128,.7005,1.2256,.9044,1.9259,.2045,.7004,.2922,1.3132,.2922,2.0427l-4.4941,1.0214v-.963c0-.2918-.0877-.496-.2045-.817-.0871-.2043-.2915-.4086-.4083-.4961-.2045-.0875-.4083-.2043-.8173-.2043-.2915,0-.496,.0875-.6999,.2043-.2045,.0875-.2922,.2918-.409,.4961-.0871,.2042-.2038,.4085-.2038,.7003v.817c0,.2918,0,.6129,.0871,.8171,0,.2043,.2045,.4961,.2922,.7004,.2038,.2042,.4083,.4085,.8166,.6128l1.4301,.7003c1.0211,.4085,1.9262,.9047,2.539,1.3131,.6128,.4961,1.1089,1.0214,1.4294,1.5174,.2922,.4961,.4968,1.2256,.6128,1.926-.058,.7587,.0588,1.5757,.0588,2.4804h0Zm1.8094,6.8285v-23.3158h10.7091v4.3772h-6.099v4.9899h5.3991v4.3772h-5.3991v5.2818h6.099v4.2896h-10.7091Zm18.9678-4.5814l-1.0218-2.9473-1.0211-3.4726h-.2045v11.0013h-4.5812v-23.3158h4.2896l2.3345,6.2156,1.5178,4.5815h.2038l1.6346-4.6981,2.2467-6.0989h4.2896v23.3158h-4.5812v-10.8846h-.0877l-1.1089,3.5601-.905,2.743h-3.0053Zm20.981-7.6456c.496,.2043,1.0218,.4086,1.3133,.8171,.2915,.2918,.6128,.7003,.8173,1.1089,.2038,.4085,.4083,.9046,.4083,1.4298,.0877,.4961,.0877,1.0214,.0877,1.5174,0,2.5388-.496,4.3772-1.6346,5.4861-1.1089,1.2256-2.7427,1.7217-4.9024,1.7217h-5.194v-23.2282h5.2817c2.0429,0,3.6768,.4961,4.6979,1.6342,1.0218,1.1089,1.5178,2.743,1.5178,4.9024,0,.4961,0,.9046-.0877,1.4299-.0877,.4961-.2045,.9047-.4083,1.3131-.2045,.4085-.496,.7004-.8173,1.1089-.2625,.3793-.6708,.5836-1.0798,.7587h0Zm-1.8384-4.4648c0-.9047-.2038-1.5174-.496-1.8384-.2915-.2918-.9044-.4085-1.6339-.4085h-.496v4.5815h.6128c1.4004,0,2.0132-.7003,2.0132-2.3345h0Zm.2045,9.1629c0-.9047-.2045-1.6341-.496-1.9259-.2922-.4086-.8173-.6128-1.4301-.6128h-.8166v5.807h.8166c.409,0,.8173-.0875,1.0218-.2042,.2915-.2043,.4083-.4086,.6128-.7004,.0871-.2918,.2038-.6128,.2915-1.0213v-1.3424Zm6.8286,7.5287v-23.3158h4.5812v18.9386h6.099v4.3771h-10.6802Zm15.4658-14.7656l.8173-3.8811,1.0211-4.5815h4.7857l-4.4934,13.8611v9.3672h-4.5818v-9.4839l-4.5812-13.8611h4.9024l1.1089,4.6981,.8166,3.8811h.2045Z"/><path class="b" d="M55.7362,87.7604c0-1.1089,.9046-2.0427,2.0427-2.1302-.0875-1.1089-.2042-2.3345-.4085-3.4726-1.1089,.2918-2.247-.4085-2.5388-1.4299-.2918-1.1089,.4086-2.247,1.4299-2.5387-.4085-1.1089-.8171-2.1302-1.3131-3.1516-1.0214,.6128-2.247,.2043-2.8598-.7003-.6128-1.0214-.2042-2.247,.7003-2.8598-.6128-.9047-1.3131-1.8384-2.1302-2.743-.817,.8171-2.1302,.8171-2.9473,0-.817-.8171-.817-2.1302,0-2.9473-.817-.7004-1.7217-1.4299-2.743-2.1302-.6128,1.0214-1.8384,1.3131-2.8597,.7003-1.0214-.6128-1.3132-1.8384-.7004-2.8598-1.0213-.496-2.0427-.9046-3.1516-1.3131-.2918,1.1089-1.4299,1.7217-2.5388,1.4299-1.1089-.2918-1.7217-1.4299-1.4299-2.5388-1.1089-.2043-2.2469-.4085-3.3558-.4085,0,1.1089-.9047,2.1302-2.0427,2.1302-1.1089,0-2.0427-.9046-2.0427-2.1302-1.1089,.0876-2.2469,.2043-3.3558,.4085,.2918,1.1089-.2918,2.247-1.4299,2.5387-1.1089,.2918-2.247-.4085-2.5387-1.4299-1.1089,.4085-2.1303,.8171-3.1516,1.3131,.6128,1.0214,.2043,2.247-.7003,2.8598-1.0214,.6128-2.247,.2043-2.8598-.7003-.9047,.6128-1.8384,1.3131-2.743,2.1302,.8171,.8171,.8171,2.1302,0,2.9473s-2.1302,.8171-2.9473,0l-2.1302,2.743c1.0214,.6128,1.3131,1.8384,.7004,2.8598-.6128,1.0213-1.8384,1.3131-2.8598,.8171-.496,1.0213-.9046,2.1302-1.3131,3.1516,1.1089,.2918,1.7217,1.4299,1.4299,2.5388-.2918,1.1089-1.4299,1.7217-2.5388,1.4298-.2043,1.1089-.4085,2.247-.4085,3.4726,1.1089,0,2.0427,.9047,2.0427,2.1302,0,1.1089-.9046,2.0427-2.0427,2.0427,.0876,1.1089,.2043,2.3345,.4085,3.4726,1.1089-.2918,2.247,.4086,2.5387,1.4299,.2918,1.1089-.4085,2.247-1.4299,2.5388,.4085,1.1089,.8171,2.1302,1.3131,3.2683,1.0214-.6128,2.247-.2043,2.8598,.8171,.6128,1.0213,.2043,2.2469-.7004,2.8597,.6128,.9046,1.3131,1.8384,2.1302,2.7431,.8171-.8171,2.1302-.8171,2.9473,0,.8171,.817,.8171,2.1302,0,2.9472,.8171,.7004,1.7217,1.4299,2.743,2.1302,.6128-1.0213,1.8384-1.3131,2.8598-.817,1.0213,.6128,1.3131,1.8384,.7003,2.8597,1.0213,.4961,2.0427,.9046,3.1516,1.3132,.2918-1.1089,1.4298-1.7217,2.5387-1.4299s1.7217,1.4299,1.4299,2.5388c1.1089,.2043,2.247,.4086,3.3558,.4086,0-1.1089,.9047-2.0427,2.0427-2.0427,1.1089,0,2.0427,.9046,2.0427,2.0427,1.1089-.0876,2.247-.2043,3.3558-.4086-.2918-1.1089,.4086-2.2469,1.4299-2.5388,1.1089-.2918,2.247,.4085,2.5388,1.4299,1.1089-.4086,2.1302-.8171,3.1516-1.3132-.6128-1.0213-.2042-2.2469,.7004-2.8597,1.0213-.6128,2.2469-.2043,2.8597,.7003,.9046-.6128,1.8384-1.3131,2.743-2.1302-.817-.8171-.817-2.1302,0-2.9473,.8171-.8171,2.1303-.8171,2.9473,0l2.1302-2.743c-1.0213-.6128-1.3131-1.8384-.7003-2.8598,.6128-1.0213,1.8384-1.3131,2.8598-.8171,.496-1.0213,.9046-2.1302,1.3131-3.2683-1.1089-.2918-1.7217-1.4299-1.4299-2.5387,.2918-1.1089,1.4299-1.7217,2.5388-1.5174,.2043-1.1089,.4085-2.247,.4085-3.4726-1.138,.1751-2.0427-.8463-2.0427-1.9551h0Z"/><path class="c" d="M20.8938,70.631c-1.9259,0-3.4726,.6128-4.5815,1.7217-1.0214,1.1089-1.5174,2.6555-1.5174,4.5815v21.886c0,2.0427,.496,3.4726,1.4298,4.4939,1.0214,1.0214,2.5388,1.5174,4.5815,1.5174,1.9259,0,3.3558-.496,4.3772-1.5174s1.5174-2.5388,1.5174-4.4939v-10.1843h-6.0989v4.0854h1.5174v6.4198c0,.4086-.0875,.7004-.4085,.9047-.2918,.2043-.6128,.4086-1.1089,.4086-.6128,0-.9047-.0875-1.1089-.4086-.0876-.2918-.2043-.6128-.2043-.9047v-22.2945c0-.2042,0-.2918,.0875-.6128,0-.2043,.0875-.4085,.2043-.6128,.0875-.2043,.2918-.2918,.4085-.4961,.2043-.0875,.4086-.2042,.7003-.2042h.0876c.2918,0,.496,.0875,.7003,.2042,.2042,.0876,.2918,.2918,.4085,.4961,.0875,.2043,.2043,.4085,.2043,.6128s.0875,.4086,.0875,.6128v5.1068h4.5815v-5.1068c0-1.9259-.496-3.3558-1.5174-4.5815-.7879-1.0214-2.3053-1.6342-4.348-1.6342h.0002Z"/><path class="c" d="M38.2274,70.8351h-5.6028l-4.4939,33.821h4.8732l1.0214-8.2583h2.7722l1.0214,8.2583h4.7857s-4.3772-33.8211-4.3772-33.821Z"/><path class="b" d="M35.4551,92.4297c-1.1089,0-2.0427-.9047-2.0427-2.0427,0-1.1089,.9047-2.0427,2.0427-2.0427,1.1089,0,2.0427,.9047,2.0427,2.0427s-.9047,2.0427-2.0427,2.0427Z"/></svg>