<?xml version="1.0" encoding="UTF-8"?><svg id="a" xmlns="http://www.w3.org/2000/svg" width="663" height="223" xmlns:xlink="http://www.w3.org/1999/xlink" viewBox="0 0 663 223"><defs><style>.o{fill:url(#j);}.p{fill:url(#g);}.q{fill:url(#m);}.r{fill:url(#h);}.s{fill:url(#i);}.t{fill:url(#k);}.u{fill:url(#n);}.v{fill:url(#l);}.w{fill:url(#f);}.x{fill:url(#d);}.y{fill:url(#e);}.z{fill:url(#c);}.aa{fill:url(#b);}.ab{fill:#37326d;}</style><linearGradient id="b" x1="650.4" y1="461.8164" x2="650.4" y2="634.8" gradientTransform="translate(0 -452)" gradientUnits="userSpaceOnUse"><stop offset="0" stop-color="#29b3b4"/><stop offset=".2747" stop-color="#0f92b5"/><stop offset=".4756" stop-color="#007eb5"/><stop offset="1" stop-color="#6f4b99"/></linearGradient><linearGradient id="c" x1="602.2" y1="461.8164" x2="602.2" y2="634.8" gradientTransform="translate(0 -452)" gradientUnits="userSpaceOnUse"><stop offset="0" stop-color="#29b3b4"/><stop offset=".2747" stop-color="#0f92b5"/><stop offset=".4756" stop-color="#007eb5"/><stop offset="1" stop-color="#6f4b99"/></linearGradient><linearGradient id="d" x1="504.1" y1="461.8164" x2="504.1" y2="634.8" gradientTransform="translate(0 -452)" gradientUnits="userSpaceOnUse"><stop offset="0" stop-color="#29b3b4"/><stop offset=".2747" stop-color="#0f92b5"/><stop offset=".4756" stop-color="#007eb5"/><stop offset="1" stop-color="#6f4b99"/></linearGradient><linearGradient id="e" x1="553.2" y1="461.8152" x2="553.2" y2="634.807" gradientTransform="translate(0 -452)" gradientUnits="userSpaceOnUse"><stop offset="0" stop-color="#29b3b4"/><stop offset=".2747" stop-color="#0f92b5"/><stop offset=".4756" stop-color="#007eb5"/><stop offset="1" stop-color="#6f4b99"/></linearGradient><linearGradient id="f" x1="625.6346" y1="461.8164" x2="625.6346" y2="634.8" gradientTransform="translate(0 -452)" gradientUnits="userSpaceOnUse"><stop offset="0" stop-color="#29b3b4"/><stop offset=".2747" stop-color="#0f92b5"/><stop offset=".4756" stop-color="#007eb5"/><stop offset="1" stop-color="#6f4b99"/></linearGradient><linearGradient id="g" x1="580.0999" y1="461.8163" x2="580.0999" y2="634.8" gradientTransform="translate(0 -452)" gradientUnits="userSpaceOnUse"><stop offset="0" stop-color="#29b3b4"/><stop offset=".2747" stop-color="#0f92b5"/><stop offset=".4756" stop-color="#007eb5"/><stop offset="1" stop-color="#6f4b99"/></linearGradient><linearGradient id="h" x1="506.0297" y1="461.8163" x2="506.0297" y2="634.798" gradientTransform="translate(0 -452)" gradientUnits="userSpaceOnUse"><stop offset="0" stop-color="#29b3b4"/><stop offset=".2747" stop-color="#0f92b5"/><stop offset=".4756" stop-color="#007eb5"/><stop offset="1" stop-color="#6f4b99"/></linearGradient><linearGradient id="i" x1="455.8" y1="461.8164" x2="455.8" y2="634.8" gradientTransform="translate(0 -452)" gradientUnits="userSpaceOnUse"><stop offset="0" stop-color="#29b3b4"/><stop offset=".2747" stop-color="#0f92b5"/><stop offset=".4756" stop-color="#007eb5"/><stop offset="1" stop-color="#6f4b99"/></linearGradient><linearGradient id="j" x1="536.8" y1="461.8166" x2="536.8" y2="634.8" gradientTransform="translate(0 -452)" gradientUnits="userSpaceOnUse"><stop offset="0" stop-color="#29b3b4"/><stop offset=".2747" stop-color="#0f92b5"/><stop offset=".4756" stop-color="#007eb5"/><stop offset="1" stop-color="#6f4b99"/></linearGradient><linearGradient id="k" x1="480.6797" y1="461.8141" x2="480.6797" y2="634.8" gradientTransform="translate(0 -452)" gradientUnits="userSpaceOnUse"><stop offset="0" stop-color="#29b3b4"/><stop offset=".2747" stop-color="#0f92b5"/><stop offset=".4756" stop-color="#007eb5"/><stop offset="1" stop-color="#6f4b99"/></linearGradient><linearGradient id="l" x1="526.2" y1="461.8163" x2="526.2" y2="634.8" gradientTransform="translate(0 -452)" gradientUnits="userSpaceOnUse"><stop offset="0" stop-color="#29b3b4"/><stop offset=".2747" stop-color="#0f92b5"/><stop offset=".4756" stop-color="#007eb5"/><stop offset="1" stop-color="#6f4b99"/></linearGradient><linearGradient id="m" x1="600.1703" y1="461.8163" x2="600.1703" y2="634.798" gradientTransform="translate(0 -452)" gradientUnits="userSpaceOnUse"><stop offset="0" stop-color="#29b3b4"/><stop offset=".2747" stop-color="#0f92b5"/><stop offset=".4756" stop-color="#007eb5"/><stop offset="1" stop-color="#6f4b99"/></linearGradient><linearGradient id="n" x1="569.5" y1="461.8166" x2="569.5" y2="634.8" gradientTransform="translate(0 -452)" gradientUnits="userSpaceOnUse"><stop offset="0" stop-color="#29b3b4"/><stop offset=".2747" stop-color="#0f92b5"/><stop offset=".4756" stop-color="#007eb5"/><stop offset="1" stop-color="#6f4b99"/></linearGradient></defs><path class="ab" d="M47.6,95.8h-2c-2.8,0-4.9-.7-6.3-2-1.4-1.3-2-2.8-2-4.3,0-1.6,.6-2.7,1.7-3.3,1.1-.7,2.5-1,4.2-1,.5,0,1,0,1.6,.1,.6,0,1,.1,1.4,.2l.5-4c-.6-.1-1.2-.2-1.9-.3-.7,0-1.4-.1-2.1-.1-3,0-5.3,.8-6.9,2.3-1.6,1.6-2.4,3.4-2.4,5.5,0,.9,.2,2,.7,3.3,.5,1.2,1.3,2.5,2.6,3.6h-6.1v4.1h17.1l-.1-4.1h0Z"/><path class="ab" d="M114,71.5c-1.3,0-2.4,.5-3.3,1.4s-1.4,2-1.4,3.3,.5,2.4,1.4,3.3,2,1.4,3.3,1.4,2.4-.5,3.3-1.4,1.4-2,1.4-3.3-.5-2.4-1.4-3.3-2-1.4-3.3-1.4Z"/><path class="ab" d="M103.8,125.9h-16.3c-2.1,0-3.9-.3-5.4-.9s-2.6-1.5-3.5-2.5c-.9-1.1-1.5-2.3-1.9-3.8-.4-1.4-.6-3-.6-4.8V61.5h-8v56.7c0,2.4-.4,4.3-1.1,5.7-.7,1.4-2.4,2-5,2H13.8c-.8,0-1.5-.1-2.2-.2s-1.3-.5-1.9-1c-.5-.5-1-1.3-1.2-2.3-.3-1-.4-2.3-.4-4.1v-13.9H0v16.1c0,1.8,.2,3.5,.7,5.2,.5,1.6,1.2,3.1,2.2,4.3s2.3,2.2,4,3c1.6,.7,3.7,1.1,6.1,1.1H62.5c1.2,0,2.4-.1,3.6-.2,1.2-.2,2.3-.5,3.4-1.1,1.1-.5,2.2-1.3,3.1-2.4,.9-1,1.8-2.5,2.6-4.2,.9,3,2.4,5.1,4.5,6.2,2.1,1.1,4.6,1.7,7.7,1.7h24.5v-38.5h-8.1v30.3h0Z"/><path class="ab" d="M100.5,80.9c1.3,0,2.4-.5,3.3-1.4s1.4-2,1.4-3.3-.5-2.4-1.4-3.3-2-1.4-3.3-1.4-2.4,.5-3.3,1.4-1.4,2-1.4,3.3,.5,2.4,1.4,3.3c1,1,2.1,1.4,3.3,1.4Z"/><path class="ab" d="M133.9,122.6c-1.7,0-3.1,.6-4.3,1.7-1.2,1.2-1.8,2.6-1.8,4.3s.6,3.1,1.9,4.3,2.7,1.8,4.2,1.8c1.6,0,3-.6,4.2-1.8s1.9-2.6,1.9-4.3-.6-3.1-1.8-4.3c-1.2-1.1-2.6-1.7-4.3-1.7Z"/><path class="ab" d="M181.2,80.9c1.3,0,2.4-.5,3.3-1.4,.9-.9,1.4-2,1.4-3.3s-.5-2.4-1.4-3.3-2-1.4-3.3-1.4-2.4,.5-3.3,1.4c-.9,.9-1.4,2-1.4,3.3s.5,2.4,1.4,3.3c1,1,2,1.4,3.3,1.4Z"/><path class="ab" d="M194.7,80.9c1.3,0,2.4-.5,3.3-1.4,.9-.9,1.4-2,1.4-3.3s-.5-2.4-1.4-3.3-2-1.4-3.3-1.4-2.4,.5-3.3,1.4c-.9,.9-1.4,2-1.4,3.3s.5,2.4,1.4,3.3c.9,1,2,1.4,3.3,1.4Z"/><path class="ab" d="M215.3,125.9h-52c-2.6,0-4.5-.5-5.6-1.5s-1.7-3-1.7-6.1v-13.9h-8v16.1c0,1.8,.2,3.5,.7,5.2,.5,1.6,1.3,3.1,2.4,4.3,1.1,1.2,2.6,2.2,4.5,3,1.9,.7,4.2,1.1,7.1,1.1h60.8v-38.5h-8.1l-.1,30.3h0Z"/><path class="ab" d="M247.2,61.5h-7.8v72.6h7.8V61.5Z"/><path class="ab" d="M266.1,133.6c0,4.6-.7,8.1-2.1,10.4-1.4,2.3-4,3.4-7.9,3.4-.7,0-1.3,0-2-.1-.7,0-1.4-.1-2-.2l-2.4-.4c-.1,1.3-.3,2.6-.5,3.9-.2,1.3-.4,2.7-.5,4.1,.8,.1,1.8,.2,3.1,.4,1.3,.1,2.8,.2,4.3,.2,2.9,0,5.5-.5,7.7-1.6,2.3-1.1,4.2-2.6,5.7-4.5s2.7-4.1,3.5-6.7c.8-2.6,1.2-5.3,1.2-8.2v-38.7h-8.1v38h0Z"/><path class="ab" d="M361.5,80.9c1.3,0,2.4-.5,3.3-1.4s1.4-2,1.4-3.3-.5-2.4-1.4-3.3-2-1.4-3.3-1.4-2.4,.5-3.3,1.4-1.4,2-1.4,3.3,.5,2.4,1.4,3.3c.8,1,1.9,1.4,3.3,1.4Z"/><path class="ab" d="M374.9,80.9c1.3,0,2.4-.5,3.3-1.4s1.4-2,1.4-3.3-.5-2.4-1.4-3.3-2-1.4-3.3-1.4-2.4,.5-3.3,1.4-1.4,2-1.4,3.3,.5,2.4,1.4,3.3c1,1,2,1.4,3.3,1.4Z"/><path class="ab" d="M385.8,102.8c-.8-2.3-2-4.3-3.6-5.9-1.6-1.7-3.4-3-5.6-3.9s-4.6-1.4-7.4-1.4c-3.2,0-6.2,.6-8.8,1.8-2.7,1.2-5,2.8-6.9,4.8-1.9,1.9-3.4,4.2-4.5,6.8-1,2.6-1.5,5.2-1.5,7.8,0,2.9,.5,5.4,1.4,7.7,1,2.2,2.2,4.1,3.7,5.4h-17.8c-4.1,0-7.1-1.1-9-3.3-1.9-2.2-2.8-5.5-2.8-10,0-3-.3-5.8-1-8.4s-1.8-4.8-3.3-6.7c-1.6-1.9-3.6-3.4-6.2-4.5s-5.8-1.6-9.6-1.6h-10.5v7.8h8.1c3.4,0,6.1,.4,8.1,1.2,2,.8,3.4,1.9,4.5,3.5,1,1.6,1.6,3.5,1.9,6,.2,2.4,.4,5.3,.4,8.5,0,2.5-.5,4.4-1.4,5.6s-2.6,1.8-5,1.8h-22.3v8.2h23.2c1.3,0,2.6-.2,4-.5s2.6-.8,3.7-1.5,2.1-1.6,3-2.7c.9-1.1,1.5-2.4,1.9-3.9,.4,1.8,1,3.2,1.8,4.3,.8,1.1,1.8,2,2.9,2.6s2.3,1,3.6,1.2c1.3,.2,2.6,.4,4,.4h52.2v-23.6c0-2.7-.4-5.2-1.2-7.5Zm-6.9,23.1h-11.5c-2.4-.3-4.4-1-6-2-1.6-.8-3-2.1-4.2-3.9s-1.8-4.2-1.8-7.3c0-2,.4-3.8,1.1-5.5,.7-1.6,1.6-3,2.8-4.2,1.2-1.2,2.5-2.1,4-2.7s3.1-.9,4.7-.9c1.9,0,3.6,.3,4.9,1,1.4,.6,2.5,1.5,3.4,2.5s1.5,2.2,1.9,3.4c.4,1.3,.6,2.5,.6,3.7v15.9h.1Z"/><path class="ab" d="M76.1,180c.6,0,1.2-.2,1.6-.7,.4-.4,.7-1,.7-1.6s-.2-1.2-.7-1.6c-.4-.5-1-.7-1.6-.7s-1.2,.2-1.6,.7-.7,1-.7,1.6,.2,1.2,.7,1.6c.5,.4,1,.7,1.6,.7Z"/><path class="ab" d="M69.5,180c.6,0,1.2-.2,1.6-.7,.5-.4,.7-1,.7-1.6s-.2-1.2-.7-1.6c-.5-.5-1-.7-1.6-.7s-1.1,.2-1.6,.7-.7,1-.7,1.6,.2,1.2,.7,1.6,1,.7,1.6,.7Z"/><path class="ab" d="M104,211.6c-.6,0-1.2,.2-1.6,.7-.4,.4-.7,1-.7,1.6s.2,1.1,.7,1.6c.4,.4,1,.7,1.6,.7s1.2-.2,1.6-.7c.5-.4,.7-1,.7-1.6s-.2-1.2-.7-1.6c-.4-.4-.9-.7-1.6-.7Z"/><path class="ab" d="M97.4,211.6c-.6,0-1.2,.2-1.6,.7-.4,.4-.7,1-.7,1.6s.2,1.1,.7,1.6c.4,.4,1,.7,1.6,.7s1.2-.2,1.6-.7c.4-.4,.7-1,.7-1.6s-.2-1.2-.7-1.6c-.4-.4-.9-.7-1.6-.7Z"/><path class="ab" d="M152,180c.6,0,1.2-.2,1.6-.7,.5-.4,.7-1,.7-1.6s-.2-1.2-.7-1.6c-.5-.5-1-.7-1.6-.7s-1.2,.2-1.6,.7c-.4,.5-.7,1-.7,1.6s.2,1.2,.7,1.6c.4,.4,1,.7,1.6,.7Z"/><path class="ab" d="M158.6,180c.6,0,1.2-.2,1.6-.7,.4-.4,.7-1,.7-1.6s-.2-1.2-.7-1.6c-.4-.5-1-.7-1.6-.7s-1.2,.2-1.6,.7c-.5,.5-.7,1-.7,1.6s.2,1.2,.7,1.6c.4,.4,1,.7,1.6,.7Z"/><path class="ab" d="M164.5,194.4c0-1.4-.2-2.6-.6-3.8-.4-1.1-1-2.1-1.7-2.9-.8-.8-1.7-1.4-2.7-1.9-1.1-.4-2.3-.7-3.6-.7-1.6,0-3,.3-4.3,.9s-2.4,1.4-3.4,2.3c-.9,.9-1.7,2-2.2,3.3s-.8,2.5-.8,3.8c0,1.4,.2,2.6,.7,3.7,.5,1.1,1.1,2,1.8,2.7h-8.7c-1.3,0-2.3-.2-3.1-.6-.7-.4-1.3-.9-1.7-1.4s-.6-1.1-.7-1.7c-.1-.6-.2-1.1-.2-1.5,0-3.6-.8-6.4-2.5-8.4s-4-3-7-3c-1.4,0-2.8,.3-4,.8s-2.2,1.3-3.1,2.2-1.5,2.1-2,3.4c-.5,1.3-.7,2.7-.7,4.2,0,1.2-.1,2.2-.4,3-.2,.8-.6,1.4-1,1.8-.4,.4-.8,.7-1.3,.9s-1,.2-1.6,.2h-1.7c-1,0-1.9-.2-2.7-.5-.7-.3-1.3-.7-1.8-1.2s-.8-1.1-.9-1.8c-.2-.7-.3-1.5-.3-2.3v-8.9h-3.9v11c0,1.2-.2,2.1-.6,2.7-.4,.7-1.2,1-2.4,1h-13.4v-7.3c0-1.4-.2-2.7-.7-3.8s-1-2.2-1.8-3-1.7-1.5-2.8-1.9c-1.1-.5-2.4-.7-3.8-.7-1.5,0-2.8,.3-4,.9-1.2,.6-2.3,1.4-3.2,2.4-.9,1-1.6,2.2-2.1,3.6-.5,1.4-.8,2.8-.8,4.3,0,1.1,.2,2.3,.6,3.4,.4,1.1,1,2.2,1.8,3,.8,.9,1.9,1.6,3.3,2.2,1.4,.6,3,.8,5,.8h22.3c.6,0,1.3,0,1.9-.1s1.2-.3,1.7-.5c.5-.3,1-.7,1.4-1.2s.8-1.2,1.2-2c.4,1.4,1.1,2.4,2.2,3s2.3,.9,3.8,.9h2.1c1,0,2.1-.3,3.1-1s1.7-1.7,2.2-3.1c.9,1.5,2,2.6,3.3,3.3s2.9,1.1,4.8,1.1c.8,0,1.5,0,2.3-.1,.7-.1,1.5-.3,2.2-.6s1.4-.8,2.1-1.4c.7-.6,1.3-1.5,2-2.5,.2,.9,.6,1.6,1,2.2,.5,.6,1,1,1.6,1.4,.6,.3,1.2,.6,1.9,.7s1.4,.2,2.1,.2h25.6l.2-11.5h0Zm-86.4,7.5h-4.7c-.9,0-1.7-.1-2.5-.4-.8-.2-1.5-.6-2.1-1.1s-1.1-1.2-1.5-2-.5-1.8-.5-3c0-1,.2-1.9,.5-2.7s.8-1.5,1.3-2.1c.6-.6,1.2-1,1.9-1.3,.7-.3,1.4-.4,2.2-.4,1.8,0,3.2,.6,4.1,1.9,.9,1.3,1.4,3,1.4,5.4l-.1,5.7h0Zm51.3-3.5c-.2,.7-.6,1.4-1.1,1.9-.5,.6-1.1,1-1.8,1.3-.8,.3-1.6,.5-2.6,.5s-1.9-.2-2.7-.5c-.7-.3-1.3-.8-1.8-1.3-.5-.6-.9-1.2-1.1-1.9s-.3-1.5-.3-2.4c0-1.1,.2-2,.5-2.9s.7-1.6,1.3-2.2c.5-.6,1.2-1.1,1.9-1.4,.7-.3,1.5-.5,2.3-.5,.7,0,1.5,.2,2.2,.5s1.3,.8,1.9,1.4c.5,.6,1,1.3,1.3,2.2s.5,1.8,.5,2.9c-.2,.9-.3,1.7-.5,2.4Zm31.1,3.5h-5.6c-1.2-.2-2.1-.5-2.9-1-.8-.4-1.4-1-2-1.9s-.9-2.1-.9-3.6c0-1,.2-1.9,.5-2.7s.8-1.5,1.4-2.1,1.2-1,2-1.3c.7-.3,1.5-.4,2.3-.4,.9,0,1.7,.2,2.4,.5s1.2,.7,1.6,1.2c.4,.5,.7,1.1,.9,1.7,.2,.6,.3,1.2,.3,1.8v7.8h0Z"/><path class="ab" d="M194.2,201.9h-12.7c-1.1,0-2-.1-2.7-.5-.7-.3-1.3-.7-1.8-1.2s-.8-1.1-.9-1.8c-.2-.7-.3-1.5-.3-2.3v-8.9h-3.9v18.6c0,2.3-.3,4-1,5.1s-2,1.7-3.9,1.7h-1c-.4,0-.7-.1-1-.1l-1.2-.2-.4,3.9c.4,.1,.9,.1,1.5,.2,.6,.1,1.3,.1,2.1,.1,1.4,0,2.7-.3,3.8-.8s2-1.2,2.8-2.2c.7-.9,1.3-2,1.7-3.3,.4-1.2,.6-2.6,.6-4v-3.7c.3,.8,.6,1.4,1.1,1.9s.9,.8,1.5,1.1c.5,.3,1.1,.4,1.6,.5,.6,.1,1.1,.1,1.7,.1h16.5v-35.5h-3.9l-.2001,31.3h0Z"/><path class="ab" d="M209.8,170.5h-3.8v35.5h3.8v-35.5Z"/><path class="ab" d="M257.3,201.9h-25.4c-1.3,0-2.2-.2-2.7-.7s-.8-1.5-.8-3v-6.8h-3.9v7.9c0,.9,.1,1.7,.3,2.5s.6,1.5,1.2,2.1c.5,.6,1.3,1.1,2.2,1.5s2.1,.5,3.5,.5h29.7v-18.8h-4l-.1,14.8h0Z"/><path class="ab" d="M247.2,180c.6,0,1.2-.2,1.6-.7,.4-.4,.7-1,.7-1.6s-.2-1.2-.7-1.6c-.4-.5-1-.7-1.6-.7s-1.2,.2-1.6,.7c-.4,.5-.7,1-.7,1.6s.2,1.2,.7,1.6c.4,.4,1,.7,1.6,.7Z"/><path class="ab" d="M240.6,180c.6,0,1.2-.2,1.6-.7s.7-1,.7-1.6-.2-1.2-.7-1.6c-.4-.5-1-.7-1.6-.7s-1.1,.2-1.6,.7c-.4,.5-.7,1-.7,1.6s.2,1.2,.7,1.6c.5,.4,1,.7,1.6,.7Z"/><path class="ab" d="M272.9,170.5h-3.8v35.5h3.8v-35.5Z"/><path class="ab" d="M282.2,205.7c0,2.3-.3,4-1,5.1s-2,1.7-3.9,1.7h-1c-.3,0-.7-.1-1-.1l-1.2-.2c-.1,.6-.1,1.3-.2,1.9-.1,.6-.2,1.3-.3,2,.4,.1,.9,.1,1.5,.2,.6,.1,1.3,.1,2.1,.1,1.4,0,2.7-.3,3.8-.8,1.1-.5,2-1.2,2.8-2.2,.8-.9,1.3-2,1.7-3.3,.4-1.2,.6-2.6,.6-4v-19h-4v18.6h.1Z"/><path class="ab" d="M371.4,201.9h-12.9c-1.3,0-2.3-.2-3.1-.6-.7-.4-1.3-.9-1.7-1.4-.4-.5-.6-1.1-.7-1.7-.1-.6-.2-1.1-.2-1.5,0-3.6-.8-6.4-2.5-8.4s-4-3-7-3c-1.4,0-2.8,.3-4,.8s-2.2,1.3-3.1,2.2-1.5,2.1-2,3.4c-.5,1.3-.7,2.7-.7,4.2,0,1.2-.1,2.2-.4,3-.2,.8-.6,1.4-1,1.8-.4,.4-.8,.7-1.3,.9s-1,.2-1.6,.2h-8.8c.4-.5,.8-1,1.2-1.6,.4-.6,.7-1.3,1-2.1s.6-1.5,.7-2.3c.2-.8,.3-1.6,.3-2.3,0-2.7-.7-4.8-2.1-6.2-1.4-1.5-3.3-2.2-5.6-2.2-1.3,0-2.5,.3-3.7,.8s-2.2,1.4-3,2.5c-.9,1.1-1.6,2.4-2.1,4s-.8,3.4-.8,5.5v4h-8.7v-31.5h-3.9v35.5h12.8v5.9c0,1.4,.2,2.7,.5,4,.4,1.3,.9,2.5,1.7,3.5,.8,1,1.7,1.8,3,2.4,1.2,.6,2.7,.9,4.5,.9,1.3,0,2.5-.2,3.5-.7s1.9-1.1,2.7-1.9c.7-.8,1.3-1.8,1.7-2.9,.4-1.1,.6-2.3,.6-3.6,0-1.1-.3-2.3-.8-3.6-.5-1.4-1.5-2.7-2.8-4.1h8.5c1,0,2.1-.3,3.1-1s1.7-1.7,2.2-3.1c.9,1.5,2,2.6,3.3,3.3s2.9,1.1,4.8,1.1c.8,0,1.5,0,2.3-.1,.7-.1,1.5-.3,2.2-.6s1.4-.8,2.1-1.4c.7-.6,1.3-1.5,2-2.5,.2,.9,.6,1.6,1,2.2,.5,.6,1,1,1.6,1.4,.6,.3,1.2,.6,1.9,.7s1.4,.2,2.1,.2h16.9v-35.5h-3.9l.2,31.4001h0Zm-61.4-3.2c0-2,.2-3.7,.6-5s.8-2.3,1.4-3,1.2-1.2,1.8-1.5c.7-.3,1.3-.4,1.8-.4,1.4,0,2.6,.5,3.5,1.5s1.3,2.3,1.3,4c0,1-.1,2-.4,2.9s-.6,1.7-1,2.4-.9,1.2-1.5,1.6c-.6,.4-1.1,.6-1.7,.6h-5.8v-3.1h0Zm11.5,15.4c0,.7-.1,1.3-.4,1.9-.3,.6-.6,1.2-1,1.6-.4,.5-1,.8-1.6,1.1s-1.3,.4-2,.4-1.4-.1-2.2-.4c-.8-.3-1.4-.7-2.1-1.3-.6-.6-1.1-1.4-1.5-2.4s-.6-2.2-.6-3.7v-5.4h6.2c.7,.5,1.3,1.1,2,1.8,.6,.7,1.2,1.4,1.6,2.1,.5,.7,.8,1.5,1.1,2.2,.4,.8,.5,1.5,.5,2.1Zm27.5-15.7c-.2,.7-.6,1.4-1.1,1.9-.5,.6-1.1,1-1.8,1.3-.8,.3-1.6,.5-2.6,.5s-1.9-.2-2.7-.5c-.7-.3-1.4-.8-1.8-1.3-.5-.6-.9-1.2-1.1-1.9s-.3-1.5-.3-2.4c0-1.1,.2-2,.5-2.9s.7-1.6,1.3-2.2c.5-.6,1.2-1.1,1.9-1.4s1.5-.5,2.3-.5c.7,0,1.5,.2,2.2,.5s1.3,.8,1.9,1.4c.5,.6,1,1.3,1.3,2.2s.5,1.8,.5,2.9c-.2,.9-.3,1.7-.5,2.4Z"/><path class="ab" d="M387,170.5h-3.8v35.5h3.8v-35.5Z"/><path class="aa" d="M650.4,91.9c6.6,0,11.9-5.3,11.9-11.9s-5.3-11.9-11.9-11.9-11.9,5.3-11.9,11.9c0,6.5,5.4,11.9,11.9,11.9Z"/><path class="z" d="M602.2,43.1c6.6,0,11.9-5.3,11.9-11.9s-5.3-11.9-11.9-11.9-11.9,5.3-11.9,11.9,5.3,11.9,11.9,11.9Z"/><path class="x" d="M504.1,43.1c6.6,0,11.9-5.3,11.9-11.9s-5.3-11.9-11.9-11.9-11.9,5.3-11.9,11.9,5.3,11.9,11.9,11.9Z"/><path class="y" d="M553.2,23.8c6.6,0,11.9-5.3,11.9-11.9-.1-6.6-5.4-11.9-11.9-11.9-6.6,0-11.9,5.3-11.9,11.9s5.3,11.9,11.9,11.9Z"/><path class="w" d="M604.1,164.9c-3,0-5.4-2.4-5.4-5.4v-47.1c0-1.8,.9-3.4,2.3-4.4l43-30.1c2.5-1.7,5.8-1.1,7.6,1.3,1.7,2.5,1.1,5.8-1.3,7.6l-40.6,28.4v44.2c-.1,3.1-2.6,5.5-5.6,5.5Z"/><path class="p" d="M553.1,70.4c-1.7,0-3.4-.8-4.4-2.3-1.7-2.5-1.1-5.8,1.3-7.6l53.9-37.7c2.5-1.7,5.8-1.1,7.6,1.3,1.7,2.5,1.1,5.8-1.3,7.6l-53.9,37.7c-.9999,.7-2.0999,1-3.2,1Z"/><path class="r" d="M537.3,191.3c-3,0-5.4-2.4-5.4-5.4V98.4l-60.3-42.3c-2.5-1.7-3.1-5.1-1.3-7.6,1.7-2.5,5.1-3.1,7.6-1.3l62.6,43.9c1.4,1,2.3,2.7,2.3,4.4v90.2c-.1,3.1-2.5,5.6-5.5,5.6Z"/><path class="s" d="M455.8,91.9c6.6,0,11.9-5.3,11.9-11.9s-5.3-11.9-11.9-11.9-11.9,5.3-11.9,11.9c.1,6.5,5.4,11.9,11.9,11.9Z"/><path class="o" d="M536.8,197.4c6.6,0,11.9-5.3,11.9-11.9s-5.3-11.9-11.9-11.9-11.9,5.3-11.9,11.9,5.3,11.9,11.9,11.9Z"/><path class="t" d="M502.1,164.9c-3,0-5.4-2.4-5.4-5.4v-44.2l-40.6-28.4c-2.5-1.7-3.1-5.1-1.3-7.6,1.7-2.5,5.1-3.1,7.6-1.3l42.9,30.1c1.4,1,2.3,2.7,2.3,4.4v47c-.1,3-2.5,5.4-5.5,5.4Z"/><path class="v" d="M553.1,70.4c-1.1,0-2.2-.3-3.1-1l-53.9-37.7c-2.5-1.7-3.1-5.1-1.3-7.6,1.7-2.5,5.1-3.1,7.6-1.3l53.9,37.7c2.5,1.7,3.1,5.1,1.3,7.6-1.1,1.5-2.8,2.3-4.5001,2.3Z"/><path class="q" d="M568.9,191.3c3,0,5.4-2.4,5.4-5.4V98.4l60.3-42.3c2.5-1.7,3.1-5.1,1.3-7.6-1.7-2.5-5.1-3.1-7.6-1.3l-62.6,43.9c-1.4,1-2.3,2.7-2.3,4.4v90.2c0,3.1,2.4999,5.6,5.4999,5.6Z"/><path class="u" d="M569.5,197.4c6.6,0,11.9-5.3,11.9-11.9s-5.3-11.9-11.9-11.9-11.9,5.3-11.9,11.9,5.3,11.9,11.9,11.9Z"/></svg>