<?xml version="1.0" encoding="UTF-8"?><svg id="a" xmlns="http://www.w3.org/2000/svg" width="175" height="175" viewBox="0 0 175 175"><defs><style>.b{fill:#02b4df;}.c{fill:#43b766;}.d{fill:#9c50bc;}.e{fill:#4c4a4c;}.f{fill:#502390;}</style></defs><path class="e" d="M37.2186,76.7716h5.4921v-6.5799c0-.8066,.2628-1.4906,.8425-2.0529,.2699-.2722,.5911-.4882,.9449-.6356,.3538-.1474,.7334-.2233,1.1167-.2233s.7628,.0759,1.1167,.2233c.3538,.1475,.675,.3634,.9449,.6356,.2786,.2633,.4991,.5819,.6472,.9355,.1481,.3536,.2205,.7342,.2127,1.1174v4.529h2.2103v1.281h-2.8431c-.1712-.0029-.3345-.0722-.4555-.1934-.121-.1212-.1901-.2846-.1927-.4558v-5.1608c-.0292-.4128-.2138-.7991-.5167-1.0813-.3028-.2821-.7012-.4389-1.115-.4389s-.8123,.1568-1.115,.4389c-.3028,.2821-.4874,.6685-.5166,1.0813v7.229c-.0035,.1695-.0736,.3308-.1951,.449-.1215,.1183-.2847,.1839-.4541,.1828h-6.1587c-1.0172,0-1.8944-.369-2.6489-1.1052-.358-.3482-.6409-.766-.8311-1.2278-.1902-.4617-.2838-.9576-.275-1.4569,.0026-.7159,.2-1.4177,.571-2.0301,.371-.6123,.9016-1.1121,1.5351-1.4459l.368-.1932c.0323-.0137,.0673-.0196,.1022-.0174,.0433-.0023,.0862,.008,.1237,.0299,.0374,.0218,.0676,.0541,.0869,.0928l.368,.7371c.0181,.0389,.0302,.0802,.0358,.1227,.0011,.0408-.0099,.081-.0318,.1154-.0218,.0345-.0535,.0616-.0909,.0778l-.369,.1932c-.4245,.2209-.781,.5531-1.0313,.961-.2503,.4078-.385,.8761-.3897,1.3547,.0053,.6644,.2718,1.3002,.7417,1.7699,.4699,.4697,1.1057,.7359,1.7702,.741Zm1.7022,3.1938v1.0346c0,.1585-.0695,.228-.2279,.228h-.8792c-.1585,0-.228-.0695-.228-.228v-1.0346c0-.1585,.0695-.2464,.228-.2464h.8772c.1605,0,.23,.088,.23,.2464Zm2.3341,0v1.0346c0,.1585-.0706,.228-.228,.228h-.8618c-.1575,0-.2454-.0695-.2454-.228v-1.0346c-.004-.0332-.0003-.0669,.0106-.0985,.0109-.0316,.0289-.0604,.0524-.0841,.0236-.0236,.0523-.0418,.0838-.0528s.0652-.0148,.0985-.0111h.8608c.1615,0,.229,.088,.229,.2464Z"/><path class="e" d="M53.706,73.7534v-5.8949c-.0039-.0331-.0003-.0668,.0106-.0983,.0109-.0316,.0289-.0602,.0525-.0839,.0236-.0236,.0523-.0416,.0839-.0525,.0316-.0109,.0652-.0146,.0983-.0106h.8067c.0331-.004,.0668-.0003,.0983,.0106,.0316,.0109,.0602,.0289,.0839,.0525,.0236,.0236,.0416,.0523,.0525,.0839,.0109,.0316,.0146,.0652,.0106,.0983v6.1403c-.0079,.0789,.0006,.1585,.0248,.234,.0243,.0755,.0638,.1451,.1163,.2046,.1748,.1758,.5265,.2811,1.0356,.2811h.824v1.281h-.5971c-.8587,0-1.508-.229-1.9291-.6492-.0174-.0184-.0358-.0184-.0358-.0348-.011,.0324-.0288,.062-.0521,.0869-.4039,.409-.9478,.597-1.6358,.597h-2.6274v-1.279h2.6663c.6318,0,.9129-.3179,.9129-.9671Zm-.0184-8.4384v-1.0356c0-.1585,.0705-.2454,.2279-.2454h.8608c.0331-.0037,.0667,0,.0982,.0111,.0315,.011,.0601,.029,.0837,.0526,.0235,.0235,.0415,.0521,.0525,.0836,.011,.0314,.0148,.065,.0111,.0982v1.0356c0,.1564-.088,.2269-.2454,.2269h-.8608c-.1533,0-.2279-.0705-.2279-.2269Z"/><path class="e" d="M65.7399,75.9992h-9.1754v-1.279h2.7542v-11.161c-.0017-.0342,.004-.0683,.0169-.1001,.0129-.0318,.0325-.0603,.0575-.0836,.025-.0234,.0548-.041,.0873-.0517,.0326-.0106,.067-.014,.101-.0099h.8076c.1574,0,.228,.0879,.228,.2454v6.1586c1.738-1.6143,3.2458-2.4383,4.5084-2.4383,2.2813,0,3.5979,1.7012,3.5979,4.0526v1.6848c0,1.8586-1.1237,2.9822-2.9836,2.9822Zm1.7021-2.9822v-1.6848c.0113-.5652-.1088-1.1251-.3515-1.6358-.3854-.7545-1.052-1.1399-1.965-1.1399-.5961,0-1.3286,.2975-2.2278,.8587-.8699,.5443-1.6411,1.2327-2.2806,2.0355v3.2695h5.1228c1.1758,0,1.7021-.5286,1.7021-1.7033Z"/><path class="e" d="M77.4034,76.2102v-.2106h-2.4039c-.9834,.0014-1.9279-.3877-2.6252-1.0817-.6973-.694-1.091-1.6364-1.0941-2.6202v-1.3158c-.0057-.4869,.0874-.9698,.2748-1.4194,.1874-.4495,.464-.856,.8143-1.1948,.3421-.3501,.7514-.6271,1.2041-.814,.4521-.187,.9375-.2801,1.4274-.2737,.9809,.0032,1.9203,.3943,2.6139,1.0878,.6936,.6936,1.0847,1.6333,1.0878,2.6141v3.7387h2.6504v1.281h-2.651v.2106c0,.9294-.3509,1.738-1.035,2.421-.3125,.3262-.6885,.5847-1.1048,.7596-.4163,.175-.8646,.2626-1.3161,.2576h-1.826c-.0308,.0038-.0623,.0006-.0912-.0096-.0296-.0101-.0566-.0268-.0786-.0488-.022-.0219-.0384-.0487-.0484-.078-.0101-.0294-.0132-.0607-.0094-.0916v-.824c-.0038-.0309-.0006-.0622,.0094-.0916,.0101-.0294,.0264-.0561,.0484-.0781,.022-.022,.049-.0387,.0786-.0488,.0289-.0101,.0604-.0134,.0912-.0096h1.826c.5691-.012,1.1111-.2436,1.5129-.6462,.4024-.4026,.6332-.9451,.6445-1.514Zm-2.4039-1.4896h2.4039v-3.7387c0-.6399-.2547-1.2536-.7068-1.706-.4527-.4525-1.0664-.7067-1.7059-.7067-.6401,0-1.2538,.2542-1.7065,.7067-.4521,.4525-.7068,1.0662-.7068,1.706v1.3158c.0082,.6399,.266,1.2515,.7181,1.7042,.4527,.4527,1.0639,.7106,1.704,.7188Z"/><path class="e" d="M83.7171,73.7708v-10.1938c0-.1574,.0698-.2454,.2283-.2454h.8237c.1585,0,.2283,.0879,.2283,.2454v10.1938c0,1.3689-.8772,2.2288-2.2278,2.2288h-2.0354v-1.279h2.053c.6489-.0194,.93-.318,.93-.9498Z"/><path class="e" d="M88.8901,75.9995h-.8413c-.1585,0-.2289-.0705-.2289-.229v-12.211c0-.1574,.0704-.2279,.2289-.2279h.8413c.1402,0,.2106,.0706,.2106,.2279v12.211c0,.1585-.0673,.229-.2106,.229Z"/><path class="e" d="M97.116,76.6631v-8.7922c0-.1574,.0704-.2454,.2289-.2454h.8256c.0327-.0037,.0667,0,.0981,.0111,.0314,.011,.0597,.0289,.0836,.0525,.0233,.0236,.0415,.0522,.0522,.0836,.0113,.0315,.0151,.065,.0113,.0982v6.8497h2.6818v1.281h-2.6818v.6614c0,1.8597-1.1413,2.9822-3.0006,2.9822h-.8772c-.1585,0-.2289-.0695-.2289-.228v-.824c0-.1585,.0704-.2279,.2289-.2279h.8772c1.1758,.003,1.7009-.5235,1.7009-1.7023Zm0-11.3481v-1.0356c0-.1585,.0704-.2454,.2289-.2454h.8589c.0333-.0039,.0673-.0003,.0987,.0107,.0314,.0109,.0604,.0289,.0836,.0524,.0239,.0236,.0421,.0523,.0528,.0838,.0113,.0316,.0151,.0652,.0113,.0985v1.0356c0,.1564-.088,.2269-.2465,.2269h-.8589c-.1585,0-.2289-.0706-.2289-.2269Z"/><path class="e" d="M106.9396,63.9981h1.4563c.1585,0,.2289,.0706,.2289,.228v.825c0,.1574-.0704,.228-.2289,.228h-1.4563c-1.8235,0-2.8421,.9651-3.0352,2.8626h3.281c1.1243,0,2.0536,.369,2.79,1.1246,.7357,.7555,1.0878,1.7012,1.0878,2.8421v1.6664c0,1.3689-.8589,2.2287-2.2291,2.2287h-8.6132v-1.283h8.5968c.6483,0,.9639-.2975,.9639-.9477v-1.6664c0-1.5795-1.0344-2.6847-2.5963-2.6847h-3.9476c-.1698,.0014-.3326-.0642-.4546-.1825-.1214-.1183-.1912-.2797-.1943-.4493,0-2.8799,1.5261-4.7918,4.3506-4.7918Z"/><path class="e" d="M114.7259,76.6631v-8.7922c-.0038-.0331,0-.0667,.0113-.0982,.0107-.0315,.0289-.06,.0522-.0836,.0239-.0236,.0522-.0416,.0836-.0526,.0314-.011,.0654-.0148,.0981-.011h.808c.0327-.0034,.066,.0006,.0975,.0118,.0314,.0112,.0597,.0292,.083,.0527,.0233,.0235,.0415,.0519,.0522,.0833,.0113,.0313,.0151,.0646,.0113,.0977v6.8497h2.6667v1.281h-2.6667v.6615c0,1.8597-1.1406,2.9822-3.0006,2.9822h-.8778c-.1578,0-.2283-.0695-.2283-.2279v-.824c0-.1585,.0704-.228,.2283-.228h.8778c1.1771,.0031,1.7034-.5234,1.7034-1.7022Z"/><path class="e" d="M128.9888,74.7204h1.3161v1.281h-1.0708c-.913,0-1.6676-.368-2.1046-1.0173-.337,.3285-.7344,.5874-1.1714,.7619-.4364,.1746-.9036,.2613-1.3733,.2554h-6.7551v-1.281h3.0528v-3.7387c-.0057-.4896,.0874-.9753,.2742-1.4277,.1874-.4525,.464-.8624,.8137-1.2048,.3421-.3453,.7495-.6194,1.1985-.8064,.4483-.187,.93-.2833,1.416-.2833s.9671,.0963,1.416,.2833c.4483,.1871,.8558,.4612,1.1978,.8064,.3509,.3419,.6288,.7515,.8168,1.2041,.188,.4525,.2817,.9385,.276,1.4285v1.3157c.0025,.5989-.1421,1.1892-.42,1.7196,.1132,.4734,.5376,.7034,1.1174,.7034Zm-6.8249-3.7367v3.7367h2.4208c.6414-.0014,1.2563-.2569,1.7103-.7106,.4534-.4537,.7093-1.0687,.7105-1.7104v-1.3178c0-.6421-.2553-1.2579-.7093-1.7119s-1.0696-.7091-1.7116-.7091-1.2582,.2551-1.7122,.7091-.7086,1.0698-.7086,1.7119v.002Z"/><path class="e" d="M132.8452,73.7708v-10.1938c0-.1574,.0704-.2454,.2282-.2454h.8237c.1585,0,.2283,.0879,.2283,.2454v10.1938c0,1.3689-.8772,2.2288-2.2278,2.2288h-2.0354v-1.279h2.0524c.6495-.0194,.9306-.318,.9306-.9498Z"/><path class="e" d="M138.0195,75.9995h-.8413c-.1585,0-.2295-.0705-.2295-.229v-12.211c0-.1574,.0711-.2279,.2295-.2279h.8413c.1408,0,.2106,.0706,.2106,.2279v12.211c0,.1585-.0698,.229-.2106,.229Z"/><path class="e" d="M4.1272,96.9136h5.5841v-6.6013c-.011-.3843,.0596-.7666,.2073-1.1215,.1477-.3549,.369-.6745,.6494-.9375,.5578-.5521,1.311-.8619,2.0958-.8619s1.538,.3097,2.0958,.8619c.283,.262,.5074,.5809,.6582,.9358s.2247,.7377,.2169,1.1233v4.5423h2.2491v1.2851h-2.8922c-.173-.0016-.3386-.0704-.4617-.192-.1231-.1216-.194-.2863-.1977-.4593v-5.1761c0-.4401-.1748-.8621-.486-1.1733-.3112-.3112-.7332-.486-1.1733-.486s-.8621,.1748-1.1733,.486c-.3112,.3111-.486,.7332-.486,1.1733v7.2525c-.0045,.1713-.0765,.3339-.2001,.4525-.1236,.1187-.289,.1838-.4603,.1813H4.0914c-1.0377,0-1.9261-.3732-2.6939-1.1082-.3629-.3473-.6502-.7659-.8437-1.2295-.1935-.4636-.2892-.9622-.2809-1.4645,.0058-.7215,.209-1.4277,.5874-2.042,.3784-.6143,.9177-1.1134,1.5595-1.4431l.3742-.1943c.0323-.0135,.0673-.0194,.1022-.0174,.0439-.0023,.0875,.0082,.1256,.0301,.0381,.0219,.069,.0545,.0891,.0936l.3752,.7392c.0175,.039,.0295,.0803,.0358,.1227,.0012,.0411-.0101,.0817-.0323,.1164-.0223,.0346-.0545,.0618-.0924,.0778l-.3752,.1932c-.4297,.219-.7914,.5512-1.0462,.9607-.2548,.4095-.3929,.8808-.3995,1.363-.001,1.373,1.1593,2.5171,2.5508,2.5171Zm1.7298,3.2041v1.0387c0,.1585-.0716,.228-.2321,.228h-.8905c-.1615,0-.2331-.0695-.2331-.228v-1.0387c0-.1585,.0716-.2464,.2331-.2464h.8905c.1605-.001,.2321,.088,.2321,.2464Zm2.3729,0v1.0387c0,.1585-.0706,.228-.2311,.228h-.8751c-.1605,0-.2494-.0695-.2494-.228v-1.0387c-.0038-.0336,0-.0676,.0113-.0995,.0113-.0319,.0296-.0608,.0535-.0846,.024-.0238,.0531-.0419,.0851-.0529,.032-.0109,.066-.0145,.0996-.0104h.8751c.1605,0,.2311,.089,.2311,.2474Z"/><path class="e" d="M20.8917,93.9028v-5.9296c-.0036-.0335,.0004-.0674,.0116-.0992,.0113-.0318,.0297-.0606,.0536-.0842,.024-.0237,.053-.0417,.0849-.0526,.0319-.0109,.0658-.0145,.0993-.0104h.8179c.0335-.004,.0674-.0005,.0993,.0104,.0319,.0109,.0609,.0289,.0849,.0526,.024,.0236,.0423,.0524,.0536,.0842,.0113,.0318,.0153,.0656,.0117,.0992v5.9296c0,1.3741-.9099,2.2369-2.284,2.2369h-2.6724v-1.2851h2.7113c.6431-.0174,.9283-.3006,.9283-.9519Zm1.3383-9.5222v1.0387c0,.1574-.0889,.2291-.2494,.2291h-.8752c-.1605,0-.231-.0716-.231-.2291v-1.0387c0-.1585,.0706-.2464,.231-.2464h.8752c.0335-.004,.0674-.0005,.0993,.0104,.0319,.0109,.0609,.0289,.0849,.0526,.024,.0236,.0423,.0524,.0536,.0842,.0113,.0318,.0153,.0656,.0116,.0992Z"/><path class="e" d="M30.6837,96.3505v-.2106h-2.4434c-.4938,.0066-.9838-.0867-1.4406-.2743-.4568-.1876-.8709-.4657-1.2175-.8176-.3546-.3377-.6359-.7447-.8262-1.196-.1903-.4512-.2856-.9367-.2799-1.4263v-1.3209c-.0058-.4896,.0894-.9753,.2797-1.4264,.1903-.4512,.4717-.8583,.8264-1.1959,.708-.6993,1.663-1.0913,2.6581-1.0913s1.9501,.3921,2.6581,1.0913c.3546,.3377,.6358,.7449,.8261,1.196,.1903,.4512,.2857,.9367,.2801,1.4263v5.2457c.0043,.4545-.0854,.905-.2635,1.3232-.178,.4182-.4406,.795-.7711,1.107-.3231,.3285-.7093,.5885-1.1353,.7642-.426,.1757-.8831,.2635-1.3439,.2582h-1.8566c-.1605,0-.232-.0706-.232-.229v-.8281c0-.1585,.0716-.229,.232-.229h1.8566c1.1767-.001,2.1929-1.005,2.1929-2.1664Zm-2.4434-1.4957h2.4434v-3.75c-.0067-.6445-.2668-1.2605-.724-1.7149-.4572-.4543-1.0749-.7105-1.7194-.7132-1.3372,0-2.4618,1.0909-2.4618,2.4281v1.3209c0,1.3198,1.1245,2.4291,2.4618,2.4291Z"/><path class="e" d="M35.7117,96.8086v-8.8198c-.0035-.0336,.0006-.0675,.0121-.0992s.0299-.0606,.0539-.0842c.0241-.0236,.0531-.0416,.0851-.0525s.0659-.0145,.0994-.0105h.8179c.0335-.0038,.0673-.0001,.0991,.0109,.0318,.0109,.0607,.0289,.0847,.0526,.0239,.0236,.0423,.0524,.0536,.084,.0114,.0317,.0155,.0655,.012,.099v6.8661h2.7113v1.2851h-2.7082v.6686c0,1.8658-1.1593,2.9924-3.0507,2.9924h-.8925c-.1605,0-.232-.0705-.232-.229v-.826c0-.1585,.0716-.229,.232-.229h.8925c1.1951-.0011,1.7299-.5296,1.7299-1.7084Z"/><path class="e" d="M42.8998,93.8864v-5.9143c-.0041-.0321-.0011-.0648,.0089-.0955,.01-.0308,.0267-.059,.0489-.0826,.0222-.0236,.0494-.0419,.0795-.0537,.0301-.0118,.0625-.0168,.0948-.0145h.8394c.1605,0,.231,.0869,.231,.2464v6.1607c-.005,.0804,.0068,.1609,.0344,.2366s.0706,.1447,.1261,.203c.1789,.1759,.5357,.2822,1.053,.2822h.8383v1.2851h-.6062c-.8752,0-1.552-.23-1.9803-.6512,0-.0184-.0184-.0184-.0184-.0358l-.0716,.0879c-.4089,.409-.9446,.5991-1.6409,.5991h-3.067v-1.2851h3.1038c.6451,0,.9262-.3343,.9262-.9682Zm-1.2268-8.4671v-1.0387c-.0037-.0335,.0003-.0674,.0116-.0992,.0113-.0318,.0296-.0606,.0536-.0842,.024-.0237,.053-.0417,.085-.0526,.0319-.0109,.0658-.0145,.0993-.0104h.8925c.1605,0,.2321,.0879,.2321,.2464v1.0387c0,.1574-.0716,.2291-.2321,.2291h-.8925c-.1646,0-.2535-.0716-.2535-.2291h.0041Zm2.3912,0v-1.0387c0-.1585,.0716-.2464,.2321-.2464h.8741c.0335-.004,.0674-.0005,.0993,.0104,.0319,.0109,.0609,.0289,.0849,.0526,.024,.0236,.0423,.0524,.0536,.0842,.0113,.0318,.0153,.0656,.0117,.0992v1.0387c0,.1574-.089,.2291-.2494,.2291h-.8741c-.1646,0-.2362-.0716-.2362-.2291h.0041Z"/><path class="e" d="M52.6377,84.0997h1.4824c.0311-.0045,.0629-.0018,.0929,.008,.0299,.0098,.0572,.0264,.0796,.0485,.0224,.0221,.0396,.049,.0499,.0787,.0103,.0297,.0136,.0615,.0097,.0927v.8281c0,.1585-.0716,.2464-.2321,.2464h-1.4824c-1.8545,0-2.8902,.9508-3.0854,2.8513h3.3185c1.1409,0,2.0866,.3691,2.836,1.1246,.7494,.7555,1.1246,1.7074,1.1246,2.8513v1.9016c0,.2106,.0541,.3517,.1615,.4396,.1779,.1759,.5173,.2822,1.052,.2822h.9314v1.2851h-.7156c-.8741,0-1.5172-.23-1.9425-.6512l-.0358-.0358c-.3916,.4407-.9631,.687-1.7125,.687h-8.7636v-1.283h8.7421c.6594,0,.9815-.2996,.9815-.9682v-1.6552c0-1.5847-1.053-2.6929-2.6581-2.6929h-3.9964c-.0862,.0009-.1717-.0152-.2517-.0475-.08-.0323-.1527-.0801-.2141-.1406-.0614-.0606-.1102-.1327-.1436-.2122s-.0507-.1648-.051-.251c0-2.8872,1.5693-4.7877,4.4227-4.7877Z"/><path class="e" d="M61.4667,93.9031v-10.2235c0-.1585,.0716-.2464,.2321-.2464h.8383c.1607,0,.2318,.0879,.2318,.2464v10.2235c0,1.374-.8922,2.2369-2.2662,2.2369h-2.0682v-1.2851h2.0866c.6605-.0174,.9457-.3169,.9457-.9518Z"/><path class="e" d="M72.2762,93.1473v-9.471c0-.1585,.0717-.2464,.2333-.2464h.8369c.1603,0,.232,.088,.232,.2464v9.471c0,1.8822-1.1419,2.9924-3.032,2.9924h-5.2819c-.1603,0-.232-.0879-.232-.2464v-.8098c0-.1585,.0717-.229,.232-.229h5.2819c1.1947,0,1.7298-.5285,1.7298-1.7073Zm-4.1745,5.6147v1.0387h1.8197c.1075,0,.1792,.0522,.1792,.1585v.369c.0013,.0238-.0025,.0475-.0107,.0697-.0088,.0223-.022,.0424-.039,.0591-.017,.0167-.0371,.0297-.0591,.0379-.0226,.0083-.0465,.0118-.0704,.0101h-3.0333c-.1019,0-.1603-.0706-.1603-.1769v-.369c-.0031-.0218-.0013-.0439,.0057-.0647,.0069-.0208,.0189-.0397,.0346-.0551,.0157-.0154,.0346-.0269,.0553-.0336,.0214-.0067,.0434-.0084,.0648-.005h.4999v-1.0387c.005-.3518,.1484-.6876,.3987-.9348,.2503-.2472,.5879-.3859,.94-.3861,.5879,0,.9979,.2821,1.2268,.8107l.0887,.1759c.0145,.0204,.0214,.0455,.0189,.0705,0,.0695-.0534,.1022-.1251,.1401l-.3402,.1421c-.0283,.012-.0585,.0176-.0893,.0163-.0704,0-.1019-.0348-.1421-.1022l-.0541-.1585c-.0446-.1183-.1258-.2194-.2308-.289-.1056-.0696-.2308-.1041-.3572-.0985-.1629,.0021-.3182,.0672-.4339,.1815s-.1824,.2692-.1867,.4319Zm-.3395-5.5974v-8.0765c0-.1585,.0717-.2464,.2326-.2464h.8388c.161,0,.2314,.0879,.2314,.2464v8.0765c0,.1585-.0704,.229-.2314,.229h-.8388c-.161,0-.2326-.0664-.2326-.229Z"/><path class="e" d="M77.536,96.1397h-.857c-.1603,0-.232-.0716-.232-.23v-12.2509c0-.1585,.0717-.229,.232-.229h.857c.1434,0,.2138,.0706,.2138,.229v12.2509c0,.1585-.0704,.23-.2138,.23Z"/><path class="e" d="M95.837,94.8549h1.4097v1.2851h-1.1589c-.9457,0-1.6952-.3701-2.141-1.0224-.6948,.6674-1.6242,1.0347-2.5875,1.0224h-4.4066c-.3131-.0011-.6143,.1218-.8376,.3418-.2232,.2201-.3502,.5194-.3534,.8328v2.376c0,.1585-.0887,.229-.2496,.229h-.8388c-.161,0-.2327-.0705-.2327-.229v-2.376c0-1.3546,1.1425-2.4812,2.5164-2.4812h.642v-3.7459c-.0057-.4898,.0899-.9754,.2798-1.4268,.1905-.4513,.4716-.8586,.8262-1.1966,.3465-.3516,.7608-.6294,1.218-.8169,.4565-.1874,.9463-.2806,1.4399-.2739,.4911-.0069,.979,.0863,1.433,.2739,.454,.1875,.8646,.4655,1.2079,.8169,.3546,.3378,.6363,.7451,.8262,1.1965,.1905,.4513,.2855,.9371,.2798,1.4269v1.3383c.0025,.6014-.1446,1.1939-.427,1.7247,.1207,.458,.5867,.7044,1.1538,.7044Zm-6.9394-3.7673v3.75h2.4617c.3201,.0033,.6376-.0563,.9344-.1757,.2974-.1193,.5678-.296,.7967-.52,.2283-.224,.4106-.4908,.5364-.7852,.1258-.2945,.1918-.6107,.1955-.9308v-1.3383c0-1.3198-1.1249-2.4107-2.463-2.4107s-2.4617,1.0909-2.4617,2.4107Z"/><path class="e" d="M100.348,93.8866v-5.9143c-.0038-.0335,0-.0675,.0113-.0992,.0113-.0318,.0296-.0606,.0534-.0842,.0239-.0237,.0535-.0417,.0849-.0526,.0321-.0109,.066-.0145,.0993-.0104h.8181c.0333-.004,.0673-.0005,.0993,.0104,.0321,.0109,.061,.0289,.0849,.0526,.0239,.0236,.0421,.0524,.0534,.0842,.0113,.0318,.0151,.0657,.0119,.0992v6.1606c-.0082,.0792,.0006,.1592,.0252,.2349,.0245,.0757,.0648,.1454,.1176,.2047,.178,.1759,.5357,.2822,1.0532,.2822h.8382v1.2851h-.6074c-.874,0-1.533-.23-1.9618-.6512-.017-.0184-.0358-.0184-.0358-.0358-.0107,.0328-.0289,.0629-.0528,.088-.4087,.4089-.9639,.599-1.6606,.599h-2.6724v-1.2851h2.7113c.6433,0,.9287-.3169,.9287-.9682Zm-.6822,4.1722v1.0224c0,.1585-.0723,.2464-.232,.2464h-.8916c-.1603,0-.2327-.0879-.2327-.2464v-1.0224c0-.1585,.0723-.2464,.2327-.2464h.8916c.1635,0,.232,.0879,.232,.2464Zm2.39,0v1.0224c.0038,.0335,0,.0674-.0113,.0992s-.0296,.0606-.0534,.0842c-.0245,.0237-.0535,.0417-.0849,.0526-.0321,.0109-.066,.0145-.0993,.0104h-.8753c-.0333,.004-.0673,.0005-.0993-.0104-.0321-.0109-.061-.0289-.0849-.0526-.0239-.0236-.0421-.0524-.0534-.0842-.0113-.0318-.0157-.0657-.0119-.0992v-1.0224c-.0038-.0335,.0006-.0674,.0119-.0992,.0113-.0318,.0296-.0605,.0534-.0842,.0239-.0237,.0528-.0417,.0849-.0526,.0321-.0109,.066-.0145,.0993-.0104h.8809c.0333-.0037,.0673,.0001,.0987,.0112,.0321,.011,.0604,.029,.0843,.0527,.0239,.0236,.0421,.0523,.0535,.0839,.0107,.0316,.0151,.0653,.0113,.0987h-.0044Z"/><path class="e" d="M106.3756,93.8864v-10.2102c0-.1585,.0717-.2464,.232-.2464h.8382c.161,0,.232,.088,.232,.2464v10.4566c0,.2106,.0535,.3517,.161,.4396,.178,.1759,.5345,.2821,1.0526,.2821h.9092v1.2851h-.6954c-.9099,0-1.5336-.2464-1.9801-.687-.0195,.0326-.044,.0622-.0717,.0879-.3924,.409-.9457,.5991-1.6361,.5991h-2.1586v-1.2851h2.1762c.637,0,.9407-.3169,.9407-.9682Z"/><path class="e" d="M121.4848,96.1401h-12.2199v-1.2851h4.1381l-1.748-3.6804c-.0346-.0897-.0528-.185-.0528-.2811v-.089c.1245-.8792,.5514-1.6542,1.3022-2.3228,.8023-.7402,1.694-1.1093,2.6938-1.1093,.996-.0001,1.9562,.3701,2.6937,1.0387,.7841,.686,1.2136,1.4957,1.3029,2.4291v.0705c-.0013,.0905-.0189,.18-.0534,.2638l-1.7493,3.6804h3.6929v1.2851Zm-7.6184-6.7997c-.4804,.4232-.8017,.9201-.9262,1.4609l1.9084,4.0495h1.5166l1.9071-4.0628c-.0899-.5797-.393-1.0735-.9281-1.4784-.4892-.4109-1.1092-.6351-1.748-.6328-.6225,0-1.1934,.228-1.7298,.6635Z"/><path class="e" d="M124.979,93.8864v-5.9143c-.0038-.032-.0006-.0646,.0088-.0953,.0101-.0307,.027-.0589,.049-.0824,.022-.0236,.049-.0419,.0786-.0538,.0302-.0119,.0629-.0169,.0949-.0148h.8394c.1603,0,.2308,.0869,.2308,.2464v6.1607c-.005,.0804,.0069,.1609,.0346,.2366,.0277,.0756,.0704,.1447,.1258,.203,.1792,.1759,.5351,.2822,1.0532,.2822h.8382v1.2851h-.6062c-.8753,0-1.5519-.23-1.9813-.6512,0-.0184-.017-.0184-.017-.0358l-.0717,.0879c-.4093,.409-.9451,.5991-1.6361,.5991h-3.0666v-1.2851h3.1037c.6357,0,.9218-.3343,.9218-.9682Zm-1.2268-8.4671v-1.0387c-.0031-.0335,.0006-.0673,.012-.0989,.0119-.0317,.0302-.0604,.0541-.084,.0239-.0236,.0528-.0416,.0843-.0526,.0321-.0109,.066-.0147,.0993-.0108h.8923c.161,0,.2326,.0879,.2326,.2464v1.0387c0,.1574-.0717,.2291-.2326,.2291h-.896c-.161,0-.2509-.0716-.2509-.2291h.005Zm2.3913,0v-1.0387c0-.1585,.0717-.2464,.232-.2464h.874c.034-.004,.0679-.0005,.0993,.0104,.0321,.0109,.061,.0289,.0849,.0526,.0245,.0236,.0428,.0524,.0541,.0842,.0113,.0318,.0151,.0656,.0113,.0992v1.0387c0,.1574-.0887,.2291-.2496,.2291h-.874c-.1654,0-.2371-.0716-.2371-.2291h.005Z"/><path class="e" d="M131.006,93.8864v-10.2102c0-.1585,.0717-.2464,.232-.2464h.8363c.1616,0,.2333,.088,.2333,.2464v10.4566c0,.2106,.0528,.3517,.1603,.4396,.178,.1759,.5345,.2821,1.052,.2821h.9099v1.2851h-.6948c-.9099,0-1.5336-.2464-1.9807-.687-.0195,.0326-.0434,.0622-.0717,.0879-.3924,.409-.9457,.5991-1.6355,.5991h-2.1643v-1.2851h2.1769c.6426,0,.9463-.3169,.9463-.9682Z"/><path class="e" d="M136.9273,93.9031v-10.2235c0-.1585,.0717-.2464,.232-.2464h.8382c.161,0,.2326,.0879,.2326,.2464v10.2235c0,1.374-.8929,2.2369-2.2668,2.2369h-2.0681v-1.2851h2.0863c.6609-.0174,.9457-.3169,.9457-.9518Z"/><path class="e" d="M.8567,106.1283c.0235,.1779,.0378,1.9087,.0378,2.2052l.0123,4.9809H.0123l-.0123-8.3128H1.3117l2.7716,5.261c.0818,.1656,.8802,1.6951,.9508,1.8719h.0818c-.0235-.2494-.0266-2.0447-.0266-2.2297l-.0072-4.9073h.8782l.0123,8.3128h-1.2882l-2.7951-5.2988c-.0818-.1656-.869-1.6818-.9395-1.8832h-.093Z"/><path class="e" d="M12.1843,108.7075v2.9178c0,.5807,.1779,.9712,.6226,.9712h.1646v.6758c-.1022,.0495-.2147,.0741-.3282,.0716-.6328,0-1.008-.3424-1.1604-.781h-.046c-.3067,.3558-.8179,.8669-1.8955,.868-1.1828,0-1.8402-.8384-1.8402-1.7155,0-1.4231,1.3781-2.1254,3.6386-2.0937v-.6993c0-1.055-.5061-1.3628-1.3485-1.3618-.8424,.0011-1.2646,.4764-1.4507,.7852l-.6686-.5326c.2218-.3067,.8179-1.0571,2.1408-1.0591,1.3607-.002,2.1694,.6011,2.1715,1.9537Zm-.8404,1.6357c-1.5335-.0572-2.7399,.3241-2.7379,1.2964,0,.5694,.409,1.0315,1.1492,1.0305,.3165-.0073,.6266-.0912,.9036-.2445,.277-.1533,.5128-.3714,.6871-.6357l-.002-1.4467Z"/><path class="e" d="M14.6369,111.5731l-.0062-3.9872h-.9487v-.594l.9487-.179,.2822-1.6674h.6134v1.6961h1.7564v.7473h-1.7564l.0062,3.936c0,.7238,.365,1.0224,.9262,1.0224,.5112,0,.8087-.1196,.9723-.227l.2586,.7351c-.2464,.1431-.6676,.2975-1.4313,.2985-1.0449-.002-1.6195-.5592-1.6215-1.7809Z"/><path class="e" d="M19.5912,104.2726c.0902-.0035,.1802,.0113,.2646,.0433,.0844,.0321,.1614,.0809,.2265,.1435,.0651,.0626,.1168,.1376,.1522,.2207,.0354,.0831,.0536,.1724,.0536,.2626s-.0182,.1796-.0536,.2627c-.0353,.0831-.0871,.1581-.1522,.2207-.0651,.0626-.1421,.1114-.2265,.1434-.0844,.0321-.1744,.0468-.2646,.0433-.1732-.0068-.337-.0804-.4572-.2053-.1202-.1249-.1873-.2915-.1873-.4649s.0671-.3399,.1873-.4649,.284-.1985,.4572-.2053Zm-.3936,2.5631h.9129l.0092,6.451h-.9129l-.0092-6.451Z"/><path class="e" d="M21.9426,110.0684c0-1.9915,.732-3.3574,2.6643-3.3594,1.9322-.002,2.6141,1.3229,2.6162,3.292,0,1.9926-.7443,3.382-2.6765,3.384-1.9323,.0021-2.6009-1.3362-2.604-3.3165Zm2.6734,2.5099c1.2268,0,1.6736-.8179,1.6705-2.5048,0-1.7308-.5183-2.5722-1.7482-2.5702-1.2064,0-1.6613,.8179-1.6593,2.4925,.0082,1.7339,.5194,2.5845,1.737,2.5824Z"/><path class="e" d="M33.6465,113.2632h-.9139l-.0062-4.2336c0-.9845-.4825-1.5335-1.372-1.5274-.3567,.0016-.7041,.1141-.9939,.322-.2898,.2079-.5078,.501-.6234,.8384l.0072,4.6129h-.914l-.0092-6.451h.6901l.1891,.6758h.047c.227-.2565,.5063-.4613,.8192-.6009,.3128-.1395,.6519-.2103,.9944-.2078,1.2759,0,2.0385,.6962,2.0754,2.1316l.0102,4.4401Z"/><path class="e" d="M39.6825,108.6625v2.9178c0,.5807,.1769,.9722,.6226,.9712h.1666v.6758c-.1016,.0501-.2139,.0746-.3272,.0716-.6328,0-1.008-.3425-1.1604-.7811h-.046c-.3067,.3568-.8179,.867-1.8954,.869-1.1818,0-1.8402-.8393-1.8402-1.7165,0-1.4231,1.3792-2.1254,3.6396-2.0927v-.7003c0-1.0551-.5111-1.3628-1.3495-1.3618-.8383,.001-1.2636,.4764-1.4507,.7852l-.6687-.5326c.2229-.3067,.8179-1.0561,2.1419-1.0581,1.3567,.001,2.1654,.6042,2.1674,1.9526Zm-.8404,1.6358c-1.5335-.0562-2.7399,.3251-2.7389,1.2973,0,.5695,.409,1.0306,1.1491,1.0295,.3167-.0071,.627-.0909,.9042-.2442,.2772-.1534,.5132-.3716,.6876-.636l-.0021-1.4466Z"/><path class="e" d="M42.8968,104.25l.0112,7.4703c0,.5694,.1881,.8179,.6687,.8179,.1835-.0013,.3641-.0465,.5265-.1319v.7831c-.2533,.1003-.524,.149-.7964,.1431-.8772,0-1.3005-.5193-1.3015-1.3618l-.0113-7.7197,.9028-.001Z"/><path class="e" d="M53.1489,112.7365c-.4212,.3211-1.0888,.5828-2.0018,.5848-1.8147,0-2.8002-.9334-2.8033-3.3411,0-2.3361,1.2831-3.2981,2.7-3.3001,1.51,0,2.3197,.9927,2.3218,2.5221-.0022,.3728-.0251,.7451-.0685,1.1154l-4.0516,.0061c.0849,1.5888,.7412,2.1919,2.0171,2.1899,.6329,0,1.2064-.2504,1.4753-.4877l.411,.7105Zm-3.8931-3.1692l3.1969-.0052c.0123-.1298,.0113-.2955,.0113-.367,0-1.1031-.4713-1.7186-1.5009-1.7175-.8362-.001-1.6317,.5337-1.7114,2.0866l.0041,.0031Z"/><path class="e" d="M56.0963,104.9171l.0113,7.4703,3.5251-.0051v.8425l-4.4615,.0061-.0133-8.3128,.9385-.001Z"/><path class="e" d="M65.2545,112.7178c-.4213,.321-1.0884,.5827-2.0014,.5848-1.8159,0-2.8004-.9324-2.8045-3.3411,0-2.336,1.283-3.2981,2.7008-3.3001,1.5104,0,2.3202,.9927,2.3221,2.5221-.0025,.3727-.0258,.7451-.0685,1.1154l-4.0516,.0061c.0838,1.5888,.7412,2.192,2.0169,2.1899,.6332,0,1.2067-.2504,1.4758-.4876l.4106,.7105Zm-3.893-3.1693h3.197c.0113-.1309,.0113-.2965,.0113-.368,0-1.1032-.4716-1.7186-1.5022-1.7165-.8309-.0062-1.6263,.5286-1.7061,2.0815v.0031Z"/><path class="e" d="M71.2796,108.618v2.9168c0,.5818,.178,.9723,.6225,.9712h.1635v.6758c-.1019,.0501-.2138,.0746-.327,.0716-.6332,0-1.008-.3425-1.1614-.7811h-.0465c-.3062,.3558-.8174,.8659-1.8952,.868-1.1828,0-1.8405-.8394-1.8405-1.7165,0-1.4231,1.3783-2.1255,3.6388-2.0927v-.7003c0-1.055-.5112-1.3628-1.3494-1.3618-.8382,.0011-1.2607,.4774-1.4475,.7842l-.6678-.5326c.222-.3067,.8181-1.0561,2.1404-1.0581,1.3588,0,2.1674,.6032,2.17,1.9557Zm-.8407,1.6358c-1.5336-.0573-2.7396,.3241-2.7378,1.2963,0,.5694,.4087,1.0305,1.1482,1.0295,.3169-.0072,.6269-.091,.9042-.2443,.2773-.1533,.5131-.3715,.6873-.636l-.0019-1.4456Z"/><path class="e" d="M76.7123,107.6603c-.2327-.0661-.4741-.0975-.7162-.0931-.62,0-1.2645,.2505-1.5682,.8322l.0075,4.805h-.9011l-.0088-6.451h.691l.1993,.7157h.0472c.2811-.4622,.8658-.8179,1.6028-.8179,.2163-.0065,.4326,.013,.6439,.0583l.0025,.9508Z"/><path class="e" d="M82.5752,113.1903h-.913l-.0057-4.2335c0-.9846-.4829-1.5284-1.372-1.5274-.3553,.0017-.7011,.1134-.9903,.3197-.2892,.2063-.5074,.4971-.6244,.8325l.0063,4.6139h-.913l-.0101-6.4511h.691l.188,.6748h.0472c.2276-.256,.5074-.4605,.8199-.5999,.3131-.1395,.6521-.2106,.9947-.2088,1.2758,0,2.0385,.6973,2.075,2.1316l.0063,4.4483Z"/><path class="e" d="M85.174,104.1731c.0905-.0035,.1805,.0113,.2647,.0433,.0843,.0321,.1616,.0809,.2264,.1434,.0654,.0626,.117,.1377,.1522,.2208,.0352,.0831,.0534,.1724,.0534,.2626s-.0182,.1796-.0534,.2627c-.0352,.0831-.0868,.1581-.1522,.2207-.0648,.0626-.1421,.1114-.2264,.1434-.0843,.0321-.1742,.0468-.2647,.0433-.1729-.0068-.337-.0804-.4571-.2053-.1201-.1249-.1874-.2915-.1874-.4649s.0673-.3399,.1874-.4649c.1201-.1249,.2842-.1985,.4571-.2053Zm-.3936,2.562h.913l.0094,6.4511h-.913l-.0094-6.4511Z"/><path class="e" d="M92.6824,113.1749h-.913l-.0075-4.2335c0-.9846-.481-1.5336-1.372-1.5274-.3546,.002-.7005,.1138-.9897,.3201-.2886,.2062-.5068,.4969-.6244,.8321l.0076,4.6138h-.9143l-.0094-6.451h.6911l.1886,.6748h.0465c.2276-.256,.5068-.4606,.8199-.6001,.3125-.1394,.6514-.2105,.9941-.2086,1.2758,0,2.0385,.6973,2.075,2.1316l.0076,4.4483Z"/><path class="e" d="M99.1702,113.2128c0,1.695-1.0224,2.5395-2.6195,2.5416-1.206,0-1.8405-.4243-2.097-.685l.5257-.7361c.3169,.32,.8181,.6042,1.6757,.6032,1.1595,0,1.6267-.5725,1.6254-1.7227v-.593h-.0459c-.1981,.1779-.7369,.5112-1.5569,.5112-1.311,0-2.4252-.8271-2.4284-3.02,0-2.0631,.9897-3.4525,3.0981-3.4556,.8074,0,1.4311,.1401,1.8153,.3292l.0075,6.2271Zm-1.953-5.7487c-1.2268,0-2.0448,.8179-2.0448,2.5282,0,1.8505,.847,2.3351,1.7487,2.3341,.503,0,1.0413-.227,1.345-.6308l-.0057-4.0557c-.3339-.1223-.6879-.1819-1.0432-.1758Z"/><path class="e" d="M107.5778,104.72c1.2532,0,1.9096,.4488,2.1794,.685l-.5848,.7238c-.3515-.2955-.8319-.5562-1.6864-.5551-1.4311,0-2.3058,1.0601-2.3026,3.4075,0,2.2491,.8376,3.4259,2.407,3.4238,.8306,0,1.3104-.2269,1.6028-.5111l.5112,.6747c-.3628,.3558-1.0765,.7014-2.2492,.7034-2.2605,0-3.2345-1.6429-3.2389-4.2049,.0031-2.7287,1.1746-4.344,3.3615-4.3471Z"/><path class="e" d="M115.6144,112.6424c-.42,.32-1.0878,.5828-2.0008,.5838-1.8153,0-2.8-.9324-2.8038-3.34,0-2.3361,1.2827-3.2991,2.7-3.3012,1.511,0,2.3196,.9927,2.3228,2.5231-.0031,.3724-.0258,.7444-.0685,1.1143l-4.0526,.0062c.0849,1.5897,.742,2.1929,2.0178,2.1909,.6332,0,1.2054-.2505,1.4751-.4887l.41,.7115Zm-3.8916-3.1693h3.1968c.0113-.1298,.0113-.2965,.0113-.368,0-1.1021-.4716-1.7186-1.5022-1.7165-.8344-.0072-1.6298,.5276-1.709,2.0815l.0031,.0031Z"/><path class="e" d="M122.323,113.13h-.913l-.0057-4.2336c0-.9845-.4829-1.5284-1.3733-1.5274-.3553,.002-.7011,.1138-.9897,.3201-.2892,.2063-.5074,.4969-.6244,.8321l.0069,4.6139h-.9136l-.0094-6.451h.6898l.1893,.6758h.0459c.2276-.256,.5074-.4605,.8206-.6,.3125-.1394,.6521-.2106,.9941-.2087,1.2771,0,2.0385,.6973,2.0756,2.1316l.0069,4.4473Z"/><path class="e" d="M124.4294,111.4072l-.0063-3.9872h-.9488v-.593l.9488-.1799,.2779-1.6726h.6206v1.6961h1.7575v.7473h-1.7562v3.9371c0,.7229,.3647,1.0224,.9268,1.0224,.5112,0,.808-.1196,.9715-.2259l.2584,.734c-.2452,.1431-.6665,.2975-1.4311,.2986-1.0425,.001-1.6185-.5552-1.6191-1.7768Z"/><path class="e" d="M133.1558,112.6159c-.4213,.32-1.0884,.5828-2.0014,.5838-1.816,0-2.8-.9324-2.8044-3.34,0-2.3361,1.2834-3.2991,2.7-3.3012,1.511,0,2.3196,.9927,2.3228,2.5231-.0038,.3724-.0277,.7445-.0717,1.1143l-4.0526,.0062c.0849,1.5897,.7426,2.1929,2.0184,2.1909,.6313,0,1.2054-.2505,1.4739-.4887l.415,.7115Zm-3.8928-3.1693h3.1968c.0113-.1298,.0113-.2965,.0113-.368,0-1.1021-.4716-1.7186-1.5016-1.7165-.8313-.0072-1.6279,.5276-1.7065,2.0815v.003Z"/><path class="e" d="M138.2301,107.5673c-.2326-.066-.4741-.0977-.7156-.0941-.6206,0-1.2639,.2515-1.5676,.8322l.0069,4.805h-.9017l-.0088-6.451h.6898l.2044,.7157h.0472c.2804-.4622,.8652-.8179,1.6034-.8179,.2163-.0053,.432,.0142,.6439,.0583l-.0019,.9518Z"/><path class="c" d="M148.5518,67.989c.0283,.0021,.0572,.0021,.0855,0,.0522,.003,.1038-.0094,.1484-.0358,.022-.017,.0402-.0391,.0522-.0644l-.1748-.1615c-1.2953-1.1962-2.5787-2.3978-3.8513-3.6048v3.842l1.3714,.0082c.7879,.0092,1.5802-.0358,2.3687,.0163Z"/><path class="c" d="M148.7901,75.5872s.0377-.0133,.0415-.0389c.0044-.0255-.0327-.0511-.0472-.0603-.022-.0136-.0465-.0219-.0723-.0245-.0843-.0133-.1698-.017-.2547-.0113-.1258,.0194-1.4946,.0245-3.6457,.0214v3.8215l3.9784-3.708Z"/><path class="c" d="M158.1936,55.1576h-1.406v0h-11.976c-.0082,0,.0082,0,0,0s.0082,.0143,0,.0256,0,.0174,0,.0266v6.4071l.947,.8904c1.411,1.3298,2.822,2.6537,4.2337,3.9718,.0918,.0646,.1748,.1405,.2471,.226,.078,.0958,.144,.2005,.1974,.3118,.0698,.1282,.127,.2631,.1698,.4028,.0861,.2967,.0924,.6107,.0195,.9108-.0729,.3001-.2239,.5758-.4364,.7996-.1918,.2079-.4226,.375-.6804,.4915-.2572,.1165-.5351,.1798-.8174,.1864l-3.8853-.0143v3.8512l2.0574-.0092,1.738-.0092c.0352,0,.0843,0,.1427,.0092,.1276,.01,.2547,.0288,.3792,.0562,.1754,.0401,.3446,.1019,.5043,.184,.4276,.2244,.7571,.5986,.9262,1.051,.1069,.2867,.1383,.5963,.0912,.8987-.0509,.297-.1723,.5775-.354,.8179-.0635,.0816-.1314,.1595-.2044,.2331-.1974,.2081-.4075,.4037-.6288,.5858-.2578,.2106-1.4506,1.2973-4.6468,4.3378,.0258,.0174-.0251,.0358,0,.0532-.0346-.0235,.0076-.048,0-.0532v3.9974c5.7767,5.0667,7.5971,6.8252,8.0316,7.3752,.4999,.6339,1.2104,1.0704,1.7895,1.6358,.0421,.0412,.0931,.0724,.149,.091,.0409,.0173,.0849,.025,.1289,.0225,.044-.0025,.0874-.0151,.1258-.0368,.0258-.0188,.0472-.0433,.0622-.0716-.0428-8.0571-.0717-13.2609-.0786-13.3437,0-.044-.0063-.088-.0063-.1329,0-.0695,.0082-.0756,0-.0941-.0277-.0716-.1572-.1022-.2584-.0828-.0516,.0103-.1,.0343-.139,.0695-2.2995,1.9506-3.1899,2.7082-3.5263,2.9985l-.6929,.594-.5911,.504-.3295,.2791c-.3943-.46-.7885-.9204-1.1815-1.3812,.1572-.1329,.381-.3353,.6697-.5786,.6646-.5633,.9394-.8015,2.0448-1.7441,.9853-.8435,1.5883-1.3577,1.7788-1.5202l.742-.6318c.0729-.0544,.149-.1039,.2283-.1483,.2433-.134,.5112-.2188,.7879-.2494,.1905-.0203,.3829-.0165,.5728,.0113,.3182,.0407,.6219,.1552,.8885,.3343,.0516,.0388,.1132,.0899,.1132,.0899,.1025,.0818,.183,.1595,.2207,.1973,.1484,.1522,.2679,.3299,.3527,.5245,.083,.1949,.1333,.4022,.1484,.6134,.0132,.1239,.0163,.2487,.0101,.3731,.0101,.9958,.0157,1.8024,.0176,2.3514,0,.4427,0,.7105,.0069,1.7789,0,.8874,.0082,1.5693,.0101,1.9619,0,.4774,.0075,.9682,.0138,2.0754,0,.0746,.0088,1.4006,.0138,2.2359,0,.6697,.0113,1.6542,.0207,2.8728,.0031,.0774,.0006,.1549-.0063,.2321-.0409,.3586-.1798,.6991-.4005,.9845-.0597,.0728-.1239,.1412-.1937,.2045-.2396,.2139-.5219,.3739-.8287,.4693-.3886,.1176-.803,.1247-1.1953,.0204-.3295-.0942-.6326-.2636-.8853-.4948-2.341-2.057-6.0194-5.5759-6.0194-5.5759-.7156-.6839-1.4588-1.3546-1.4588-1.3546-.4716-.4253-.8671-.7688-1.1331-.9968v5.7517l9.4111,8.3832c.11,.1042,.2094,.2189,.2974,.3425,.0893,.1275,.1647,.2647,.2238,.409,.1126,.2734,.1541,.5711,.1195,.8649-.044,.3183-.1717,.6192-.3704,.8721-.1126,.1564-.2459,.297-.3961,.4181-1.0073,.9283-2.0209,1.8583-3.0396,2.79-.5559,.5057-1.1105,1.0101-1.6644,1.5131,.1974,.1574,.4703,.3619,.8099,.5817,.5974,.378,1.2287,.7003,1.8851,.9631,.8168,.3362,1.6676,.5846,2.5372,.7412,.5936,.0979,1.1941,.1516,1.7952,.1605h1.7732l-.0031-56.8938Zm-1.3293,4.0403v3.2644c0,.047,0,.1022-.0119,.1728-.0069,.0639-.0176,.1274-.0321,.1901-.0296,.13-.0736,.2562-.1321,.3762-.0377,.0794-.0811,.1559-.1295,.229-.0981,.1493-.2169,.284-.3528,.3997-.0698,.0582-.1434,.1118-.2201,.1605-.056,.0368-.1019,.0624-.1245,.0746-.0226,.0123-.1025,.0562-.2044,.1022-.1188,.0493-.2408,.0886-.366,.1176-.1729,.0379-.349,.0551-.5257,.0511-.3245,.0028-.6439-.0734-.9325-.2219-.1496-.0808-.2867-.182-.4087-.3006-.178-.1431-.4477-.3609-.7728-.6338-.3609-.3067-.6219-.5306-.7263-.6216-.6131-.5326-1.965-1.6562-1.965-1.6562-.4483-.3732-1.0733-.8997-1.8707-1.5908,.078-.1022,.1402-.1738,.1798-.2208,.3641-.4417,.5502-.6318,.9111-1.0776l.0773-.0961,5.3749,4.5351c.0289,.0267,.0641,.0467,.1019,.0583,.0541,.0133,.1107,.0113,.1635-.0061,.0465-.0073,.0893-.0308,.1201-.0665,.0157-.0251,.0226-.0544,.0214-.0839v-3.7448h1.8235v.2535c.0076,.1707,.0063,.2955,.0063,.3353h-.005Z"/><path class="c" d="M152.0032,104.7415l.288-.2638,.4684-.4325,.1019-.0971,.0415-.0368c.0132-.0123,.0899-.0787,.1019-.1022,.0038-.0057,.0082-.0112,.0126-.0163,.0025-.003,.005-.0065,.0069-.0103,0,0,0-.0092-.0151-.0174-.1314-.1104-.3326-.2822-.5766-.4939-1.1708-1.0141-2.0058-1.8105-2.2146-2.0079-.6986-.6604-2.1561-1.9558-5.4126-4.8255v4.0741c.0132,.6518,.0799,1.3015,.1987,1.9425,.3641,1.9473,1.2167,3.7704,2.4768,5.2988,.205,.2443,.3867,.4498,.5401,.6134,1.9782-1.8034,3.4187-3.1182,3.6438-3.3237l.3383-.3016Z"/><path class="b" d="M168.9064,69.8968h-1.0312c-.3427-.0246-.6741-.1297-.9683-.3067-.1937-.1174-.3666-.2667-.5112-.4417-.1729-.2096-.2999-.4535-.3722-.7156-.066-.2558-.0767-.5228-.0315-.7831,.0428-.2462,.1352-.4811,.2723-.6901,.0553-.0828,.1176-.1608,.1855-.2331,.4093-.4263,3.7828-3.5353,4.006-3.7346-.5074-1.1454-1.1758-2.2126-1.9845-3.1693-.1434-.1697-.2691-.3067-.3609-.4089-1.135,1.0033-2.2863,2.0052-3.4533,3.0057-.5389,.4607-1.0765,.9184-1.6135,1.373-.0786,.0716-.1622,.1366-.2515,.1943-.2201,.1388-.4653,.2323-.7219,.275-.2446,.0524-.4961,.06-.7432,.0225-.3748-.0677-.7263-.2291-1.0224-.4693-.0729-.0514-.1415-.1088-.2044-.1717-.1918-.2042-.332-.4513-.4087-.7208-.034-.1003-.0604-.2028-.0799-.3067-.0057-.3864-.0094-.7756-.0113-1.1675-.0063-.9733-.0025-1.9343,.0113-2.883h1.8185v3.7745c-.0044,.0161-.0044,.0331,0,.0491,.0308,.0828,.188,.1022,.2811,.0828,.0365-.006,.0711-.0189,.1025-.0379,.0207-.0121,.0396-.0272,.056-.045,.0472-.048,1.943-1.6644,4.9272-4.21-.1415-.1165-.3389-.275-.5823-.4549-1.9235-1.42-4.1997-2.2869-6.5803-2.5068l-.3194-.0256c-.0717,0-.2597-.0174-.5112-.0245-.1805-.0061-.3628-.0092-.6131-.0061v17.4045h13.3826v-2.6919c-.4634,.0072-.8816,.0123-1.2513,.0153-.2075,.002-.8363,.0082-1.4154,.0082Z"/><path class="b" d="M167.8148,67.9604c-.0075,.0138-.0101,.0296-.0069,.045,.0069,.0276,.0384,.0429,.0591,.0521,.0503,.0202,.1056,.0265,.1597,.0184l3.5502-.0235c-.0088-.4774-.044-.9038-.0868-1.2678-.0522-.4478-.1195-.8179-.1735-1.0857-.0635-.3148-.132-.5909-.1943-.8179-1.2771,1.1737-3.2779,3.0231-3.3075,3.0793Z"/><path class="f" d="M166.7389,100.7462l-1.5984,1.4487c-.7294,.6615-1.3613,1.234-1.8732,1.6961,.2779,.2658,.691,.6573,1.1941,1.1307l.742,.6942c1.3293,1.235,2.3114,2.1193,2.7177,2.4874,.8841,.7995,2.0945,1.9098,3.6552,3.4075v-15.2728l-2.407,2.197c-.886,.8087-1.5883,1.4477-2.4303,2.2113Z"/><path class="f" d="M169.251,75.3727h-.3534c-.3295-.0177-.659-.0133-.9878,.0133h-.012c-.0384,.0072-.1025,.0245-.1075,.0542-.005,.0296,.0119,.0338,.0195,.045,.0113,.0152,.0258,.028,.0415,.0379l.2641,.2454c.803,.7852,1.6449,1.573,2.5265,2.3637,.3175,.2852,.6131,.5327,.9344,.8076v-3.5782c-.0082,.0051-1.9725,.0163-2.3253,.0113Z"/><path class="f" d="M171.5762,73.5455v-.9805h-13.3826v39.4801h11.0699c-1.3016-1.2268-2.6114-2.473-3.928-3.6968-.4458-.409-.8923-.8213-1.3393-1.2371-.0358-.0327-.3069-.2821-.6785-.6246-.3917-.3619-.7162-.6615-.9388-.869-.0849-.0869-.1572-.1534-.2043-.1983-.1025-.09-.1383-.1156-.2044-.1861-.0635-.0634-.122-.1317-.1742-.2045-.1189-.1551-.2138-.3275-.2811-.5112-.1006-.2811-.1302-.583-.0849-.8782,.0553-.3415,.2018-.6618,.4232-.9273,.0585-.0693,.122-.1346,.1893-.1952,.9312-.8291,1.9253-1.643,2.795-2.5171,.1553-.1554,.2874-.2863,.4093-.4018,.7564-.7432,.9589-.8598,2.9817-2.7051,1.3161-1.2002,2.556-2.3514,2.9088-2.6765l.4477-.4181v-5.4144l-6.181,5.7252-1.1041,1.0224c-.3729,.3445-.5911,.5224-.874,.8097-.0264,.0276-.1371,.139-.2943,.275-.1346,.1222-.2805,.2307-.4357,.3241-.3226,.1895-.6923,.2855-1.0664,.277-.0572,0-.1132,0-.1704-.0092-.2352-.0187-.4659-.0735-.6841-.1625-.0585-.0255-.1226-.0593-.1226-.0593-.1214-.0606-.2377-.1317-.3465-.2127-.1528-.1154-.2867-.2533-.398-.4089-.1911-.2633-.3087-.5728-.3402-.8966-.0101-.1102-.0101-.2211,0-.3312,.0591-.7422,.088-9.6572,.0604-11.3481-.0107-.6696,.0446-1.3393,.0113-2.0079-.0163-.3033,.0352-.6065,.1509-.8874,.088-.2052,.2113-.3937,.3628-.5572,.2389-.2479,.5339-.4347,.8596-.5448,.3257-.1102,.6734-.1403,1.0136-.088,.0748,.011,.1496,.026,.2226,.045,.3968,.1022,.6678,.3067,.9375,.5111,.0666,.0501,.1823,.1625,.4163,.3619,.1503,.1288,.2628,.2208,.3069,.2586,.2597,.2157,.5112,.4325,.7527,.6411l.144,.1247c.4364,.3752,1.6977,1.4538,3.4483,2.9515-.188,.2228-.3779,.4461-.5697,.6697-.2081,.244-.4163,.4866-.6244,.7279v.0051l-2.39-2.0539-2.7711-2.3698c-.0497-.0327-.1069-.0521-.1666-.0563-.0579-.0021-.1157,.0113-.1673,.0389-.022,.0119-.0421,.0267-.0604,.044,.0069,4.3982-.0182,8.811-.0755,13.2385,0,.0971-.0057,.3476-.0063,.4437,.0245,.0286,.0553,.0514,.0899,.0665,.0327,.0125,.0673,.0191,.1019,.0194h.0358c.0497,0,.0987-.0104,.1446-.0307,.056-.0262,.1037-.0676,.1377-.1196,1.4035-1.2749,2.5334-2.3146,3.2917-3.0159l.1025-.091c1.3607-1.2646,1.5072-1.4139,3.0119-2.8104,1.1922-1.1072,1.5632-1.4446,2.7604-2.5559,.2043-.1902,.366-.3435,.5112-.4754v-4.3102l-2.6831-2.5068-2.5001-2.336c-.0855-.1078-.1616-.2219-.2295-.3415-.1063-.171-.1836-.3582-.2295-.5541-.0447-.2262-.0384-.4594,.0182-.6829,.0654-.3067,.2-.5942,.3943-.8404,.3037-.3677,.7244-.6204,1.1916-.7156,.066-.0143,.1195-.0225,.1528-.0276l3.8853-.0143-.0346,.0031Z"/><path class="d" d="M171.5762,111.6121v-15.2719c.9985-.9201,2.1467-1.9925,3.4238-3.1693v.1421c-.0843,6.0033-.0572,8.69,0,9.9168v2.2359c0,.0634-.0075,.1278-.0094,.1912-.0327,.7456-.1176,1.4878-.2534,2.2216-.3307,1.7468-.9727,3.4199-1.8964,4.939l-1.2645-1.2053Z"/><path class="d" d="M171.5762,72.5651v13.309c.3936-.409,2.878-2.6582,3.4238-3.1519v-10.1571h-3.4238Z"/><path class="d" d="M171.675,114.3171c-.7407,.9129-1.5858,1.7363-2.5177,2.4536-.9124,.7086-1.904,1.3077-2.956,1.785-.7445,.3345-1.516,.6049-2.3064,.808-.6797,.1767-1.372,.3043-2.07,.381-.9916,.1113-1.8172,.1025-2.7843,.0918-.4005,0-.6275-.0138-.8495-.0245v-7.7696h11.0692l2.4146,2.2747Z"/><path class="d" d="M171.5762,88.3829v5.4123c.6766-.6288,1.3217-1.2268,2.2171-2.0334,.5112-.4591,.9294-.8322,1.2067-1.0776v-5.5105c-1.2771,1.188-2.4139,2.2696-3.4238,3.2092Z"/></svg>