<?xml version="1.0" encoding="utf-8"?>
<!-- Generator: Adobe Illustrator 26.4.1, SVG Export Plug-In . SVG Version: 6.00 Build 0)  -->
<svg version="1.1" id="Layer_1" xmlns="http://www.w3.org/2000/svg" xmlns:xlink="http://www.w3.org/1999/xlink" x="0px" y="0px"
	 viewBox="0 0 197 181" style="enable-background:new 0 0 197 181;" xml:space="preserve">
<style type="text/css">
	.st0{fill:#9A9A9A;}
</style>
<g id="Bg-Shape" transform="translate(0.5 0.5)">
	<path id="Oval" class="st0" d="M1,2c0.6,0,1-0.4,1-1c0-0.6-0.4-1-1-1C0.4,0,0,0.4,0,1C0,1.6,0.4,2,1,2z"/>
	<path id="Oval_00000065760549088175231240000013987345362005255842_" class="st0" d="M1,2c0.6,0,1-0.4,1-1c0-0.6-0.4-1-1-1
		C0.4,0,0,0.4,0,1C0,1.6,0.4,2,1,2z"/>
	<path id="Oval_00000045587405956985341030000012102802585319126665_" class="st0" d="M1,2c0.6,0,1-0.4,1-1c0-0.6-0.4-1-1-1
		C0.4,0,0,0.4,0,1C0,1.6,0.4,2,1,2z"/>
	<path id="Oval_00000055692122749430421930000006610808052000999575_" class="st0" d="M1,2c0.6,0,1-0.4,1-1c0-0.6-0.4-1-1-1
		C0.4,0,0,0.4,0,1C0,1.6,0.4,2,1,2z"/>
	<path id="Oval_00000168812540636661064950000014211167711209591727_" class="st0" d="M1,2c0.6,0,1-0.4,1-1c0-0.6-0.4-1-1-1
		C0.4,0,0,0.4,0,1C0,1.6,0.4,2,1,2z"/>
	<path id="Oval_00000078723372489786600830000004624723375942813578_" class="st0" d="M1,2c0.6,0,1-0.4,1-1c0-0.6-0.4-1-1-1
		C0.4,0,0,0.4,0,1C0,1.6,0.4,2,1,2z"/>
	<path id="Oval_00000051364267618439679050000012881546596428621964_" class="st0" d="M1,2c0.6,0,1-0.4,1-1c0-0.6-0.4-1-1-1
		C0.4,0,0,0.4,0,1C0,1.6,0.4,2,1,2z"/>
	<path id="Oval_00000065062467087577701780000004377742968590855574_" class="st0" d="M1,2c0.6,0,1-0.4,1-1c0-0.6-0.4-1-1-1
		C0.4,0,0,0.4,0,1C0,1.6,0.4,2,1,2z"/>
	<path id="Oval_00000083794902910245399310000003293951000125251461_" class="st0" d="M1,2c0.6,0,1-0.4,1-1c0-0.6-0.4-1-1-1
		C0.4,0,0,0.4,0,1C0,1.6,0.4,2,1,2z"/>
	<path id="Oval_00000117649599146442628010000008461593515420058271_" class="st0" d="M1,2c0.6,0,1-0.4,1-1c0-0.6-0.4-1-1-1
		C0.4,0,0,0.4,0,1C0,1.6,0.4,2,1,2z"/>
	<path id="Oval_00000015336570216207732710000012076597249634425745_" class="st0" d="M1,2c0.6,0,1-0.4,1-1c0-0.6-0.4-1-1-1
		C0.4,0,0,0.4,0,1C0,1.6,0.4,2,1,2z"/>
	<path id="Oval_00000044157551619109988040000001735968229716564374_" class="st0" d="M1,2c0.6,0,1-0.4,1-1c0-0.6-0.4-1-1-1
		C0.4,0,0,0.4,0,1C0,1.6,0.4,2,1,2z"/>
	<path id="Oval_00000062891261932103479250000000688258691079624863_" class="st0" d="M1,2c0.6,0,1-0.4,1-1c0-0.6-0.4-1-1-1
		C0.4,0,0,0.4,0,1C0,1.6,0.4,2,1,2z"/>
	<path id="Oval_00000023247288593739914130000004263881199690436765_" class="st0" d="M1,2c0.6,0,1-0.4,1-1c0-0.6-0.4-1-1-1
		C0.4,0,0,0.4,0,1C0,1.6,0.4,2,1,2z"/>
	<path id="Oval_00000077313148821246583820000001985334471608969909_" class="st0" d="M1,2c0.6,0,1-0.4,1-1c0-0.6-0.4-1-1-1
		C0.4,0,0,0.4,0,1C0,1.6,0.4,2,1,2z"/>
	<path id="Oval_00000137100910431902195020000009074959464714306181_" class="st0" d="M1,2c0.6,0,1-0.4,1-1c0-0.6-0.4-1-1-1
		C0.4,0,0,0.4,0,1C0,1.6,0.4,2,1,2z"/>
	<path id="Oval_00000130633757366960955510000014178082817661333930_" class="st0" d="M1,2c0.6,0,1-0.4,1-1c0-0.6-0.4-1-1-1
		C0.4,0,0,0.4,0,1C0,1.6,0.4,2,1,2z"/>
	<path id="Oval_00000165196597562886668210000017336217695275085220_" class="st0" d="M1,2c0.6,0,1-0.4,1-1c0-0.6-0.4-1-1-1
		C0.4,0,0,0.4,0,1C0,1.6,0.4,2,1,2z"/>
	<path id="Oval_00000020387603204109865390000016375773418245432248_" class="st0" d="M1,2c0.6,0,1-0.4,1-1c0-0.6-0.4-1-1-1
		C0.4,0,0,0.4,0,1C0,1.6,0.4,2,1,2z"/>
	<path id="Oval_00000167363349191062159870000008488023504780639163_" class="st0" d="M1,2c0.6,0,1-0.4,1-1c0-0.6-0.4-1-1-1
		C0.4,0,0,0.4,0,1C0,1.6,0.4,2,1,2z"/>
	<path id="Oval_00000106119906060875828540000009940496966284836286_" class="st0" d="M1,2c0.6,0,1-0.4,1-1c0-0.6-0.4-1-1-1
		C0.4,0,0,0.4,0,1C0,1.6,0.4,2,1,2z"/>
	<path id="Oval_00000047759631342433990070000003004768765816630970_" class="st0" d="M1,2c0.6,0,1-0.4,1-1c0-0.6-0.4-1-1-1
		C0.4,0,0,0.4,0,1C0,1.6,0.4,2,1,2z"/>
	<path id="Oval_00000181064689430649843880000010666991783154214302_" class="st0" d="M1,2c0.6,0,1-0.4,1-1c0-0.6-0.4-1-1-1
		C0.4,0,0,0.4,0,1C0,1.6,0.4,2,1,2z"/>
	<path id="Oval_00000057142424974752648900000000997612135041850277_" class="st0" d="M1,2c0.6,0,1-0.4,1-1c0-0.6-0.4-1-1-1
		C0.4,0,0,0.4,0,1C0,1.6,0.4,2,1,2z"/>
	<path id="Oval_00000147930438400215494990000002170578147784044683_" class="st0" d="M1,2c0.6,0,1-0.4,1-1c0-0.6-0.4-1-1-1
		C0.4,0,0,0.4,0,1C0,1.6,0.4,2,1,2z"/>
	<path id="Oval_00000150789714130532596580000009298603828119732623_" class="st0" d="M1,2c0.6,0,1-0.4,1-1c0-0.6-0.4-1-1-1
		C0.4,0,0,0.4,0,1C0,1.6,0.4,2,1,2z"/>
	<path id="Oval_00000173883064062534383320000010063976899725874333_" class="st0" d="M1,2c0.6,0,1-0.4,1-1c0-0.6-0.4-1-1-1
		C0.4,0,0,0.4,0,1C0,1.6,0.4,2,1,2z"/>
	<path id="Oval_00000044891362706200524560000002592017859100992160_" class="st0" d="M1,2c0.6,0,1-0.4,1-1c0-0.6-0.4-1-1-1
		C0.4,0,0,0.4,0,1C0,1.6,0.4,2,1,2z"/>
	<path id="Oval_00000029009174130759252020000009760328864373195161_" class="st0" d="M1,2c0.6,0,1-0.4,1-1c0-0.6-0.4-1-1-1
		C0.4,0,0,0.4,0,1C0,1.6,0.4,2,1,2z"/>
	<path id="Oval_00000134251068779466187040000010525077402475382656_" class="st0" d="M1,2c0.6,0,1-0.4,1-1c0-0.6-0.4-1-1-1
		C0.4,0,0,0.4,0,1C0,1.6,0.4,2,1,2z"/>
	<path id="Oval_00000119108800508104030260000012753206710848290724_" class="st0" d="M1,2c0.6,0,1-0.4,1-1c0-0.6-0.4-1-1-1
		C0.4,0,0,0.4,0,1C0,1.6,0.4,2,1,2z"/>
	<path id="Oval_00000111189851794122370300000001068286274114781845_" class="st0" d="M1,2c0.6,0,1-0.4,1-1c0-0.6-0.4-1-1-1
		C0.4,0,0,0.4,0,1C0,1.6,0.4,2,1,2z"/>
	<path id="Oval_00000078016161506481087390000008113979600221426602_" class="st0" d="M1,2c0.6,0,1-0.4,1-1c0-0.6-0.4-1-1-1
		C0.4,0,0,0.4,0,1C0,1.6,0.4,2,1,2z"/>
	<path id="Oval_00000000193779949100525270000004932136185684972686_" class="st0" d="M1,2c0.6,0,1-0.4,1-1c0-0.6-0.4-1-1-1
		C0.4,0,0,0.4,0,1C0,1.6,0.4,2,1,2z"/>
	<path id="Oval_00000147898825564734388060000001046820897926600886_" class="st0" d="M1,2c0.6,0,1-0.4,1-1c0-0.6-0.4-1-1-1
		C0.4,0,0,0.4,0,1C0,1.6,0.4,2,1,2z"/>
	<path id="Oval_00000138550510274057679920000000904905642914112917_" class="st0" d="M1,2c0.6,0,1-0.4,1-1c0-0.6-0.4-1-1-1
		C0.4,0,0,0.4,0,1C0,1.6,0.4,2,1,2z"/>
	<path id="Oval_00000107561685760914239130000014683713579312940948_" class="st0" d="M1,2c0.6,0,1-0.4,1-1c0-0.6-0.4-1-1-1
		C0.4,0,0,0.4,0,1C0,1.6,0.4,2,1,2z"/>
	<path id="Oval_00000020358327907983386780000001597051252443723929_" class="st0" d="M1,2c0.6,0,1-0.4,1-1c0-0.6-0.4-1-1-1
		C0.4,0,0,0.4,0,1C0,1.6,0.4,2,1,2z"/>
	<path id="Oval_00000120537956316483925290000005856771892574727327_" class="st0" d="M1,2c0.6,0,1-0.4,1-1c0-0.6-0.4-1-1-1
		C0.4,0,0,0.4,0,1C0,1.6,0.4,2,1,2z"/>
	<path id="Oval_00000144306401339184989290000016573991852574774714_" class="st0" d="M1,2c0.6,0,1-0.4,1-1c0-0.6-0.4-1-1-1
		C0.4,0,0,0.4,0,1C0,1.6,0.4,2,1,2z"/>
	<path id="Oval_00000002379919535867702550000017176927783023836592_" class="st0" d="M1,2c0.6,0,1-0.4,1-1c0-0.6-0.4-1-1-1
		C0.4,0,0,0.4,0,1C0,1.6,0.4,2,1,2z"/>
	<path id="Oval_00000034050025810817743120000012463493463799939495_" class="st0" d="M1,2c0.6,0,1-0.4,1-1c0-0.6-0.4-1-1-1
		C0.4,0,0,0.4,0,1C0,1.6,0.4,2,1,2z"/>
	<path id="Oval_00000155857979983673346910000018085166126719208115_" class="st0" d="M1,2c0.6,0,1-0.4,1-1c0-0.6-0.4-1-1-1
		C0.4,0,0,0.4,0,1C0,1.6,0.4,2,1,2z"/>
	<path id="Oval_00000176763845284786782090000002923058749978548654_" class="st0" d="M1,2c0.6,0,1-0.4,1-1c0-0.6-0.4-1-1-1
		C0.4,0,0,0.4,0,1C0,1.6,0.4,2,1,2z"/>
	<path id="Oval_00000090285699522957674790000010011472765116330670_" class="st0" d="M1,2c0.6,0,1-0.4,1-1c0-0.6-0.4-1-1-1
		C0.4,0,0,0.4,0,1C0,1.6,0.4,2,1,2z"/>
	<path id="Oval_00000101813463469151186480000004450546738790964365_" class="st0" d="M1,2c0.6,0,1-0.4,1-1c0-0.6-0.4-1-1-1
		C0.4,0,0,0.4,0,1C0,1.6,0.4,2,1,2z"/>
	<path id="Oval_00000063616251883423851670000013709275838533393309_" class="st0" d="M1,2c0.6,0,1-0.4,1-1c0-0.6-0.4-1-1-1
		C0.4,0,0,0.4,0,1C0,1.6,0.4,2,1,2z"/>
	<path id="Oval_00000083790670741659819250000009233636441937413021_" class="st0" d="M1,2c0.6,0,1-0.4,1-1c0-0.6-0.4-1-1-1
		C0.4,0,0,0.4,0,1C0,1.6,0.4,2,1,2z"/>
	<path id="Oval_00000144325592439280160380000004878692608020102276_" class="st0" d="M1,2c0.6,0,1-0.4,1-1c0-0.6-0.4-1-1-1
		C0.4,0,0,0.4,0,1C0,1.6,0.4,2,1,2z"/>
	<path id="Oval_00000045594504904745995990000002989187106480004278_" class="st0" d="M1,2c0.6,0,1-0.4,1-1c0-0.6-0.4-1-1-1
		C0.4,0,0,0.4,0,1C0,1.6,0.4,2,1,2z"/>
	<path id="Oval_00000106835515358360917750000013820254450664032158_" class="st0" d="M1,2c0.6,0,1-0.4,1-1c0-0.6-0.4-1-1-1
		C0.4,0,0,0.4,0,1C0,1.6,0.4,2,1,2z"/>
	<path id="Oval_00000067227167005287975140000011333010727755394471_" class="st0" d="M1,2c0.6,0,1-0.4,1-1c0-0.6-0.4-1-1-1
		C0.4,0,0,0.4,0,1C0,1.6,0.4,2,1,2z"/>
	<path id="Oval_00000049935094516977136910000017988297578426318724_" class="st0" d="M1,2c0.6,0,1-0.4,1-1c0-0.6-0.4-1-1-1
		C0.4,0,0,0.4,0,1C0,1.6,0.4,2,1,2z"/>
	<path id="Oval_00000178186410675077197110000002179941483634171059_" class="st0" d="M1,2c0.6,0,1-0.4,1-1c0-0.6-0.4-1-1-1
		C0.4,0,0,0.4,0,1C0,1.6,0.4,2,1,2z"/>
	<path id="Oval_00000176728965704024320890000004902661641225004734_" class="st0" d="M1,2c0.6,0,1-0.4,1-1c0-0.6-0.4-1-1-1
		C0.4,0,0,0.4,0,1C0,1.6,0.4,2,1,2z"/>
	<path id="Oval_00000013898297615891654960000013546285862518085536_" class="st0" d="M1,2c0.6,0,1-0.4,1-1c0-0.6-0.4-1-1-1
		C0.4,0,0,0.4,0,1C0,1.6,0.4,2,1,2z"/>
	<path id="Oval_00000030466946173493826930000011143768676981665665_" class="st0" d="M1,2c0.6,0,1-0.4,1-1c0-0.6-0.4-1-1-1
		C0.4,0,0,0.4,0,1C0,1.6,0.4,2,1,2z"/>
	<path id="Oval_00000060736673800657855200000017357881583758630287_" class="st0" d="M1,2c0.6,0,1-0.4,1-1c0-0.6-0.4-1-1-1
		C0.4,0,0,0.4,0,1C0,1.6,0.4,2,1,2z"/>
	<path id="Oval_00000174589174071395776080000012750995079889604534_" class="st0" d="M1,2c0.6,0,1-0.4,1-1c0-0.6-0.4-1-1-1
		C0.4,0,0,0.4,0,1C0,1.6,0.4,2,1,2z"/>
	<path id="Oval_00000015327259517615357630000012601862452170100393_" class="st0" d="M1,2c0.6,0,1-0.4,1-1c0-0.6-0.4-1-1-1
		C0.4,0,0,0.4,0,1C0,1.6,0.4,2,1,2z"/>
	<path id="Oval_00000102545577913871161700000000205939275770861719_" class="st0" d="M1,2c0.6,0,1-0.4,1-1c0-0.6-0.4-1-1-1
		C0.4,0,0,0.4,0,1C0,1.6,0.4,2,1,2z"/>
	<path id="Oval_00000052103947801894082270000015633352127220800389_" class="st0" d="M1,2c0.6,0,1-0.4,1-1c0-0.6-0.4-1-1-1
		C0.4,0,0,0.4,0,1C0,1.6,0.4,2,1,2z"/>
	<path id="Oval_00000134969503150838734540000004518781269084636569_" class="st0" d="M1,2c0.6,0,1-0.4,1-1c0-0.6-0.4-1-1-1
		C0.4,0,0,0.4,0,1C0,1.6,0.4,2,1,2z"/>
	<path id="Oval_00000183248162579051690330000012380403874760498611_" class="st0" d="M1,2c0.6,0,1-0.4,1-1c0-0.6-0.4-1-1-1
		C0.4,0,0,0.4,0,1C0,1.6,0.4,2,1,2z"/>
	<path id="Oval_00000076594612136171767880000000664725212664515256_" class="st0" d="M1,2c0.6,0,1-0.4,1-1c0-0.6-0.4-1-1-1
		C0.4,0,0,0.4,0,1C0,1.6,0.4,2,1,2z"/>
	<path id="Oval_00000063624135232178012990000016007449179372183737_" class="st0" d="M1,2c0.6,0,1-0.4,1-1c0-0.6-0.4-1-1-1
		C0.4,0,0,0.4,0,1C0,1.6,0.4,2,1,2z"/>
	<path id="Oval_00000174592336906756141220000014872495609305260447_" class="st0" d="M1,2c0.6,0,1-0.4,1-1c0-0.6-0.4-1-1-1
		C0.4,0,0,0.4,0,1C0,1.6,0.4,2,1,2z"/>
	<path id="Oval_00000083087295398945632200000012461102677045845950_" class="st0" d="M1,2c0.6,0,1-0.4,1-1c0-0.6-0.4-1-1-1
		C0.4,0,0,0.4,0,1C0,1.6,0.4,2,1,2z"/>
	<path id="Oval_00000004514614616177699710000001966361757575461806_" class="st0" d="M1,2c0.6,0,1-0.4,1-1c0-0.6-0.4-1-1-1
		C0.4,0,0,0.4,0,1C0,1.6,0.4,2,1,2z"/>
	<path id="Oval_00000062179986690975045190000015413814142458907785_" class="st0" d="M1,2c0.6,0,1-0.4,1-1c0-0.6-0.4-1-1-1
		C0.4,0,0,0.4,0,1C0,1.6,0.4,2,1,2z"/>
	<path id="Oval_00000040538252088162089320000011951997090377536917_" class="st0" d="M1,2c0.6,0,1-0.4,1-1c0-0.6-0.4-1-1-1
		C0.4,0,0,0.4,0,1C0,1.6,0.4,2,1,2z"/>
	<path id="Oval_00000108283888016635809160000003770040523849547172_" class="st0" d="M1,2c0.6,0,1-0.4,1-1c0-0.6-0.4-1-1-1
		C0.4,0,0,0.4,0,1C0,1.6,0.4,2,1,2z"/>
	<path id="Oval_00000032639658567742164370000007930094359172179880_" class="st0" d="M1,2c0.6,0,1-0.4,1-1c0-0.6-0.4-1-1-1
		C0.4,0,0,0.4,0,1C0,1.6,0.4,2,1,2z"/>
	<path id="Oval_00000103256893584551500730000002294517061477509518_" class="st0" d="M1,2c0.6,0,1-0.4,1-1c0-0.6-0.4-1-1-1
		C0.4,0,0,0.4,0,1C0,1.6,0.4,2,1,2z"/>
	<path id="Oval_00000088099266363593482110000016898074322505094558_" class="st0" d="M1,2c0.6,0,1-0.4,1-1c0-0.6-0.4-1-1-1
		C0.4,0,0,0.4,0,1C0,1.6,0.4,2,1,2z"/>
	<path id="Oval_00000153672999625666764320000007717778352601704326_" class="st0" d="M1,2c0.6,0,1-0.4,1-1c0-0.6-0.4-1-1-1
		C0.4,0,0,0.4,0,1C0,1.6,0.4,2,1,2z"/>
	<path id="Oval_00000115490739999809356150000001820820646336748452_" class="st0" d="M1,2c0.6,0,1-0.4,1-1c0-0.6-0.4-1-1-1
		C0.4,0,0,0.4,0,1C0,1.6,0.4,2,1,2z"/>
	<path id="Oval_00000028295540869857786800000015002929698318483902_" class="st0" d="M1,2c0.6,0,1-0.4,1-1c0-0.6-0.4-1-1-1
		C0.4,0,0,0.4,0,1C0,1.6,0.4,2,1,2z"/>
	<path id="Oval_00000040560243880753443180000012612971267870861185_" class="st0" d="M1,2c0.6,0,1-0.4,1-1c0-0.6-0.4-1-1-1
		C0.4,0,0,0.4,0,1C0,1.6,0.4,2,1,2z"/>
	<path id="Oval_00000108286566436851871080000010494939623333961361_" class="st0" d="M1,2c0.6,0,1-0.4,1-1c0-0.6-0.4-1-1-1
		C0.4,0,0,0.4,0,1C0,1.6,0.4,2,1,2z"/>
	<path id="Oval_00000033338128066945770750000001077468175916079020_" class="st0" d="M1,2c0.6,0,1-0.4,1-1c0-0.6-0.4-1-1-1
		C0.4,0,0,0.4,0,1C0,1.6,0.4,2,1,2z"/>
	<path id="Oval_00000018207749200531278600000010880530733572215431_" class="st0" d="M1,2c0.6,0,1-0.4,1-1c0-0.6-0.4-1-1-1
		C0.4,0,0,0.4,0,1C0,1.6,0.4,2,1,2z"/>
	<path id="Oval_00000073705622139811464700000000693490782842893447_" class="st0" d="M1,2c0.6,0,1-0.4,1-1c0-0.6-0.4-1-1-1
		C0.4,0,0,0.4,0,1C0,1.6,0.4,2,1,2z"/>
	<path id="Oval_00000103225275635237225850000007431716716996379319_" class="st0" d="M1,2c0.6,0,1-0.4,1-1c0-0.6-0.4-1-1-1
		C0.4,0,0,0.4,0,1C0,1.6,0.4,2,1,2z"/>
	<path id="Oval_00000005961174637964456920000003554700983507110280_" class="st0" d="M1,2c0.6,0,1-0.4,1-1c0-0.6-0.4-1-1-1
		C0.4,0,0,0.4,0,1C0,1.6,0.4,2,1,2z"/>
	<path id="Oval_00000178203094601649167520000015420694202854020260_" class="st0" d="M1,2c0.6,0,1-0.4,1-1c0-0.6-0.4-1-1-1
		C0.4,0,0,0.4,0,1C0,1.6,0.4,2,1,2z"/>
	<path id="Oval_00000177453822233370508930000002683142826256510592_" class="st0" d="M1,2c0.6,0,1-0.4,1-1c0-0.6-0.4-1-1-1
		C0.4,0,0,0.4,0,1C0,1.6,0.4,2,1,2z"/>
	<path id="Oval_00000158003959872297807210000006208500016516399015_" class="st0" d="M1,2c0.6,0,1-0.4,1-1c0-0.6-0.4-1-1-1
		C0.4,0,0,0.4,0,1C0,1.6,0.4,2,1,2z"/>
	<path id="Oval_00000057121555822223235130000001237533884674114489_" class="st0" d="M1,2c0.6,0,1-0.4,1-1c0-0.6-0.4-1-1-1
		C0.4,0,0,0.4,0,1C0,1.6,0.4,2,1,2z"/>
	<path id="Oval_00000006693022612928361160000009545571322840545213_" class="st0" d="M1,2c0.6,0,1-0.4,1-1c0-0.6-0.4-1-1-1
		C0.4,0,0,0.4,0,1C0,1.6,0.4,2,1,2z"/>
	<path id="Oval_00000003805091100217994580000011118885578467078829_" class="st0" d="M1,2c0.6,0,1-0.4,1-1c0-0.6-0.4-1-1-1
		C0.4,0,0,0.4,0,1C0,1.6,0.4,2,1,2z"/>
	<path id="Oval_00000163041430662894504360000000327098684076357528_" class="st0" d="M1,2c0.6,0,1-0.4,1-1c0-0.6-0.4-1-1-1
		C0.4,0,0,0.4,0,1C0,1.6,0.4,2,1,2z"/>
	<path id="Oval_00000106116707161934076030000003986419132288026781_" class="st0" d="M1,2c0.6,0,1-0.4,1-1c0-0.6-0.4-1-1-1
		C0.4,0,0,0.4,0,1C0,1.6,0.4,2,1,2z"/>
	<path id="Oval_00000060744599707469941950000014270840414695873167_" class="st0" d="M1,2c0.6,0,1-0.4,1-1c0-0.6-0.4-1-1-1
		C0.4,0,0,0.4,0,1C0,1.6,0.4,2,1,2z"/>
	<path id="Oval_00000098217934311803386400000012547388434993144254_" class="st0" d="M1,2c0.6,0,1-0.4,1-1c0-0.6-0.4-1-1-1
		C0.4,0,0,0.4,0,1C0,1.6,0.4,2,1,2z"/>
	<path id="Oval_00000043420847713583346800000018151496050125131143_" class="st0" d="M1,2c0.6,0,1-0.4,1-1c0-0.6-0.4-1-1-1
		C0.4,0,0,0.4,0,1C0,1.6,0.4,2,1,2z"/>
	<path id="Oval_00000170267915752360696510000015078805503553721251_" class="st0" d="M1,2c0.6,0,1-0.4,1-1c0-0.6-0.4-1-1-1
		C0.4,0,0,0.4,0,1C0,1.6,0.4,2,1,2z"/>
	<path id="Oval_00000132063972103476444200000017657153319136509869_" class="st0" d="M1,2c0.6,0,1-0.4,1-1c0-0.6-0.4-1-1-1
		C0.4,0,0,0.4,0,1C0,1.6,0.4,2,1,2z"/>
	<path id="Oval_00000079455826876370244880000002589572344800997258_" class="st0" d="M1,2c0.6,0,1-0.4,1-1c0-0.6-0.4-1-1-1
		C0.4,0,0,0.4,0,1C0,1.6,0.4,2,1,2z"/>
	<path id="Oval_00000146479623781309646170000010882153805269497011_" class="st0" d="M1,2c0.6,0,1-0.4,1-1c0-0.6-0.4-1-1-1
		C0.4,0,0,0.4,0,1C0,1.6,0.4,2,1,2z"/>
	<path id="Oval_00000028302305139299751030000017320967592429564814_" class="st0" d="M1,2c0.6,0,1-0.4,1-1c0-0.6-0.4-1-1-1
		C0.4,0,0,0.4,0,1C0,1.6,0.4,2,1,2z"/>
	<path id="Oval_00000039107775586567729610000014515852279731749027_" class="st0" d="M1,2c0.6,0,1-0.4,1-1c0-0.6-0.4-1-1-1
		C0.4,0,0,0.4,0,1C0,1.6,0.4,2,1,2z"/>
	<path id="Oval_00000178181183918392997030000008248242656436864678_" class="st0" d="M1,2c0.6,0,1-0.4,1-1c0-0.6-0.4-1-1-1
		C0.4,0,0,0.4,0,1C0,1.6,0.4,2,1,2z"/>
	<path id="Oval_00000049195851669219437610000005067924165955227545_" class="st0" d="M1,2c0.6,0,1-0.4,1-1c0-0.6-0.4-1-1-1
		C0.4,0,0,0.4,0,1C0,1.6,0.4,2,1,2z"/>
	<path id="Oval_00000001647699128413404030000006992898042182386870_" class="st0" d="M1,2c0.6,0,1-0.4,1-1c0-0.6-0.4-1-1-1
		C0.4,0,0,0.4,0,1C0,1.6,0.4,2,1,2z"/>
	<path id="Oval_00000009569516622471116650000008000716628412299710_" class="st0" d="M1,2c0.6,0,1-0.4,1-1c0-0.6-0.4-1-1-1
		C0.4,0,0,0.4,0,1C0,1.6,0.4,2,1,2z"/>
	<path id="Oval_00000119810166572215790020000015544841858645723008_" class="st0" d="M1,2c0.6,0,1-0.4,1-1c0-0.6-0.4-1-1-1
		C0.4,0,0,0.4,0,1C0,1.6,0.4,2,1,2z"/>
	<path id="Oval_00000089561414661703306990000017635564296035852172_" class="st0" d="M1,2c0.6,0,1-0.4,1-1c0-0.6-0.4-1-1-1
		C0.4,0,0,0.4,0,1C0,1.6,0.4,2,1,2z"/>
	<path id="Oval_00000100340590630714726400000013145721729833924283_" class="st0" d="M1,2c0.6,0,1-0.4,1-1c0-0.6-0.4-1-1-1
		C0.4,0,0,0.4,0,1C0,1.6,0.4,2,1,2z"/>
	<path id="Oval_00000097470883375299127760000010667214484282330020_" class="st0" d="M1,2c0.6,0,1-0.4,1-1c0-0.6-0.4-1-1-1
		C0.4,0,0,0.4,0,1C0,1.6,0.4,2,1,2z"/>
	<path id="Oval_00000113324268327443812110000009381886138031338404_" class="st0" d="M1,2c0.6,0,1-0.4,1-1c0-0.6-0.4-1-1-1
		C0.4,0,0,0.4,0,1C0,1.6,0.4,2,1,2z"/>
	<path id="Oval_00000183232434298450316620000014845195568870601642_" class="st0" d="M1,2c0.6,0,1-0.4,1-1c0-0.6-0.4-1-1-1
		C0.4,0,0,0.4,0,1C0,1.6,0.4,2,1,2z"/>
	<path id="Oval_00000109025019212565338040000010038391282073453233_" class="st0" d="M1,2c0.6,0,1-0.4,1-1c0-0.6-0.4-1-1-1
		C0.4,0,0,0.4,0,1C0,1.6,0.4,2,1,2z"/>
	<path id="Oval_00000168118522405639295510000003983903007899327159_" class="st0" d="M1,2c0.6,0,1-0.4,1-1c0-0.6-0.4-1-1-1
		C0.4,0,0,0.4,0,1C0,1.6,0.4,2,1,2z"/>
	<path id="Oval_00000168817072592267878500000006252633098132716685_" class="st0" d="M1,2c0.6,0,1-0.4,1-1c0-0.6-0.4-1-1-1
		C0.4,0,0,0.4,0,1C0,1.6,0.4,2,1,2z"/>
	<path id="Oval_00000039129345713380189900000011421852331444881537_" class="st0" d="M1,2c0.6,0,1-0.4,1-1c0-0.6-0.4-1-1-1
		C0.4,0,0,0.4,0,1C0,1.6,0.4,2,1,2z"/>
	<path id="Oval_00000178173960203355612560000014240773021474467499_" class="st0" d="M1,2c0.6,0,1-0.4,1-1c0-0.6-0.4-1-1-1
		C0.4,0,0,0.4,0,1C0,1.6,0.4,2,1,2z"/>
	<path id="Oval_00000181047503132294182770000005532494390637255562_" class="st0" d="M1,2c0.6,0,1-0.4,1-1c0-0.6-0.4-1-1-1
		C0.4,0,0,0.4,0,1C0,1.6,0.4,2,1,2z"/>
	<path id="Oval_00000067212939862797656540000014410649167997414535_" class="st0" d="M1,2c0.6,0,1-0.4,1-1c0-0.6-0.4-1-1-1
		C0.4,0,0,0.4,0,1C0,1.6,0.4,2,1,2z"/>
	<path id="Oval_00000154407681454138089940000000881429253273436575_" class="st0" d="M1,2c0.6,0,1-0.4,1-1c0-0.6-0.4-1-1-1
		C0.4,0,0,0.4,0,1C0,1.6,0.4,2,1,2z"/>
	<path id="Oval_00000057149193516640606520000004580409369260258952_" class="st0" d="M1,2c0.6,0,1-0.4,1-1c0-0.6-0.4-1-1-1
		C0.4,0,0,0.4,0,1C0,1.6,0.4,2,1,2z"/>
	<path id="Oval_00000170240231496739961210000014822741412522255249_" class="st0" d="M1,2c0.6,0,1-0.4,1-1c0-0.6-0.4-1-1-1
		C0.4,0,0,0.4,0,1C0,1.6,0.4,2,1,2z"/>
	<path id="Oval_00000126292463527941069480000018208324375737410203_" class="st0" d="M1,2c0.6,0,1-0.4,1-1c0-0.6-0.4-1-1-1
		C0.4,0,0,0.4,0,1C0,1.6,0.4,2,1,2z"/>
	<path id="Oval_00000150819146205654133470000006245493775699136666_" class="st0" d="M1,2c0.6,0,1-0.4,1-1c0-0.6-0.4-1-1-1
		C0.4,0,0,0.4,0,1C0,1.6,0.4,2,1,2z"/>
	<path id="Oval_00000008144731427714452580000012390199059868694688_" class="st0" d="M1,2c0.6,0,1-0.4,1-1c0-0.6-0.4-1-1-1
		C0.4,0,0,0.4,0,1C0,1.6,0.4,2,1,2z"/>
	<path id="Oval_00000009557394769809268960000010378769918330843559_" class="st0" d="M1,2c0.6,0,1-0.4,1-1c0-0.6-0.4-1-1-1
		C0.4,0,0,0.4,0,1C0,1.6,0.4,2,1,2z"/>
	<path id="Oval_00000003816175989291088740000011182772367086616735_" class="st0" d="M1,2c0.6,0,1-0.4,1-1c0-0.6-0.4-1-1-1
		C0.4,0,0,0.4,0,1C0,1.6,0.4,2,1,2z"/>
	<path id="Oval_00000106115301812859102750000010779129859243525268_" class="st0" d="M1,2c0.6,0,1-0.4,1-1c0-0.6-0.4-1-1-1
		C0.4,0,0,0.4,0,1C0,1.6,0.4,2,1,2z"/>
	<path id="Oval_00000068647339100118627960000007068023591636830885_" class="st0" d="M1,2c0.6,0,1-0.4,1-1c0-0.6-0.4-1-1-1
		C0.4,0,0,0.4,0,1C0,1.6,0.4,2,1,2z"/>
	<path id="Oval_00000050654975003300761540000006495192497226440074_" class="st0" d="M1,2c0.6,0,1-0.4,1-1c0-0.6-0.4-1-1-1
		C0.4,0,0,0.4,0,1C0,1.6,0.4,2,1,2z"/>
	<path id="Oval_00000062192462750200766660000001456690401692028343_" class="st0" d="M1,2c0.6,0,1-0.4,1-1c0-0.6-0.4-1-1-1
		C0.4,0,0,0.4,0,1C0,1.6,0.4,2,1,2z"/>
	<path id="Oval_00000116947746658721926090000008897521351195802786_" class="st0" d="M1,2c0.6,0,1-0.4,1-1c0-0.6-0.4-1-1-1
		C0.4,0,0,0.4,0,1C0,1.6,0.4,2,1,2z"/>
</g>
</svg>
