<?xml version="1.0" encoding="UTF-8"?><svg id="a" xmlns="http://www.w3.org/2000/svg" width="36" height="37" viewBox="0 0 36 37"><defs><style>.c{fill:none;stroke:#b2b2b2;stroke-width:1.5px;}</style></defs><path id="b" class="c" d="M18.5128,35.75c-.109,0-.2179,0-.3269-.1097L.9679,19.6215c-.109-.1097-.2179-.2195-.2179-.4389,0-.1097,0-.3292,.109-.4389L16.4423,.9694c.109-.1097,.218-.2194,.4359-.2194,.109,0,.3269,0,.4359,.1097l17.218,16.0188c.1089,.1097,.2179,.2195,.2179,.4389,0,.1097,0,.3292-.109,.4389l-15.5833,17.7743c-.218,.1097-.4359,.2194-.5449,.2194Z"/></svg>