<?xml version="1.0" encoding="UTF-8"?><svg id="a" xmlns="http://www.w3.org/2000/svg" width="27" height="28" viewBox="0 0 27 28"><defs><style>.c{fill:#b2b2b2;}</style></defs><path id="b" class="c" d="M13.4296,27.6204c-3.3979,0-6.7957-1.3017-9.5464-4.0678C1.2944,20.9492,0,17.5322,0,13.7899S1.4562,6.6305,3.8832,4.0271h0c5.1777-5.3695,13.7532-5.3695,18.9309,0,2.5888,2.6034,3.8832,6.0204,3.8832,9.7628s-1.4562,7.1593-3.8832,9.7627c-2.4271,2.6034-5.9867,4.0678-9.3845,4.0678Zm-.1603-25.779c-3.0158,0-5.8728,1.119-8.0949,3.5167h0C2.9523,7.596,1.8412,10.6332,1.8412,13.8302s1.2698,6.2342,3.3332,8.4721c4.4443,4.6357,11.7455,4.6357,16.3485,0,2.2221-2.2379,3.3332-5.2751,3.3332-8.4721s-1.2698-6.2342-3.3332-8.4721c-2.3808-2.3978-5.2379-3.5167-8.2536-3.5167Z"/></svg>