<?xml version="1.0" encoding="UTF-8"?><svg id="a" xmlns="http://www.w3.org/2000/svg" width="46" height="47" viewBox="0 0 46 47"><defs><style>.c{fill:none;stroke:#b2b2b2;stroke-miterlimit:4;stroke-width:1.5px;}</style></defs><path id="b" class="c" d="M21.8887,44.3472c-.1293-.0113-.2586-.0226-.3765-.1646L2.7519,23.3142c-.1179-.142-.2357-.284-.2129-.5454,.0114-.1307,.0343-.3921,.175-.5114L23.0566,2.7029c.1407-.1194,.2815-.2388,.5401-.2161,.1293,.0113,.3879,.0339,.5058,.1759l18.7603,20.8684c.1179,.142,.2357,.284,.2129,.5454-.0114,.1307-.0343,.392-.175,.5114l-20.3425,19.5544c-.27,.1081-.5401,.2161-.6694,.2048Z"/></svg>