<?xml version="1.0" encoding="UTF-8"?><svg id="a" xmlns="http://www.w3.org/2000/svg" width="10.0894cm" height="15.0283cm" viewBox="0 0 286 426"><defs><style>.f{fill:rgba(255,255,255,.8663);}.g{fill:rgba(55,50,109,.8663);}.h{fill:none;stroke:#fff;stroke-width:1.5px;}</style></defs><g id="b"><path id="c" class="g" d="M246.4023,424.75c-24.0422,0-49.4884-18.9109-75.461-56.3824-.351-.3502-.1755-1.0506,.1755-1.2257,.351-.3502,.8775-.1751,1.2284,.1751,26.6746,38.1719,52.2963,56.9077,76.514,55.5069,19.6549-1.0506,33.1678-14.7084,47.5578-29.0667,14.039-14.1831,28.605-28.8916,49.664-29.9422,23.516-1.2257,47.909,14.8836,72.478,47.8025,.351,.3502,.175,1.0506-.176,1.2257-.351,.3502-.877,.1751-1.228-.1751-24.218-32.3936-48.085-48.3278-70.898-47.1021-20.357,1.0506-34.748,15.4089-48.436,29.4169-13.864,14.0081-28.2539,28.3663-48.6108,29.592-1.053,0-1.9304,.1751-2.8079,.1751Z"/><path id="d" class="h" d="M186.4231,58.75c-.0962,0-.1923,0-.2885-.0972l-15.1923-14.1881c-.0962-.0971-.1923-.1943-.1923-.3887,0-.0972,0-.2915,.0962-.3887l13.75-15.7429c.0961-.0972,.1923-.1944,.3846-.1944,.0961,0,.2884,0,.3846,.0972l15.1923,14.1881c.0961,.0971,.1923,.1943,.1923,.3887,0,.0972,0,.2915-.0962,.3887l-13.75,15.7429c-.1923,.0972-.3846,.1944-.4807,.1944Z"/><path id="e" class="f" d="M1.613,212.2461l.0946-.1638,22.4539-21.5336c.447-.3969,1.0318-.2777,1.264,.0748,.3956,.4468,.2754,1.0324,.0863,1.3599L3.0578,213.5169c-.447,.397-1.0318,.2777-1.264-.0747-.4902-.283-.3699-.8686-.1808-1.1961Z"/></g></svg>