<?xml version="1.0" encoding="UTF-8"?><svg id="a" xmlns="http://www.w3.org/2000/svg" width="7.0556cm" height="14.3933cm" viewBox="0 0 200 408"><defs><style>.f{fill:#fff;}.g{fill:rgba(255,255,255,.8663);}.h{fill:rgba(55,50,109,.8663);}</style></defs><g id="b"><path id="c" class="g" d="M-66.6689,55c-21.7155,0-44.6992-17.0508-68.1583-50.8366-.317-.3158-.1585-.9473,.1585-1.1051,.317-.3158,.7925-.1579,1.1096,.1579,24.0931,34.4173,47.3938,51.3102,69.1093,50.0471,17.7529-.9472,29.9578-13.2617,42.9558-26.2076C-8.814,14.2676,4.343,1.0059,23.364,.0586c21.24-1.1051,43.114,13.4196,65.463,43.1006,.317,.3157,.159,.9473-.158,1.1051-.317,.3158-.793,.1579-1.11-.1578C65.527,15.057,43.97,.848,23.364,1.7953,4.977,2.7425-8.021,15.6885-20.385,28.3187c-12.522,12.6302-25.5194,25.5762-43.9063,26.6813h-2.3776Z"/><path id="d" class="h" d="M71.1309,407.5441c-.3782,0-.5673-.1886-.7564-.3773l-16.2614-26.9802c-.1891-.3773-.1891-1.132,.3782-1.3207,.3782-.1887,1.1345-.1887,1.3236,.3773l16.2614,26.9801c.1891,.3774,.1891,1.1321-.3782,1.3207-.189-.1886-.3781,0-.5672,0Z"/><path id="e" class="f" d="M189.0667,201.5117c-2.8,0-5.6-1.0725-7.8667-3.3518-2.1333-2.1451-3.2-4.9606-3.2-8.0442s1.2-5.8992,3.2-8.0443h0c4.2667-4.4244,11.3333-4.4244,15.6,0,2.1333,2.1451,3.2,4.9606,3.2,8.0443s-1.2,5.8991-3.2,8.0442c-2,2.1452-4.9333,3.3518-7.7333,3.3518Zm-.1321-21.2414c-2.4851,0-4.8395,.922-6.6706,2.8977h0c-1.8311,1.844-2.7467,4.3466-2.7467,6.9809s1.0464,5.1368,2.7467,6.9808c3.6623,3.8197,9.6789,3.8197,13.472,0,1.8312-1.844,2.7468-4.3465,2.7468-6.9808s-1.0464-5.1369-2.7468-6.9809c-1.9619-1.9757-4.3163-2.8977-6.8014-2.8977Z"/></g></svg>