<?xml version="1.0" encoding="UTF-8"?><svg id="a" xmlns="http://www.w3.org/2000/svg" width="152" height="83" viewBox="0 0 152 83"><defs><style>.c{fill:rgba(178,178,178,.8663);}</style></defs><path id="b" class="c" d="M102.121,82.35C69.6673,82.35,35.3181,56.8203,.2583,6.2338c-.4738-.4728-.2369-1.4183,.2369-1.6547,.4738-.4728,1.1845-.2364,1.6582,.2364C38.1608,56.3476,72.7469,81.6408,105.438,79.7498c26.532-1.4184,44.772-19.8564,64.197-39.2401C188.587,21.3625,208.249,1.5061,236.675,.0878c31.744-1.6547,64.672,20.0928,97.836,64.5333,.474,.4727,.237,1.4183-.237,1.6547-.473,.4727-1.184,.2364-1.658-.2364C299.925,22.308,267.708,.7969,236.912,2.4516c-27.479,1.4183-46.904,20.802-65.382,39.7128-18.714,18.9109-38.139,38.2945-65.618,39.9492-1.422,0-2.606,.2364-3.791,.2364Z"/></svg>