<?xml version="1.0" encoding="UTF-8"?><svg id="a" xmlns="http://www.w3.org/2000/svg" width="120" height="75" viewBox="0 0 120 75"><defs><style>.c{fill:rgba(178,178,178,.8663);}</style></defs><path id="b" class="c" d="M-90.6149,74.25c-29.3133,0-60.3384-23.0185-92.0053-68.6294-.4279-.4263-.214-1.2788,.214-1.492,.4279-.4263,1.0698-.2131,1.4978,.2131,32.5228,46.4634,63.9758,69.2688,93.2892,67.5637,23.9638-1.2788,40.4398-17.9033,57.9848-35.3803C-12.5175,19.2613,5.2415,1.3579,30.9175,.0791c28.672-1.4919,58.199,18.1165,88.368,58.1858,.428,.4263,.214,1.2788-.214,1.4919-.428,.4263-1.07,.2132-1.497-.2131C87.8325,20.3269,58.7335,1.1448,30.9175,2.4236,6.0975,3.7024-11.4475,21.1795-28.1365,38.2302c-16.904,17.0508-34.449,34.5279-59.2689,36.0198h-3.2095Z"/></svg>