<?xml version="1.0" encoding="UTF-8"?><svg id="a" xmlns="http://www.w3.org/2000/svg" width="14" height="19" viewBox="0 0 14 19"><defs><style>.d{opacity:.9758;}.e{fill:#56b7cb;fill-rule:evenodd;}</style></defs><g id="b" class="d"><path id="c" class="e" d="M2.3333,4.6667C2.3333,2.0893,4.4227,0,7,0s4.6667,2.0893,4.6667,4.6667v3.1111c1.2887,0,2.3333,1.0446,2.3333,2.3333v6.2222c0,1.2887-1.0446,2.3334-2.3333,2.3334H2.3333c-1.2887,0-2.3333-1.0447-2.3333-2.3334v-6.2222c0-1.2887,1.0447-2.3333,2.3333-2.3333h7.7778v-3.1111c0-1.7182-1.3929-3.1111-3.1111-3.1111s-3.1111,1.3929-3.1111,3.1111v.7778c0,.4296-.3482,.7778-.7778,.7778s-.7778-.3482-.7778-.7778v-.7778Zm0,4.6667c-.4295,0-.7778,.3482-.7778,.7778v6.2222c0,.4296,.3482,.7778,.7778,.7778H11.6667c.4295,0,.7777-.3482,.7777-.7778v-6.2222c0-.4296-.3482-.7778-.7777-.7778H2.3333Zm4.6667,2.3334c.4296,0,.7778,.3482,.7778,.7777v1.5556c0,.4296-.3482,.7778-.7778,.7778s-.7778-.3482-.7778-.7778v-1.5556c0-.4295,.3482-.7777,.7778-.7777Z"/></g></svg>