<?xml version="1.0" encoding="UTF-8"?><svg id="a" xmlns="http://www.w3.org/2000/svg" width="68" height="75" viewBox="0 0 68 75"><defs><style>.b{fill:#fff;}.c{fill:#76469e;}</style></defs><circle class="c" cx="34" cy="37.5" r="33.0025"/><g><path class="b" d="M46.6856,26.4337h-.3382c-.0063-.3425-.0294-.6805-.0616-1.0159-.0009-.0135,.0013-.0264,0-.04-.004-.0405-.0104-.0803-.0147-.1207-.0093-.0861-.0203-.1716-.0314-.2572-.0164-.1289-.0342-.2573-.0542-.3849-.0098-.0615-.0203-.1228-.031-.184-.0276-.1607-.0579-.3202-.0912-.4786-.0049-.0226-.0097-.0453-.0147-.0679-1.1066-5.1269-5.1601-8.9966-10.1862-9.7723-.0024-.0004-.0049-.0009-.0072-.0013-.1806-.0278-.3626-.051-.5457-.0707-.0253-.0028-.0504-.0066-.0758-.0092-.1664-.0168-.334-.0289-.5024-.039-.0387-.0024-.0771-.0064-.1159-.0084-.2041-.0102-.4092-.0159-.6155-.0159s-.4116,.0057-.6155,.0159c-.0388,.002-.0772,.006-.116,.0084-.1682,.01-.3359,.0221-.5023,.039-.0254,.0026-.0505,.0064-.0758,.0092-.1831,.0197-.3651,.043-.5457,.0707-.0025,.0004-.0049,.0009-.0072,.0013-5.0261,.7757-9.0797,4.6454-10.1863,9.7723-.0049,.0226-.0098,.0453-.0146,.0679-.0333,.1584-.0637,.3179-.0912,.4786-.0107,.0612-.0212,.1225-.031,.184-.0201,.1276-.0377,.256-.0543,.3849-.0109,.0856-.0219,.1711-.0312,.2572-.0043,.0404-.0107,.0801-.0147,.1207-.0013,.0135,.0009,.0265,0,.04-.0322,.3354-.0553,.6735-.0616,1.0159h-.3382c-5.96,0-10.809,4.9896-10.809,11.1227s4.8489,11.1227,10.809,11.1227c.605,0,1.0953-.5046,1.0953-1.127s-.4904-1.127-1.0953-1.127c-4.7523,0-8.6183-3.9786-8.6183-8.8687s3.866-8.8687,8.6183-8.8687h1.5539c.3185,0,.6212-.1426,.8292-.3906,.208-.2481,.301-.5771,.2543-.9013-.0372-.2589-.0726-.4033-.1079-.5291-.0013-.0287-.0028-.0853-.0028-.1911,0-5.2175,3.7337-9.554,8.596-10.33,.0082-.0013,.0164-.0029,.0246-.0042,.1453-.0228,.292-.0412,.4392-.0576,.0256-.0028,.0511-.0067,.0769-.0093,.1351-.014,.2716-.0236,.4082-.032,.0348-.0021,.0694-.0058,.1043-.0076,.1689-.0086,.3388-.0133,.5097-.0133s.3407,.0047,.5096,.0133c.035,.0018,.0695,.0055,.1044,.0076,.1366,.0084,.2731,.0181,.4082,.032,.0257,.0026,.0511,.0065,.0769,.0093,.1472,.0164,.2939,.0348,.4392,.0576,.0082,.0013,.0163,.0028,.0245,.0041,4.8624,.7759,8.5962,5.1125,8.5962,10.33,0,.1058-.0015,.1624-.0028,.1911-.0352,.1258-.0707,.2702-.1079,.5291-.0467,.3242,.0463,.6532,.2543,.9013,.208,.248,.5107,.3906,.8292,.3906h1.5539c4.7523,0,8.6183,3.9786,8.6183,8.8687s-3.866,8.8687-8.6183,8.8687c-.605,0-1.0953,.5046-1.0953,1.127s.4904,1.127,1.0953,1.127c5.96,0,10.809-4.9896,10.809-11.1227s-4.8489-11.1227-10.809-11.1227Z"/><path class="b" d="M27.2701,48.6791h-6.0517c-.6049,0-1.0952-.5045-1.0952-1.127s.4903-1.127,1.0952-1.127h6.0517c.6049,0,1.0952,.5045,1.0952,1.127s-.4903,1.127-1.0952,1.127Z"/><path class="b" d="M46.9399,39.3709l-9.1527-11.48c-.0013-.0016-.0027-.0032-.004-.0048l-.0032-.0041c-.0177-.0223-.0392-.0391-.0582-.0596-.0301-.0325-.0579-.0666-.0925-.0959-.0011-.0009-.0023-.0014-.0034-.0023-.0491-.0413-.1018-.0755-.1559-.1069-.0091-.0053-.0171-.0129-.0263-.0178-.0483-.0261-.0994-.0448-.1504-.0631-.068-.0244-.1369-.0417-.2071-.0519-.0156-.0023-.0308-.0077-.0464-.0093-.0438-.0044-.0874-.0014-.1311-.0004-.0266,.0006-.0533-.0025-.0799,.0001-.04,.0039-.0788,.0149-.1182,.0234-.0297,.0063-.06,.009-.0893,.0179-.068,.0208-.1344,.0485-.198,.0829-.0002,0-.0004,.0002-.0006,.0003-.0638,.0346-.1247,.0764-.182,.1246-.0006,.0006-.0013,.0009-.0021,.0015-.0247,.0208-.0436,.0458-.066,.0683-.0286,.0287-.0592,.0545-.0851,.087l-.0042,.0054c-.0008,.0008-.0013,.0015-.0019,.0023l-9.179,11.4813c-.2691,.3367-.3255,.803-.1447,1.1973,.1812,.3943,.5668,.6458,.9905,.6458h4.4848v15.4193c-.7124,.395-1.1969,1.1695-1.1969,2.0607,0,1.2921,1.0179,2.3395,2.2734,2.3395s2.2736-1.0475,2.2736-2.3395c0-.8753-.468-1.6372-1.1597-2.0383v-16.5686c0-.6225-.4903-1.127-1.0952-1.127h-3.2609l6.8648-8.5865,6.8458,8.5865h-3.2647c-.6049,0-1.0952,.5045-1.0952,1.127v12.5404c0,.6225,.4903,1.127,1.0952,1.127s1.0952-.5045,1.0952-1.127v-11.4134h4.4848c.4233,0,.8089-.2511,.9902-.645,.1808-.3939,.1252-.86-.1435-1.1969Z"/><path class="b" d="M18.8129,42.9783c-.1862,0-.3746-.0488-.5474-.1516-1.8208-1.0843-2.9522-3.1017-2.9522-5.2648,0-3.3518,2.6499-6.0786,5.907-6.0786,.6049,0,1.0952,.5045,1.0952,1.127s-.4903,1.127-1.0952,1.127c-2.0492,0-3.7166,1.7158-3.7166,3.8246,0,1.3613,.7123,2.631,1.8589,3.3136,.5234,.3118,.7024,1.0013,.3993,1.5401-.2029,.361-.5706,.5627-.949,.5627Z"/></g></svg>