<?xml version="1.0" encoding="UTF-8"?><svg id="a" xmlns="http://www.w3.org/2000/svg" width="68" height="75" viewBox="0 0 68 75"><defs><style>.b{fill:#fff;}.c{fill:#76469e;}</style></defs><circle class="c" cx="34" cy="37.5" r="33.0025"/><g><path class="b" d="M48.1681,59.1792H19.8319c-.5075,0-.9188-.4114-.9188-.9188V17.7282c0-.5075,.4114-.9188,.9188-.9188h14.1679c.5075,0,.9188,.4114,.9188,.9188s-.4114,.9188-.9188,.9188h-13.2491V57.3415h26.4985v-17.3549c0-.5075,.4114-.9188,.9188-.9188s.9188,.4114,.9188,.9188v18.2738c0,.5075-.4114,.9188-.9188,.9188Z"/><path class="b" d="M38.1085,53.0885h-12.3194c-.5075,0-.9188-.4114-.9188-.9188s.4114-.9188,.9188-.9188h12.3194c.5075,0,.9188,.4114,.9188,.9188s-.4114,.9188-.9188,.9188Z"/><path class="b" d="M38.1085,49.0422h-12.3194c-.5075,0-.9188-.4114-.9188-.9188s.4114-.9188,.9188-.9188h12.3194c.5075,0,.9188,.4114,.9188,.9188s-.4114,.9188-.9188,.9188Z"/><path class="b" d="M38.1085,44.9959h-12.3194c-.5075,0-.9188-.4114-.9188-.9188s.4114-.9188,.9188-.9188h12.3194c.5075,0,.9188,.4114,.9188,.9188s-.4114,.9188-.9188,.9188Z"/><path class="b" d="M38.1085,40.9496h-12.3194c-.5075,0-.9188-.4114-.9188-.9188s.4114-.9188,.9188-.9188h12.3194c.5075,0,.9188,.4114,.9188,.9188s-.4114,.9188-.9188,.9188Z"/><path class="b" d="M48.1681,18.647h-10.0667c-.5075,0-.9189-.4114-.9189-.9188s.4114-.9188,.9189-.9188h10.0667c.5075,0,.9189,.4114,.9189,.9188s-.4114,.9188-.9189,.9188Z"/><path class="b" d="M48.1681,36.8478c-.5075,0-.9189-.4114-.9189-.9188V17.7282c0-.5074,.4114-.9188,.9189-.9188s.9189,.4114,.9189,.9188v18.2008c0,.5074-.4114,.9188-.9189,.9188Z"/><circle class="b" cx="38.9586" cy="17.7282" r="1.9074"/><path class="b" d="M25.9079,34.9102c-.5075,0-.9188-.4114-.9188-.9188v-10.2691c0-.5075,.4114-.9188,.9188-.9188h4.1416c.5075,0,.9188,.4114,.9188,.9188s-.4114,.9188-.9188,.9188h-3.2228v9.3502c0,.5075-.4114,.9188-.9188,.9188Z"/></g></svg>