<?xml version="1.0" encoding="UTF-8"?><svg id="a" xmlns="http://www.w3.org/2000/svg" width="68" height="75" viewBox="0 0 68 75"><defs><style>.b{fill:#fff;}.c{fill:#76469e;}</style></defs><circle class="c" cx="34" cy="37.5" r="33.0025"/><path class="b" d="M34,14.0051c-1.7392,0-3.1342,1.4087-3.1342,3.1295s1.395,3.1356,3.1342,3.1356,3.1341-1.4148,3.1341-3.1356-1.395-3.1295-3.1341-3.1295Zm0,1.5663c.8559,0,1.5678,.6889,1.5678,1.5632s-.7089,1.5693-1.5678,1.5693-1.5678-.695-1.5678-1.5693,.7118-1.5632,1.5678-1.5632Zm-5.2665,3.1325l-10.4869,4.838c-.9449,.4152-.3109,1.8645,.6561,1.4225l10.4885-4.838c.7311-.3264,.5413-1.4383-.2768-1.4974-.1315-.0088-.262,.0178-.3809,.0749Zm20.3636,6.2606c.9671,.4419,1.601-1.0073,.6562-1.4225l-10.4869-4.838c-.1187-.0568-.2495-.0823-.3809-.0749-.8182,.0592-1.008,1.1711-.2768,1.4974l10.4885,4.838h0Zm-17.1499-2.0236c-.5849,.2833-.8012,.7204-.93,1.0294-.1288,.3091-.1793,.4837-.3411,.6822-.1619,.1983-.4571,.4519-1.1396,.7402-.685,.2895-1.0838,.3304-1.3476,.3121-.2638-.0178-.4218-.0977-.722-.214-.3002-.1166-.768-.2661-1.3476-.0749-.5235,.1726-1.0395,.5884-1.6122,1.1686-.6212,.6294-.9964,1.1488-1.1457,1.6244-.1812,.5775-.0178,1.0426,.1039,1.3399,.1222,.2973,.2036,.4567,.2264,.7174,.0237,.2607-.0119,.6611-.2892,1.3475-.2785,.6864-.5303,.9963-.7281,1.1671-.1977,.1708-.3673,.2235-.6593,.3473-.3797,.1607-.7598,.3854-1.0126,.8733-.2297,.4436-.3238,1.0647-.3167,1.9303-.0059,.7952,.0645,1.4438,.3167,1.9303,.2528,.4879,.6348,.7134,1.0126,.8734,.2919,.1237,.4523,.1734,.6501,.3441,.1977,.1708,.4586,.4838,.7373,1.1702,.2735,.6732,.3089,1.0707,.2892,1.3307-.0207,.2602-.0965,.4173-.2143,.6991-.1421,.3395-.2744,.764-.1391,1.2833,.0995,.3817,.3013,.7314,.6271,1.1273-.5331,.8747-.9521,1.805-1.2436,2.8114-.5655-.8356-1.3088-1.496-2.1904-1.9793,.5855-.6855,.9361-1.5717,.9361-2.5406,0-2.1533-1.7395-3.9172-3.9143-3.9172s-3.9203,1.7639-3.9203,3.9172c0,.9701,.3527,1.8548,.9407,2.5406-1.968,1.0607-3.2856,3.1383-3.2856,5.5324v.9193c0,1.9616,1.5821,3.5379,3.5227,3.5379h5.4805c.7246,0,1.3993-.2167,1.961-.5965v2.9521c0,.9402,.2954,1.8612,1.0126,2.4672,.717,.606,1.7659,.7949,2.9659,.5613,.0178-.0029,.0349-.0089,.0521-.0118l7.7122-2.0756,7.7428,2.0818c1.226,.2394,2.2454,.0758,2.9949-.5552,.7169-.6037,1.0141-1.5211,1.0141-2.4565v-2.9598c.5617,.3797,1.2364,.5935,1.9609,.5935h5.4805c1.9406,0,3.5227-1.5762,3.5227-3.5379v-.9193c0-2.3941-1.3176-4.4717-3.2856-5.5324,.5881-.6859,.9407-1.5706,.9407-2.5406,0-2.1533-1.7456-3.9172-3.9203-3.9172s-3.9143,1.7639-3.9143,3.9172c0,.9689,.3506,1.8551,.9361,2.5406-.8754,.471-1.6279,1.1467-2.1934,1.9823-.2915-1.0063-.7088-1.9459-1.242-2.8205,.3262-.3963,.5293-.7392,.6287-1.1211,.1353-.5194,.0028-.9438-.1391-1.2833-.1175-.2818-.1942-.439-.2143-.699-.0207-.2599,.0148-.6576,.2892-1.3307,.2785-.6864,.5394-.9994,.7373-1.1702,.1977-.1708,.3581-.2205,.6501-.3442,.3778-.1601,.7598-.3854,1.0126-.8733,.2522-.4866,.3232-1.1352,.3167-1.9303,.0059-.8656-.0867-1.4867-.3167-1.9303-.2528-.488-.6329-.7125-1.0126-.8734-.2919-.1237-.4614-.1764-.6593-.3472-.1977-.1708-.4495-.4807-.7281-1.1671-.2785-.6864-.3118-1.0869-.2892-1.3476,.0237-.2605,.1042-.42,.2264-.7174,.1223-.2972,.2854-.7623,.1039-1.3398-.1492-.4756-.5244-.9951-1.1456-1.6244-.5728-.5802-1.0887-.9959-1.6122-1.1686-.5796-.1912-1.0474-.0417-1.3476,.0749-.3002,.1166-.4582,.1956-.722,.214-.2637,.0178-.6626-.0237-1.3476-.3121-.6824-.2883-.9777-.5418-1.1396-.7403-.1619-.1983-.2122-.3731-.341-.6822-.1288-.309-.3451-.746-.93-1.0294-.5074-.246-1.1159-.3228-2.0526-.3229-.9368,0-1.5452,.0769-2.0527,.3226l.0004-.0003Zm-18.3093,.4604c-1.7392,0-3.1326,1.4087-3.1326,3.1295s1.3934,3.1356,3.1326,3.1356,3.1342-1.4148,3.1342-3.1356-1.395-3.1295-3.1342-3.1295Zm40.724,0c-1.7392,0-3.1342,1.4087-3.1342,3.1295s1.395,3.1356,3.1342,3.1356,3.1327-1.4148,3.1327-3.1356-1.3935-3.1295-3.1327-3.1295Zm-18.9915,.9454c.1077,.0521,.1184,.1361,.1681,.2309,.0867,.2081,.2202,.6315,.5721,1.063s.8931,.8402,1.7391,1.1977c.8436,.3564,1.515,.4714,2.0696,.4328,.5545-.0384,.9648-.2326,1.1854-.3181,.1312-.0509,.1971-.0802,.283-.0521,.1125,.0373,.3982,.1823,.9896,.7816,.5641,.5715,.7286,.8836,.7633,.9942,.0237,.0927-.0148,.1746-.058,.2768-.074,.1797-.2868,.6199-.335,1.1732s.0539,1.2288,.3977,2.0756c.3437,.8468,.7352,1.4,1.1564,1.7636,.4212,.3636,.8508,.5141,1.0707,.6073,.1243,.0527,.1829,.0574,.2309,.1497,.0479,.0927,.1569,.3992,.1498,1.2084,.0059,.7617-.0856,1.0842-.1498,1.2084-.0479,.0926-.135,.1092-.2309,.1497-.2199,.0932-.6495,.2436-1.0707,.6073-.4212,.3635-.8127,.9167-1.1564,1.7636-.3371,.8305-.4396,1.4926-.3977,2.0405,.0417,.5479,.2208,.9206,.3288,1.1793,.0459,.1293,.0915,.2018,.069,.2891-.0059,.0237-.0399,.1072-.0704,.1652-1.1609-1.406-2.6532-2.5439-4.3486-3.2855,.9632-1.103,1.5402-2.5415,1.5402-4.1161,0-3.4509-2.8158-6.2651-6.2667-6.2651s-6.2667,2.8142-6.2667,6.2651c0,1.5749,.5766,3.013,1.5403,4.1161-1.6957,.7413-3.1881,1.8796-4.3486,3.2855-.0302-.058-.0639-.1406-.0704-.1652-.0237-.0873,.0237-.1598,.069-.2891,.108-.2587,.2871-.6314,.3289-1.1793,.0417-.5479-.0607-1.2099-.3977-2.0404-.3437-.8469-.7351-1.4-1.1564-1.7636-.4212-.3636-.8508-.5141-1.0707-.6073-.0962-.0405-.1829-.0574-.2309-.1497-.0642-.1241-.1563-.4467-.1497-1.2084-.006-.8092,.1018-1.1157,.1497-1.2084,.048-.0926,.1066-.0971,.2309-.1497,.2199-.0932,.6495-.2436,1.0707-.6073,.4212-.3636,.8127-.9168,1.1564-1.7636,.3438-.8469,.446-1.5223,.3977-2.0756-.0483-.5533-.2611-.9936-.335-1.1732-.042-.1024-.0829-.1844-.0581-.2768,.0347-.1107,.1992-.4227,.7633-.9942,.5915-.5992,.8771-.7445,.9897-.7816,.0858-.0296,.1518,.0011,.283,.0521,.2205,.0855,.6309,.2797,1.1854,.3181,.5545,.0385,1.2259-.0763,2.0695-.4328,.8461-.3575,1.3873-.7661,1.7391-1.1977,.3518-.4315,.4855-.8551,.5721-1.063,.05-.0948,.0604-.1788,.1684-.2309,.1261-.0613,.5387-.1622,1.3703-.1622s1.2441,.1009,1.3703,.1622h0Zm-21.7326,.6208c.856,0,1.5678,.6889,1.5678,1.5632s-.7088,1.5693-1.5678,1.5693-1.5663-.695-1.5663-1.5693,.7104-1.5632,1.5663-1.5632Zm40.724,0c.856,0,1.5663,.6889,1.5663,1.5632s-.7073,1.5693-1.5663,1.5693-1.5678-.695-1.5678-1.5693,.7119-1.5632,1.5678-1.5632ZM15.0483,30.9419c-.5388-.0338-.9496,.4746-.8031,.9942l1.3766,5.2143c.2404,1.0513,1.8217,.636,1.5143-.3977l-1.3766-5.2143c-.0811-.3331-.3692-.5747-.7112-.5965Zm37.9035,0c-.3421,.0207-.6303,.2634-.7113,.5965l-1.3766,5.2143c-.3073,1.0337,1.2741,1.449,1.5143,.3977l1.3766-5.2143c.1465-.5196-.2643-1.0281-.8031-.9942h0Zm-18.9517,.2921c2.58,0,4.7004,2.0943,4.7004,4.6988s-2.1114,4.7004-4.7004,4.7004-4.7004-2.0959-4.7004-4.7004,2.1175-4.6988,4.7004-4.6988Zm-16.4462,9.3961c1.2885,0,2.3464,1.0441,2.3464,2.351s-1.0549,2.3479-2.3464,2.3479-2.3525-1.0411-2.3525-2.3479,1.0641-2.351,2.3525-2.351Zm32.8925,0c1.2885,0,2.3525,1.0441,2.3525,2.351s-1.061,2.3479-2.3525,2.3479-2.3464-1.0411-2.3464-2.3479,1.0579-2.351,2.3464-2.351Zm-21.9268,12.8866v-2.7119c-.0237-1.0212-1.5437-1.0212-1.5663,0v3.1142l-.1956,.0503c-1.0138,.2581-.6268,1.7785,.3869,1.5204l11.8391-3.0408c.9031-.232,1.7822,.2907,2.0114,1.1503,.233,.8695-.2711,1.7733-1.161,2.0129l-13.904,3.7459c-.003,.0006-.003-.0006-.006,0-.8894,.1714-1.3676,.0148-1.6474-.2202-.2809-.2374-.4558-.6473-.4558-1.2711v-7.0528c0-4.4649,2.8472-8.2323,6.7883-9.6103,.9751,.6271,2.1444,.9957,3.3911,.9957,1.2459,0,2.4118-.3679,3.3866-.9942,3.9671,1.3869,6.7945,5.1437,6.7945,9.6087v7.0635c0,.6165-.1764,1.0239-.4574,1.2604-.2797,.2356-.7579,.3916-1.6474,.2202l-5.063-1.3629,3.2244-.8688c1.7017-.4582,2.7282-2.2047,2.2669-3.9264-.2285-.8532-.7691-1.5198-1.4577-1.9273v-.4681c-.0237-1.0212-1.5436-1.0121-1.5663,.0267-.2362-.0178-.5921,.0207-.8903,.0972l-10.071,2.5881v.0003Zm8.6147-7.403c-1.0213,.0237-1.0213,1.5436,0,1.5662h2.3464c1.0213-.0237,1.0213-1.5436,0-1.5662h-2.3464Zm-21.0978,.4741c.4363,.1904,.9861,.3075,1.5174,.3075s1.0601-.1172,1.5204-.3075c1.8597,.6247,3.1785,2.4019,3.1785,4.4663v.9193c0,1.0907-.8645,1.9716-1.9609,1.9716h-5.4806c-1.0965,0-1.9564-.8916-1.9564-1.9716v-.9193c0-2.0675,1.3206-3.8407,3.1816-4.4663Zm32.8894,0c.4419,.1933,.9892,.309,1.5204,.309s1.0657-.1095,1.5174-.309c1.861,.6256,3.1816,2.3988,3.1816,4.4663v.9193c0,1.0801-.8599,1.9716-1.9564,1.9716h-5.4805c-1.0964,0-1.9609-.8916-1.9609-1.9716v-.9193c0-2.0644,1.3188-3.8416,3.1785-4.4663h0Z"/></svg>