<?xml version="1.0" encoding="UTF-8"?><svg id="a" xmlns="http://www.w3.org/2000/svg" width="14.8333" height="20.3333" viewBox="0 0 14.8333 20.3333"><defs><style>.b{fill:#fdfdfd;}</style></defs><path class="b" d="M8.1259,9.1142c.1882-.2114,.3433-.4261,.5365-.6083,.5941-.56,1.297-.8425,2.1176-.8355,.4509,.0038,.8967,.0364,1.3315,.162,.9944,.2876,1.5724,.9721,1.848,1.9435,.2067,.7286,.2448,1.4765,.2461,2.2269,.0027,1.5827-.0046,3.1654-.0011,4.7481,.0003,.1482-.0412,.1871-.1871,.1859-.8153-.0068-1.6308-.0069-2.4461,.0002-.1435,.0013-.1744-.0432-.174-.1788,.0045-1.506,.0057-3.012,.0008-4.5179-.0012-.3774-.0253-.7546-.1311-1.1216-.195-.6759-.6789-1.0203-1.387-.9829-.9668,.0511-1.4697,.5298-1.593,1.5131-.0294,.2348-.0434,.4698-.0432,.7063,.0012,1.4646-.0015,2.9293,.0039,4.3939,.0005,.1461-.0361,.1891-.1853,.1878-.8212-.0073-1.6426-.0064-2.4639-.0006-.1317,.0009-.1697-.0346-.1695-.1677,.0036-2.8998,.0037-5.7995-.0002-8.6993-.0002-.1435,.0468-.1767,.1825-.1757,.7799,.0058,1.5599,.0065,2.3398-.0005,.1435-.0013,.1806,.0452,.1775,.1811-.008,.3465-.0026,.6932-.0026,1.0399Z"/><path class="b" d="M3.6584,12.4281c0,1.4346-.0024,2.8691,.0034,4.3037,.0006,.1595-.039,.2077-.2041,.2058-.815-.009-1.6301-.0069-2.4452-.0012-.1306,.0009-.17-.0317-.1698-.1668,.0039-2.9045,.0036-5.8091,.0007-8.7136-.0001-.1202,.029-.1631,.1567-.1623,.8269,.0053,1.6538,.007,2.4806-.001,.1588-.0015,.1805,.0601,.1801,.1962-.004,1.4464-.0025,2.8927-.0025,4.3391Z"/><path class="b" d="M3.8832,5.0154c.0009,.9006-.7302,1.6345-1.6288,1.6348-.887,.0003-1.6244-.7341-1.6273-1.6207-.0029-.8965,.7338-1.6347,1.6307-1.6338,.8905,.0009,1.6244,.7323,1.6253,1.6197Z"/></svg>