<?xml version="1.0" encoding="UTF-8"?><svg id="a" xmlns="http://www.w3.org/2000/svg" width="68" height="75" viewBox="0 0 68 75"><defs><style>.c{fill:#00b6b6;}.d{fill:#6a4f92;}.e{fill:none;stroke:#6a4f92;stroke-linecap:round;stroke-linejoin:round;stroke-width:2.3886px;}</style></defs><g><path class="e" d="M14.47,63.6136c5.4438,4.0779,12.2048,6.4933,19.53,6.4933,18.0083,0,32.607-14.5986,32.607-32.607S52.0083,4.893,34,4.893,1.393,19.4917,1.393,37.5c0,4.964,1.1092,9.6689,3.0934,13.8804"/><circle class="d" cx="14.4284" cy="63.6962" r="2.4514"/></g><g><g id="b"><path class="d" d="M37.3316,42.7534v2.2135c0,1.0124-.8217,1.8341-1.8341,1.8341h-9.339c-.1687,0-.3375,.0587-.4695,.1541l-4.996,3.7635v-3.1472c0-.4255-.3448-.7703-.7703-.7703h-.7263c-1.0124,0-1.8341-.8217-1.8341-1.8341v-10.3695c0-1.0124,.8217-1.8341,1.8341-1.8341h6.2945c.4255,0,.7703-.3448,.7703-.7703h0c0-.4255-.3448-.7703-.7703-.7703h-6.2945c-1.8634,0-3.3747,1.5113-3.3747,3.3747v10.3622c0,1.8487,1.4892,3.3526,3.3306,3.382v3.9175c0,.2934,.1614,.5576,.4255,.6896,.11,.0514,.2274,.0807,.3448,.0807,.1614,0,.3301-.0514,.4622-.1541l6.0304-4.5338h9.0822c1.8634,0,3.382-1.5186,3.382-3.382v-2.2135c0-.4255-.3448-.7703-.7703-.7703h0c-.4328,0-.7776,.3448-.7776,.7776Z"/><path class="d" d="M50.6376,36.4376c0,1.0784-.8803,1.9588-1.9588,1.9588h-.763c-.4255,0-.7703,.3448-.7703,.7703v3.3747l-5.2967-3.9836c-.1321-.1027-.2934-.1614-.4622-.1614h-9.7938c-1.0784,0-1.9588-.8803-1.9588-1.9588v-10.0714c0-1.0784,.8803-1.9588,1.9588-1.9588h2.8978c.4255,0,.7703-.3448,.7703-.7703h0c0-.4255-.3448-.7703-.7703-.7703h-2.8978c-1.9294,0-3.4994,1.5699-3.4994,3.4994v10.0714c0,1.9368,1.5699,3.5067,3.4994,3.5067h9.5371l6.3238,4.7612c.1321,.1027,.3008,.1541,.4622,.1541,.1174,0,.2348-.0293,.3448-.0807,.2641-.1321,.4255-.3962,.4255-.6896v-4.145c1.9294-.0073,3.492-1.5773,3.492-3.5067v-2.2816c0-.4255-.3448-.7703-.7703-.7703h0c-.4255,0-.7703,.3448-.7703,.7703v2.2816Z"/><path class="c" d="M48.6788,22.7659h-8.8621c-.4255,0-.7703,.3448-.7703,.7703h0c0,.4255,.3448,.7703,.7703,.7703h8.8621c1.0784,0,1.9588,.8803,1.9588,1.9588v4.237c0,.4255,.3448,.7703,.7703,.7703h0c.4255,0,.7703-.3448,.7703-.7703v-4.237c0-1.9294-1.57-3.4994-3.4994-3.4994Z"/><path class="c" d="M42.6893,29.6656h-8.1986c-.4315,0-.7812-.3498-.7812-.7812s.3498-.7812,.7812-.7812h8.1986c.4315,0,.7812,.3498,.7812,.7812s-.3498,.7812-.7812,.7812Z"/><path class="c" d="M46.4193,34.8024h-11.9287c-.4315,0-.7812-.3498-.7812-.7812s.3498-.7812,.7812-.7812h11.9287c.4315,0,.7812,.3498,.7812,.7812s-.3498,.7812-.7812,.7812Z"/><path class="c" d="M25.1241,39.0558h-4.1523c-.4315,0-.7812-.3498-.7812-.7812s.3498-.7812,.7812-.7812h4.1523c.4315,0,.7812,.3498,.7812,.7812s-.3498,.7812-.7812,.7812Z"/><path class="c" d="M32.8271,44.2902h-11.8553c-.4315,0-.7812-.3498-.7812-.7812s.3498-.7812,.7812-.7812h11.8553c.4315,0,.7812,.3498,.7812,.7812s-.3498,.7812-.7812,.7812Z"/></g><circle class="c" cx="40.0135" cy="23.5924" r="1.6218"/></g></svg>