<?xml version="1.0" encoding="UTF-8"?><svg id="a" xmlns="http://www.w3.org/2000/svg" width="68" height="75" viewBox="0 0 68 75"><defs><style>.b{fill:#fff;}.c{fill:#76469e;}</style></defs><circle class="c" cx="34" cy="37.5" r="33.0025"/><g><path class="b" d="M29.4531,21.075c-.4775,0-.8646-.3871-.8646-.8646v-4.3407c0-.4775,.3871-.8646,.8646-.8646s.8646,.3871,.8646,.8646v4.3407c0,.4775-.3871,.8646-.8646,.8646Z"/><path class="b" d="M34.0573,22.9821c-.2212,0-.4427-.0844-.6112-.2532-.3378-.3376-.3378-.8852,0-1.2228l3.0694-3.0694c.3372-.3375,.8853-.3375,1.2225,0,.3378,.3376,.3378,.8852,0,1.2228l-3.0694,3.0694c-.1686,.1687-.3901,.2532-.6112,.2532h-.0001Z"/><path class="b" d="M40.3049,27.586h-4.3406c-.4775,0-.8646-.3871-.8646-.8646s.3871-.8646,.8646-.8646h4.3406c.4775,0,.8646,.3871,.8646,.8646s-.3871,.8646-.8646,.8646Z"/><path class="b" d="M22.9423,27.586h-4.3406c-.4775,0-.8646-.3871-.8646-.8646s.3871-.8646,.8646-.8646h4.3406c.4775,0,.8646,.3871,.8646,.8646s-.3871,.8646-.8646,.8646Z"/><path class="b" d="M24.8493,22.9821c-.2212,0-.4427-.0844-.6112-.2532l-3.0694-3.0694c-.3378-.3376-.3378-.8852,0-1.2228,.3372-.3375,.8853-.3375,1.2225,0l3.0694,3.0694c.3378,.3376,.3378,.8852,0,1.2228-.1686,.1687-.3901,.2532-.6112,.2532h0Z"/><circle class="b" cx="27.6412" cy="54.4747" r="1.7747"/><path class="b" d="M49.5651,45.8005c-.4757,0-.8625-.3847-.8646-.8608l-.0334-7.2492c-.0998-.6269-.4844-1.1873-1.0292-1.5002-.2614-.15-.5541-.2377-.8459-.2535-1.0136-.0551-1.9338,.7169-2.1036,1.7608l-.0018,.011,.0078,2.47c.0015,.4775-.3844,.8658-.8619,.8673h-.0027c-.4763,0-.8631-.3853-.8646-.8619l-.0081-2.5414c-.0003-.0475,.0036-.0951,.0114-.142l.0132-.081c.3095-1.9049,2.0248-3.3124,3.9057-3.2095,.5586,.0304,1.1164,.1965,1.611,.4804,.9938,.5705,1.6952,1.59,1.8761,2.7271l.0123,.0762c.0069,.044,.0105,.0885,.0108,.133l.0319,7.3053c.0021,.4775-.3832,.8662-.8607,.8683h-.0037Z"/><path class="b" d="M36.5362,58.8294c-3.5355,0-6.9039-1.3289-9.4856-3.7417-.3486-.3261-.3672-.8733-.0412-1.222,.3264-.3484,.8733-.3675,1.2222-.0413,2.2598,2.1124,5.2094,3.2759,8.3046,3.2759,6.7074,0,12.1644-5.457,12.1644-12.1644,0-.4775,.3871-.8646,.8646-.8646s.8646,.3871,.8646,.8646c0,7.6609-6.2326,13.8935-13.8935,13.8935h0Z"/><path class="b" d="M25.4116,51.9684c-.2834,0-.5611-.1391-.7266-.3946-2.9706-4.5856-7.0238-15.2927-7.3069-16.0444-.1827-.4146-.1938-.8912-.0298-1.3143,.1686-.4354,.513-.7878,.9445-.9664,1.1401-.4724,2.4143-.519,3.5881-.13,.3309,.1088,.653,.2524,.9556,.4263,.8742,.5019,1.5771,1.2462,2.033,2.1527l2.631,5.1925c.2158,.426,.0454,.9463-.3807,1.1621-.4246,.2156-.946,.0455-1.1618-.3804l-2.6322-5.1948c-.3044-.6054-.7708-1.0999-1.3502-1.4325-.201-.1154-.4153-.211-.6368-.2838-.781-.2587-1.6273-.2284-2.384,.0855,.0096,.0206,.024,.0273,.0319,.0487,.0421,.1119,4.2372,11.243,7.1498,15.7387,.2596,.4009,.1451,.9361-.2557,1.1957-.1451,.0942-.308,.1391-.4691,.1391h0Z"/><path class="b" d="M38.1346,42.1601c-.4763,0-.8634-.3854-.8646-.8622l-.015-5.2825c0-.0194,.0006-.0389,.0018-.0583l.0021-.0325c.1214-1.9293,1.7219-3.4659,3.6437-3.4966,.6662-.0143,1.321,.16,1.9022,.4937,1.0851,.623,1.8004,1.7637,1.8662,2.9769,0,.0021,.0015,.0301,.0015,.0322,.0006,.0128,.0009,.0255,.0009,.0382l.0069,2.6972c.0003,.0054,.0009,.0104,.0009,.0141l.0039,.0672c.0009,.0158,.0015,.0316,.0015,.0475l.0078,2.4834c.0015,.4775-.3844,.8658-.8619,.8673h-.0027c-.4763,0-.8631-.3853-.8646-.8619l-.0093-2.4864c-.0027-.029-.0048-.0622-.0048-.0852l-.0069-2.7157c-.0403-.6479-.4222-1.2432-1.0004-1.5751-.311-.1787-.6656-.2675-1.0136-.2644-1.0256,.0165-1.8803,.8414-1.9458,1.878l-.0003,.0048,.015,5.2534c.0015,.4775-.3847,.8656-.8622,.867h-.0023Z"/><path class="b" d="M32.4393,42.4696c-.4766,0-.8637-.386-.8646-.8629l-.015-7.5682c0-.0192,.0006-.0383,.0018-.0575l.0021-.0325c.1214-1.9293,1.7222-3.4659,3.644-3.4966,.6602-.0153,1.3204,.1599,1.9016,.4936,1.0854,.6231,1.8007,1.7638,1.8665,2.9769,0,.0023,.0015,.0304,.0015,.0326,.0006,.0126,.0009,.0252,.0009,.0379l.0069,2.6971c.0003,.0056,.0009,.0104,.0009,.0143l.0039,.0673c.0009,.0161,.0015,.0325,.0015,.0487l.0078,4.7691c.0009,.4775-.3856,.8652-.8631,.8659h-.0015c-.4769,0-.8637-.3862-.8646-.8632l-.0093-4.7708c-.0027-.0291-.0048-.0622-.0048-.0852l-.0069-2.7157c-.0403-.6479-.4222-1.2432-1.0007-1.5753-.311-.1785-.6605-.2684-1.0127-.2643-1.0262,.0165-1.8809,.8414-1.9464,1.878l-.0003,.0053,.015,7.5394c.0009,.4775-.3853,.8653-.8628,.8662h-.0017Z"/><path class="b" d="M26.729,42.1456c-.4772,0-.8643-.3865-.8646-.8637l-.015-14.9791c0-.0164,.0003-.0326,.0012-.0488l.0018-.0325c.1226-1.9374,1.7231-3.4739,3.6446-3.5046,.6626-.0152,1.3204,.1599,1.9019,.4934,1.0851,.6233,1.8004,1.7638,1.8662,2.977,.0009,.0155,.0012,.0311,.0012,.0467l.0084,10.1317c.0003,.0054,.0009,.0104,.0009,.0141l.0039,.0672c.0009,.0162,.0015,.0325,.0015,.0488l.0078,4.7693c.0009,.4775-.3856,.8652-.8631,.8659h-.0015c-.4769,0-.8637-.3862-.8646-.8632l-.0093-4.7709c-.0027-.029-.0048-.0622-.0048-.0852l-.0069-2.7386-.0015-7.4132c-.0418-.6267-.4231-1.2192-.9992-1.55-.311-.1784-.6626-.2705-1.013-.2643-1.0259,.0165-1.8809,.8414-1.9464,1.8782l.015,14.9561c.0006,.4775-.3862,.865-.8637,.8655h-.0009v.0002Z"/></g></svg>