<?xml version="1.0" encoding="UTF-8"?><svg id="a" xmlns="http://www.w3.org/2000/svg" width="14.8333" height="20.3333" viewBox="0 0 14.8333 20.3333"><defs><style>.b{fill:#fff;}</style></defs><path class="b" d="M4.7015,16.1142c5.5233,0,8.5438-4.5759,8.5438-8.5438,0-.13-.0026-.2595-.0086-.3882,.5863-.4238,1.096-.9527,1.498-1.5548-.5381,.239-1.1171,.4001-1.7245,.4727,.6199-.3717,1.096-.9599,1.3204-1.6611-.5803,.344-1.2227,.5942-1.9067,.7289-.548-.5837-1.3284-.9487-2.1919-.9487-1.6585,0-3.0033,1.3448-3.0033,3.0026,0,.2357,.0264,.4648,.0779,.6847-2.4956-.1255-4.7086-1.3204-6.1895-3.1373-.2582,.4437-.4067,.9593-.4067,1.5092,0,1.0418,.5302,1.9615,1.3363,2.4995-.4925-.0151-.9553-.1505-1.36-.3756-.0007,.0125-.0007,.0251-.0007,.0383,0,1.4544,1.0352,2.6686,2.4091,2.9439-.2522,.0686-.5176,.1056-.7916,.1056-.1935,0-.3816-.0191-.5645-.0542,.3823,1.193,1.4908,2.0612,2.8053,2.0857-1.0279,.8054-2.3226,1.2854-3.7295,1.2854-.2423,0-.4813-.0139-.7163-.0416,1.329,.8517,2.9069,1.3488,4.603,1.3488"/></svg>