<?xml version="1.0" encoding="UTF-8"?><svg id="a" xmlns="http://www.w3.org/2000/svg" width="68" height="75" viewBox="0 0 68 75"><defs><style>.b{fill:#00b6b6;}.c{fill:#6a4f92;}.d{stroke-linejoin:round;stroke-width:2.3886px;}.d,.e{stroke-linecap:round;}.d,.e,.f{fill:none;stroke:#6a4f92;}.e,.f{stroke-miterlimit:10;stroke-width:2.0374px;}</style></defs><path class="d" d="M14.47,63.6136c5.4438,4.0779,12.2048,6.4933,19.53,6.4933,18.0083,0,32.607-14.5986,32.607-32.607S52.0083,4.893,34,4.893,1.393,19.4917,1.393,37.5c0,4.964,1.1092,9.6689,3.0934,13.8804"/><circle class="c" cx="14.4284" cy="63.6962" r="2.4514"/><g><circle class="f" cx="33.8965" cy="42.5313" r="5.5901"/><g><line class="e" x1="20.0303" y1="29.4638" x2="17.0263" y2="25.1081"/><line class="e" x1="47.968" y1="29.4638" x2="50.9719" y2="25.1081"/></g><line class="e" x1="33.9991" y1="26.5562" x2="33.9991" y2="20.7446"/><path class="b" d="M33.9986,54.2554c-7.9497,0-15.7978-3.9806-21.5309-10.9236-.3348-.4041-.3348-.9905,0-1.3946,5.7331-6.943,13.5812-10.9236,21.5309-10.9236s15.7978,3.9806,21.5332,10.9236c.3856,.4664,.3209,1.1568-.1455,1.5401-.4618,.3856-1.1545,.3209-1.5401-.1455-5.3198-6.4373-12.5538-10.1294-19.8477-10.1294-7.0284,0-13.9968,3.4265-19.252,9.4321,5.2552,6.0056,12.2236,9.4321,19.252,9.4321,4.3939,0,8.5801-1.9164,12.0943-3.789,.5287-.2817,1.196-.0854,1.48,.4502,.284,.5334,.0831,1.196-.4502,1.48-3.7543,2.0019-8.2476,4.0476-13.1241,4.0476Z"/><circle class="b" cx="47.2466" cy="48.8781" r="2.1207"/></g></svg>