<?xml version="1.0" encoding="UTF-8"?><svg id="a" xmlns="http://www.w3.org/2000/svg" width="551.4013" height="539" viewBox="0 0 551.4013 539"><defs><style>.b{fill:#00b6b6;}.c{fill:#00cbec;}.d{fill:#007fb4;}.e{fill:#7c4a99;}</style></defs><path class="e" d="M397.0951,82.0604c-.6881,0-1.3142-.4679-1.4862-1.1668-.0688-.2809-6.9338-28.1906-9.7671-37.2558l-.0987-.3168c-2.7533-8.8333-7.8792-25.2754-59.2655-30.4884-26.8787-2.7271-43.5983-.7383-52.8912,1.4096-10.0424,2.3217-13.789,5.3196-13.8257,5.3496-.6515,.5333-1.6171,.4436-2.1527-.2046-.5378-.6481-.4548-1.6059,.19-2.1475,.6268-.5266,15.9604-12.8338,68.9892-7.4551,53.3991,5.4172,58.9169,23.1163,61.8812,32.6247l.098,.3145c2.8618,9.156,9.5353,36.2883,9.818,37.439,.202,.8213-.3007,1.6512-1.122,1.8531-.1227,.0299-.2461,.0445-.3673,.0445h0Z"/><path class="d" d="M356.1133,32.6818c-.1541,0-.3112-.0232-.4652-.0726-55.3244-17.609-88.2699-2.2518-88.596-2.0947-.7629,.3676-1.677,.0479-2.045-.7136-.368-.7611-.0501-1.6759,.7106-2.0442,1.374-.6653,34.2762-16.0778,90.8594,1.9332,.8063,.2566,1.2521,1.1182,.9956,1.9242-.2079,.6519-.8108,1.0677-1.4593,1.0677h0Z"/><path class="d" d="M366.6733,74.2983c-2.2477,0-4.8925-.4002-7.9772-1.4298-14.175-4.731-25.0386-6.4005-48.437-3.0966-23.4709,3.315-36.9113,4.4939-40.2002-9.7948-2.9029-12.6095-4.0915-23.0034-4.1027-23.1066-.095-.8407,.5101-1.5992,1.3509-1.6938,.8333-.0961,1.5984,.5094,1.6934,1.3505,.0112,.1021,1.1826,10.3326,4.0443,22.7625,2.4302,10.557,10.8854,11.1071,36.7864,7.4484,24.0049-3.3898,35.1955-1.662,49.8342,3.2245,8.2562,2.7548,12.5563,.417,14.3859-1.2222,1.8827-1.6878,2.6119-3.9224,2.3427-5.1682-.8288-3.8312-5.8664-19.6296-5.9173-19.7889-.2573-.8059,.1877-1.6676,.9933-1.9249,.8011-.2562,1.6672,.187,1.9253,.9937,.2094,.6552,5.1334,16.0988,5.9936,20.0728,.4637,2.1456-.3747,5.4812-3.2926,8.0969-1.5872,1.4223-4.5851,3.2765-9.4231,3.2765h.0001Z"/><path class="b" d="M353.6173,60.4184c-.7315,0-1.5027-.0673-2.3105-.2038-3.9553-.6698-35.476-3.44-54.5659-.334-5.9031,.9623-10.8263-.7966-13.8601-4.9471-3.3076-4.5264-3.8416-11.4879-1.2701-16.5528,1.837-3.6187,5.0249-5.694,8.7461-5.694,9.064,0,52.3751,2.1142,58.97,3.6969,8.334,2.0001,13.4435,11.4505,12.1165,17.9418-.8003,3.9149-3.6614,6.0927-7.8261,6.093h.0001Zm-34.3742-5.0332c15.273,0,29.9387,1.3621,32.5753,1.8082,2.6052,.4424,5.8716,.1967,6.6234-3.4818,.941-4.6023-2.7728-12.6555-9.83-14.3489-5.9068-1.4178-48.1759-3.6124-58.255-3.6124-3.2851,0-5.084,2.1845-6.0145,4.0174-2.045,4.0275-1.6097,9.7701,1.012,13.3578,2.3509,3.2174,6.1177,4.5088,10.8943,3.7309,6.7146-1.0921,14.9402-1.4713,22.9944-1.4713h.0001Z"/><path class="c" d="M348.9708,50.2563c-.0845,0-.1698-.0071-.2558-.0217-27.2018-4.584-54.7911-.6425-55.0671-.6018-.8452,.1234-1.6149-.4574-1.7376-1.2936-.1227-.837,.4563-1.6149,1.2933-1.7379,.2805-.04,28.332-4.0526,56.02,.6122,.8347,.1406,1.3965,.9309,1.2566,1.7652-.1264,.748-.7749,1.2776-1.5094,1.2776h0Z"/><path class="e" d="M370.8837,124.1527c-.3224,0-.647-.1014-.9238-.3112-.6747-.5109-.8063-1.4717-.2955-2.146l22.3841-29.5314c-10.5802-.3867-21.0571-4.2818-30.4009-7.7551-7.5217-2.7956-14.626-5.4363-20.3548-5.6697-6.295-.2569-13.0657,.6949-20.9046,1.7966-9.2548,1.3007-19.7437,2.775-32.6927,2.775-9.5472,0-16.4907-2.2529-20.6375-6.6967-4.1281-4.4239-3.8371-9.3681-3.8229-9.5764,.0583-.8433,.7839-1.4803,1.6336-1.4223,.8422,.058,1.478,.7861,1.4234,1.6272-.0105,.1919-.1668,3.9232,3.0577,7.3358,3.5537,3.7616,9.726,5.6686,18.3457,5.6686,12.7344,0,23.1111-1.4582,32.2664-2.7451,7.9862-1.122,14.8878-2.0902,21.4551-1.8243,6.2157,.2536,13.5422,2.9766,21.298,5.8597,9.999,3.7167,21.3436,7.9338,32.3606,7.5729,.5834-.0172,1.1392,.3029,1.4099,.8276,.2715,.5243,.2169,1.1582-.1399,1.6287l-24.2398,31.9792c-.3014,.3976-.7592,.6066-1.2222,.6066v.0003Z"/><path class="e" d="M198.8295,117.4997c-.4765,0-.9454-.221-1.2446-.6365-.4944-.6866-.3388-1.6441,.3478-2.1385,10.1598-7.3175,35.197-33.5817,46.4735-47.0412,6.9717-8.3213,10.3458-14.1962,10.1224-17.6247-.3613-5.5395-4.737-22.6429-4.7811-22.8149-.2102-.8194,.2835-1.6542,1.1033-1.8647,.8213-.2091,1.6538,.2842,1.8647,1.1033,.1833,.7139,4.4909,17.5551,4.8708,23.377,.4144,6.3687-.0082,6.8728-10.8315,19.7912-9.9279,11.8499-35.9696,39.5928-47.0315,47.5603-.2708,.1948-.5842,.2887-.8938,.2887Z"/><path class="e" d="M200.0113,229.4425c-.2723,0-.5475-.0726-.7973-.2251-21.0048-12.832-35.0444-32.5024-40.6004-56.8843-4.9658-21.7913-2.9014-46.8879,5.8133-70.6673,8.7708-23.9328,25.272-37.7244,37.5711-45.0804,13.32-7.9667,24.4275-10.2503,24.8935-10.3434,.8318-.1683,1.6358,.3714,1.8019,1.2005,.1668,.8291-.371,1.6366-1.1998,1.8034-.4383,.0883-44.0127,9.3333-60.19,53.4739-8.5135,23.2308-10.539,47.7114-5.7034,68.9327,5.3683,23.5573,18.9269,42.559,39.2114,54.9508,.7218,.4409,.9492,1.3838,.5086,2.1056-.2887,.4727-.7929,.7338-1.309,.7338v-.0002Z"/><path class="c" d="M206.3332,73.1295c-.4151,0-.8288-.1675-1.1302-.4974-.5715-.6238-.5288-1.5928,.095-2.1643,7.0161-6.424,21.1806-10.4388,21.7797-10.6064,.8131-.2289,1.6598,.2472,1.8879,1.0621,.2281,.8146-.2476,1.6598-1.0621,1.8879-.1399,.0393-14.062,3.9879-20.5365,9.916-.294,.2693-.6642,.402-1.0337,.402h0Z"/><path class="d" d="M204.4528,219.4371c-.4772,0-.9477-.2222-1.2469-.6399-14.4293-20.1431-23.7925-40.1078-27.8301-59.3399-3.2425-15.4477-3.0757-30.4555,.4944-44.6069,6.0901-24.1388,19.7968-37.2161,20.3772-37.7607,.6163-.5786,1.585-.5479,2.1639,.0677,.5797,.6163,.5498,1.5853-.0658,2.165-.1369,.1287-13.7097,13.1173-19.547,36.4446-3.4235,13.6839-3.5581,28.2123-.3987,43.1813,3.9628,18.7758,13.1465,38.3116,27.2968,58.065,.4929,.6878,.3343,1.6444-.353,2.1374-.2708,.1934-.5819,.2865-.8908,.2865h0Z"/><path class="e" d="M341.3968,201.6606c-.3912,0-.7824-.1488-1.0808-.4465-.5999-.5969-.6014-1.567-.0045-2.1665,.1795-.1825,11.8166-12.1779,10.4396-29.0056-.4151-5.0702-2.6045-8.4499-6.3309-9.7739-7.8493-2.7888-21.2307,3.5028-32.5409,15.2999-6.2509,6.5201-23.3116,21.6832-46.647,21.6843h-.0097c-15.6597-.003-30.261-6.9581-43.4008-20.6727-.5849-.6111-.5647-1.5809,.0464-2.1662,.6118-.5842,1.5812-.564,2.1662,.0464,12.5391,13.0882,26.397,19.7261,41.1883,19.7287h.0097c22.1582,0,38.4559-14.5041,44.436-20.7411,12.3095-12.8395,26.6857-19.2949,35.7774-16.0662,4.8768,1.7327,7.8456,6.1402,8.3587,12.4109,1.499,18.3169-10.7978,30.8912-11.3222,31.4174-.2992,.3007-.6926,.451-1.0853,.451h-.0002Z"/><path class="d" d="M184.1818,143.4382c-.2139,0-.4316-.0453-.6388-.1402-.7682-.3534-1.1055-1.2618-.7525-2.0304,.294-.641,7.3407-15.7237,19.4602-17.9033,6.4154-1.153,12.9281,1.5248,19.3682,7.9581,.5991,.598,.5991,1.5678,.0015,2.1665-.5984,.598-1.5693,.5991-2.1662,.0011-5.6869-5.6805-11.2915-8.0696-16.6523-7.1122-10.542,1.8887-17.1617,16.0255-17.2275,16.168-.2581,.5614-.8131,.8923-1.3927,.8923h0Z"/><path class="e" d="M229.9836,173.6742c-1.5049,0-2.8356-.5341-3.8095-1.5633-1.5147-1.6014-2.766-5.0724-.1272-12.5141,4.9883-14.0665-2.6224-20.5223-2.6995-20.5859-.6545-.5367-.7495-1.5019-.2124-2.1557,.5378-.6541,1.5019-.7499,2.1557-.2124,.3845,.3153,9.343,7.9058,3.6434,23.978-2.3808,6.715-1.0105,8.8808-.5341,9.3845,.7951,.8407,2.0824,.6242,2.7795,.4189,2.1475-.6294,4.6128-2.8038,5.1693-5.7419,.1571-.8303,.9537-1.3796,1.7899-1.2196,.8318,.1574,1.3778,.9589,1.22,1.7903-.822,4.3402-4.3697,7.2472-7.3175,8.1111-.7091,.2079-1.4002,.31-2.0577,.31h0Z"/><path class="d" d="M265.7386,183.9178c-2.6164,0-5.2538-.2259-7.9069-.7136-12.8653-2.3644-19.8103-9.7077-20.099-10.0192-.5759-.6201-.5408-1.5891,.0793-2.165,.6186-.5752,1.5872-.54,2.1632,.0774h0c.0651,.0699,6.66,6.9914,18.5918,9.1265,15.8587,2.8386,33.9905-4.0327,52.4394-19.8679,.641-.5513,1.6089-.4776,2.1602,.1646,.5513,.6421,.4772,1.6093-.1646,2.1602-11.7493,10.0846-28.899,21.237-47.2634,21.237h0Z"/><path class="e" d="M211.8945,173.6746c-.1511,0-.3037-.0224-.4555-.0696-.8078-.2509-1.2589-1.1096-1.0083-1.9174l1.5468-4.9763-8.3213-12.1681c-.4772-.6982-.2984-1.6515,.4002-2.1291,.7009-.4776,1.653-.2981,2.1295,.3998l8.7394,12.78c.264,.3863,.3366,.8725,.1982,1.3194l-1.7667,5.6839c-.2042,.6564-.8093,1.0775-1.4623,1.0775h0Z"/><path class="b" d="M202.1116,181.8616c-6.001,.0004-11.0207-3.5365-14.1495-10.1452-3.8199-8.0681-3.8641-18.6352-.089-21.3331,2.2866-1.6347,4.0294-1.3299,5.0885-.7843,3.8992,2.0057,3.9441,10.0686,3.9441,10.4108,0,.846-.6859,1.5319-1.5319,1.5319s-1.5319-.6859-1.5319-1.5319c0-3.0806-.9372-6.9947-2.2813-7.6862-.4391-.224-1.0778-.0389-1.9059,.552-1.7996,1.2865-2.5985,9.7682,1.0763,17.53,2.2873,4.8331,6.7685,10.1209,15.0838,7.874,.8235-.2214,1.6583,.2637,1.8782,1.0793,.2207,.8168-.2625,1.6579-1.0793,1.8782-1.5491,.4185-3.0548,.6242-4.5021,.6246h0Z"/><path class="e" d="M261.5835,243.365c-.475,0-.9425-.2195-1.2416-.6332l-41.3645-57.0928-8.4522,3.6771c-.7757,.3366-1.6792-.018-2.0158-.7936-.3373-.7757,.018-1.6785,.7936-2.0158l9.5816-4.1681c.659-.2869,1.4294-.0767,1.8513,.506l42.0863,58.0898c.4967,.6852,.3441,1.6429-.3411,2.1392-.2715,.1967-.5864,.2913-.8976,.2913h0Z"/><path class="e" d="M251.2786,248.1685c-.4211,0-.8407-.1728-1.1437-.5116-5.2695-5.9023-16.0419-24.8023-16.4982-25.6041-.4181-.7353-.1616-1.6706,.5737-2.0887,.7375-.4185,1.6717-.1608,2.0891,.5741,.11,.1934,11.0671,19.4176,16.1212,25.0783,.5632,.6313,.5086,1.5996-.1227,2.1628-.2925,.261-.6567,.3893-1.0195,.3893h.0001Z"/><path class="b" d="M228.2393,229.3419c-.5625,0-1.1033-.3104-1.3718-.8478l-10.634-21.2879c-.3785-.7566-.0711-1.6766,.6859-2.0547,.7577-.3789,1.6762-.0711,2.0547,.6859l10.634,21.2879c.3785,.7566,.0711,1.6766-.6859,2.0547-.2199,.11-.4533,.1619-.6829,.1619Z"/><path class="e" d="M255.3933,298.2761c-.7323,0-1.3793-.5262-1.5079-1.2716l-6.8747-39.8154c-.1444-.8336,.4151-1.6261,1.2491-1.7701,.8333-.1474,1.6254,.4159,1.7697,1.2488l6.8747,39.8154c.1444,.8336-.4151,1.6261-1.2491,1.7701-.0875,.0153-.1758,.0228-.2618,.0228h0Z"/><path class="d" d="M264.9457,281.5292c-.561,0-1.101-.3089-1.3696-.8437l-8.5247-16.9406c-.3807-.7558-.0763-1.6766,.6792-2.0569,.7577-.3811,1.6777-.0752,2.0569,.6799l8.5247,16.9406c.3807,.7558,.0763,1.6766-.6792,2.0569-.2214,.1111-.4563,.1638-.6874,.1638h0Z"/><path class="d" d="M220.3317,289.5913c-.5363,0-1.0569-.2824-1.3381-.7835-.4136-.7379-.1503-1.6714,.5879-2.085,8.5913-4.8144,8.5876-12.578,8.5838-18.8162v-.359c0-6.3339-.6425-24.8468-.6492-25.033-.0292-.8456,.632-1.5551,1.478-1.5846,.846-.0138,1.5543,.6324,1.5842,1.4776,.006,.187,.6507,18.7534,.6507,25.14v.3572c.0037,6.6675,.0082,15.7985-10.1501,21.4906-.2371,.1328-.4937,.196-.7472,.196h0Z"/><path class="d" d="M74.2982,264.9985c-.6014,0-1.1721-.3564-1.4159-.9466-.3239-.7816,.0479-1.6777,.8295-2.0012l10.8854-4.5043c.7816-.3246,1.6777,.0482,2.0008,.8299,.3239,.7816-.0479,1.6777-.8295,2.0012l-10.8854,4.5043c-.1915,.0793-.3897,.1167-.5849,.1167Z"/><path class="e" d="M92.5504,257.0478c-.5887,0-1.1496-.3411-1.4025-.914-.3411-.7738,.009-1.6781,.7831-2.0195l12.7179-5.611c.7772-.3415,1.68,.0093,2.0203,.7831,.3411,.7738-.009,1.6781-.7831,2.0195l-12.7179,5.611c-.2012,.089-.4114,.1309-.6178,.1309Z"/><path class="e" d="M113.7834,265.2902c-.5789,0-1.1324-.3299-1.3912-.8901-.3553-.7678-.0202-1.6781,.748-2.033l46.1137-21.2987c.7682-.3527,1.6777-.0198,2.033,.7487,.3553,.7678,.0202,1.6781-.748,2.033l-46.1137,21.2987c-.2079,.0957-.4263,.1414-.6418,.1414Z"/><path class="c" d="M95.2118,287.5707c-.6081,0-1.1826-.3639-1.4227-.9623-.3149-.785,.0666-1.677,.8519-1.9919,.9095-.3646,91.0988-36.5392,103.9416-42.5021,8.4043-3.9026,14.2124-6.2673,18.2171-3.6711,3.0892,2.0031,4.4138,6.5254,4.2964,14.6634-.012,.8385-.6956,1.5098-1.5311,1.5098h-.0232c-.846-.0123-1.5214-.708-1.5094-1.5539,.098-6.7786-.8505-10.7197-2.8999-12.0485-2.6703-1.7338-8.0116,.5135-15.2603,3.879-12.9154,5.9973-103.1809,42.2022-104.0912,42.5672-.187,.0748-.38,.1103-.5692,.1103h0Z"/><path class="e" d="M83.1588,302.0071c-.4892,0-.9701-.2341-1.2671-.6691-.4765-.6986-.2969-1.6512,.4017-2.128,.8879-.6059,22.0542-14.8422,50.0504-15.4256,27.2946-.5685,60.7584-12.0358,61.0935-12.1513,.7951-.2771,1.6702,.1477,1.9485,.9469,.276,.7996-.1481,1.6721-.9477,1.9485-.3388,.1174-34.2478,11.7403-62.03,12.3189-27.0544,.564-48.1774,14.7502-48.3876,14.8934-.264,.1799-.5647,.2663-.8617,.2663h0Z"/><path class="e" d="M198.8497,303.2966c-.0277,0-.0546-.0007-.0823-.0022-18.3225-.9641-27.2377-1.285-27.326-1.2884-.7345-.0258-1.3471-.5703-1.4593-1.2966s.3074-1.4301,.9993-1.677c.1361-.0486,13.789-4.9318,30.5281-12.3731,15.5326-6.9046,17.2417-19.3289,17.3068-19.8544,.1032-.8381,.8662-1.4361,1.7039-1.3348,.8385,.1014,1.4369,.8591,1.3381,1.6975-.0703,.5946-1.9126,14.6488-19.1042,22.2913-9.4949,4.2205-18.0054,7.6245-23.6526,9.8015,4.529,.2027,11.1172,.5161,19.8275,.9746,.8445,.0445,1.4937,.7652,1.4488,1.61-.0426,.8175-.7196,1.4515-1.5281,1.4515h0Z"/><path class="e" d="M144.9255,295.3339c-.7831,0-1.4503-.5965-1.5236-1.3909-.0778-.8426,.5415-1.5887,1.3845-1.6665l25.6939-2.3722c.843-.0726,1.588,.5423,1.6658,1.3845,.0778,.8426-.5415,1.5887-1.3845,1.6665l-25.6939,2.3722c-.0479,.0041-.095,.0064-.1421,.0064h0Z"/><path class="c" d="M142.7751,309.1529c-.5266,0-1.0389-.2715-1.3239-.7588-9.2323-15.7813-33.1931-8.5322-33.434-8.4563-.8071,.2495-1.6665-.199-1.9178-1.0068-.2521-.8078,.199-1.6669,1.0068-1.9186,.2633-.0812,26.5398-8.0243,36.9899,9.8348,.4271,.73,.181,1.6684-.549,2.0955-.2431,.1425-.5094,.2102-.7719,.2102h-.0001Z"/><path class="e" d="M126.7474,332.1372c-.4585-.5202-1.7892-2.9833-4.2418-14.5968-2.2978-10.8876-14.2116-9.2637-14.7158-9.1897-.8355,.1234-1.6149-.454-1.7398-1.2895-.1242-.8355,.4495-1.6141,1.285-1.7402,5.2665-.7977,15.849,.6021,18.1684,11.5866,2.3778,11.2605,3.5836,13.2419,3.6337,13.3208-.0568-.0898-.092-.1174-.092-.1174l-2.2978,2.0263h0Z"/><path class="d" d="M74.2982,378.8976c-.1533,0-.3089-.0232-.4623-.0718-.8071-.2547-1.2544-1.1156-.9993-1.9223l16.1265-51.01c.1204-.3811,.3852-.7001,.7383-.8886l13.9027-7.4409c.7435-.4005,1.674-.1182,2.0734,.6276,.3987,.7461,.1182,1.6744-.6283,2.0734l-13.3529,7.1466-15.938,50.4157c-.2064,.653-.8101,1.0704-1.4601,1.0704h0Z"/><path class="d" d="M336.7025,228.1922c-.846,0-1.5319-.6859-1.5319-1.5319,0-5.774,4.2298-10.8824,9.1276-16.7974,6.8096-8.2248,15.285-18.4602,15.285-34.431,0-30.2375-9.8315-46.5816-14.5557-54.4365-1.2828-2.1321-2.2095-3.6726-2.6015-4.891-1.303-4.0492,.1436-6.9386,1.306-9.2604,.5161-1.0315,.9619-1.9219,1.0711-2.7178,.267-2.3131-7.7199-13.3903-11.4718-13.8762-1.6164-.2053-6.6555,2.8681-12.8855,10.3532-.5415,.6504-1.5072,.7383-2.1572,.1975-.65-.5412-.739-1.5068-.1975-2.1572,1.6867-2.0281,10.3752-12.1102,15.6335-11.4318,3.6367,.4709,7.8493,5.5149,9.4919,7.6619,.8415,1.101,5.0227,6.7412,4.6218,9.668-.1773,1.2981-.7816,2.5057-1.3666,3.6737-1.0539,2.1044-2.0487,4.0922-1.1287,6.9506,.2835,.8811,1.1773,2.3681,2.3098,4.2504,4.8671,8.0913,14.994,24.9276,14.994,56.0155,0,17.0745-8.8658,27.7815-15.9888,36.3848-4.52,5.4591-8.4238,10.1733-8.4238,14.8437,0,.846-.6859,1.5319-1.5319,1.5319h.0002Z"/><path class="b" d="M337.2769,133.8611c-.1631,0-.3284-.0262-.4914-.0815-.8011-.2715-1.2312-1.141-.9597-1.9421,.1631-.4858,3.9067-11.9823-4.826-15.6736-4.6091-1.9477-7.8112-.0262-10.9085,1.8333-2.9545,1.7735-6.3055,3.7855-9.7252,.3643-1.7114-1.7114-2.5446-3.6756-2.4758-5.8387,.1391-4.3798,4.0593-7.8789,4.2261-8.0258,.635-.5595,1.6029-.4967,2.1617,.138,.5587,.6343,.4974,1.6007-.1354,2.1598-.0456,.0408-3.1004,2.7967-3.1901,5.8361-.0381,1.297,.4787,2.4631,1.5797,3.5645,1.5932,1.5932,2.7675,1.1048,5.9823-.825,3.2216-1.9339,7.6339-4.584,13.6776-2.0285,9.0887,3.8416,8.2495,14.4214,6.5359,19.4785-.2162,.6384-.8123,1.0408-1.4511,1.0408h-.0002Z"/><path class="e" d="M313.3617,304.6669c-.7846,0-1.4533-.5995-1.5244-1.3961-3.3225-37.3324,18.1797-88.4285,18.3973-88.9405,.3314-.7779,1.2304-1.1425,2.0091-.8101,.7786,.331,1.1414,1.2304,.8108,2.0087-.2147,.5049-21.4199,50.9068-18.1655,87.4703,.0748,.8426-.5475,1.5865-1.3897,1.6616-.0464,.0041-.0927,.006-.1376,.006h0Z"/><path class="e" d="M346.2497,303.9342c-.5767,0-1.1295-.3276-1.3897-.8856-14.1234-30.3272-12.4068-60.386-12.3881-60.6863,.0539-.8437,.7809-1.4896,1.6254-1.4316,.8437,.0531,1.4855,.7805,1.4324,1.6246-.0187,.2928-1.674,29.6069,12.1083,59.2,.3568,.7667,.0247,1.6781-.742,2.0353-.2094,.0976-.4293,.1436-.6463,.1436h0Z"/><path class="d" d="M325.292,311.1253c-.7973,0-1.4698-.6167-1.5266-1.4238-1.5932-22.5516,.6343-42.1356,.6575-42.3308,.0972-.84,.8602-1.4444,1.6979-1.3445,.8407,.0976,1.4429,.8579,1.3449,1.6983-.0224,.1922-2.2163,19.5073-.644,41.7609,.0598,.8441-.5759,1.5764-1.4204,1.6362-.0367,.0026-.0733,.0037-.1092,.0037h0Z"/><path class="b" d="M348.451,342.3441c-.1586,0-.3179-.0247-.4727-.0748-66.2539-21.4958-131.278-14.5823-143.6369-12.9771-18.6965,2.4294-27.9917-4.5765-28.3784-4.8761-.6687-.518-.7914-1.4799-.2738-2.1489,.5184-.6683,1.478-.7902,2.1445-.2775h0c.086,.0654,8.785,6.5149,26.1127,4.2642,12.4284-1.6134,77.6112-8.5453,144.2301,12.86,1.9096-1.3351,7.7566-4.9774,17.2454-7.009,10.5301-2.2555,27.7635-2.8513,50.0571,7.1189,.7727,.3452,1.1182,1.2514,.7734,2.0237-.3456,.7727-1.2514,1.1179-2.024,.773-41.0993-18.3779-64.5889-.1975-64.8207-.0116-.2753,.2199-.6141,.3351-.9567,.3351h0Z"/><path class="e" d="M414.8791,333.5404c-.4106,0-.8198-.1642-1.122-.4888l-16.4593-17.7047c-.5759-.6197-.5408-1.5891,.0793-2.165,.6193-.5748,1.588-.5412,2.1647,.0789l16.4593,17.7047c.5759,.6197,.5408,1.5891-.0793,2.165-.2947,.2741-.6687,.4099-1.0427,.4099Z"/><path class="e" d="M317.6806,321.5791c-.0711,0-.1429-.0052-.2147-.0153-.8377-.1171-1.4219-.8916-1.3045-1.7293,.0643-.4974,1.395-12.3888-16.7443-15.1855-19.5148-3.0088-70.2234,4.2227-70.7328,4.296-.8362,.1215-1.6141-.4608-1.7346-1.2977-.1204-.8377,.4608-1.6141,1.2977-1.7346,2.1003-.3026,51.672-7.3713,71.6363-4.2915,21.2127,3.2705,19.333,18.4848,19.3114,18.6382-.107,.7659-.7629,1.3194-1.5147,1.3198h.0002Z"/><path class="c" d="M324.9375,321.5335c-.0935,0-.1892-.0086-.2842-.0269-.822-.1571-1.3681-.9324-1.2237-1.7566,.0748-.4278,2.0764-10.5031,23.1724-12.6487,20.2703-2.0626,36.6099,3.1314,37.2958,3.3536,.8048,.2607,1.2454,1.1242,.9851,1.9287-.2595,.8056-1.1265,1.2454-1.9283,.9862-.1631-.0527-16.4429-5.2153-36.0429-3.2204-18.5454,1.886-20.4513,10.0693-20.4685,10.1516-.1503,.724-.7914,1.2327-1.5057,1.2327v-.0002Z"/><path class="b" d="M396.496,307.8981c-.8123,0-1.4892-.6388-1.5289-1.4589-.0396-.8452,.6126-1.5629,1.4578-1.6029l20.6592-.9832c.831-.0524,1.5618,.6118,1.6029,1.4571,.0396,.8452-.6126,1.5629-1.4578,1.6029l-20.6592,.9832c-.0247,.0015-.0494,.0019-.0741,.0019h0Z"/><path class="d" d="M462.5307,319.9777h-.0209l-35.2613-.4705c-.846-.0116-1.5229-.7065-1.5117-1.5524,.0112-.8389,.6949-1.5113,1.5311-1.5113h.0209l35.2613,.4705c.846,.0116,1.5229,.7065,1.5117,1.5524-.0112,.8389-.6949,1.5113-1.5311,1.5113Z"/><path class="c" d="M474.1895,362.6032c-.5961,0-1.1624-.3501-1.4107-.9331-.3306-.7786,.0322-1.6781,.8108-2.0091l74.1436-31.5158c.7786-.331,1.677,.0325,2.0091,.8108,.3306,.7786-.0322,1.6781-.8108,2.0091l-74.1436,31.5158c-.1952,.083-.3987,.1223-.5984,.1223Z"/><path class="e" d="M415.9495,190.6111c-.5961,0-1.1631-.3501-1.4107-.9335-.3306-.7786,.0322-1.6781,.8116-2.0087l35.2284-14.9585c.7772-.3302,1.6777,.0322,2.0083,.8112,.3306,.7786-.0322,1.6781-.8116,2.0087l-35.2284,14.9585c-.1952,.083-.3979,.1223-.5976,.1223Z"/><path class="b" d="M444.8978,447.2177c-.2857,0-.5752-.0797-.8333-.2472-.7091-.4608-.911-1.4096-.4495-2.119,.1578-.2442,15.7083-24.2892,16.0666-33.8779l-5.5059-15.5759c-.282-.7977,.1361-1.6729,.9335-1.9548,.8003-.2809,1.674,.1365,1.9552,.9339l5.5994,15.8404c.0591,.1679,.089,.3452,.0875,.5236-.0875,10.2948-15.8946,34.7441-16.5678,35.7796-.2932,.4518-.7846,.6975-1.2858,.6975v-.0002Z"/><path class="e" d="M9.4102,436.795c-.3568,0-.7151-.1238-1.0053-.3766-.638-.5557-.7046-1.5233-.1488-2.1613,20.8866-23.9859,22.0071-30.135,25.7193-50.5107,1.2289-6.7464,2.7586-15.1429,5.3899-26.1969,10.5981-44.5276,30.0845-50.1857,30.9088-50.4049,.8175-.2154,1.6575,.2696,1.8737,1.0872,.2169,.8149-.2655,1.6508-1.0786,1.8718-.2558,.0733-18.6299,5.7494-28.7239,48.155-2.6119,10.9747-4.1333,19.3263-5.3563,26.0368-3.7272,20.4606-4.983,27.3533-26.4232,51.9738-.3022,.3478-.7278,.5258-1.1556,.5258Z"/><path class="c" d="M28.5929,427.9464c-.3463,0-.6941-.1163-.9806-.3553-.6492-.5419-.7368-1.5079-.1952-2.1575,15.659-18.7788,20.7445-39.1336,20.7939-39.337,.2005-.8224,1.03-1.3254,1.8505-1.1261,.8213,.1997,1.3262,1.0274,1.1265,1.8494-.2079,.8576-5.2822,21.2254-21.4177,40.5757-.3029,.3635-.739,.5509-1.1773,.5509h0Z"/><path class="e" d="M67.7624,418.0484c-.285,.0004-.573-.0793-.8295-.2453-2.2387-1.4458-3.5776-3.3248-3.98-5.5848-.7442-4.1778,2.1138-8.0378,2.2357-8.2001,.5086-.6754,1.4683-.8119,2.1452-.3037,.6747,.5075,.8116,1.4657,.3059,2.1415-.0247,.034-2.1849,2.9859-1.668,5.8387,.2543,1.4025,1.1122,2.5588,2.6232,3.5353,.7106,.4589,.9148,1.4073,.4555,2.1179-.2932,.4537-.7854,.7005-1.288,.7005Z"/><path class="b" d="M444.0159,79.7454c-.5311,0-1.0472-.2768-1.3307-.7704-.4204-.7338-.1668-1.6699,.567-2.0906l46.4645-26.6419c.7345-.4219,1.6702-.1664,2.0914,.567,.4204,.7338,.1668,1.6699-.567,2.0906l-46.4645,26.6419c-.2401,.138-.5026,.2035-.7607,.2035h0Z"/><path class="d" d="M118.4433,190.8893c-.2872,0-.5782-.0804-.8362-.2495l-52.601-34.3731c-.7083-.463-.9073-1.4122-.4443-2.1205,.463-.7076,1.4144-.9069,2.1198-.4443l52.601,34.3731c.7083,.463,.9073,1.4122,.4443,2.1205-.2932,.4495-.7839,.6938-1.2835,.6938h-.0001Z"/><path class="e" d="M8.8245,337.817c-.2334,0-.4697-.0535-.6919-.1664l-44.5826-22.6451c-.7547-.3833-1.0554-1.3052-.6724-2.0596,.383-.754,1.3075-1.0554,2.0592-.6721l44.5826,22.6451c.7547,.3833,1.0554,1.3052,.6724,2.0596-.27,.5318-.8086,.8385-1.3673,.8385Z"/><path class="d" d="M86.5262,506.6017c-.54,0-1.0636-.2861-1.3426-.7921-.4091-.7409-.1399-1.6729,.6014-2.0813,20.568-11.348,29.8437-26.5103,34.0024-37.2322,4.5171-11.6446,4.1595-20.7355,4.155-20.826-.0381-.8445,.6141-1.5614,1.4586-1.6011,.8355-.0475,1.561,.6104,1.6022,1.4559,.0187,.3908,.4054,9.714-4.3031,21.9342-4.3308,11.2406-13.9947,27.1225-35.4356,38.9515-.2341,.1294-.4884,.1911-.7383,.1911Z"/><path class="e" d="M161.3759,506.1589c-.5789,0-1.1332-.3302-1.392-.8912l-36.2075-78.5593c-.3538-.7682-.018-1.6781,.7502-2.0323,.7652-.3534,1.6777-.0187,2.0323,.7502l36.2075,78.5593c.3538,.7682,.018,1.6781-.7502,2.0323-.2072,.0957-.4256,.141-.6403,.141Z"/><path class="e" d="M473.4065,592.5151c-.7727,0-1.4376-.5834-1.5206-1.3696l-31.657-138.5741c-.0898-.8415,.5191-1.5958,1.3606-1.6856,.8407-.0879,1.5962,.5191,1.6852,1.361l31.657,138.5741c.0898,.8415-.5191,1.5962-1.3606,1.6856-.0554,.006-.11,.0086-.1646,.0086h0Z"/><path class="e" d="M443.8394,379.1575c-.2162,0-.4346-.0456-.6433-.1425-.1361-.0632-13.8017-6.3567-29.3253-10.2499-14.0276-3.5178-32.4825-5.7681-40.7432,3.4931-.5625,.6305-1.5326,.6863-2.1624,.123-.6313-.5629-.6866-1.5315-.1234-2.1628,17.5439-19.6689,71.3596,4.9584,73.6424,6.0171,.7674,.3557,1.1018,1.2663,.7457,2.0338-.2588,.5591-.8123,.8882-1.3905,.8882h0Z"/><path class="e" d="M264.5253,387.8584c-11.1988,0-33.4198-2.5315-69.7125-16.8056-52.8815-20.7987-66.2052-11.1988-66.3249-11.0963-.6403,.5524-1.6089,.4787-2.1602-.1631-.5513-.6418-.4787-1.6089,.1631-2.1602,.5445-.4694,14.0029-11.2369,69.444,10.5682,28.1772,11.0825,47.5603,14.8227,58.8586,16.009,12.2302,1.2843,17.8745-.0658,17.9313-.0797,.8168-.2064,1.6508,.2943,1.8565,1.1126,.2057,.8187-.2872,1.6493-1.1055,1.8572-.3194,.0815-3.1632,.7577-8.9503,.7577l-.0002,.0002Z"/><path class="b" d="M63.6702,473.4849c-.4742,0-.941-.2188-1.2409-.6317-.4974-.6844-.3456-1.6422,.3388-2.1396,22.0535-16.0217,43.1742-60.1982,43.3851-60.6425,.362-.7656,1.2746-1.0902,2.0405-.7278,.7644,.3628,1.0898,1.2761,.727,2.0405-.0531,.1126-5.4378,11.4228-13.5257,24.5921-10.9056,17.7574-21.277,30.279-30.8258,37.2165-.2723,.1975-.5872,.2925-.8991,.2925h.0001Z"/><path class="c" d="M266.6302,361.0414c-15.4637,0-34.2403-1.9739-56.5511-7.469-27.4494-6.7602-47.5611-15.8018-47.7615-15.8923-.7704-.3489-1.1122-1.2562-.7637-2.027,.3501-.7719,1.2566-1.1126,2.0278-.7637,.7906,.3572,79.6794,35.547,140.5306,18.3794,.8153-.2285,1.6605,.2442,1.8901,1.0584s-.2438,1.6605-1.0584,1.8901c-9.2114,2.5989-21.8964,4.8241-38.3138,4.8241h0Z"/><path class="e" d="M409.1653,422.8481c-.2977,0-.5984-.0864-.8624-.2667-.2192-.1496-22.23-14.9432-52.2105-15.3407-30.181-.3961-67.5366,12.9083-67.9106,13.0425-.7951,.2865-1.674-.1264-1.9605-.9226-.2865-.7959,.1264-1.6736,.9223-1.9601,.3732-.1343,37.1125-13.2325,67.6114-13.2325,.4615,0,.92,.003,1.3778,.009,30.9432,.4106,52.9765,15.2438,53.8987,15.8751,.6986,.4776,.8766,1.4301,.3994,2.1284-.2962,.4342-.7772,.6676-1.2656,.6676h0Z"/><path class="d" d="M303.5841,374.8162c-9.4275,0-15.7076-1.263-16.2342-1.3725-.828-.1724-1.3591-.9832-1.187-1.8112,.1713-.8288,.9806-1.3613,1.8116-1.1882,.2588,.0535,26.281,5.2564,52.8254-5.9775,.7794-.3314,1.677,.034,2.0076,.8138,.3299,.779-.0344,1.6777-.8138,2.0076-14.2797,6.0437-28.1929,7.528-38.4095,7.528h-.0001Z"/><path class="e" d="M202.6943,436.9494c-3.0548,0-6.2598-.08-9.619-.2405-14.1196-.6747-25.83-2.5996-25.9467-2.6187-.8347-.1388-1.3987-.9275-1.2603-1.7622,.1384-.834,.929-1.3976,1.7615-1.2603,.4585,.0763,46.0711,7.4918,66.3399-2.1332,.7652-.3613,1.677-.0381,2.0412,.7267,.3628,.7641,.0374,1.6781-.7263,2.0409-7.3482,3.4893-18.2866,5.2475-32.5903,5.2475v-.0002Z"/><path class="b" d="M206.3317,407.9682c-.3493,0-.7001-.1186-.9873-.3613-28.0515-23.6769-43.0328-22.9671-60.3687-22.1458-15.6283,.7416-17.2559-1.9997-17.6576-9.4373-.0449-.8344-.092-1.6975-.1833-2.622-.083-.8419,.5318-1.5917,1.3733-1.6751,.8557-.0845,1.5925,.5322,1.6755,1.3737,.098,.9926,.1488,1.9309,.1937,2.7586,.291,5.3918,.3875,7.2049,14.4532,6.5422,17.238-.8179,33.5185-1.5883,62.49,22.8646,.6463,.5457,.7285,1.512,.1825,2.1587-.3029,.359-.736,.5438-1.1713,.5438h0Z"/><path class="d" d="M511.2407,506.1586c-.754,0-1.4114-.5572-1.5154-1.3258-6.1364-45.1574-43.2781-89.8934-43.6521-90.3399-.5438-.6481-.4593-1.6145,.1892-2.1579,.6492-.5445,1.6141-.4585,2.1579,.1892,.38,.4529,38.0834,45.8501,44.3403,91.8961,.1144,.8385-.4727,1.6104-1.3112,1.7245-.0703,.0093-.1399,.0138-.2087,.0138h0Z"/><path class="c" d="M278.2441,457.2586c-11.2661,0-19.4243-.2465-20.2935-.2738-.8452-.0266-1.5094-.7338-1.4825-1.5794s.7293-1.5091,1.579-1.4829c.5692,.0176,57.2512,1.7271,83.1874-4.0473,.8258-.1866,1.6441,.3362,1.8281,1.1624,.184,.8258-.3366,1.6441-1.1624,1.8281-16.5483,3.6846-44.5632,4.3929-63.6561,4.3929Z"/><path class="e" d="M354.1805,355.9824c-.6994,0-1.3314-.4824-1.4922-1.1938-.187-.825,.3299-1.6456,1.1556-1.8326,.181-.0408,18.2485-4.1262,30.8108-6.3193,.8385-.1485,1.6276,.4129,1.772,1.2458,.1459,.8333-.4121,1.6269-1.2454,1.7723-12.4875,2.18-30.4802,6.2486-30.6612,6.2894-.1137,.0258-.2274,.0381-.3396,.0381h0Z"/><circle class="c" cx="548.3325" cy="329.5552" r="3.0688"/><circle class="e" cx="409.1671" cy="421.3167" r="3.0688"/><circle class="e" cx="227.4909" cy="307.6208" r="3.0688"/><circle class="e" cx="261.8755" cy="242.4592" r="3.0688"/><circle class="d" cx="65.8435" cy="154.9846" r="3.0688"/><circle class="e" cx="71.229" cy="308.6251" r="3.0688"/><circle class="e" cx="161.375" cy="505.0696" r="3.0688"/><circle class="c" cx="304.5281" cy="354.7146" r="3.0688"/><circle class="e" cx="200.0125" cy="227.9101" r="3.0688"/><circle class="e" cx="341.3841" cy="200.1288" r="3.0688"/><circle class="e" cx="370.7705" cy="122.8863" r="3.0688"/><circle class="b" cx="313.1595" cy="105.6468" r="3.0688"/><circle class="b" cx="490.4787" cy="51.3188" r="3.0688"/><circle class="e" cx="397.0964" cy="80.5281" r="3.0688"/><circle class="d" cx="356.1122" cy="31.1496" r="3.0688"/><circle class="c" cx="293.4257" cy="48.1173" r="3.0688"/><circle class="e" cx="198.8283" cy="115.9679" r="3.0688"/><circle class="e" cx="204.603" cy="153.6785" r="3.0688"/><circle class="b" cx="128.6594" cy="373.2512" r="3.0688"/></svg>