<?xml version="1.0" encoding="utf-8"?>
<!-- Generator: Adobe Illustrator 26.5.0, SVG Export Plug-In . SVG Version: 6.00 Build 0)  -->
<svg version="1.1" id="Layer_1" xmlns="http://www.w3.org/2000/svg" xmlns:xlink="http://www.w3.org/1999/xlink" x="0px" y="0px"
	 viewBox="0 0 1728 1117" style="enable-background:new 0 0 1728 1117;" xml:space="preserve">
<style type="text/css">
	.st0{fill:url(#SVGID_1_);fill-opacity:0.15;}
	.st1{opacity:0.2;}
	.st2{clip-path:url(#SVGID_00000160890488405000593480000008132449530319627698_);}
	.st3{fill:#FFFFFF;}
</style>
<g>
	<g id="a">
		
			<radialGradient id="SVGID_1_" cx="646.6086" cy="-68.1677" r="1.2325" gradientTransform="matrix(1243.4316 -286.9843 185.8874 805.4039 -791433.625 240964.7344)" gradientUnits="userSpaceOnUse">
			<stop  offset="0.4989" style="stop-color:#6F4B99"/>
			<stop  offset="0.6729" style="stop-color:#007EB5"/>
			<stop  offset="0.8229" style="stop-color:#29B3B4"/>
			<stop  offset="1" style="stop-color:#29B3B4;stop-opacity:0.47"/>
		</radialGradient>
		<ellipse class="st0" cx="864" cy="643.1" rx="1429.1" ry="831.3"/>
		<g class="st1">
			<defs>
				
					<rect id="SVGID_00000064318428048341290120000012600159353016582307_" x="0" y="606.4" class="st1" width="1240.8" height="510.6"/>
			</defs>
			<clipPath id="SVGID_00000011724119910931412220000004201802117450086529_">
				<use xlink:href="#SVGID_00000064318428048341290120000012600159353016582307_"  style="overflow:visible;"/>
			</clipPath>
			<g style="clip-path:url(#SVGID_00000011724119910931412220000004201802117450086529_);">
				<g>
					<g>
						<g>
							<path class="st3" d="M-159.3,1291.6h260.8c3.7,0,6.7,3,6.7,6.7s-3,6.7-6.7,6.7h-260.8c-3.7,0-6.7-3-6.7-6.7
								S-163,1291.6-159.3,1291.6z"/>
						</g>
						<g>
							<path class="st3" d="M-45.7,1338.2h168.1c3.7,0,6.7,3,6.7,6.7c0,3.7-3,6.7-6.7,6.7H-45.7c-3.7,0-6.7-3-6.7-6.7
								C-52.4,1341.2-49.4,1338.2-45.7,1338.2z"/>
						</g>
						<g>
							<path class="st3" d="M-366.6,1151.5h65.9c1.8,0,3.5,0.7,4.7,1.9l44.7,44.7h114.8l44.6-44.6c1.2-1.2,2.9-1.9,4.7-1.9H111
								c3.7,0,6.7,3,6.7,6.7c0,3.7-3,6.7-6.7,6.7H-84.5l-44.6,44.6c-1.2,1.2-2.9,1.9-4.7,1.9h-120.4c-1.8,0-3.5-0.7-4.7-1.9
								l-44.7-44.7h-63.1c-3.7,0-6.7-3-6.7-6.7S-370.3,1151.5-366.6,1151.5z"/>
						</g>
						<g>
							<path class="st3" d="M-418.7,964.9C-418.7,964.9-418.7,964.9-418.7,964.9l194.3,0c1.8,0,3.5,0.7,4.7,1.9l140.3,140
								c2.6,2.6,2.6,6.8,0,9.4c-2.6,2.6-6.8,2.6-9.4,0l-138.3-138l-191.6,0c-3.7,0-6.7-3-6.7-6.7
								C-425.3,967.9-422.4,964.9-418.7,964.9z"/>
						</g>
						<g>
							<path class="st3" d="M-324.7,918.2L-324.7,918.2l119.6,0c1.8,0,3.5,0.7,4.7,1.9l138.3,138h591.1c3.7,0,6.7,3,6.7,6.7
								s-3,6.7-6.7,6.7H-64.7c-1.8,0-3.5-0.7-4.7-1.9l-138.3-138l-116.9,0c-3.7,0-6.7-3-6.7-6.7
								C-331.3,921.2-328.3,918.2-324.7,918.2z"/>
						</g>
						<g>
							<path class="st3" d="M-45.7,1011.6h264c3.7,0,6.7,3,6.7,6.7c0,3.7-3,6.7-6.7,6.7h-264c-3.7,0-6.7-3-6.7-6.7
								C-52.4,1014.6-49.4,1011.6-45.7,1011.6z"/>
						</g>
						<g>
							<path class="st3" d="M-30.2,964.9h267.6c3.7,0,6.7,3,6.7,6.7s-3,6.7-6.7,6.7H-30.2c-3.7,0-6.7-3-6.7-6.7
								S-33.8,964.9-30.2,964.9z"/>
						</g>
						<g>
							<path class="st3" d="M-253.2,872.2h133.9c1.8,0,3.5,0.7,4.7,1.9l44.1,44.1l327.6,0c1.8,0,3.5,0.7,4.7,1.9l44.7,44.7h67.7
								c3.7,0,6.7,3,6.7,6.7s-3,6.7-6.7,6.7h-70.5c-1.8,0-3.5-0.7-4.7-1.9l-44.7-44.7l-327.6,0c-1.8,0-3.5-0.7-4.7-1.9l-44.1-44.1
								h-131.2c-3.7,0-6.7-3-6.7-6.7C-259.8,875.2-256.8,872.2-253.2,872.2z"/>
						</g>
						<g>
							<path class="st3" d="M-62.8,1198.3h136c3.7,0,6.7,3,6.7,6.7c0,3.7-3,6.7-6.7,6.7h-136c-3.7,0-6.7-3-6.7-6.7
								C-69.5,1201.3-66.5,1198.3-62.8,1198.3z"/>
						</g>
						<g>
							<circle class="st3" cx="531.6" cy="1064.9" r="13.3"/>
						</g>
						<g>
							<circle class="st3" cx="101.5" cy="1298.2" r="13.3"/>
						</g>
						<g>
							<circle class="st3" cx="641.2" cy="1111.4" r="13.3"/>
						</g>
						<g>
							<circle class="st3" cx="278.5" cy="1254.5" r="13.3"/>
						</g>
						<g>
							<circle class="st3" cx="374.3" cy="971.5" r="13.3"/>
						</g>
						<g>
							<circle class="st3" cx="142.1" cy="831.6" r="13.3"/>
						</g>
						<g>
							<circle class="st3" cx="-256.2" cy="878.9" r="13.3"/>
						</g>
						<g>
							<circle class="st3" cx="-422.5" cy="971.6" r="13.3"/>
						</g>
						<g>
							<circle class="st3" cx="88.3" cy="1111.1" r="13.3"/>
						</g>
						<g>
							<circle class="st3" cx="-213.6" cy="1111.6" r="13.3"/>
						</g>
						<g>
							<circle class="st3" cx="-474.7" cy="1064.9" r="13.3"/>
						</g>
						<g>
							<circle class="st3" cx="-227.4" cy="1251.6" r="13.3"/>
						</g>
						<g>
							<path class="st3" d="M157.8,1104.8h483.3c3.7,0,6.7,3,6.7,6.7c0,3.7-3,6.7-6.7,6.7H160.6l-44.9,44.9c-2.6,2.6-6.8,2.6-9.4,0
								c-2.6-2.6-2.6-6.8,0-9.4l46.8-46.8C154.4,1105.5,156.1,1104.8,157.8,1104.8z"/>
						</g>
						<g>
							<path class="st3" d="M309,1151.6h218.5c3.7,0,6.7,3,6.7,6.7l0,0c0,3.7-3,6.7-6.7,6.7H311.7L127,1349.6
								c-2.8,2.8-7.3,2.6-9.9-0.5c-2.2-2.7-1.7-6.7,0.7-9.2l186.4-186.4C305.5,1152.3,307.2,1151.6,309,1151.6z"/>
						</g>
						<g>
							<path class="st3" d="M237.4,964.9c1.7,0,3.4,0.7,4.7,1.9l44.7,44.7h180.5c3.7,0,6.7,3,6.7,6.7c0,3.7-3,6.7-6.7,6.7H284.1
								c-1.8,0-3.5-0.7-4.7-1.9l-46.7-46.7c-2.6-2.6-2.6-6.8,0-9.4C234,965.5,235.7,964.9,237.4,964.9z"/>
						</g>
						<g>
							<path class="st3" d="M-63,871.6h298.3c3.7,0,6.7,3,6.7,6.7c0,3.7-3,6.7-6.7,6.7H-63c-3.7,0-6.7-3-6.7-6.7
								C-69.7,874.5-66.7,871.6-63,871.6z"/>
						</g>
						<g>
							<path class="st3" d="M177,1151.6h66c3.7,0,6.7,3,6.7,6.7c0,3.7-3,6.7-6.7,6.7h-63.2l-91.4,91.4c-1.2,1.2-2.9,1.9-4.7,1.9
								h-305.6c-3.7,0-6.7-3-6.7-6.7s3-6.7,6.7-6.7H80.9l91.4-91.4C173.5,1152.3,175.2,1151.6,177,1151.6z"/>
						</g>
						<g>
							<path class="st3" d="M-184.7,825h326.8c3.7,0,6.7,3,6.7,6.7s-3,6.7-6.7,6.7h-326.8c-3.7,0-6.7-3-6.7-6.7
								S-188.4,825-184.7,825z"/>
						</g>
						<g>
							<path class="st3" d="M-138,919.3c1.7,0,3.4,0.7,4.7,1.9l92.3,92.3c2.6,2.6,2.6,6.8,0,9.4c-2.6,2.6-6.8,2.6-9.4,0l-92.3-92.3
								c-2.6-2.6-2.6-6.8,0-9.4C-141.4,920-139.7,919.3-138,919.3z"/>
						</g>
						<g>
							<path class="st3" d="M328.3,1198.2h139.1c3.7,0,6.7,3,6.7,6.7c0,3.7-3,6.7-6.7,6.7H331.1l-44.7,44.7c-2.6,2.6-6.8,2.6-9.4,0
								c-2.6-2.6-2.6-6.8,0-9.4l46.7-46.7C324.9,1198.9,326.5,1198.2,328.3,1198.2z"/>
						</g>
						<g>
							<path class="st3" d="M-84.1,1104.9H88.3c3.7,0,6.7,3,6.7,6.7s-3,6.7-6.7,6.7H-84.1c-3.7,0-6.7-3-6.7-6.7
								S-87.8,1104.9-84.1,1104.9z"/>
						</g>
						<g>
							<path class="st3" d="M-419.5,1104.4h137c1.8,0,3.5,0.7,4.7,1.9l45.1,45.1h81.9c3.7,0,6.7,3,6.7,6.7s-3,6.7-6.7,6.7h-84.7
								c-1.8,0-3.5-0.7-4.7-1.9l-45.1-45.1h-134.2c-3.7,0-6.7-3-6.7-6.7S-423.2,1104.4-419.5,1104.4z"/>
						</g>
					</g>
					<g>
						<path class="st3" d="M-474.7,1058.3h280.8c3.7,0,6.7,3,6.7,6.7s-3,6.7-6.7,6.7h-280.8c-3.7,0-6.7-3-6.7-6.7
							S-478.4,1058.3-474.7,1058.3z"/>
					</g>
					<g>
						<path class="st3" d="M-213.6,1104.4h63.1c3.7,0,6.7,3,6.7,6.7s-3,6.7-6.7,6.7h-63.1c-3.7,0-6.7-3-6.7-6.7
							S-217.3,1104.4-213.6,1104.4z"/>
					</g>
					<g>
						<path class="st3" d="M-343.2,1011.6h99.5c3.7,0,6.7,3,6.7,6.7c0,3.7-3,6.7-6.7,6.7h-99.5c-3.7,0-6.7-3-6.7-6.7
							C-349.9,1014.6-346.9,1011.6-343.2,1011.6z"/>
					</g>
					<g>
						<path class="st3" d="M135.9,1271.7c1.7,0,3.4-0.7,4.7-2l66-66c2.6-2.6,2.6-6.8,0-9.4c-2.6-2.6-6.8-2.6-9.4,0l-66,66
							c-2.6,2.6-2.6,6.8,0,9.4C132.5,1271,134.2,1271.7,135.9,1271.7z"/>
					</g>
				</g>
			</g>
		</g>
	</g>
</g>
</svg>
