<?xml version="1.0" encoding="UTF-8"?><svg xmlns="http://www.w3.org/2000/svg" width="1728" height="1117" xmlns:xlink="http://www.w3.org/1999/xlink" viewBox="0 0 1728 1117"><defs><style>.c{fill:#fff;mix-blend-mode:soft-light;opacity:.7;}.d{fill:url(#b);fill-opacity:.15;}.e{isolation:isolate;}</style><radialGradient id="b" cx="263.8501" cy="896.7228" fx="263.8501" fy="896.7228" r="1.2325" gradientTransform="translate(-161481.6863 798440.6406) rotate(-12.9963) scale(1276.12 -826.577)" gradientUnits="userSpaceOnUse"><stop offset=".4989" stop-color="#6f4b99"/><stop offset=".6729" stop-color="#007eb5"/><stop offset=".8229" stop-color="#29b3b4"/><stop offset="1" stop-color="#29b3b4" stop-opacity=".47"/></radialGradient></defs><g class="e"><g id="a"><ellipse class="d" cx="864" cy="643.1493" rx="1429.0632" ry="831.3093"/><g><polygon class="c" points="557.1514 .7161 559.3945 -2.4879 557.3365 -3.9292 555.1703 -2.6567 557.1514 .7161"/><polygon class="c" points="864.0489 121.1164 861.8064 124.3203 864.0489 125.8913 866.2913 124.3203 864.0489 121.1164"/><polygon class="c" points="1170.9782 .6913 1172.96 -2.6795 1170.7957 -3.9546 1168.7358 -2.5126 1170.9782 .6913"/><polygon class="c" points="886.4799 199.8884 884.2374 196.6845 884.2244 196.6936 884.2114 196.7034 886.4799 199.8884"/><polygon class="c" points="878.2272 204.3668 876.7931 200.7281 876.7865 200.73 878.2272 204.3668"/><polygon class="c" points="864.1597 207.078 864.1467 203.1667 864.1401 203.1667 864.1597 207.078"/><polygon class="c" points="852.9539 205.4633 854.0752 201.7163 854.0686 201.7143 852.9539 205.4633"/><polygon class="c" points="840.333 198.9915 842.7312 195.9016 842.6556 195.8429 842.5767 195.7875 840.333 198.9915"/><polygon class="c" points="1474.0811 287.2592 1476.3236 290.4631 1478.2923 289.0842 1477.9533 286.7045 1474.0811 287.2592"/><polygon class="c" points="1205.6972 475.1862 1207.9331 478.3954 1207.9331 478.3928 1207.9397 478.3902 1205.6972 475.1862"/><polygon class="c" points="1266.6215 842.4337 1270.5327 842.448 1270.5327 842.4409 1270.5327 842.4337 1266.6215 842.4337"/><polygon class="c" points="1266.6215 526.9641 1264.3791 523.7601 1262.7102 524.9276 1262.7102 526.9641 1266.6215 526.9641"/><polygon class="c" points="1518.865 350.3733 1520.6707 346.9056 1518.5652 345.8068 1516.616 347.1692 1518.865 350.3733"/><polygon class="c" points="712.6213 406.7209 716.5325 406.7209 716.5325 404.6871 714.867 403.5189 712.6213 406.7209"/><polygon class="c" points="712.6213 950.7807 714.2164 954.3517 716.5325 953.3172 716.5325 950.7807 712.6213 950.7807"/><polygon class="c" points="282.4025 104.97 284.6482 101.768 284.6469 101.7674 282.4025 104.97"/><polygon class="c" points="272.9145 51.0736 269.7118 48.8285 269.7105 48.8298 272.9145 51.0736"/><polygon class="c" points="326.8109 41.5855 329.0567 38.3828 329.0554 38.3822 326.8109 41.5855"/><polygon class="c" points="773.5443 354.8573 771.2986 358.0597 771.3032 358.0629 771.3077 358.0661 773.5443 354.8573"/><polygon class="c" points="790.0668 955.0649 786.1555 955.0649 786.1555 957.3041 788.087 958.4377 790.0668 955.0649"/><polygon class="c" points="209.1628 350.3598 211.406 347.1558 209.4591 345.7928 207.3525 346.8928 209.1628 350.3598"/><polygon class="c" points="461.5355 527.0423 465.4468 527.0423 465.4468 525.0058 463.7786 523.8383 461.5355 527.0423"/><polygon class="c" points="538.8956 842.5184 542.8069 842.5334 542.8069 842.5256 542.8069 842.5184 538.8956 842.5184"/><polygon class="c" points="522.3732 475.1784 520.13 478.3823 520.1366 478.3876 522.3732 475.1784"/><polygon class="c" points="253.9232 287.2237 250.0513 286.6706 249.7115 289.0494 251.68 290.4277 253.9232 287.2237"/><polygon class="c" points="937.424 955.1613 939.4123 958.5296 941.3353 957.3947 941.3353 955.1613 937.424 955.1613"/><polygon class="c" points="953.9491 354.8573 956.185 358.0661 956.1915 358.0629 956.1915 358.0597 953.9491 354.8573"/><polygon class="c" points="1400.6799 41.5855 1398.4374 38.3822 1398.4374 38.3828 1400.6799 41.5855"/><polygon class="c" points="1454.577 51.0736 1457.7842 48.8298 1457.7777 48.8285 1454.577 51.0736"/><polygon class="c" points="1445.0857 104.97 1442.8367 101.7674 1442.8367 101.768 1445.0857 104.97"/><polygon class="c" points="1014.8735 406.7209 1012.6245 403.5189 1010.9622 404.6871 1010.9622 406.7209 1014.8735 406.7209"/><polygon class="c" points="1014.8735 950.7084 1010.9622 950.7084 1010.9622 953.2507 1013.2829 954.2826 1014.8735 950.7084"/><path class="c" d="M514.2475,16.2621c16.3692,0,31.7138-4.436,44.8849-12.1738l-3.9621-6.745c-12.003,7.0513-25.9844,11.0962-40.9228,11.0962v7.8225Z"/><path class="c" d="M425.5141-72.472c0,49.0061,39.7273,88.734,88.7334,88.734v-7.8225c-44.6855,0-80.9109-36.2254-80.9109-80.9115h-7.8225Z"/><rect class="c" x="727.471" y="-133.7225" width="7.8219" height="323.9041" transform="translate(288.7758 611.1671) rotate(-55.0021)"/><rect class="c" x="834.7554" y="24.2927" width="323.9885" height="7.8234" transform="translate(164.0687 576.7916) rotate(-34.9985)"/><path class="c" d="M1213.9238,16.2621c49.0016,0,88.7334-39.7279,88.7334-88.734h-7.8225c0,44.6861-36.2247,80.9115-80.9109,80.9115v7.8225Z"/><path class="c" d="M1168.9966,4.0629c13.1809,7.7534,28.5391,12.1992,44.9273,12.1992v-7.8225c-14.954,0-28.9498-4.0534-40.9639-11.119l-3.9634,6.7423Z"/><rect class="c" x="855.078" y="96.3791" width="347.3022" height="7.8215" transform="translate(128.5067 608.169) rotate(-34.9985)"/><path class="c" d="M879.6613,208.0056c3.1877-1.2575,6.245-2.9061,9.0872-4.9314l-4.537-6.3708c-2.3207,1.6519-4.8174,2.9973-7.4184,4.0247l2.8682,7.2775Z"/><path class="c" d="M864.1662,210.9892c5.2085-.0163,10.4756-.998,15.495-2.9849l-2.8747-7.2743c-4.1069,1.6232-8.4027,2.4237-12.6399,2.4367l.0196,7.8225Z"/><path class="c" d="M863.9576,210.9899c.0782,0,.1499,0,.2216-.0006l-.0391-7.8225c-.0652,.0006-.1239,.0006-.1825,.0006v7.8225Z"/><path class="c" d="M851.8262,209.2096c3.983,1.1936,8.0768,1.7803,12.1314,1.7803v-7.8225c-3.2985,0-6.6361-.4778-9.8824-1.4511l-2.249,7.4933Z"/><path class="c" d="M837.9353,202.0813c4.1988,3.2587,8.9236,5.6505,13.8974,7.1302l2.2359-7.4972c-4.0677-1.2099-7.9203-3.1616-11.3374-5.8128l-4.7958,6.1798Z"/><rect class="c" x="694.8311" y="-72.9937" width="7.8225" height="345.695" transform="translate(216.1776 614.9682) rotate(-55.0014)"/><path class="c" d="M1638.9537,275.1219c0,44.686-36.2248,80.9112-80.911,80.9112v7.8225c49.008,0,88.7335-39.7275,88.7335-88.7337h-7.8225Z"/><path class="c" d="M1558.0428,194.2106c44.6861,0,80.911,36.2254,80.911,80.9113h7.8225c0-49.0066-39.7255-88.7338-88.7335-88.7338v7.8225Z"/><path class="c" d="M1477.1319,275.1219c0-44.6859,36.2247-80.9113,80.9109-80.9113v-7.8225c-49.008,0-88.7334,39.7273-88.7334,88.7338h7.8225Z"/><path class="c" d="M1477.9533,286.7045c-.541-3.7807-.8214-7.6477-.8214-11.5825h-7.8225c0,4.3071,.3064,8.5449,.8996,12.6921l7.7443-1.1096Z"/><rect class="c" x="1176.0703" y="377.312" width="327.6377" height="7.8215" transform="translate(23.6588 837.4807) rotate(-35.0004)"/><path class="c" d="M1193.0834,506.8752c0-11.3511,5.567-22.0145,14.8498-28.4798l-4.4719-6.419c-11.3883,7.9314-18.2004,20.9956-18.2004,34.8989h7.8225Z"/><rect class="c" x="1185.2609" y="506.8752" width="7.8225" height="335.6511"/><path class="c" d="M1227.8088,877.2524c-19.1913,0-34.7255-15.5407-34.7255-34.7261h-7.8225c0,23.5047,19.0413,42.5486,42.548,42.5486v-7.8225Z"/><path class="c" d="M1262.7102,842.4193c-.0717,19.2858-15.6972,34.833-34.9014,34.833v7.8225c23.5197,0,42.6392-19.0381,42.7239-42.6268l-7.8225-.0287Z"/><rect class="c" x="1262.7102" y="526.9641" width="7.8225" height="315.4696"/><rect class="c" x="1238.7859" y="434.7569" width="307.9114" height="7.8235" transform="translate(.2326 878.0751) rotate(-34.9958)"/><path class="c" d="M1558.0428,356.0331c-13.4873,0-26.1989-3.2977-37.372-9.1276l-3.6179,6.9354c12.2618,6.3988,26.212,10.0146,40.99,10.0146v-7.8225Z"/><rect class="c" x="708.71" y="406.7209" width="7.8225" height="544.0598"/><rect class="c" x="493.6001" y="-6.9002" width="7.823" height="525.4919" transform="translate(2.3675 516.2439) rotate(-54.9546)"/><path class="c" d="M269.7105,48.8298c-13.5233,19.3112-8.8564,45.8119,10.447,59.3436l4.4895-6.406c-15.7669-11.0519-19.5745-32.6766-8.5285-48.4501l-6.4079-4.4875Z"/><path class="c" d="M329.0554,38.3822c-19.3125-13.5323-45.8132-8.8557-59.3436,10.4463l6.4053,4.4901c11.0532-15.7682,32.6779-19.5817,48.4494-8.5305l4.4888-6.406Z"/><rect class="c" x="546.2663" y="-74.5928" width="7.8226" height="545.6282" transform="translate(71.9997 534.8708) rotate(-54.9599)"/><path class="c" d="M793.978,386.5463c0-13.8964-6.8082-26.9596-18.1971-34.8977l-4.4732,6.4174c9.286,6.4724,14.8478,17.137,14.8478,28.4803h7.8225Z"/><rect class="c" x="786.1555" y="386.5463" width="7.8225" height="568.5185"/><path class="c" d="M835.9184,1028.2666c0-32.6459-17.6313-61.1694-43.8713-76.5746l-3.9602,6.7456c23.946,14.059,40.0089,40.0708,40.0089,69.8289h7.8225Z"/><path class="c" d="M747.1844,1117c49.0061,0,88.734-39.7318,88.734-88.7334h-7.8225c0,44.6861-36.2254,80.9109-80.9115,80.9109v7.8225Z"/><path class="c" d="M658.451,1028.2666c0,49.0016,39.7273,88.7334,88.7334,88.7334v-7.8225c-44.6861,0-80.9109-36.2247-80.9109-80.9109h-7.8225Z"/><path class="c" d="M711.0255,947.2098c-30.9752,13.838-52.5745,44.9169-52.5745,81.0569h7.8225c0-32.9393,19.6821-61.2894,47.9429-73.9149l-3.1909-7.142Z"/><path class="c" d="M207.3525,346.8928c-11.1803,5.8379-23.8962,9.1403-37.395,9.1403v7.8225c14.7893,0,28.7444-3.6212,41.0157-10.0287l-3.6207-6.9341Z"/><rect class="c" x="331.438" y="284.6648" width="7.8224" height="308.0725" transform="translate(-216.3602 461.8195) rotate(-55.0047)"/><rect class="c" x="457.6243" y="527.0423" width="7.8225" height="315.484"/><path class="c" d="M500.18,877.2517c-19.1925,0-34.7333-15.5414-34.7333-34.7255h-7.8225c0,23.5053,19.0439,42.548,42.5558,42.548v-7.8225Z"/><path class="c" d="M534.9843,842.5041c-.0704,19.2075-15.6098,34.7476-34.8043,34.7476v7.8225c23.523,0,42.5408-19.0446,42.6268-42.5408l-7.8225-.0293Z"/><rect class="c" x="534.9843" y="506.8674" width="7.8225" height="335.651"/><path class="c" d="M520.1366,478.3876c9.286,6.4725,14.8478,17.1365,14.8478,28.4798h7.8225c0-13.8961-6.8089-26.9597-18.1971-34.8975l-4.4732,6.4177Z"/><rect class="c" x="384.237" y="217.3472" width="7.8224" height="327.7077" transform="translate(-146.7421 480.527) rotate(-55.0023)"/><path class="c" d="M250.8687,275.1219c0,3.9231-.2789,7.7787-.8175,11.5486l7.7442,1.1062c.5906-4.1352,.8957-8.3605,.8957-12.6548h-7.8224Z"/><path class="c" d="M169.9575,194.2106c44.686,0,80.9113,36.2254,80.9113,80.9113h7.8224c0-49.0066-39.7275-88.7338-88.7337-88.7338v7.8225Z"/><path class="c" d="M89.0463,275.1219c0-44.6859,36.2254-80.9113,80.9112-80.9113v-7.8225c-49.0064,0-88.7337,39.7273-88.7337,88.7338h7.8225Z"/><path class="c" d="M169.9575,356.0331c-44.6858,0-80.9112-36.2252-80.9112-80.9112h-7.8225c0,49.0062,39.7273,88.7337,88.7337,88.7337v-7.8225Z"/><rect class="c" x="933.5127" y="386.5463" width="7.8225" height="568.615"/><path class="c" d="M941.3353,386.5463c0-11.3433,5.5605-22.0079,14.8498-28.4803l-4.4719-6.4174c-11.3883,7.9381-18.2004,21.0012-18.2004,34.8977h7.8225Z"/><rect class="c" x="904.4988" y="194.31" width="545.6315" height="7.8226" transform="translate(99.5769 711.8775) rotate(-35.0399)"/><path class="c" d="M1402.9289,44.7882c15.7688-11.0513,37.3916-7.2378,48.4474,8.5305l6.4015-4.4901c-13.5264-19.3021-40.0252-23.9786-59.3403-10.4463l4.4914,6.406Z"/><path class="c" d="M1451.3763,53.3173c11.0428,15.7728,7.2358,37.3975-8.5396,48.4501l4.4914,6.406c19.3086-13.531,23.976-40.0317,10.456-59.3436l-6.4079,4.4875Z"/><rect class="c" x="967.233" y="251.9345" width="525.4866" height="7.8226" transform="translate(76.0886 752.6776) rotate(-35.0458)"/><rect class="c" x="1010.9622" y="406.7209" width="7.8225" height="543.9875"/><path class="c" d="M1069.2073,1028.2666c0-36.2052-21.6814-67.3329-52.7498-81.1331l-3.1746,7.1491c28.3436,12.591,48.1019,40.9861,48.1019,73.984h7.8225Z"/><path class="c" d="M980.4739,1117c49.0016,0,88.7334-39.7318,88.7334-88.7334h-7.8225c0,44.6861-36.2247,80.9109-80.9109,80.9109v7.8225Z"/><path class="c" d="M891.7405,1028.2666c0,49.0016,39.7254,88.7334,88.7334,88.7334v-7.8225c-44.6861,0-80.9109-36.2247-80.9109-80.9109h-7.8225Z"/><path class="c" d="M935.4358,951.7924c-26.1467,15.4286-43.6953,43.8999-43.6953,76.4742h7.8225c0-29.6929,15.9905-55.6572,39.8492-69.737l-3.9764-6.7372Z"/></g></g></g></svg>