<?xml version="1.0" encoding="UTF-8"?><svg id="a" xmlns="http://www.w3.org/2000/svg" width="562" height="489" viewBox="0 0 562 489"><defs><style>.b{opacity:.2;}</style></defs><g class="b"><g><path d="M151.3292,295.2614c-.9679,.0966-1.6684,.9824-1.6684,1.9552v187.0754c0,1.0271,.8326,1.8597,1.8597,1.8597h.0006c1.0271,0,1.8597-.8326,1.8597-1.8597v-187.1802c0-1.0913-.9379-1.9615-2.0515-1.8503Z"/><path d="M78.558,201.633c.9681-.0958,1.6692-.9811,1.6692-1.9539V102.9806s26.0379-13.0189,26.0379-13.0189v255.093c0,.973,.7012,1.8586,1.6694,1.9545,1.1138,.1104,2.0504-.7596,2.0504-1.8505V88.812h19.2178v19.8872c0,1.0075,.7549,1.9101,1.761,1.9622,1.0725,.0555,1.9583-.7973,1.9583-1.8571v-19.9923h16.7388v175.9601c0,.9727,.7004,1.8586,1.6684,1.9552,1.1136,.1111,2.0515-.7591,2.0515-1.8503V88.812h13.7813l2.9569,1.629v15.005c0,1.0076,.7554,1.9101,1.7617,1.9617,1.0728,.055,1.9581-.7976,1.9581-1.8574v-13.0595l16.7382,9.2233v32.5593c0,1.0076,.7554,1.9101,1.7618,1.9617,1.0728,.055,1.9581-.7976,1.9581-1.8571v-30.6141l32.2384,17.7639v61.9382l-21.8313,9.6566c-.6736,.296-1.108,.9644-1.108,1.7001v241.2093c0,.973,.7012,1.8586,1.6695,1.9546,1.1138,.1104,2.0504-.7596,2.0504-1.8499V196.034l19.2194-8.5014V484.292c0,1.0271,.8326,1.8597,1.8597,1.8597h0c1.0271,0,1.8597-.8326,1.8597-1.8597V185.8874l28.9292-12.7962c.9393-.4159,1.3644-1.5137,.9482-2.4528-.4156-.941-1.5165-1.3657-2.452-.949l-27.4254,12.1311v-61.3914c0-.6775-.3682-1.3023-.9625-1.6292l-59.7922-32.9465V49.7552c0-.592-.2817-1.1477-.758-1.4983-.4757-.3503-1.0915-.4531-1.656-.277l-13.7053,4.283V28.7814c0-1.0077-.7554-1.9103-1.7618-1.9619-1.0727-.055-1.958,.798-1.958,1.8574v24.7485l-42.0898,13.1529c-.7773,.2426-1.3059,.9617-1.3059,1.7753v12.9143c0,1.0076,.7554,1.9101,1.7618,1.9617,1.0728,.055,1.9581-.7976,1.9581-1.8571v-11.6513l55.7951-17.4361v32.807h-57.655c-.2817,0-.5413,.0725-.7806,.1841-.016,.0074-.0353,.0041-.0513,.0121l-29.7572,14.8789c-.6306,.3148-1.0281,.9586-1.0281,1.6634v97.9521c0,1.0905,.9364,1.9604,2.0501,1.8502Z"/><path d="M192.2464,345.0138c-.9683,.096-1.6694,.9816-1.6694,1.9545v137.3236c0,1.0271,.8326,1.8597,1.8597,1.8597h.0006c1.0271,0,1.8597-.8326,1.8597-1.8597v-137.4277c0-1.0909-.9366-1.9608-2.0504-1.8505Z"/><path d="M609.5568,455.0757h-58.1715s0-160.5673,0-160.5673c0-.8299-.5502-1.56-1.3495-1.7888l-20.3346-5.7928c.0888-.2175,.1417-.454,.1417-.704v-6.9675c0-.9962-.7923-1.8154-1.7881-1.8405-.0124-.0003-.0248-.0006-.0372-.0009-1.0372-.0261-1.894,.8029-1.894,1.8404v6.6533l-29.4016-8.3755c-.1676-.0471-.3379-.0708-.5105-.0708h-30.3784v-53.6264c0-1.0272-.8327-1.8599-1.8599-1.8599h-64.5605c-.6064,0-1.1753,.2963-1.522,.7919l-14.2356,20.2874c-.5603,.7984-.4923,1.9291,.2491,2.563,.8501,.7268,2.1098,.5467,2.7349-.3416l13.74-19.5811h61.7343v142.3298c0,.973,.7012,1.8586,1.6694,1.9545,1.1138,.1104,2.0504-.7596,2.0504-1.8505v-86.9475h30.1188l51.7141,14.7317v17.1944h-17.5644c-.9729,0-1.8587,.7009-1.9548,1.6691-.1106,1.1137,.7594,2.0505,1.8504,2.0505h17.6688v138.2493h-4.7504c-1.0271,0-1.8597,.8326-1.8597,1.8597h0c0,1.0271,.8326,1.8597,1.8597,1.8597h66.746c1.0911,0,1.9612-.937,1.8504-2.0505-.0964-.9681-.9822-1.6688-1.9551-1.6688Z"/><path d="M78.3677,352.9087c1.028,0,1.8598-.8319,1.8598-1.8598V214.6596c0-1.0279-.8319-1.8598-1.8598-1.8598s-1.8598,.8319-1.8598,1.8598v17.979H38.6916c-1.0279,0-1.8598,.8319-1.8598,1.8598s.8319,1.8598,1.8598,1.8598h37.8162v16.1192H29.547c-1.0281,0-1.8598,.8319-1.8598,1.8598s.8317,1.8598,1.8598,1.8598h46.9609v9.2992h-22.318c-1.0281,0-1.8598,.8319-1.8598,1.8598s.8317,1.8598,1.8598,1.8598h22.318v9.2992H22.4899c-1.0279,0-1.8598,.8319-1.8598,1.8598s.8319,1.8598,1.8598,1.8598h54.0179v9.2992H28.617c-1.0281,0-1.8598,.8319-1.8598,1.8598s.8317,1.8598,1.8598,1.8598h47.8908v9.2992h-14.7073c-1.0279,0-1.8598,.8319-1.8598,1.8598s.8319,1.8598,1.8598,1.8598h14.7073v9.2992H1.4949c-1.0279,0-1.8598,.8319-1.8598,1.8598s.8319,1.8598,1.8598,1.8598H76.5078v9.2992h-18.1334c-1.0281,0-1.8598,.8319-1.8598,1.8598s.8317,1.8598,1.8598,1.8598h18.1334v9.2992h-12.9205c-1.0279,0-1.8598,.8319-1.8598,1.8598s.8319,1.8598,1.8598,1.8598h12.9205v3.7197c0,1.0279,.8317,1.8598,1.8598,1.8598Z"/><path d="M476.3727,298.8494h30.3767c1.028,0,1.8598-.8319,1.8598-1.8598s-.8319-1.8598-1.8598-1.8598h-30.3767c-1.0281,0-1.8598,.8319-1.8598,1.8598s.8317,1.8598,1.8598,1.8598Z"/><path d="M476.3727,316.8266h30.3767c1.028,0,1.8598-.8319,1.8598-1.8598s-.8319-1.8598-1.8598-1.8598h-30.3767c-1.0281,0-1.8598,.8319-1.8598,1.8598s.8317,1.8598,1.8598,1.8598Z"/><path d="M502.7208,330.4666c0,1.0279,.8319,1.8598,1.8598,1.8598h15.4982c1.028,0,1.8598-.8319,1.8598-1.8598s-.8319-1.8598-1.8598-1.8598h-15.4982c-1.0279,0-1.8598,.8319-1.8598,1.8598Z"/><path d="M541.467,328.6068h-15.4982c-1.0279,0-1.8598,.8319-1.8598,1.8598s.8319,1.8598,1.8598,1.8598h15.4982c1.028,0,1.8598-.8319,1.8598-1.8598s-.8319-1.8598-1.8598-1.8598Z"/><path d="M476.3727,348.135h30.3767c1.028,0,1.8598-.8319,1.8598-1.8598s-.8319-1.8598-1.8598-1.8598h-30.3767c-1.0281,0-1.8598,.8319-1.8598,1.8598s.8317,1.8598,1.8598,1.8598Z"/><path d="M543.3268,346.2752c0-1.0279-.8319-1.8598-1.8598-1.8598h-11.4696c-1.0281,0-1.8598,.8319-1.8598,1.8598s.8317,1.8598,1.8598,1.8598h11.4696c1.028,0,1.8598-.8319,1.8598-1.8598Z"/><path d="M476.3727,361.1539h53.6247c1.028,0,1.8598-.8319,1.8598-1.8598s-.8319-1.8598-1.8598-1.8598h-53.6247c-1.0281,0-1.8598,.8319-1.8598,1.8598s.8317,1.8598,1.8598,1.8598Z"/><path d="M531.8572,373.2428c0-1.0279-.8319-1.8598-1.8598-1.8598h-13.6382c-1.0281,0-1.8598,.8319-1.8598,1.8598s.8317,1.8598,1.8598,1.8598h13.6382c1.028,0,1.8598-.8319,1.8598-1.8598Z"/><path d="M476.3727,375.1027h28.8275c1.028,0,1.8598-.8319,1.8598-1.8598s-.8319-1.8598-1.8598-1.8598h-28.8275c-1.0281,0-1.8598,.8319-1.8598,1.8598s.8317,1.8598,1.8598,1.8598Z"/><path d="M537.7473,389.0514h-14.5683c-1.0279,0-1.8598,.8319-1.8598,1.8598s.8319,1.8598,1.8598,1.8598h14.5683c1.028,0,1.8598-.8319,1.8598-1.8598s-.8319-1.8598-1.8598-1.8598Z"/><path d="M490.7554,392.7711h24.2089c1.028,0,1.8598-.8319,1.8598-1.8598s-.8319-1.8598-1.8598-1.8598h-24.2089c-1.0281,0-1.8598,.8319-1.8598,1.8598s.8317,1.8598,1.8598,1.8598Z"/><path d="M537.7473,407.6498h-36.7318c-1.0281,0-1.8598,.8319-1.8598,1.8598s.8317,1.8598,1.8598,1.8598h36.7318c1.028,0,1.8598-.8319,1.8598-1.8598s-.8319-1.8598-1.8598-1.8598Z"/><path d="M476.3727,411.3695h16.2736c1.028,0,1.8598-.8319,1.8598-1.8598s-.8319-1.8598-1.8598-1.8598h-16.2736c-1.0281,0-1.8598,.8319-1.8598,1.8598s.8317,1.8598,1.8598,1.8598Z"/><path d="M476.3727,429.5029h33.0121c1.028,0,1.8598-.8319,1.8598-1.8598s-.8319-1.8598-1.8598-1.8598h-33.0121c-1.0281,0-1.8598,.8319-1.8598,1.8598s.8317,1.8598,1.8598,1.8598Z"/><path d="M537.7473,425.7832h-19.5266c-1.0279,0-1.8598,.8319-1.8598,1.8598s.8319,1.8598,1.8598,1.8598h19.5266c1.028,0,1.8598-.8319,1.8598-1.8598s-.8319-1.8598-1.8598-1.8598Z"/><path d="M348.6633,475.6579h-14.5681c-1.0281,0-1.8598,.8319-1.8598,1.8598s.8317,1.8598,1.8598,1.8598h14.5681c1.028,0,1.8598-.8319,1.8598-1.8598s-.8319-1.8598-1.8598-1.8598Z"/><path d="M242.6526,475.6579c-1.0281,0-1.8598,.8319-1.8598,1.8598s.8317,1.8598,1.8598,1.8598h80.2836c1.028,0,1.8598-.8319,1.8598-1.8598s-.8319-1.8598-1.8598-1.8598h-80.2836Z"/><path d="M300.8575,460.7792h-58.2049c-1.0281,0-1.8598,.8319-1.8598,1.8598s.8317,1.8598,1.8598,1.8598h58.2049c1.028,0,1.8598-.8319,1.8598-1.8598s-.8319-1.8598-1.8598-1.8598Z"/><path d="M348.6633,445.9005h-71.2931c-1.0281,0-1.8598,.8319-1.8598,1.8598s.8317,1.8598,1.8598,1.8598h71.2931c1.028,0,1.8598-.8319,1.8598-1.8598s-.8319-1.8598-1.8598-1.8598Z"/><path d="M348.6633,431.0218h-106.0107c-1.0281,0-1.8598,.8319-1.8598,1.8598s.8317,1.8598,1.8598,1.8598h106.0107c1.028,0,1.8598-.8319,1.8598-1.8598s-.8319-1.8598-1.8598-1.8598Z"/><path d="M348.6633,416.1431h-21.697c-1.0279,0-1.8598,.8319-1.8598,1.8598s.8319,1.8598,1.8598,1.8598h21.697c1.028,0,1.8598-.8319,1.8598-1.8598s-.8319-1.8598-1.8598-1.8598Z"/><path d="M242.6526,419.8628h71.2948c1.0281,0,1.8598-.8319,1.8598-1.8598s-.8317-1.8598-1.8598-1.8598h-71.2948c-1.0281,0-1.8598,.8319-1.8598,1.8598s.8317,1.8598,1.8598,1.8598Z"/><path d="M242.6526,404.9841h25.4184c1.028,0,1.8598-.8319,1.8598-1.8598s-.8319-1.8598-1.8598-1.8598h-25.4184c-1.0281,0-1.8598,.8319-1.8598,1.8598s.8317,1.8598,1.8598,1.8598Z"/><path d="M348.6633,386.3857h-106.0107c-1.0281,0-1.8598,.8319-1.8598,1.8598s.8317,1.8598,1.8598,1.8598h106.0107c1.028,0,1.8598-.8319,1.8598-1.8598s-.8319-1.8598-1.8598-1.8598Z"/><path d="M348.6633,371.507h-106.0107c-1.0281,0-1.8598,.8319-1.8598,1.8598s.8317,1.8598,1.8598,1.8598h106.0107c1.028,0,1.8598-.8319,1.8598-1.8598s-.8319-1.8598-1.8598-1.8598Z"/><path d="M242.6526,360.348h21.6987c1.028,0,1.8598-.8319,1.8598-1.8598s-.8319-1.8598-1.8598-1.8598h-21.6987c-1.0281,0-1.8598,.8319-1.8598,1.8598s.8317,1.8598,1.8598,1.8598Z"/><path d="M348.6633,341.7497h-99.0063c-1.0281,0-1.8598,.8319-1.8598,1.8598s.8317,1.8598,1.8598,1.8598h99.0063c1.028,0,1.8598-.8319,1.8598-1.8598s-.8319-1.8598-1.8598-1.8598Z"/><path d="M348.6633,326.871h-22.318c-1.0281,0-1.8598,.8319-1.8598,1.8598s.8317,1.8598,1.8598,1.8598h22.318c1.028,0,1.8598-.8319,1.8598-1.8598s-.8319-1.8598-1.8598-1.8598Z"/><path d="M242.6526,330.5906h68.1946c1.028,0,1.8598-.8319,1.8598-1.8598s-.8319-1.8598-1.8598-1.8598h-68.1946c-1.0281,0-1.8598,.8319-1.8598,1.8598s.8317,1.8598,1.8598,1.8598Z"/><path d="M300.9007,311.9923h-58.2481c-1.0281,0-1.8598,.8319-1.8598,1.8598s.8317,1.8598,1.8598,1.8598h58.2481c1.028,0,1.8598-.8319,1.8598-1.8598s-.8319-1.8598-1.8598-1.8598Z"/><path d="M348.6633,297.1136h-18.5984c-1.0281,0-1.8598,.8319-1.8598,1.8598s.8317,1.8598,1.8598,1.8598h18.5984c1.028,0,1.8598-.8319,1.8598-1.8598s-.8319-1.8598-1.8598-1.8598Z"/><path d="M319.5269,300.8333c1.0281,0,1.8598-.8319,1.8598-1.8598s-.8317-1.8598-1.8598-1.8598h-38.4371c-1.0281,0-1.8598,.8319-1.8598,1.8598s.8317,1.8598,1.8598,1.8598h38.4371Z"/><path d="M242.6526,300.8333h24.1779c1.028,0,1.8598-.8319,1.8598-1.8598s-.8319-1.8598-1.8598-1.8598h-24.1779c-1.0281,0-1.8598,.8319-1.8598,1.8598s.8317,1.8598,1.8598,1.8598Z"/><path d="M348.6633,282.2349h-106.0107c-1.0281,0-1.8598,.8319-1.8598,1.8598s.8317,1.8598,1.8598,1.8598h106.0107c1.028,0,1.8598-.8319,1.8598-1.8598s-.8319-1.8598-1.8598-1.8598Z"/><path d="M348.6633,267.3562h-31.6172c-1.0281,0-1.8598,.8319-1.8598,1.8598s.8317,1.8598,1.8598,1.8598h31.6172c1.028,0,1.8598-.8319,1.8598-1.8598s-.8319-1.8598-1.8598-1.8598Z"/><path d="M304.0272,271.0759c1.028,0,1.8598-.8319,1.8598-1.8598s-.8319-1.8598-1.8598-1.8598h-40.9164c-1.0281,0-1.8598,.8319-1.8598,1.8598s.8317,1.8598,1.8598,1.8598h40.9164Z"/><path d="M242.6526,271.0759h10.2291c1.028,0,1.8598-.8319,1.8598-1.8598s-.8319-1.8598-1.8598-1.8598h-10.2291c-1.0281,0-1.8598,.8319-1.8598,1.8598s.8317,1.8598,1.8598,1.8598Z"/><path d="M321.1441,252.4775h-78.4915c-1.0281,0-1.8598,.8319-1.8598,1.8598s.8317,1.8598,1.8598,1.8598h78.4915c1.028,0,1.8598-.8319,1.8598-1.8598s-.8319-1.8598-1.8598-1.8598Z"/><path d="M242.6526,241.3185h34.7176c1.028,0,1.8598-.8319,1.8598-1.8598s-.8319-1.8598-1.8598-1.8598h-34.7176c-1.0281,0-1.8598,.8319-1.8598,1.8598s.8317,1.8598,1.8598,1.8598Z"/><path d="M348.6633,222.7201h-17.9774c-1.0279,0-1.8598,.8319-1.8598,1.8598s.8319,1.8598,1.8598,1.8598h17.9774c1.028,0,1.8598-.8319,1.8598-1.8598s-.8319-1.8598-1.8598-1.8598Z"/><path d="M242.6526,226.4398h71.9143c1.028,0,1.8598-.8319,1.8598-1.8598s-.8319-1.8598-1.8598-1.8598h-71.9143c-1.0281,0-1.8598,.8319-1.8598,1.8598s.8317,1.8598,1.8598,1.8598Z"/><path d="M268.071,209.7013c0,1.0279,.8317,1.8598,1.8598,1.8598h78.7325c1.028,0,1.8598-.8319,1.8598-1.8598s-.8319-1.8598-1.8598-1.8598h-78.7325c-1.0281,0-1.8598,.8319-1.8598,1.8598Z"/><path d="M242.6526,211.5611h14.8787c1.028,0,1.8598-.8319,1.8598-1.8598s-.8319-1.8598-1.8598-1.8598h-14.8787c-1.0281,0-1.8598,.8319-1.8598,1.8598s.8317,1.8598,1.8598,1.8598Z"/><path d="M348.6633,196.6824c1.028,0,1.8598-.8319,1.8598-1.8598s-.8319-1.8598-1.8598-1.8598h-17.9774c-1.0279,0-1.8598,.8319-1.8598,1.8598s.8319,1.8598,1.8598,1.8598h17.9774Z"/><path d="M316.4267,192.9627h-73.7741c-1.0281,0-1.8598,.8319-1.8598,1.8598s.8317,1.8598,1.8598,1.8598h73.7741c1.028,0,1.8598-.8319,1.8598-1.8598s-.8319-1.8598-1.8598-1.8598Z"/><path d="M190.5772,327.799c0,1.0281,.8317,1.8598,1.8598,1.8598s1.8598-.8317,1.8598-1.8598v-78.1113c0-1.0279-.8319-1.8598-1.8598-1.8598s-1.8598,.8319-1.8598,1.8598v78.1113Z"/><path d="M190.5772,228.7646c0,1.0279,.8317,1.8598,1.8598,1.8598s1.8598-.8319,1.8598-1.8598v-21.3881c0-1.0279-.8319-1.8598-1.8598-1.8598s-1.8598,.8319-1.8598,1.8598v21.3881Z"/><path d="M192.437,193.8908c1.028,0,1.8598-.8317,1.8598-1.8598v-42.7753c0-1.027-.8319-1.8598-1.8598-1.8598s-1.8598,.8328-1.8598,1.8598v42.7753c0,1.0281,.8317,1.8598,1.8598,1.8598Z"/><path d="M170.119,470.0784c0,1.0279,.8317,1.8598,1.8598,1.8598s1.8598-.8319,1.8598-1.8598v-84.6226c0-1.0279-.8319-1.8598-1.8598-1.8598s-1.8598,.8319-1.8598,1.8598v84.6226Z"/><path d="M171.9788,364.0677c1.028,0,1.8598-.8319,1.8598-1.8598V122.288c0-1.027-.8319-1.8598-1.8598-1.8598s-1.8598,.8328-1.8598,1.8598v239.9198c0,1.0279,.8317,1.8598,1.8598,1.8598Z"/><path d="M129.2026,438.9988v14.341c0,1.0279,.8317,1.8598,1.8598,1.8598s1.8598-.8319,1.8598-1.8598v-14.341c0-1.0281-.8319-1.8598-1.8598-1.8598s-1.8598,.8317-1.8598,1.8598Z"/><path d="M129.2026,368.7173c0,1.0279,.8317,1.8598,1.8598,1.8598s1.8598-.8319,1.8598-1.8598v-95.3166c0-1.0279-.8319-1.8598-1.8598-1.8598s-1.8598,.8319-1.8598,1.8598v95.3166Z"/><path d="M131.0624,260.3818c1.028,0,1.8598-.8319,1.8598-1.8598v-110.6612c0-1.027-.8319-1.8598-1.8598-1.8598s-1.8598,.8328-1.8598,1.8598v110.6612c0,1.0279,.8317,1.8598,1.8598,1.8598Z"/><path d="M447.2346,342.2449c0,1.0279,.8317,1.8598,1.8598,1.8598s1.8598-.8319,1.8598-1.8598v-59.5148c0-1.0279-.8319-1.8598-1.8598-1.8598s-1.8598,.8319-1.8598,1.8598v59.5148Z"/><path d="M449.0945,267.8515c1.028,0,1.8598-.8319,1.8598-1.8598v-16.7385c0-1.0279-.8319-1.8598-1.8598-1.8598s-1.8598,.8319-1.8598,1.8598v16.7385c0,1.0279,.8317,1.8598,1.8598,1.8598Z"/><path d="M417.4772,347.2051c0,1.0279,.8317,1.8598,1.8598,1.8598s1.8598-.8319,1.8598-1.8598v-62.6151c0-1.0279-.8319-1.8598-1.8598-1.8598s-1.8598,.8319-1.8598,1.8598v62.6151Z"/><path d="M419.3371,275.912c1.028,0,1.8598-.8319,1.8598-1.8598v-24.7991c0-1.0279-.8319-1.8598-1.8598-1.8598s-1.8598,.8319-1.8598,1.8598v24.7991c0,1.0279,.8317,1.8598,1.8598,1.8598Z"/><path d="M402.5985,375.4114c0,1.0279,.8317,1.8598,1.8598,1.8598s1.8598-.8319,1.8598-1.8598v-79.6642c0-1.0279-.8319-1.8598-1.8598-1.8598s-1.8598,.8319-1.8598,1.8598v79.6642Z"/><path d="M387.7199,405.4794c0,1.0279,.8317,1.8598,1.8598,1.8598s1.8598-.8319,1.8598-1.8598v-76.2552c0-1.0279-.8319-1.8598-1.8598-1.8598s-1.8598,.8319-1.8598,1.8598v76.2552Z"/><path d="M389.5797,320.5462c1.028,0,1.8598-.8319,1.8598-1.8598v-32.8559c0-1.0279-.8319-1.8598-1.8598-1.8598s-1.8598,.8319-1.8598,1.8598v32.8559c0,1.0279,.8317,1.8598,1.8598,1.8598Z"/><path d="M376.5608,285.8305c0-1.0279-.8319-1.8598-1.8598-1.8598s-1.8598,.8319-1.8598,1.8598v65.0943c0,1.0279,.8317,1.8598,1.8598,1.8598s1.8598-.8319,1.8598-1.8598v-65.0943Z"/></g><circle cx="-1.1551" cy="319.3987" r="3.8449"/><circle cx="38.3034" cy="234.4735" r="3.8449"/><circle cx="151.5207" cy="485.1551" r="3.8449"/><circle cx="192.437" cy="246.7208" r="3.8449"/><circle cx="258.8909" cy="171.388" r="3.8449"/><circle cx="349.0691" cy="283.9707" r="3.8449"/><circle cx="384.9503" cy="244.2946" r="3.8449"/><circle cx="404.7331" cy="375.4709" r="3.8449"/><circle cx="349.6888" cy="418.003" r="3.8449"/><circle cx="276.7499" cy="447.7603" r="3.8449"/><circle cx="476.5559" cy="409.5096" r="3.8449"/><circle cx="508.6092" cy="346.2752" r="3.8449"/><circle cx="449.0945" cy="280.1257" r="3.8449"/><circle cx="249.657" cy="343.6095" r="3.8449"/></g></svg>