<?xml version="1.0" encoding="UTF-8"?><svg id="a" xmlns="http://www.w3.org/2000/svg" width="19.8261cm" height="17.2508cm" viewBox="0 0 562 489"><defs><style>.b{opacity:.1;}.c{fill:#2a2c3d;}</style></defs><g class="b"><g><path class="c" d="M127.0631,327.9579c-.8045,.0803-1.3868,.8166-1.3868,1.6252v155.5034c0,.8538,.6921,1.5459,1.5458,1.5459h.0005c.8538,0,1.5458-.6921,1.5458-1.5459v-155.5905c0-.9071-.7796-1.6305-1.7053-1.538h0Z"/><path class="c" d="M66.5733,250.1308c.8047-.0796,1.3875-.8155,1.3875-1.6242v-80.3791l21.6436-10.8217v212.0419c0,.8088,.5829,1.5449,1.3877,1.6246,.9258,.0918,1.7044-.6314,1.7044-1.5382V156.3502h15.9745v16.5309c0,.8375,.6275,1.5877,1.4638,1.631,.8915,.0461,1.6278-.6627,1.6278-1.5437v-16.6183h13.9139v146.264c0,.8085,.5822,1.5449,1.3868,1.6252,.9257,.0924,1.7053-.631,1.7053-1.538V156.3502h11.4555l2.4579,1.3541v12.4727c0,.8376,.6279,1.5877,1.4644,1.6306,.8917,.0457,1.6276-.663,1.6276-1.5439v-10.8555l13.9134,7.6667v27.0644c0,.8376,.6279,1.5877,1.4645,1.6306,.8917,.0457,1.6276-.663,1.6276-1.5437v-25.4475l26.7976,14.766v51.4851l-18.1469,8.0269c-.5599,.246-.921,.8016-.921,1.4132v200.5013c0,.8088,.5829,1.5449,1.3877,1.6247,.9258,.0918,1.7044-.6314,1.7044-1.5377V245.4768l15.9758-7.0667v246.6764c0,.8538,.6921,1.5459,1.5458,1.5459h0c.8538,0,1.5458-.6921,1.5458-1.5459V237.0426l24.0469-10.6366c.7808-.3457,1.1341-1.2582,.7882-2.0389-.3455-.7822-1.2606-1.1352-2.0382-.7888l-22.7969,10.0838v-51.0306c0-.5632-.3061-1.0825-.8001-1.3542l-49.7013-27.3862v-30.006c0-.4921-.2342-.954-.6301-1.2454-.3954-.2912-.9073-.3766-1.3765-.2303l-11.3923,3.5602v-19.5186c0-.8376-.6279-1.5879-1.4645-1.6308-.8917-.0457-1.6275,.6633-1.6275,1.5439v20.5718l-34.9865,10.9331c-.6461,.2017-1.0855,.7994-1.0855,1.4757v10.7348c0,.8376,.6279,1.5877,1.4645,1.6306,.8917,.0457,1.6276-.663,1.6276-1.5437v-9.685l46.3788-14.4935v27.2703h-47.9248c-.2342,0-.4499,.0603-.6489,.153-.0133,.0062-.0293,.0034-.0426,.0101l-24.7352,12.3678c-.5242,.2617-.8546,.7968-.8546,1.3827v81.4211c0,.9065,.7784,1.6296,1.7041,1.538h0Z"/><path class="c" d="M161.0749,369.3138c-.8049,.0798-1.3877,.8159-1.3877,1.6246v114.148c0,.8538,.6921,1.5459,1.5458,1.5459h.0005c.8538,0,1.5458-.6921,1.5458-1.5459v-114.2345c0-.9068-.7785-1.6299-1.7044-1.5382h-.0002Z"/><path class="c" d="M507.9574,460.801h-48.3541v-133.469c0-.6898-.4573-1.2967-1.1217-1.4869l-16.9028-4.8152c.0738-.1808,.1178-.3774,.1178-.5852v-5.7916c0-.8281-.6586-1.509-1.4863-1.5299-.0103-.0003-.0206-.0005-.0309-.0007-.8621-.0217-1.5743,.6674-1.5743,1.5298v5.5304l-24.4396-6.962c-.1393-.0391-.2809-.0589-.4243-.0589h-25.2515v-44.5761c0-.8538-.6922-1.546-1.546-1.546h-53.6649c-.5041,0-.9769,.2463-1.2651,.6583l-11.8331,16.8636c-.4657,.6637-.4092,1.6035,.2071,2.1305,.7066,.6041,1.7537,.4544,2.2733-.2839l11.4211-16.2765h51.3156v118.3093c0,.8088,.5829,1.5449,1.3877,1.6246,.9258,.0918,1.7044-.6314,1.7044-1.5382v-72.2737h25.0358l42.9865,12.2455v14.2926h-14.6001c-.8087,0-1.545,.5826-1.6249,1.3874-.0919,.9258,.6312,1.7045,1.5381,1.7045h14.6869v114.9175h-3.9487c-.8538,0-1.5458,.6921-1.5458,1.5459h0c0,.8538,.6921,1.5459,1.5458,1.5459h55.4815c.907,0,1.6302-.7789,1.5381-1.7045-.0801-.8047-.8164-1.3872-1.6251-1.3872l-.0003-.0003Z"/><path class="c" d="M66.4151,375.8763c.8545,0,1.5459-.6915,1.5459-1.5459v-113.3714c0-.8544-.6915-1.5459-1.5459-1.5459s-1.5459,.6915-1.5459,1.5459v14.9448h-31.4342c-.8544,0-1.5459,.6915-1.5459,1.5459s.6915,1.5459,1.5459,1.5459h31.4341v13.3988H25.8337c-.8546,0-1.5459,.6915-1.5459,1.5459s.6913,1.5459,1.5459,1.5459h39.0355v7.7298h-18.5515c-.8546,0-1.5459,.6915-1.5459,1.5459s.6913,1.5459,1.5459,1.5459h18.5515v7.7298H19.9676c-.8544,0-1.5459,.6915-1.5459,1.5459s.6915,1.5459,1.5459,1.5459h44.9015v7.7298H25.0606c-.8546,0-1.5459,.6915-1.5459,1.5459s.6913,1.5459,1.5459,1.5459h39.8084v7.7298h-12.2252c-.8544,0-1.5459,.6915-1.5459,1.5459s.6915,1.5459,1.5459,1.5459h12.2252v7.7298H2.5158c-.8544,0-1.5459,.6915-1.5459,1.5459s.6915,1.5459,1.5459,1.5459h62.3533v7.7298h-15.0731c-.8546,0-1.5459,.6915-1.5459,1.5459s.6913,1.5459,1.5459,1.5459h15.0731v7.7298h-10.74c-.8544,0-1.5459,.6915-1.5459,1.5459s.6915,1.5459,1.5459,1.5459h10.74v3.0919c0,.8544,.6913,1.5459,1.5459,1.5459v.0005Z"/><path class="c" d="M397.2503,330.9404h25.2501c.8545,0,1.5459-.6915,1.5459-1.5459s-.6915-1.5459-1.5459-1.5459h-25.2501c-.8546,0-1.5459,.6915-1.5459,1.5459s.6913,1.5459,1.5459,1.5459Z"/><path class="c" d="M397.2503,345.8837h25.2501c.8545,0,1.5459-.6915,1.5459-1.5459s-.6915-1.5459-1.5459-1.5459h-25.2501c-.8546,0-1.5459,.6915-1.5459,1.5459s.6913,1.5459,1.5459,1.5459Z"/><path class="c" d="M419.1517,357.2217c0,.8544,.6915,1.5459,1.5459,1.5459h12.8826c.8545,0,1.5459-.6915,1.5459-1.5459s-.6915-1.5459-1.5459-1.5459h-12.8826c-.8544,0-1.5459,.6915-1.5459,1.5459Z"/><path class="c" d="M451.3588,355.6758h-12.8827c-.8544,0-1.5459,.6915-1.5459,1.5459s.6915,1.5459,1.5459,1.5459h12.8827c.8545,0,1.5459-.6915,1.5459-1.5459s-.6915-1.5459-1.5459-1.5459Z"/><path class="c" d="M397.2503,371.9083h25.2501c.8545,0,1.5459-.6915,1.5459-1.5459s-.6915-1.5459-1.5459-1.5459h-25.2501c-.8546,0-1.5459,.6915-1.5459,1.5459s.6913,1.5459,1.5459,1.5459Z"/><path class="c" d="M452.9048,370.3623c0-.8544-.6915-1.5459-1.5459-1.5459h-9.5339c-.8546,0-1.5459,.6915-1.5459,1.5459s.6914,1.5459,1.5459,1.5459h9.5339c.8545,0,1.5459-.6915,1.5459-1.5459Z"/><path class="c" d="M397.2503,382.73h44.5747c.8545,0,1.5459-.6915,1.5459-1.5459s-.6915-1.5459-1.5459-1.5459h-44.5747c-.8546,0-1.5459,.6915-1.5459,1.5459s.6913,1.5459,1.5459,1.5459h0Z"/><path class="c" d="M443.3708,392.7787c0-.8544-.6915-1.5459-1.5459-1.5459h-11.3365c-.8546,0-1.5459,.6915-1.5459,1.5459s.6914,1.5459,1.5459,1.5459h11.3365c.8545,0,1.5459-.6915,1.5459-1.5459Z"/><path class="c" d="M397.2503,394.3247h23.9624c.8545,0,1.5459-.6915,1.5459-1.5459s-.6915-1.5459-1.5459-1.5459h-23.9624c-.8546,0-1.5459,.6915-1.5459,1.5459s.6913,1.5459,1.5459,1.5459h0Z"/><path class="c" d="M448.2669,405.9193h-12.1097c-.8544,0-1.5459,.6915-1.5459,1.5459s.6915,1.5459,1.5459,1.5459h12.1097c.8545,0,1.5459-.6915,1.5459-1.5459s-.6915-1.5459-1.5459-1.5459Z"/><path class="c" d="M409.2057,409.0113h20.1232c.8545,0,1.5459-.6915,1.5459-1.5459s-.6915-1.5459-1.5459-1.5459h-20.1232c-.8546,0-1.5459,.6915-1.5459,1.5459s.6913,1.5459,1.5459,1.5459Z"/><path class="c" d="M448.2669,421.379h-30.5327c-.8546,0-1.5459,.6915-1.5459,1.5459s.6913,1.5459,1.5459,1.5459h30.5327c.8545,0,1.5459-.6915,1.5459-1.5459s-.6915-1.5459-1.5459-1.5459Z"/><path class="c" d="M397.2503,424.4709h13.5272c.8545,0,1.5459-.6915,1.5459-1.5459s-.6915-1.5459-1.5459-1.5459h-13.5272c-.8546,0-1.5459,.6915-1.5459,1.5459s.6913,1.5459,1.5459,1.5459Z"/><path class="c" d="M397.2503,439.544h27.4408c.8545,0,1.5459-.6915,1.5459-1.5459s-.6915-1.5459-1.5459-1.5459h-27.4408c-.8546,0-1.5459,.6915-1.5459,1.5459s.6913,1.5459,1.5459,1.5459h0Z"/><path class="c" d="M448.2669,436.4521h-16.2312c-.8544,0-1.5459,.6915-1.5459,1.5459s.6915,1.5459,1.5459,1.5459h16.2312c.8545,0,1.5459-.6915,1.5459-1.5459s-.6915-1.5459-1.5459-1.5459Z"/><path class="c" d="M291.0939,477.9096h-12.1095c-.8546,0-1.5459,.6915-1.5459,1.5459s.6913,1.5459,1.5459,1.5459h12.1095c.8545,0,1.5459-.6915,1.5459-1.5459s-.6915-1.5459-1.5459-1.5459h0Z"/><path class="c" d="M202.9742,477.9096c-.8546,0-1.5459,.6915-1.5459,1.5459s.6913,1.5459,1.5459,1.5459h66.7345c.8545,0,1.5459-.6915,1.5459-1.5459s-.6915-1.5459-1.5459-1.5459h-66.7345Z"/><path class="c" d="M251.3561,465.5419h-48.3819c-.8546,0-1.5459,.6915-1.5459,1.5459s.6913,1.5459,1.5459,1.5459h48.3819c.8545,0,1.5459-.6915,1.5459-1.5459s-.6915-1.5459-1.5459-1.5459Z"/><path class="c" d="M291.0939,453.1743h-59.2612c-.8546,0-1.5459,.6915-1.5459,1.5459s.6913,1.5459,1.5459,1.5459h59.2612c.8545,0,1.5459-.6915,1.5459-1.5459s-.6915-1.5459-1.5459-1.5459Z"/><path class="c" d="M291.0939,440.8066h-88.1197c-.8546,0-1.5459,.6915-1.5459,1.5459s.6913,1.5459,1.5459,1.5459h88.1197c.8545,0,1.5459-.6915,1.5459-1.5459s-.6915-1.5459-1.5459-1.5459Z"/><path class="c" d="M291.0939,428.4389h-18.0353c-.8544,0-1.5459,.6915-1.5459,1.5459s.6915,1.5459,1.5459,1.5459h18.0353c.8545,0,1.5459-.6915,1.5459-1.5459s-.6915-1.5459-1.5459-1.5459Z"/><path class="c" d="M202.9742,431.5308h59.2626c.8546,0,1.5459-.6915,1.5459-1.5459s-.6913-1.5459-1.5459-1.5459h-59.2626c-.8546,0-1.5459,.6915-1.5459,1.5459s.6913,1.5459,1.5459,1.5459h0Z"/><path class="c" d="M202.9742,419.1631h21.1286c.8545,0,1.5459-.6915,1.5459-1.5459s-.6915-1.5459-1.5459-1.5459h-21.1286c-.8546,0-1.5459,.6915-1.5459,1.5459s.6913,1.5459,1.5459,1.5459h0Z"/><path class="c" d="M291.0939,403.7035h-88.1197c-.8546,0-1.5459,.6915-1.5459,1.5459s.6913,1.5459,1.5459,1.5459h88.1197c.8545,0,1.5459-.6915,1.5459-1.5459s-.6915-1.5459-1.5459-1.5459Z"/><path class="c" d="M291.0939,391.3358h-88.1197c-.8546,0-1.5459,.6915-1.5459,1.5459s.6913,1.5459,1.5459,1.5459h88.1197c.8545,0,1.5459-.6915,1.5459-1.5459s-.6915-1.5459-1.5459-1.5459Z"/><path class="c" d="M202.9742,382.0601h18.0367c.8545,0,1.5459-.6915,1.5459-1.5459s-.6915-1.5459-1.5459-1.5459h-18.0367c-.8546,0-1.5459,.6915-1.5459,1.5459s.6913,1.5459,1.5459,1.5459h0Z"/><path class="c" d="M291.0939,366.6006h-82.2974c-.8546,0-1.5459,.6915-1.5459,1.5459s.6913,1.5459,1.5459,1.5459h82.2974c.8545,0,1.5459-.6915,1.5459-1.5459s-.6915-1.5459-1.5459-1.5459Z"/><path class="c" d="M291.0939,354.2329h-18.5515c-.8546,0-1.5459,.6915-1.5459,1.5459s.6913,1.5459,1.5459,1.5459h18.5515c.8545,0,1.5459-.6915,1.5459-1.5459s-.6915-1.5459-1.5459-1.5459Z"/><path class="c" d="M202.9742,357.3248h56.6857c.8545,0,1.5459-.6915,1.5459-1.5459s-.6915-1.5459-1.5459-1.5459h-56.6857c-.8546,0-1.5459,.6915-1.5459,1.5459s.6913,1.5459,1.5459,1.5459h0Z"/><path class="c" d="M251.392,341.8652h-48.4178c-.8546,0-1.5459,.6915-1.5459,1.5459s.6913,1.5459,1.5459,1.5459h48.4178c.8545,0,1.5459-.6915,1.5459-1.5459s-.6915-1.5459-1.5459-1.5459Z"/><path class="c" d="M291.0939,329.4975h-15.4596c-.8546,0-1.5459,.6915-1.5459,1.5459s.6913,1.5459,1.5459,1.5459h15.4596c.8545,0,1.5459-.6915,1.5459-1.5459s-.6915-1.5459-1.5459-1.5459Z"/><path class="c" d="M266.8747,332.5895c.8546,0,1.5459-.6915,1.5459-1.5459s-.6913-1.5459-1.5459-1.5459h-31.9502c-.8546,0-1.5459,.6915-1.5459,1.5459s.6913,1.5459,1.5459,1.5459h31.9502Z"/><path class="c" d="M202.9742,332.5895h20.0975c.8545,0,1.5459-.6915,1.5459-1.5459s-.6915-1.5459-1.5459-1.5459h-20.0975c-.8546,0-1.5459,.6915-1.5459,1.5459s.6913,1.5459,1.5459,1.5459Z"/><path class="c" d="M291.0939,317.1299h-88.1197c-.8546,0-1.5459,.6915-1.5459,1.5459s.6913,1.5459,1.5459,1.5459h88.1197c.8545,0,1.5459-.6915,1.5459-1.5459s-.6915-1.5459-1.5459-1.5459Z"/><path class="c" d="M291.0939,304.7622h-26.2813c-.8546,0-1.5459,.6915-1.5459,1.5459s.6913,1.5459,1.5459,1.5459h26.2813c.8545,0,1.5459-.6915,1.5459-1.5459s-.6915-1.5459-1.5459-1.5459Z"/><path class="c" d="M253.9909,307.8541c.8545,0,1.5459-.6915,1.5459-1.5459s-.6915-1.5459-1.5459-1.5459h-34.0111c-.8546,0-1.5459,.6915-1.5459,1.5459s.6913,1.5459,1.5459,1.5459h34.0111Z"/><path class="c" d="M202.9742,307.8541h8.5028c.8545,0,1.5459-.6915,1.5459-1.5459s-.6915-1.5459-1.5459-1.5459h-8.5028c-.8546,0-1.5459,.6915-1.5459,1.5459s.6913,1.5459,1.5459,1.5459Z"/><path class="c" d="M268.219,292.3945h-65.2448c-.8546,0-1.5459,.6915-1.5459,1.5459s.6913,1.5459,1.5459,1.5459h65.2448c.8545,0,1.5459-.6915,1.5459-1.5459s-.6915-1.5459-1.5459-1.5459h0Z"/><path class="c" d="M202.9742,283.1188h28.8584c.8545,0,1.5459-.6915,1.5459-1.5459s-.6915-1.5459-1.5459-1.5459h-28.8584c-.8546,0-1.5459,.6915-1.5459,1.5459s.6913,1.5459,1.5459,1.5459Z"/><path class="c" d="M291.0939,267.6591h-14.9434c-.8544,0-1.5459,.6915-1.5459,1.5459s.6915,1.5459,1.5459,1.5459h14.9434c.8545,0,1.5459-.6915,1.5459-1.5459s-.6915-1.5459-1.5459-1.5459Z"/><path class="c" d="M202.9742,270.7511h59.7776c.8545,0,1.5459-.6915,1.5459-1.5459s-.6915-1.5459-1.5459-1.5459h-59.7776c-.8546,0-1.5459,.6915-1.5459,1.5459s.6913,1.5459,1.5459,1.5459h0Z"/><path class="c" d="M224.1029,256.8375c0,.8544,.6913,1.5459,1.5459,1.5459h65.4451c.8545,0,1.5459-.6915,1.5459-1.5459s-.6915-1.5459-1.5459-1.5459h-65.4451c-.8546,0-1.5459,.6915-1.5459,1.5459h0Z"/><path class="c" d="M202.9742,258.3834h12.3677c.8545,0,1.5459-.6915,1.5459-1.5459s-.6915-1.5459-1.5459-1.5459h-12.3677c-.8546,0-1.5459,.6915-1.5459,1.5459s.6913,1.5459,1.5459,1.5459h0Z"/><path class="c" d="M291.0939,246.0157c.8545,0,1.5459-.6915,1.5459-1.5459s-.6915-1.5459-1.5459-1.5459h-14.9434c-.8544,0-1.5459,.6915-1.5459,1.5459s.6915,1.5459,1.5459,1.5459h14.9434Z"/><path class="c" d="M264.2977,242.9238h-61.3235c-.8546,0-1.5459,.6915-1.5459,1.5459s.6913,1.5459,1.5459,1.5459h61.3235c.8545,0,1.5459-.6915,1.5459-1.5459s-.6915-1.5459-1.5459-1.5459Z"/><path class="c" d="M159.6874,355.0043c0,.8546,.6913,1.5459,1.5459,1.5459s1.5459-.6913,1.5459-1.5459v-64.9287c0-.8544-.6915-1.5459-1.5459-1.5459s-1.5459,.6915-1.5459,1.5459v64.9287Z"/><path class="c" d="M159.6874,272.6835c0,.8544,.6913,1.5459,1.5459,1.5459s1.5459-.6915,1.5459-1.5459v-17.7785c0-.8544-.6915-1.5459-1.5459-1.5459s-1.5459,.6915-1.5459,1.5459v17.7785h0Z"/><path class="c" d="M161.2333,243.6953c.8545,0,1.5459-.6913,1.5459-1.5459v-35.5563c0-.8537-.6915-1.5459-1.5459-1.5459s-1.5459,.6922-1.5459,1.5459v35.5563c0,.8546,.6913,1.5459,1.5459,1.5459Z"/><path class="c" d="M142.6819,473.2717c0,.8544,.6913,1.5459,1.5459,1.5459s1.5459-.6915,1.5459-1.5459v-70.3412c0-.8544-.6915-1.5459-1.5459-1.5459s-1.5459,.6915-1.5459,1.5459v70.3412Z"/><path class="c" d="M144.2278,385.152c.8545,0,1.5459-.6915,1.5459-1.5459V184.1766c0-.8537-.6915-1.5459-1.5459-1.5459s-1.5459,.6923-1.5459,1.5459v199.4294c0,.8544,.6913,1.5459,1.5459,1.5459h0Z"/><path class="c" d="M108.6708,447.4373v11.9207c0,.8544,.6913,1.5459,1.5459,1.5459s1.5459-.6915,1.5459-1.5459v-11.9207c0-.8546-.6915-1.5459-1.5459-1.5459s-1.5459,.6913-1.5459,1.5459Z"/><path class="c" d="M108.6708,389.0169c0,.8544,.6913,1.5459,1.5459,1.5459s1.5459-.6915,1.5459-1.5459v-79.2304c0-.8544-.6915-1.5459-1.5459-1.5459s-1.5459,.6915-1.5459,1.5459v79.2304Z"/><path class="c" d="M110.2167,298.9648c.8545,0,1.5459-.6915,1.5459-1.5459v-91.9853c0-.8537-.6915-1.5459-1.5459-1.5459s-1.5459,.6922-1.5459,1.5459v91.9853c0,.8544,.6913,1.5459,1.5459,1.5459Z"/><path class="c" d="M373.0297,367.0122c0,.8544,.6913,1.5459,1.5459,1.5459s1.5459-.6915,1.5459-1.5459v-49.4707c0-.8544-.6915-1.5459-1.5459-1.5459s-1.5459,.6915-1.5459,1.5459v49.4707Z"/><path class="c" d="M374.5757,305.1739c.8545,0,1.5459-.6915,1.5459-1.5459v-13.9136c0-.8544-.6915-1.5459-1.5459-1.5459s-1.5459,.6915-1.5459,1.5459v13.9136c0,.8544,.6913,1.5459,1.5459,1.5459Z"/><path class="c" d="M348.2943,371.1353c0,.8544,.6913,1.5459,1.5459,1.5459s1.5459-.6915,1.5459-1.5459v-52.0478c0-.8544-.6915-1.5459-1.5459-1.5459s-1.5459,.6915-1.5459,1.5459v52.0478Z"/><path class="c" d="M349.8403,311.874c.8545,0,1.5459-.6915,1.5459-1.5459v-20.6139c0-.8544-.6915-1.5459-1.5459-1.5459s-1.5459,.6915-1.5459,1.5459v20.6139c0,.8544,.6913,1.5459,1.5459,1.5459Z"/><path class="c" d="M335.9267,394.5813c0,.8544,.6913,1.5459,1.5459,1.5459s1.5459-.6915,1.5459-1.5459v-66.2196c0-.8544-.6915-1.5459-1.5459-1.5459s-1.5459,.6915-1.5459,1.5459v66.2196h0Z"/><path class="c" d="M323.5591,419.5749c0,.8544,.6913,1.5459,1.5459,1.5459s1.5459-.6915,1.5459-1.5459v-63.3859c0-.8544-.6915-1.5459-1.5459-1.5459s-1.5459,.6915-1.5459,1.5459v63.3859h0Z"/><path class="c" d="M325.105,348.9755c.8545,0,1.5459-.6915,1.5459-1.5459v-27.3109c0-.8544-.6915-1.5459-1.5459-1.5459s-1.5459,.6915-1.5459,1.5459v27.3109c0,.8544,.6913,1.5459,1.5459,1.5459Z"/><path class="c" d="M314.2832,320.1187c0-.8544-.6915-1.5459-1.5459-1.5459s-1.5459,.6915-1.5459,1.5459v54.1086c0,.8544,.6913,1.5459,1.5459,1.5459s1.5459-.6915,1.5459-1.5459v-54.1086Z"/></g><circle class="c" cx=".313" cy="348.0217" r="3.196" transform="translate(-347.708 347.2801) rotate(-89.8264)"/><circle class="c" cx="33.1123" cy="277.429" r="3.196"/><circle class="c" cx="127.2223" cy="485.804" r="3.196"/><circle class="c" cx="161.2333" cy="287.6093" r="3.196"/><circle class="c" cx="216.4721" cy="224.9902" r="3.196" transform="translate(-40.2879 402.6276) rotate(-80.7825)"/><circle class="c" cx="291.4312" cy="318.5727" r="3.196"/><circle class="c" cx="321.2569" cy="285.5926" r="3.196"/><circle class="c" cx="337.701" cy="394.6308" r="3.196"/><circle class="c" cx="291.9463" cy="429.9849" r="3.196"/><circle class="c" cx="231.3171" cy="454.7202" r="3.196"/><circle class="c" cx="397.4026" cy="422.9249" r="3.196"/><circle class="c" cx="424.0463" cy="370.3623" r="3.196"/><circle class="c" cx="374.5757" cy="315.3766" r="3.196"/><circle class="c" cx="208.7965" cy="368.1465" r="3.196"/></g></svg>