<?xml version="1.0" encoding="UTF-8"?><svg id="a" xmlns="http://www.w3.org/2000/svg" width="25.3932cm" height="28.7101cm" viewBox="0 0 719.808 813.831"><defs><style>.b{opacity:.06;}.c{fill:#fff;}</style></defs><g class="b"><path class="c" d="M656.8357,431.5958c-18.7444-6.4482-39.9908-13.7568-59.2556-34.5425-9.8974-10.6793-19.0015-22.9895-28.2929-38.2637,1.0416-1.4995,1.6609-3.3143,1.6609-5.2787,0-5.1214-4.1514-9.2728-9.2728-9.2728s-9.2728,4.1514-9.2728,9.2728c0,4.8188,3.6893,8.7328,8.3902,9.184,9.8162,16.2491,19.4494,29.3036,29.9812,40.6671,20.8497,22.4956,43.265,30.2065,63.0422,37.01,32.4637,11.1672,55.9188,19.2352,52.1473,90.9689-1.9807,37.6726-24.4931,62.8915-68.8244,77.0976-39.6525,12.7064-90.6504,14.8974-135.646,16.83-15.1823,.652-29.5236,1.2682-42.8418,2.2431-46.9234,3.4327-62.2232,31.8705-75.7207,56.9604-14.404,26.7676-25.7741,47.9151-72.6154,34.5319-38.4845-10.9958-69.4888-38.2716-94.7859-83.3857-22.3711-39.8959-37.4023-88.5877-50.6648-131.5481-2.0496-6.6421-4.0719-13.1892-6.0862-19.601-29.975-95.4136-113.4004-185.7251-132.4435-202.9672-7.187-6.5078-11.4073-14.2061-12.5408-22.879-2.1716-16.5936,6.7258-37.5856,25.7309-60.7076,20.3841-24.8006,51.8443-51.1901,86.3143-72.402,33.0645-20.3466,64.8029-33.2725,84.899-34.5752,26.1673-1.6907,51.2417,7.6331,76.7199,28.5138,21.6369,17.7329,38.6983,39.9641,51.1552,56.1971,3.3103,4.3144,6.1701,8.0402,8.779,11.2513,20.5158,25.2538,31.8868,28.2213,56.7996,34.725,12.0787,3.1531,28.3433,7.3988,51.1189,15.7128,.3322,4.8197,4.3051,8.6385,9.2092,8.6385,5.1206,0,9.2728-4.1518,9.2728-9.273s-4.1523-9.273-9.2728-9.273c-1.8835,0-3.631,.5696-5.094,1.5344-23.6618-8.6851-40.4644-13.0766-52.8912-16.32-24.2625-6.334-33.3392-8.7034-51.9397-31.5975-2.5276-3.1107-5.3503-6.7894-8.6182-11.049-24.8156-32.3356-70.9933-92.5317-135.8377-88.3224-46.4251,3.01-134.4869,57.6672-177.7846,110.3454-20.9716,25.5149-30.3116,48.3281-27.7646,67.8053,1.4286,10.9196,6.6481,20.5268,15.5154,28.5555,18.6729,16.9066,100.4639,105.4331,129.8196,198.8688,2.0099,6.3974,4.0251,12.9301,6.0712,19.557,13.3986,43.4014,28.5844,92.594,51.437,133.3495,26.5551,47.3583,59.374,76.0679,100.3314,87.7707,10.7588,3.0731,19.9654,4.4363,27.9254,4.4363,32.0114-.0004,43.8692-22.0402,55.4134-43.4951,12.971-24.1095,26.3846-49.0401,68.2245-52.1013,13.1804-.965,27.4527-1.5776,42.5644-2.2268,45.5779-1.9578,97.2384-4.1766,138.0782-17.2642,48.4367-15.5216,73.0553-43.4723,75.2622-85.449,4.1381-78.7214-24.8412-88.69-58.3969-100.2324Z"/><path class="c" d="M393.5346,239.1286c-21.098-6.5659-28.9935-9.023-45.0398-29.0054-1.7422-2.168-3.6425-4.6037-5.7019-7.242-22.3057-28.5743-63.7993-81.7601-121.7942-76.7906-51.0006,4.3729-162.5263,81.1516-172.8336,139.334-.4479,2.5241,1.236,4.9322,3.7591,5.3792,2.5355,.455,4.9324-1.2368,5.3794-3.7598,9.5202-53.7393,117.1154-127.6441,164.4884-131.706,52.9406-4.5306,92.4597,46.066,113.684,73.2545,2.0885,2.6747,4.0162,5.1442,5.7814,7.3425,17.8212,22.1908,27.7549,25.2823,49.5199,32.0556,11.3295,3.5259,25.4305,7.9141,46.0046,16.489,35.7228,14.8908,52.0254,45.4065,69.2865,77.714,11.69,21.8809,23.7784,44.5073,42.6112,64.7466,17.7338,19.0479,36.5869,26.0001,53.2216,32.1333,28.4714,10.4991,47.2803,17.4347,43.4602,79.1152-4.4898,72.5082-101.3261,76.6185-179.1354,79.9209-11.6714,.4947-22.697,.963-33.0663,1.6404-40.0103,2.6153-53.5811,26.0334-65.5547,46.6957-12.9304,22.3127-22.3295,38.4711-60.6683,27.2774-.5504-4.5949-4.4173-8.1703-9.1615-8.1703-5.1214,0-9.2728,4.1516-9.2728,9.2728s4.1514,9.2728,9.2728,9.2728c2.0373,0,3.9049-.6763,5.4342-1.7897,.0044,.0011,.008,.0033,.0115,.0046,9.7914,2.9463,18.1048,4.2411,25.2511,4.2411,26.6161-.0004,37.0259-17.9628,47.1637-35.4556,11.3366-19.5641,23.061-39.7954,58.1283-42.0869,10.265-.6705,21.2385-1.1366,32.856-1.6295,39.8053-1.6896,84.9202-3.6045,120.8984-14.8479,42.9124-13.411,64.8639-37.5421,67.1078-73.7718,4.2468-68.574-20.6669-77.7604-49.5146-88.3971-15.6611-5.7752-33.4117-12.3203-49.6383-29.7491-18.0094-19.3545-29.8089-41.4391-41.218-62.7968-18.0633-33.8088-35.1238-65.7429-73.9034-81.9074-20.9734-8.7419-35.9101-13.3904-46.8174-16.7838Z"/><path class="c" d="M553.3981,429.0875c-12.584-5.0806-26.8502-10.8392-40.0332-24.9099-15.2141-16.257-25.3395-34.9918-35.1318-53.1094-15.1938-28.1118-29.5448-54.6649-60.6833-69.5749-16.3105-7.8103-27.7743-12.211-36.9862-15.7464-17.9343-6.8844-24.6451-9.4606-38.1665-26.5428l-1.9887-2.5201c-19.877-25.2061-56.8623-72.1208-108.5882-66.1731-2.5461,.2933-4.3723,2.5947-4.0798,5.1411,.2933,2.547,2.5983,4.3659,5.1409,4.0801,46.5779-5.3646,81.4836,38.913,100.2386,62.6994l2.0002,2.5336c15.0993,19.0753,23.5655,22.3258,42.1173,29.4469,9.0573,3.4762,20.3276,7.8027,36.3041,15.4527,28.4166,13.6062,42.0705,38.8697,56.5266,65.6166,10.0715,18.6362,20.4866,37.9067,36.5215,55.0404,14.5851,15.5671,29.8584,21.733,43.3347,27.1725,22.8154,9.2105,38.0437,15.3904,35.0505,64.0782-2.5594,1.6505-4.2636,4.5125-4.2636,7.7844,0,5.1214,4.1514,9.273,9.2728,9.273s9.2728-4.1516,9.2728-9.273c0-3.557-2.0258-6.6096-4.9651-8.165,3.0479-54.5393-17.3521-62.8014-40.8937-72.3042Z"/><path class="c" d="M298.648,636.6885c8.8558,2.86,16.2893,4.0986,22.6317,4.0986,21.2111,0,30.1605-13.8766,38.8786-27.3975,8.991-13.9481,18.2788-28.3282,42.1642-31.5728,1.7007,2.028,4.2212,3.3448,7.0757,3.3448,5.1214,0,9.2728-4.1518,9.2728-9.2728s-4.1514-9.273-9.2728-9.273c-3.9853,0-7.3539,2.5269-8.6659,6.0553-27.8803,3.9307-39.1763,21.4209-48.3749,35.689-11.1281,17.2584-19.1614,29.7316-50.8627,19.4949-60.2266-19.3805-82.1621-93.1554-101.5179-158.2459-1.1096-3.7313-2.2078-7.4268-3.3033-11.0742-17.7276-59.0398-65.9116-120.1209-88.9117-144.1699-14.1822-14.8296-6.8866-34.6364,3.5621-50.3943,.9568,.3339,1.9692,.5517,3.04,.5517,5.1214,0,9.2728-4.1514,9.2728-9.2728s-4.1514-9.2728-9.2728-9.2728-9.2737,4.1514-9.2737,9.2728c0,.4166,.0698,.8143,.1228,1.2165-17.8636,25.6673-19.3911,48.3873-4.1585,64.3137,22.4673,23.4919,69.5091,83.0731,86.7296,140.4249,1.092,3.6388,2.1901,7.3266,3.2971,11.0499,9.522,32.0222,20.3135,68.3164,36.4331,98.4112,18.7824,35.0677,42.052,56.6644,71.1338,66.0227Z"/><path class="c" d="M141.4543,336.8784c43.8569,52.0316,59.7088,92.0555,65.2535,111.2819l1.8199,6.3296c15.9121,55.4161,33.9462,118.2261,85.5007,136.5558,7.9741,2.852,14.5595,4.0602,20.1138,4.0602,15.799-.0009,23.2483-9.7764,30.5139-19.3116,8.0386-10.5512,16.3511-21.4611,37.9315-22.2924,3.2944-.127,6.6878-.2447,10.1589-.3651,57.1212-1.9832,135.3509-4.6998,140.6588-60.4375,4.6081-48.4014-12.2201-56.084-31.7066-64.9805-9.5228-4.3471-20.3179-9.2746-30.4486-19.9853-12.4745-13.2157-20.961-28.6735-29.1684-43.6223-12.2466-22.3074-23.8146-43.378-47.2282-56.963-11.7668-6.827-20.37-11.1195-27.284-14.5692-14.3174-7.1441-20.2437-10.1015-31.2649-24.2864-20.2649-26.0836-52.0298-59.9918-93.7284-53.3466-29.6844,4.7287-91.4322,46.517-105.8353,85.2219-5.2548,14.1226-3.6257,26.8171,4.7133,36.7105Zm3.9853-33.4735c12.9701-34.8539,70.9695-74.892,98.5962-79.2935,3.0426-.4848,6.0314-.7143,8.9698-.7143,32.6342,0,58.7052,28.368,75.9708,50.5897,12.3164,15.8529,19.7127,19.5435,34.4489,26.897,6.7974,3.3912,15.2565,7.6119,26.7707,14.2924,21.1793,12.2883,32.143,32.2585,43.7509,53.4016,8.4874,15.4602,17.2646,31.4469,30.5572,45.5306,11.3781,12.0277,23.0451,17.3543,33.3392,22.0534,18.8982,8.6279,30.3054,13.8346,26.3219,55.6573-4.5348,47.6248-78.0575,50.1772-131.7411,52.0415-3.4817,.1208-6.8875,.2392-10.1934,.3669-25.9535,.9992-36.4906,14.8289-44.9577,25.9416-9.5494,12.5341-15.8582,20.8135-40.1278,12.1346-47.0665-16.735-64.4018-77.1084-79.6954-130.3753l-1.8226-6.34c-13.3968-46.4454-47.7759-91.7938-67.0769-114.6916-6.2275-7.3897-7.2453-16.3821-3.1107-27.492Z"/><path class="c" d="M184.9958,357.4693c10.4045,14.8528,32.0538,45.7576,40.6296,77.616l.167,.6195c11.8199,43.9134,25.2193,93.6864,63.5157,109.6528,7.232,3.0418,13.0381,4.2689,17.8654,4.2689,10.3577,0,16.2045-5.6539,21.917-11.1793,6.3618-6.1538,12.941-12.5167,27.8476-12.7002,35.7255-.4395,110.0618-1.3537,115.8459-45.9995,.3295-2.5419-1.4639-4.869-4.0065-5.1985-2.532-.3317-4.8679,1.4635-5.1983,4.0056-4.185,32.3021-56.3128,37.2914-106.7541,37.912-18.596,.2284-27.2416,8.5901-34.1883,15.3095-7.6066,7.357-12.6309,12.2174-29.7427,5.0203-34.1061-14.2185-46.8739-61.6533-58.1398-103.5045l-.167-.6186c-8.9998-33.4344-31.2825-65.2429-41.9901-80.5288-1.2457-1.7789-2.3164-3.3057-3.1637-4.5518-4.0268-5.9219-4.3784-13.2539-1.0478-21.7933,9.7093-24.8854,48.0171-52.9243,66.932-57.3456,30.5608-7.1419,55.4126,18.5757,67.5063,34.5425,9.332,12.3245,15.2495,16.5265,25.9906,24.1548,4.6364,3.292,10.4054,7.3888,17.8451,13.1609,13.9958,10.8573,22.1555,25.4004,30.7966,40.797,7.0094,12.4922,14.2573,25.4088,24.9728,36.5966,8.0492,8.3752,16.064,12.7395,23.1352,16.5901,1.1282,.6144,2.2307,1.2143,3.3024,1.8157,2.2352,1.2569,5.0622,.4592,6.3185-1.7753,1.2545-2.2352,.4594-5.0638-1.7766-6.3183-1.1043-.6206-2.2422-1.2399-3.4057-1.8729-6.4802-3.5297-13.8262-7.5298-20.8771-14.8649-9.8939-10.3317-16.8494-22.7264-23.5761-34.7124-8.7118-15.5253-17.7205-31.5794-33.2005-43.589-7.5951-5.892-13.4534-10.0525-18.1605-13.3953-10.3171-7.3261-15.4951-11.0035-23.9657-22.1904-31.3409-41.3821-61.7099-41.5537-77.0185-37.9765-21.1581,4.9461-62.2373,34.2309-73.4644,63.0095-4.4474,11.3976-3.7485,21.9044,2.0196,30.3863,.8667,1.2744,1.9604,2.8372,3.2361,4.6572Z"/><path class="c" d="M275.9562,393.6608c0-5.1214-4.1514-9.273-9.2728-9.273s-9.2728,4.1516-9.2728,9.273c0,3.692,2.1742,6.8537,5.2972,8.3454,.1864,2.1141,.4046,4.2594,.6688,6.4409,5.5499,45.7643,26.1205,58.8985,42.3992,61.8588,2.797,.5087,5.5906,.739,8.3408,.739,17.7399-.0007,33.6511-9.5937,36.9712-15.9657,10.9532-21.0176,2.1256-29.0902-6.4095-36.8981-7.0439-6.4413-15.0259-13.7416-16.5932-30.9895-2.9561-32.526-18.8867-41.9599-25.5992-44.5062-9.9884-3.7905-21.0149-1.2921-29.4926,6.6843-1.8668,1.7559-1.9569,4.6927-.2005,6.5597,1.7572,1.8661,4.6938,1.9573,6.5597,.1997,5.9166-5.5685,13.1486-7.3045,19.8417-4.7658,10.5804,4.014,17.9255,17.7218,19.6482,36.6684,1.8924,20.8294,12.1105,30.1749,19.5722,36.9988,8.3081,7.5987,12.099,11.0665,4.4438,25.7596-1.7157,3.2905-17.9882,13.5585-35.4224,10.3838-18.9423-3.4437-30.991-22.0627-34.8447-53.8433-.2491-2.0532-.4541-4.0701-.6308-6.0568,2.411-1.6746,3.9959-4.4553,3.9959-7.6128Z"/><path class="c" d="M209.5048,586.3991c5.1206,0,9.2728-4.1516,9.2728-9.273,0-4.9878-3.9473-9.025-8.8841-9.2335-10.9903-26.5671-19.5263-54.659-27.7708-81.9109-1.4772-4.8897-2.9402-9.7218-4.4014-14.4925-7.073-22.7898-18.3124-47.2639-33.4046-72.7435-1.304-2.2047-4.1487-2.9342-6.3574-1.6278-2.206,1.3064-2.9349,4.1532-1.6282,6.3581,14.7238,24.8569,25.6681,48.6658,32.5212,70.7479,1.4533,4.7435,2.911,9.5657,4.3873,14.4451,8.392,27.7438,17.0871,56.3537,28.4122,83.5738-.8861,1.4215-1.4206,3.0855-1.4206,4.8833,0,5.1214,4.1523,9.273,9.2737,9.273Z"/><path class="c" d="M266.8053,299.0693c-4.6143,0-8.4115,3.3797-9.1235,7.7924-11.9683,6.743-27.9819,20.9986-34.7554,37.0394-3.7689,8.9281-4.1081,17.1489-1.0054,24.4353,1.122,2.6345,2.8942,6.1043,4.9474,10.1214,5.5199,10.8023,13.8607,27.127,17.6569,43.4759,7.4441,32.0651,16.6506,64.4687,39.8124,77.5877,7.1278,4.0376,12.4427,5.4276,16.8662,5.4267,4.7442,0,8.4645-1.5986,12.2934-3.2441,4.6223-1.9874,9.3947-4.0491,17.6763-3.7181,17.921,.7015,36.0382-1.1772,49.7072-5.1543,18.0774-5.2601,28.8822-14.205,31.2463-25.8671,5.587-27.5773-1.6477-34.3186-13.9154-43.0337-3.624-2.5755-7.3716-5.2378-11.2359-9.1317-8.2454-8.352-14.0859-18.5852-20.2693-29.4189-3.5206-6.1692-7.1375-12.4895-11.3622-18.7988,.5239-1.1613,.8313-2.4406,.8313-3.7976,0-5.1212-4.1523-9.2728-9.2737-9.2728s-9.2728,4.1516-9.2728,9.2728,4.1523,9.273,9.2728,9.273c.3004,0,.584-.0603,.8773-.0883,3.9959,5.9919,7.4767,12.0736,10.8657,18.0118,6.4935,11.377,12.6265,22.1226,21.735,31.3484,4.4341,4.4686,8.6968,7.4966,12.4559,10.168,9.8983,7.0317,14.8669,10.5618,10.1934,33.6248-3.4817,17.1873-38.5905,24.8754-71.4925,23.5902-10.356-.4079-16.6559,2.2948-21.7058,4.4648-6.3327,2.7222-10.1572,4.3652-20.9178-1.7305-19.8912-11.2672-28.3689-41.5546-35.3482-71.6117-4.0524-17.4581-12.7051-34.3932-18.4308-45.5991-1.9737-3.8625-3.6787-7.198-4.6735-9.5354-2.0788-4.8831-1.7369-10.6663,1.0177-17.188,5.5013-13.0313,19.2109-25.7154,29.6154-31.9149,1.5779,1.2448,3.5453,2.0185,5.7116,2.0185,5.1214,0,9.2728-4.1518,9.2728-9.273s-4.1514-9.273-9.2728-9.273Z"/><path class="c" d="M143.1108,226.2377c.2226-.2489,22.4408-25.0027,46.1115-33.493,2.4119-.8654,3.6664-3.5228,2.7997-5.9351-.8649-2.4121-3.5179-3.6666-5.9351-2.8012-25.9261,9.3002-48.9447,34.9741-49.9112,36.0621-1.7033,1.9158-1.5302,4.8476,.3852,6.5504,.8835,.7861,1.9843,1.1721,3.0815,1.1721,1.2784,0,2.5523-.525,3.4685-1.5553Z"/></g></svg>