<svg xmlns="http://www.w3.org/2000/svg" xmlns:xlink="http://www.w3.org/1999/xlink" width="719.808" height="813.831" viewBox="0 0 719.808 813.831">
  <defs>
    <clipPath id="clip-path">
      <path id="Path_2550" data-name="Path 2550" d="M305.466,195.873a2.648,2.648,0,0,1,1.958-2.559,2.237,2.237,0,0,1,.719-.116,2.352,2.352,0,0,1,.737.116,2.643,2.643,0,0,1,1.958,2.559,2.686,2.686,0,1,1-5.372,0M363.8,17.077v92.412l-56.376,56.374V191.8a4.138,4.138,0,1,0,1.456,0V166.464l56.374-56.374V17.077Z" transform="translate(-304.014 -17.077)" fill="#fff"/>
    </clipPath>
    <clipPath id="clip-path-2">
      <path id="Path_2551" data-name="Path 2551" d="M299.559,163.033a2.644,2.644,0,0,1,1.958-2.559,2.208,2.208,0,0,1,.717-.116,2.332,2.332,0,0,1,.735.116,2.639,2.639,0,0,1,1.958,2.559,2.684,2.684,0,1,1-5.368,0m22.077-81.989a3.382,3.382,0,0,0,.543,1.832l-20.661,20.661v55.424a4.14,4.14,0,1,0,1.452,0V104.138L323.2,83.905a3.4,3.4,0,1,0-1.568-2.861" transform="translate(-298.103 -77.636)" fill="#fff"/>
    </clipPath>
    <clipPath id="clip-path-3">
      <path id="Path_2552" data-name="Path 2552" d="M291.156,182.156a2.654,2.654,0,0,1,1.939-2.578,2.355,2.355,0,0,1,.739-.116,2.233,2.233,0,0,1,.717.116,2.676,2.676,0,0,1-.717,5.254,2.681,2.681,0,0,1-2.677-2.675M364.01,34.765a2.639,2.639,0,0,1-1.958-2.559,2.684,2.684,0,0,1,5.368,0,2.646,2.646,0,0,1-1.958,2.559,2.213,2.213,0,0,1-.715.116,2.343,2.343,0,0,1-.737-.116M360.6,32.206a4.144,4.144,0,0,0,3.414,4.071V95.869l-13.764,13.783H328.164L293.095,144.7v33.363a4.138,4.138,0,1,0,1.456,0V145.3l34.216-34.2h22.079L365.462,96.47V36.277a4.133,4.133,0,1,0-4.866-4.071" transform="translate(-289.704 -28.077)" fill="#fff"/>
    </clipPath>
    <clipPath id="clip-path-4">
      <path id="Path_2553" data-name="Path 2553" d="M403.018,0,297.776,105.242V218.965L122.895,393.849H0V395.3H123.5L299.23,219.568V105.845L404.047,1.027Z" fill="#fff"/>
    </clipPath>
    <clipPath id="clip-path-5">
      <path id="Path_2554" data-name="Path 2554" d="M164.12,104.868V166l66.662-66.662a3.368,3.368,0,0,0,1.828.541,3.423,3.423,0,1,0-2.859-1.564l-64.177,64.175V105.469l94.1-94.1-1.027-1.027Z" transform="translate(-164.12 -10.337)" fill="#fff"/>
    </clipPath>
    <clipPath id="clip-path-6">
      <path id="Path_2555" data-name="Path 2555" d="M218.511,95.027h32.056l49.376-49.376h62.413a3.4,3.4,0,1,0-.039-1.456H299.34L249.965,93.571H222.02l79.891-79.889-1.027-1.029Z" transform="translate(-218.511 -12.653)" fill="#fff"/>
    </clipPath>
    <clipPath id="clip-path-7">
      <path id="Path_2556" data-name="Path 2556" d="M396.5,14.285V55.9l-29.17,29.17H287.757l-52.1,52.1a3.377,3.377,0,1,0,1.07.985l51.636-51.634h79.577l30.023-30.023V14.285Z" transform="translate(-230.516 -14.285)" fill="#fff"/>
    </clipPath>
    <clipPath id="clip-path-8">
      <path id="Path_2557" data-name="Path 2557" d="M122.134,219.544a2.663,2.663,0,0,1,1.979-2.578,2.87,2.87,0,0,1,.7-.1,2.386,2.386,0,0,1,.756.116,2.672,2.672,0,1,1-3.433,2.559M72.21,38.1,115.3,81.187V248.46a3.408,3.408,0,1,0,1.454,0V117.078l17.885,17.885v38.442l-10.525,10.546v31.521a4.12,4.12,0,1,0,1.454,0v-30.92l10.525-10.546V134.363l-19.339-19.339V80.584L73.237,37.069Z" transform="translate(-72.21 -37.069)" fill="#fff"/>
    </clipPath>
    <clipPath id="clip-path-9">
      <path id="Path_2558" data-name="Path 2558" d="M331.267,178.482H226.8l-94.434,94.436H0v1.452H132.969L227.4,179.938H331.3a3.395,3.395,0,1,0-.031-1.456" transform="translate(0 -175.745)" fill="#fff"/>
    </clipPath>
    <clipPath id="clip-path-10">
      <path id="Path_2559" data-name="Path 2559" d="M284.246,133.711H265.712l-48.918,48.918h-79.43l40.313-40.313a3.466,3.466,0,1,0-1-1.051l-42.819,42.819h83.541l48.918-48.92h17.934a3.41,3.41,0,1,0,0-1.454" transform="translate(-133.853 -131.028)" fill="#fff"/>
    </clipPath>
    <clipPath id="clip-path-11">
      <path id="Path_2560" data-name="Path 2560" d="M221.829,141.065a2.5,2.5,0,0,1-1.068-.989,2.667,2.667,0,1,1,2.27,1.279,2.555,2.555,0,0,1-1.2-.291m-41.524-.62a2.476,2.476,0,0,1-.989-1.066,2.562,2.562,0,0,1-.293-1.2,2.711,2.711,0,1,1,1.281,2.268m-2.733-2.268a4.1,4.1,0,0,0,.678,2.268L150.623,168.05h44.2l25.936-25.938h.021a3.909,3.909,0,0,0,2.249.7,4.158,4.158,0,1,0-3.315-1.687L194.222,166.6H154.134l25.124-25.1a4.128,4.128,0,0,0,6.589-3.315,4.138,4.138,0,0,0-8.276,0" transform="translate(-150.623 -134.047)" fill="#fff"/>
    </clipPath>
    <clipPath id="clip-path-12">
      <path id="Path_2561" data-name="Path 2561" d="M110.985,108.428a2.649,2.649,0,0,1,1.96-2.578,2.335,2.335,0,0,1,.737-.116,2.233,2.233,0,0,1,.717.116,2.675,2.675,0,0,1-.717,5.252,2.684,2.684,0,0,1-2.7-2.673M93.511,41.57a3.4,3.4,0,0,0,5.242,2.863l23.523,23.523V89.234L114.4,97.11V72.525L91.665,49.793a3.425,3.425,0,1,0-1.025,1.027l.012.012,22.294,22.313v31.192a4.137,4.137,0,1,0,1.454,0V99.169l9.33-9.334V67.353L99.78,43.406a3.37,3.37,0,0,0,.545-1.836,3.407,3.407,0,1,0-6.814,0" transform="translate(-85.39 -38.16)" fill="#fff"/>
    </clipPath>
    <clipPath id="clip-path-13">
      <path id="Path_2562" data-name="Path 2562" d="M396.164,17.077V168.015l-50.211,50.211v65.121a3.408,3.408,0,1,0,1.454,0v-64.52l50.211-50.211V17.077Z" transform="translate(-343.272 -17.077)" fill="#fff"/>
    </clipPath>
    <clipPath id="clip-path-14">
      <path id="Path_2563" data-name="Path 2563" d="M447.214,158.722l.019-.019a2.5,2.5,0,0,1-1.161-1.279.071.071,0,0,1-.019-.058,2.166,2.166,0,0,1-.215-.989,2.655,2.655,0,0,1,.467-1.493,2.521,2.521,0,0,1,.715-.717,2.627,2.627,0,0,1,2.985,0,2.27,2.27,0,0,1,.409.33,2.727,2.727,0,0,1,.775,1.88,2.7,2.7,0,0,1-2.675,2.695,2.516,2.516,0,0,1-1.3-.349m-2.828-2.346a4.076,4.076,0,0,0,.735,2.365l-90.726,90.726H244.207l-95.262,95.262H0v1.454H149.546l95.262-95.262H355l91.17-91.152a3.952,3.952,0,0,0,2.348.756,4.139,4.139,0,1,0-4.129-4.149" transform="translate(-0.004 -152.247)" fill="#fff"/>
    </clipPath>
    <clipPath id="clip-path-15">
      <path id="Path_2564" data-name="Path 2564" d="M345.166,81.423a3.372,3.372,0,0,0,.531,1.813l-17.189,17.189V168.4l-18.4,18.4h-54.3l-50.64,50.64a3.414,3.414,0,1,0,1.029,1.027l50.213-50.213h54.3L329.961,169V101.028l16.753-16.755a3.4,3.4,0,1,0-1.549-2.85" transform="translate(-199.925 -78.015)" fill="#fff"/>
    </clipPath>
    <clipPath id="clip-path-16">
      <path id="Path_2565" data-name="Path 2565" d="M334.051,229.469H229.191l-73.158,73.156H0v1.454H156.634l73.158-73.156H333.84a3.39,3.39,0,1,0,.211-1.454" transform="translate(0 -227.282)" fill="#fff"/>
    </clipPath>
    <clipPath id="clip-path-17">
      <path id="Path_2566" data-name="Path 2566" d="M178.432,270.735a2.577,2.577,0,0,1,.8-1.88,2,2,0,0,1,.388-.33,2.61,2.61,0,0,1,1.491-.465h.021a2.409,2.409,0,0,1,.523.058,1.5,1.5,0,0,1,.5.155,1.785,1.785,0,0,1,.465.252,1.644,1.644,0,0,1,.368.291,2.363,2.363,0,0,1,.543.795,2.915,2.915,0,0,1,.155.407,2.175,2.175,0,0,1,.118.717,2.291,2.291,0,0,1-.118.737,2.377,2.377,0,0,1-.717,1.2,1.2,1.2,0,0,1-.291.252,2.782,2.782,0,0,1-1.047.446,2.086,2.086,0,0,1-.5.058h-.021a2.686,2.686,0,0,1-2.675-2.695m-44.353-53.679a2.7,2.7,0,0,1,2.693-2.695,2.667,2.667,0,0,1,2.561,1.958,2.4,2.4,0,0,1,.116.737,2.278,2.278,0,0,1-.116.717,2.65,2.65,0,0,1-2.561,1.958,2.684,2.684,0,0,1-2.693-2.675m-1.456,0a4.143,4.143,0,0,0,8.222.717H269l-52.243,52.245H185.2a4.139,4.139,0,1,0,0,1.454h32.159l55.153-55.153H140.845a4.143,4.143,0,0,0-8.222.737" transform="translate(-132.623 -212.907)" fill="#fff"/>
    </clipPath>
    <clipPath id="clip-path-18">
      <path id="Path_2567" data-name="Path 2567" d="M293.754,193.857a2.344,2.344,0,0,1-.118-.737,2.225,2.225,0,0,1,.118-.717,2.685,2.685,0,1,1,0,1.454m14.985-24.5a2.175,2.175,0,0,1-.118-.717,2.291,2.291,0,0,1,.118-.737,2.639,2.639,0,0,1,2.559-1.958,2.685,2.685,0,0,1,0,5.37,2.644,2.644,0,0,1-2.559-1.958m-1.514-1.454H277.334L252.4,192.827V212.6l-26.851,26.869H202.92a3.414,3.414,0,1,0-.006,1.454h23.242L273.2,193.857H292.24a4.139,4.139,0,1,0,0-1.454H272.6l-18.748,18.746V193.43l24.077-24.077h29.292a4.139,4.139,0,1,0,0-1.454" transform="translate(-196.183 -164.487)" fill="#fff"/>
    </clipPath>
    <clipPath id="clip-path-19">
      <path id="Path_2568" data-name="Path 2568" d="M210.427,185.493a2.4,2.4,0,0,1-.114-.737,2.278,2.278,0,0,1,.114-.717,2.65,2.65,0,0,1,2.561-1.958,2.685,2.685,0,0,1,0,5.37,2.643,2.643,0,0,1-2.561-1.958m-1.51-1.454H130.908L112.55,202.4a3.42,3.42,0,1,0,1.029,1.026l17.947-17.928h77.39a4.139,4.139,0,1,0,0-1.454" transform="translate(-107.312 -180.627)" fill="#fff"/>
    </clipPath>
    <clipPath id="clip-path-20">
      <path id="Path_2569" data-name="Path 2569" d="M259.722,310.588a3.406,3.406,0,0,0,.543,1.836L212.188,360.5v66.571l-67.515,67.513H52.04v1.456h93.236l68.364-68.366V361.1l47.652-47.652a3.4,3.4,0,1,0-1.57-2.863" transform="translate(-52.04 -307.178)" fill="#fff"/>
    </clipPath>
    <clipPath id="clip-path-21">
      <path id="Path_2570" data-name="Path 2570" d="M105.316,455.8a2.685,2.685,0,0,1,2.677-2.695,2.348,2.348,0,0,1,1.3.368,2.277,2.277,0,0,1,1.029,1.027,2.527,2.527,0,0,1,.349,1.3,2.676,2.676,0,0,1-5.352,0m84.04-146.208a2.593,2.593,0,0,1-1.027-1.027,2.51,2.51,0,0,1-.351-1.3,2.676,2.676,0,1,1,2.675,2.675,2.5,2.5,0,0,1-1.3-.349m-2.83-2.326a4.154,4.154,0,0,0,.737,2.365l-44.549,44.549v65.873l-32.357,32.355a3.951,3.951,0,0,0-2.363-.756,4.139,4.139,0,1,0,4.127,4.149,4.064,4.064,0,0,0-.737-2.365l32.783-32.781V354.78l44.142-44.142a3.936,3.936,0,0,0,2.344.756,4.139,4.139,0,1,0-4.127-4.129" transform="translate(-103.864 -303.117)" fill="#fff"/>
    </clipPath>
    <clipPath id="clip-path-22">
      <path id="Path_2571" data-name="Path 2571" d="M187.047,326.508a2.643,2.643,0,0,1,1.96-2.559,2.334,2.334,0,0,1,.737-.116,2.232,2.232,0,0,1,.717.116,2.646,2.646,0,0,1,1.956,2.559,2.685,2.685,0,0,1-5.37,0M235.6,221.481a3.372,3.372,0,0,0,.547,1.838l-47.142,47.144v51.973a4.137,4.137,0,1,0,1.454,0V271.064l46.718-46.718a3.4,3.4,0,1,0-1.576-2.865" transform="translate(-185.593 -218.071)" fill="#fff"/>
    </clipPath>
    <clipPath id="clip-path-23">
      <rect id="Rectangle_1964" data-name="Rectangle 1964" width="719.808" height="813.831" fill="#fff"/>
    </clipPath>
    <clipPath id="clip-path-24">
      <path id="Path_2573" data-name="Path 2573" d="M186.1,261.3H159.762l-50.948,50.948H70.574V313.7h38.841l50.948-50.948H186.1a3.408,3.408,0,1,0,0-1.454" transform="translate(-70.574 -258.622)" fill="#fff"/>
    </clipPath>
    <clipPath id="clip-path-25">
      <path id="Path_2574" data-name="Path 2574" d="M145.308,309.261a2.685,2.685,0,0,1,2.7-2.675,2.426,2.426,0,0,1,1.1.252,2.307,2.307,0,0,1,1.107.95,2.479,2.479,0,0,1,.463,1.473,2.685,2.685,0,1,1-5.37,0M119.8,256.416a2.686,2.686,0,0,1,2.677-2.695,2.639,2.639,0,0,1,2.557,1.958,2.291,2.291,0,0,1,.118.737,2.174,2.174,0,0,1-.118.717,2.642,2.642,0,0,1-2.557,1.958,2.682,2.682,0,0,1-2.677-2.675m-1.452,0a4.132,4.132,0,0,0,8.2.717h34.332l18.957,18.979-29.66,29.66a4.007,4.007,0,0,0-2.169-.64,4.139,4.139,0,1,0,4.129,4.129,4.092,4.092,0,0,0-.872-2.52l30.628-30.63-20.413-20.433H126.544a4.132,4.132,0,0,0-8.2.737" transform="translate(-118.344 -252.267)" fill="#fff"/>
    </clipPath>
    <clipPath id="clip-path-26">
      <path id="Path_2575" data-name="Path 2575" d="M107.3,387.249a2.645,2.645,0,0,1,1.96-2.559,2.217,2.217,0,0,1,.717-.116,2.344,2.344,0,0,1,.737.116,2.648,2.648,0,0,1,1.939,2.559,2.676,2.676,0,0,1-5.352,0M166.27,268.173a3.381,3.381,0,0,0,.543,1.83h0l-24.7,24.717v33.731L109.256,361.31v21.867a4.118,4.118,0,1,0,1.454,0V361.911l32.857-32.859V295.321l24.269-24.287a3.4,3.4,0,1,0-1.566-2.861" transform="translate(-105.844 -264.765)" fill="#fff"/>
    </clipPath>
    <clipPath id="clip-path-27">
      <path id="Path_2576" data-name="Path 2576" d="M101.727,404.69a2.646,2.646,0,0,1,1.96-2.559,2.217,2.217,0,0,1,.717-.116,2.353,2.353,0,0,1,.737.116,2.648,2.648,0,0,1,1.939,2.559,2.676,2.676,0,0,1-5.352,0M154.71,273a2.636,2.636,0,0,1-1.029-1.027,2.547,2.547,0,0,1-.349-1.318,2.686,2.686,0,1,1,2.7,2.695A2.523,2.523,0,0,1,154.71,273m-2.83-2.346a3.956,3.956,0,0,0,.754,2.365l-14.094,14.094V321.7l-34.854,34.856v44.064a4.118,4.118,0,1,0,1.454,0V357.156L140,322.3V287.716l13.667-13.667a4.044,4.044,0,0,0,2.365.756,4.139,4.139,0,1,0-4.149-4.149" transform="translate(-100.273 -266.527)" fill="#fff"/>
    </clipPath>
    <clipPath id="clip-path-28">
      <path id="Path_2577" data-name="Path 2577" d="M123.163,24.833a2.4,2.4,0,0,1-.114-.737,2.277,2.277,0,0,1,.114-.717,2.648,2.648,0,0,1,2.559-1.958,2.675,2.675,0,1,1,0,5.35,2.648,2.648,0,0,1-2.559-1.939m-1.51-1.454H99.864L88.29,34.933v10.2a3.409,3.409,0,1,0,1.454,0V35.534l10.718-10.7h21.191a4.139,4.139,0,1,0,0-1.454" transform="translate(-85.613 -19.967)" fill="#fff"/>
    </clipPath>
    <clipPath id="clip-path-29">
      <path id="Path_2578" data-name="Path 2578" d="M325.267,299.462a2.218,2.218,0,0,1-1.027-1.027,2.37,2.37,0,0,1-.368-1.3,2.676,2.676,0,1,1,2.677,2.675,2.4,2.4,0,0,1-1.281-.349m-2.848-2.326a3.956,3.956,0,0,0,.754,2.365l-82.157,82.138v67.327l-88.4,88.4H52.043v1.454H153.22l89.252-89.252V382.238L324.2,300.529a4.125,4.125,0,1,0-1.783-3.393" transform="translate(-52.043 -293.007)" fill="#fff"/>
    </clipPath>
    <clipPath id="clip-path-30">
      <path id="Path_2579" data-name="Path 2579" d="M169.079,172.165a2.684,2.684,0,0,1,2.673-2.695,2.706,2.706,0,0,1,2.675,2.695,2.674,2.674,0,1,1-5.349,0M269.792,70.529a3.393,3.393,0,0,0,.62,1.95l0,0L174.1,168.773a3.949,3.949,0,0,0-2.348-.758,4.14,4.14,0,1,0,4.131,4.151,4.2,4.2,0,0,0-.737-2.384l96.34-96.322a3.4,3.4,0,1,0-1.694-2.929" transform="translate(-167.623 -67.121)" fill="#fff"/>
    </clipPath>
    <clipPath id="clip-path-31">
      <path id="Path_2580" data-name="Path 2580" d="M245.369,164.1a2.223,2.223,0,0,1-.114-.717,2.342,2.342,0,0,1,.114-.737,2.646,2.646,0,0,1,2.559-1.939,2.675,2.675,0,1,1,0,5.35,2.646,2.646,0,0,1-2.559-1.958m11.4-73.24a2.476,2.476,0,0,1-1.027-1.027,2.509,2.509,0,0,1-.349-1.3,2.685,2.685,0,1,1,2.693,2.675,2.527,2.527,0,0,1-1.316-.349m-2.83-2.326a3.929,3.929,0,0,0,.756,2.346L181.473,164.1h62.386a4.12,4.12,0,1,0,0-1.454H184.982l70.741-70.739a4.038,4.038,0,0,0,2.363.756,4.139,4.139,0,1,0-4.147-4.129" transform="translate(-181.473 -84.387)" fill="#fff"/>
    </clipPath>
    <clipPath id="clip-path-32">
      <path id="Path_2581" data-name="Path 2581" d="M397.031,54.492a2.706,2.706,0,0,1-1.376-2.326,2.686,2.686,0,1,1,2.7,2.675,2.535,2.535,0,0,1-1.32-.349M394.2,52.166a3.944,3.944,0,0,0,.754,2.346L366.848,82.621h-72l-57.339,57.341a3.407,3.407,0,1,0,1.031,1.022l56.911-56.909h72l28.517-28.517a4.336,4.336,0,0,0,2.385.737,4.129,4.129,0,1,0-4.149-4.129" transform="translate(-232.275 -48.037)" fill="#fff"/>
    </clipPath>
    <clipPath id="clip-path-33">
      <path id="Path_2582" data-name="Path 2582" d="M346.421,330.895a2.664,2.664,0,0,1,1.975-2.578,2.909,2.909,0,0,1,.7-.1,2.389,2.389,0,0,1,.758.116,2.672,2.672,0,1,1-3.431,2.559m-27.373-8.51a2.653,2.653,0,0,1,1.937-2.578,2.361,2.361,0,0,1,.737-.116,2.236,2.236,0,0,1,.719.116,2.652,2.652,0,0,1,1.958,2.578,2.675,2.675,0,1,1-5.351,0M354.97,166.251a2.488,2.488,0,0,1-1.027-1.027,2.53,2.53,0,0,1-.351-1.318,2.676,2.676,0,1,1,2.675,2.695,2.5,2.5,0,0,1-1.3-.349m28.321-12.213a2.644,2.644,0,0,1-1.027-1.027,2.508,2.508,0,0,1-.349-1.3,2.685,2.685,0,1,1,2.677,2.675,2.511,2.511,0,0,1-1.3-.349M381.1,17.077V119.609l-60.117,60.115v138.57a4.138,4.138,0,1,0,1.456,0V180.325l60.114-60.116v-55.9l9.092,9.092v51.4l-20.989,20.987v18.828l0,.008-22.72,22.7v7.832L336.96,206.147V184.241L353.923,167.3a3.936,3.936,0,0,0,2.344.756,4.139,4.139,0,1,0-4.127-4.149,4.064,4.064,0,0,0,.737,2.365L335.5,183.64v70.623L348.4,267.174v59.648a4.1,4.1,0,1,0,1.456,0V266.573L336.96,253.662V208.2l12.426-12.426v-7.832l32.857-32.859a3.952,3.952,0,0,0,2.348.756,4.139,4.139,0,1,0-4.131-4.129,3.955,3.955,0,0,0,.756,2.346l-9.1,9.106V146.388L393.1,125.4V72.8L382.554,62.258V17.077Z" transform="translate(-317.594 -17.077)" fill="#fff"/>
    </clipPath>
    <clipPath id="clip-path-34">
      <path id="Path_2583" data-name="Path 2583" d="M331.4,232.388a2.643,2.643,0,0,1,1.958-2.559,2.356,2.356,0,0,1,.739-.116,2.235,2.235,0,0,1,.717.116,2.646,2.646,0,0,1,1.958,2.559,2.686,2.686,0,1,1-5.372,0m-8.563-82.907a3.4,3.4,0,0,0,5.248,2.861v0l5.273,5.273v70.7a4.138,4.138,0,1,0,1.456,0v-71.3l-5.7-5.7a3.406,3.406,0,1,0-6.273-1.834" transform="translate(-322.836 -146.071)" fill="#fff"/>
    </clipPath>
    <clipPath id="clip-path-35">
      <path id="Path_2584" data-name="Path 2584" d="M135.176,186.008a2.648,2.648,0,0,1,1.958-2.559,2.242,2.242,0,0,1,.717-.116,2.356,2.356,0,0,1,.739.116,2.648,2.648,0,0,1,1.939,2.559,2.676,2.676,0,1,1-5.352,0M137.134,3.587v178.35a4.119,4.119,0,1,0,1.456,0V3.587Z" transform="translate(-133.724 -3.587)" fill="#fff"/>
    </clipPath>
    <clipPath id="clip-path-36">
      <path id="Path_2585" data-name="Path 2585" d="M128.337,226.309a2.666,2.666,0,0,1,1.96-2.578,2.335,2.335,0,0,1,.737-.116,2.233,2.233,0,0,1,.717.116,2.678,2.678,0,1,1-3.414,2.578M125.894,32.625a2.643,2.643,0,0,1-1.958-2.559,2.686,2.686,0,0,1,5.372,0,2.648,2.648,0,0,1-1.958,2.559,2.233,2.233,0,0,1-.717.116,2.355,2.355,0,0,1-.739-.116m-3.41-2.559a4.141,4.141,0,0,0,3.41,4.071V72.773l13.57,13.57v50.694l-9.168,9.15v76.031a4.139,4.139,0,1,0,1.454,0v-75.43l9.168-9.15v-51.9L127.35,72.172V34.137a4.133,4.133,0,1,0-4.866-4.071" transform="translate(-122.484 -25.937)" fill="#fff"/>
    </clipPath>
    <clipPath id="clip-path-37">
      <path id="Path_2586" data-name="Path 2586" d="M82.936,46.968a2.149,2.149,0,0,1,1.435-2.036,1.927,1.927,0,0,1,.739-.136,1.822,1.822,0,0,1,.717.136,2.12,2.12,0,0,1,1.454,2.036,2.172,2.172,0,0,1-4.344,0M96.777,23.9a2.205,2.205,0,0,1-1.026-1.027,2.321,2.321,0,0,1-.2-.911,2.181,2.181,0,1,1,2.193,2.171,2.059,2.059,0,0,1-.971-.233m-2.383-1.939a3.187,3.187,0,0,0,.5,1.764L84.37,34.251v9.441a3.356,3.356,0,0,0,.739,6.63,3.354,3.354,0,0,0,.717-6.63v-8.84L95.9,24.772a3.363,3.363,0,0,0,5.2-2.811,3.353,3.353,0,1,0-6.706,0" transform="translate(-81.753 -18.607)" fill="#fff"/>
    </clipPath>
    <clipPath id="clip-path-38">
      <path id="Path_2587" data-name="Path 2587" d="M182.289,81.417a2.684,2.684,0,0,1,2.695-2.675,2.385,2.385,0,0,1,1.278.349,2.184,2.184,0,0,1,1.027,1.027,2.338,2.338,0,0,1,.368,1.3,2.684,2.684,0,0,1-5.368,0M290.675,30.081a2.153,2.153,0,0,1-.116-.715,2.289,2.289,0,0,1,.116-.737,2.639,2.639,0,0,1,2.557-1.958,2.685,2.685,0,0,1,0,5.37,2.641,2.641,0,0,1-2.557-1.96m-1.512-1.452H236.724l-49.4,49.4a4.051,4.051,0,0,0-2.344-.737,4.129,4.129,0,1,0,4.129,4.129,3.946,3.946,0,0,0-.758-2.365l48.971-48.971h51.838a4.138,4.138,0,1,0,0-1.452" transform="translate(-180.833 -25.217)" fill="#fff"/>
    </clipPath>
    <clipPath id="clip-path-39">
      <path id="Path_2588" data-name="Path 2588" d="M171.927,138.252a2.685,2.685,0,0,1,2.677-2.695,2.348,2.348,0,0,1,1.3.368,2.272,2.272,0,0,1,1.027,1.027,2.509,2.509,0,0,1,.349,1.3,2.675,2.675,0,1,1-5.35,0m74.424-70.739a2.2,2.2,0,0,1-1.029-1.027,2.408,2.408,0,0,1-.347-1.279,2.675,2.675,0,1,1,2.673,2.675,2.348,2.348,0,0,1-1.3-.368m-2.83-2.307a4.048,4.048,0,0,0,.737,2.346l-67.29,67.308a3.947,3.947,0,0,0-2.363-.756,4.141,4.141,0,1,0,3.391,1.783L245.266,68.6h.019a4.072,4.072,0,0,0,2.363.737,4.129,4.129,0,1,0-4.127-4.129" transform="translate(-170.473 -61.077)" fill="#fff"/>
    </clipPath>
    <clipPath id="clip-path-40">
      <path id="Path_2589" data-name="Path 2589" d="M320.855,156.991a2.671,2.671,0,1,1,3.356-2.578,2.629,2.629,0,0,1-1.9,2.54,2.118,2.118,0,0,1-.777.136,2.631,2.631,0,0,1-.678-.1m-27.76-35.5a2.648,2.648,0,0,1-1.939-2.559,2.676,2.676,0,0,1,5.352,0,2.648,2.648,0,0,1-1.958,2.559,2.234,2.234,0,0,1-.717.116,2.356,2.356,0,0,1-.739-.116m-3.391-2.559a4.124,4.124,0,0,0,3.391,4.071v20.181L309.3,159.394v32.626l25.318,25.318v33.4a3.414,3.414,0,1,0,1.456.01V198.282l-13.764-13.764V158.464a4.142,4.142,0,1,0-1.456.019v26.636l13.764,13.764v16.4L310.757,191.42V158.793L294.55,142.587v-19.58a4.131,4.131,0,1,0-4.846-4.071" transform="translate(-289.704 -114.807)" fill="#fff"/>
    </clipPath>
    <clipPath id="clip-path-41">
      <path id="Path_2590" data-name="Path 2590" d="M268.947,149.975a2.646,2.646,0,0,1-1.939-2.559,2.675,2.675,0,1,1,5.351,0,2.646,2.646,0,0,1-1.96,2.559,2.208,2.208,0,0,1-.717.116,2.332,2.332,0,0,1-.735-.116m-3.394-2.559a4.142,4.142,0,0,0,3.394,4.071v32.7l37.8,37.8v45.644a3.4,3.4,0,1,0,1.454-.006V221.392l-37.8-37.8v-32.1a4.14,4.14,0,1,0-4.846-4.071" transform="translate(-265.553 -143.267)" fill="#fff"/>
    </clipPath>
    <clipPath id="clip-path-42">
      <path id="Path_2591" data-name="Path 2591" d="M214.738,29.786h43.343a3.409,3.409,0,1,0,0-1.452H218.249L232.9,13.682l-1.027-1.029Z" transform="translate(-214.738 -12.653)" fill="#fff"/>
    </clipPath>
    <clipPath id="clip-path-43">
      <path id="Path_2592" data-name="Path 2592" d="M370.339,43.024a3.405,3.405,0,0,0,2.681,3.327V94.317l-58.906,58.906v54.17a3.394,3.394,0,1,0,1.452-.031V153.826L374.474,94.92V46.351a3.407,3.407,0,1,0-4.135-3.327" transform="translate(-311.489 -39.616)" fill="#fff"/>
    </clipPath>
    <clipPath id="clip-path-44">
      <path id="Path_2593" data-name="Path 2593" d="M116.274,3.591v233.72a3.416,3.416,0,1,0,1.456.1V3.591Z" transform="translate(-113.378 -3.591)" fill="#fff"/>
    </clipPath>
    <clipPath id="clip-path-45">
      <path id="Path_2594" data-name="Path 2594" d="M144.509,171.466a2.685,2.685,0,0,1,2.675-2.695,2.649,2.649,0,0,1,2.578,1.958,2.4,2.4,0,0,1,.116.737,2.279,2.279,0,0,1-.116.717,2.676,2.676,0,0,1-5.254-.717m-1.456,0a4.143,4.143,0,0,0,8.222.717h92.6L205.9,210.16h-24a3.4,3.4,0,1,0,0,1.454h24.6l40.885-40.885H151.275a4.143,4.143,0,0,0-8.222.737" transform="translate(-143.053 -167.317)" fill="#fff"/>
    </clipPath>
    <clipPath id="clip-path-46">
      <path id="Path_2595" data-name="Path 2595" d="M257.367,270.592a3.365,3.365,0,0,0,.355,1.485l-99.4,99.4v35.084l-37.376,37.376H65.228v1.454h56.318l38.229-38.229V372.079l98.856-98.858a3.368,3.368,0,0,0,2.144.779,3.409,3.409,0,1,0-3.408-3.408" transform="translate(-65.228 -267.182)" fill="#fff"/>
    </clipPath>
    <clipPath id="clip-path-47">
      <path id="Path_2596" data-name="Path 2596" d="M226.906,231.005a2.681,2.681,0,0,1,2.677-2.675,2.5,2.5,0,0,1,1.3.349,2.611,2.611,0,0,1,1.029,1.027,2.527,2.527,0,0,1,.349,1.3,2.676,2.676,0,0,1-5.352,0M283.5,211.212H248.347l-16.4,16.4a4.072,4.072,0,0,0-2.363-.737,4.129,4.129,0,1,0,4.127,4.129,4.064,4.064,0,0,0-.737-2.365l15.976-15.974h34.542a3.411,3.411,0,1,0,0-1.454" transform="translate(-225.454 -208.537)" fill="#fff"/>
    </clipPath>
    <clipPath id="clip-path-48">
      <path id="Path_2597" data-name="Path 2597" d="M273.193,269.307a2.178,2.178,0,0,1-.076-.62,2.022,2.022,0,0,1,.155-.834,2.636,2.636,0,0,1,2.518-1.842,2.685,2.685,0,1,1,0,5.37,2.66,2.66,0,0,1-2.6-2.074M173.007,243.1l-70.931,70.952h-31.5V315.5h32.1l70.935-70.952h30.029l24.756,24.756H271.7a4.127,4.127,0,1,0,.037-1.454H229L204.237,243.1Z" transform="translate(-70.574 -243.097)" fill="#fff"/>
    </clipPath>
    <clipPath id="clip-path-49">
      <path id="Path_2598" data-name="Path 2598" d="M222.206,219.906a2.686,2.686,0,0,1,2.7-2.675,2.514,2.514,0,0,1,1.3.349,2.631,2.631,0,0,1,1.027,1.027,2.527,2.527,0,0,1,.349,1.3,2.686,2.686,0,0,1-5.372,0m86.965-28.943a2.224,2.224,0,0,1-.114-.717,2.334,2.334,0,0,1,.114-.737,2.663,2.663,0,0,1,2.559-1.958,2.685,2.685,0,0,1,0,5.37,2.646,2.646,0,0,1-2.559-1.958m-1.51-1.454H254.272l-27.006,27a4.072,4.072,0,0,0-2.363-.737,4.129,4.129,0,1,0,4.127,4.129,3.94,3.94,0,0,0-.754-2.346l26.6-26.6h52.79a4.139,4.139,0,1,0,0-1.454" transform="translate(-220.754 -186.097)" fill="#fff"/>
    </clipPath>
    <clipPath id="clip-path-50">
      <path id="Path_2599" data-name="Path 2599" d="M177.714,317.963a2.646,2.646,0,0,1-1.956-2.559,2.685,2.685,0,1,1,3.412,2.559,2.356,2.356,0,0,1-.739.116,2.234,2.234,0,0,1-.717-.116M320.975,220.1a2.4,2.4,0,0,1-.114-.737,2.277,2.277,0,0,1,.114-.717,2.65,2.65,0,0,1,2.561-1.958,2.675,2.675,0,1,1,0,5.35,2.65,2.65,0,0,1-2.561-1.939m-1.51-1.454H303.278l-33.6,33.576H249.073l12.618-12.618a3.413,3.413,0,1,0-1.029-1.024L221.45,277.776v48.31l-42.281,42.3v-48.91a4.138,4.138,0,1,0-1.456,0v52.419L222.9,326.686v-48.31l24.719-24.7H270.3L303.877,220.1h15.588a4.139,4.139,0,1,0,0-1.454" transform="translate(-174.304 -215.237)" fill="#fff"/>
    </clipPath>
    <clipPath id="clip-path-51">
      <path id="Path_2600" data-name="Path 2600" d="M314.562,294.626a2.647,2.647,0,0,1,1.956-2.559,2.233,2.233,0,0,1,.717-.116,2.334,2.334,0,0,1,.737.116,2.646,2.646,0,0,1,1.941,2.559,2.675,2.675,0,1,1-5.351,0M280,97.395a2.65,2.65,0,0,1-1.939-2.578,2.674,2.674,0,1,1,5.349,0,2.652,2.652,0,0,1-1.958,2.578,2.213,2.213,0,0,1-.715.116,2.335,2.335,0,0,1-.737-.116M276.6,94.816A4.148,4.148,0,0,0,280,98.907v129.11l36.521,36.5v26.035a4.121,4.121,0,1,0,1.454,0V263.919l-36.523-36.5V98.907a4.14,4.14,0,1,0-4.846-4.09" transform="translate(-276.603 -90.687)" fill="#fff"/>
    </clipPath>
  </defs>
  <g id="Group_22477" data-name="Group 22477" opacity="0.06">
    <g id="Group_22376" data-name="Group 22376" transform="translate(589.357 33.105)">
      <g id="Group_22375" data-name="Group 22375" clip-path="url(#clip-path)">
        <rect id="Rectangle_1942" data-name="Rectangle 1942" width="61.24" height="182.944" transform="translate(0 0)" fill="#fff"/>
      </g>
    </g>
    <g id="Group_22378" data-name="Group 22378" transform="translate(577.898 150.504)">
      <g id="Group_22377" data-name="Group 22377" clip-path="url(#clip-path-2)">
        <rect id="Rectangle_1943" data-name="Rectangle 1943" width="30.349" height="89.545" transform="translate(0 0)" fill="#fff"/>
      </g>
    </g>
    <g id="Group_22380" data-name="Group 22380" transform="translate(561.616 54.43)">
      <g id="Group_22379" data-name="Group 22379" clip-path="url(#clip-path-3)">
        <rect id="Rectangle_1944" data-name="Rectangle 1944" width="79.172" height="158.208" transform="translate(0 0)" fill="#fff"/>
      </g>
    </g>
    <g id="Group_22382" data-name="Group 22382">
      <g id="Group_22381" data-name="Group 22381" clip-path="url(#clip-path-4)">
        <rect id="Rectangle_1945" data-name="Rectangle 1945" width="404.047" height="395.301" transform="translate(0 0)" fill="#fff"/>
      </g>
    </g>
    <g id="Group_22384" data-name="Group 22384" transform="translate(318.16 20.039)">
      <g id="Group_22383" data-name="Group 22383" clip-path="url(#clip-path-5)">
        <rect id="Rectangle_1946" data-name="Rectangle 1946" width="95.559" height="155.666" transform="translate(0 0)" fill="#fff"/>
      </g>
    </g>
    <g id="Group_22386" data-name="Group 22386" transform="translate(423.602 24.529)">
      <g id="Group_22385" data-name="Group 22385" clip-path="url(#clip-path-6)">
        <rect id="Rectangle_1947" data-name="Rectangle 1947" width="150.556" height="82.374" transform="translate(0 0)" fill="#fff"/>
      </g>
    </g>
    <g id="Group_22388" data-name="Group 22388" transform="translate(446.875 27.693)">
      <g id="Group_22387" data-name="Group 22387" clip-path="url(#clip-path-7)">
        <rect id="Rectangle_1948" data-name="Rectangle 1948" width="167.443" height="129.224" transform="translate(0 0)" fill="#fff"/>
      </g>
    </g>
    <g id="Group_22390" data-name="Group 22390" transform="translate(139.985 71.861)">
      <g id="Group_22389" data-name="Group 22389" clip-path="url(#clip-path-8)">
        <rect id="Rectangle_1949" data-name="Rectangle 1949" width="218.6" height="65.52" transform="translate(-1.64 218.113) rotate(-89.569)" fill="#fff"/>
      </g>
    </g>
    <g id="Group_22392" data-name="Group 22392" transform="translate(0 340.696)">
      <g id="Group_22391" data-name="Group 22391" clip-path="url(#clip-path-9)">
        <rect id="Rectangle_1950" data-name="Rectangle 1950" width="338.015" height="98.625" transform="translate(0 0)" fill="#fff"/>
      </g>
    </g>
    <g id="Group_22394" data-name="Group 22394" transform="translate(259.485 254.009)">
      <g id="Group_22393" data-name="Group 22393" clip-path="url(#clip-path-10)">
        <rect id="Rectangle_1951" data-name="Rectangle 1951" width="157.128" height="53.057" transform="translate(0 0)" fill="#fff"/>
      </g>
    </g>
    <g id="Group_22396" data-name="Group 22396" transform="translate(291.995 259.861)">
      <g id="Group_22395" data-name="Group 22395" clip-path="url(#clip-path-11)">
        <rect id="Rectangle_1952" data-name="Rectangle 1952" width="79.315" height="40.835" transform="matrix(0.996, -0.091, 0.091, 0.996, -3.086, 0.282)" fill="#fff"/>
      </g>
    </g>
    <g id="Group_22398" data-name="Group 22398" transform="translate(165.536 73.976)">
      <g id="Group_22397" data-name="Group 22397" clip-path="url(#clip-path-12)">
        <rect id="Rectangle_1953" data-name="Rectangle 1953" width="66.858" height="83.666" transform="translate(-29.116 14.047) rotate(-25.755)" fill="#fff"/>
      </g>
    </g>
    <g id="Group_22400" data-name="Group 22400" transform="translate(665.462 33.105)">
      <g id="Group_22399" data-name="Group 22399" clip-path="url(#clip-path-13)">
        <rect id="Rectangle_1954" data-name="Rectangle 1954" width="54.346" height="273.005" transform="translate(0 0)" fill="#fff"/>
      </g>
    </g>
    <g id="Group_22402" data-name="Group 22402" transform="translate(0.008 295.144)">
      <g id="Group_22401" data-name="Group 22401" clip-path="url(#clip-path-14)">
        <rect id="Rectangle_1955" data-name="Rectangle 1955" width="452.638" height="193.936" transform="translate(0 0)" fill="#fff"/>
      </g>
    </g>
    <g id="Group_22404" data-name="Group 22404" transform="translate(387.571 151.239)">
      <g id="Group_22403" data-name="Group 22403" clip-path="url(#clip-path-15)">
        <rect id="Rectangle_1956" data-name="Rectangle 1956" width="152.057" height="165.699" transform="translate(0 0)" fill="#fff"/>
      </g>
    </g>
    <g id="Group_22406" data-name="Group 22406" transform="translate(0 440.605)">
      <g id="Group_22405" data-name="Group 22405" clip-path="url(#clip-path-16)">
        <rect id="Rectangle_1957" data-name="Rectangle 1957" width="340.633" height="76.797" transform="translate(0 0)" fill="#fff"/>
      </g>
    </g>
    <g id="Group_22408" data-name="Group 22408" transform="translate(257.101 412.738)">
      <g id="Group_22407" data-name="Group 22407" clip-path="url(#clip-path-17)">
        <rect id="Rectangle_1958" data-name="Rectangle 1958" width="139.888" height="61.977" transform="translate(0 0)" fill="#fff"/>
      </g>
    </g>
    <g id="Group_22410" data-name="Group 22410" transform="translate(380.317 318.872)">
      <g id="Group_22409" data-name="Group 22409" clip-path="url(#clip-path-18)">
        <rect id="Rectangle_1959" data-name="Rectangle 1959" width="119.242" height="79.112" transform="translate(0 0)" fill="#fff"/>
      </g>
    </g>
    <g id="Group_22412" data-name="Group 22412" transform="translate(208.033 350.161)">
      <g id="Group_22411" data-name="Group 22411" clip-path="url(#clip-path-19)">
        <rect id="Rectangle_1960" data-name="Rectangle 1960" width="109.805" height="28.042" transform="translate(0 0)" fill="#fff"/>
      </g>
    </g>
    <g id="Group_22414" data-name="Group 22414" transform="translate(100.884 595.49)">
      <g id="Group_22413" data-name="Group 22413" clip-path="url(#clip-path-20)">
        <rect id="Rectangle_1961" data-name="Rectangle 1961" width="214.498" height="188.863" fill="#fff"/>
      </g>
    </g>
    <g id="Group_22416" data-name="Group 22416" transform="translate(201.349 587.618)">
      <g id="Group_22415" data-name="Group 22415" clip-path="url(#clip-path-21)">
        <rect id="Rectangle_1962" data-name="Rectangle 1962" width="90.918" height="156.812" fill="#fff"/>
      </g>
    </g>
    <g id="Group_22418" data-name="Group 22418" transform="translate(359.788 422.749)">
      <g id="Group_22417" data-name="Group 22417" clip-path="url(#clip-path-22)">
        <rect id="Rectangle_1963" data-name="Rectangle 1963" width="56.826" height="112.566" transform="translate(0 0)" fill="#fff"/>
      </g>
    </g>
    <g id="Group_22420" data-name="Group 22420">
      <g id="Group_22419" data-name="Group 22419" clip-path="url(#clip-path-23)">
        <path id="Path_2572" data-name="Path 2572" d="M65.224,397.224v1.454H124.68l35.98-36a4.062,4.062,0,0,0,2.346.737,4.129,4.129,0,1,0-4.129-4.129,3.958,3.958,0,0,0,.756,2.365l-35.554,35.573Zm95.107-37.938a2.675,2.675,0,1,1,2.675,2.675,2.392,2.392,0,0,1-1.279-.349,2.2,2.2,0,0,1-1.027-1.027,2.354,2.354,0,0,1-.368-1.3" transform="translate(61.218 333.345)" fill="#fff"/>
      </g>
    </g>
    <g id="Group_22422" data-name="Group 22422" transform="translate(136.814 501.361)">
      <g id="Group_22421" data-name="Group 22421" clip-path="url(#clip-path-24)">
        <rect id="Rectangle_1965" data-name="Rectangle 1965" width="122.257" height="55.083" fill="#fff"/>
      </g>
    </g>
    <g id="Group_22424" data-name="Group 22424" transform="translate(229.42 489.041)">
      <g id="Group_22423" data-name="Group 22423" clip-path="url(#clip-path-25)">
        <rect id="Rectangle_1966" data-name="Rectangle 1966" width="63.545" height="61.143" transform="translate(0 0)" fill="#fff"/>
      </g>
    </g>
    <g id="Group_22426" data-name="Group 22426" transform="translate(205.188 513.269)">
      <g id="Group_22425" data-name="Group 22425" clip-path="url(#clip-path-26)">
        <rect id="Rectangle_1967" data-name="Rectangle 1967" width="67.244" height="126.613" transform="translate(0)" fill="#fff"/>
      </g>
    </g>
    <g id="Group_22428" data-name="Group 22428" transform="translate(194.388 516.685)">
      <g id="Group_22427" data-name="Group 22427" clip-path="url(#clip-path-27)">
        <rect id="Rectangle_1968" data-name="Rectangle 1968" width="59.883" height="142.292" transform="translate(0 0)" fill="#fff"/>
      </g>
    </g>
    <g id="Group_22430" data-name="Group 22430" transform="translate(165.968 38.708)">
      <g id="Group_22429" data-name="Group 22429" clip-path="url(#clip-path-28)">
        <rect id="Rectangle_1969" data-name="Rectangle 1969" width="44.26" height="31.894" transform="translate(0 0)" fill="#fff"/>
      </g>
    </g>
    <g id="Group_22432" data-name="Group 22432" transform="translate(100.89 568.019)">
      <g id="Group_22431" data-name="Group 22431" clip-path="url(#clip-path-29)">
        <rect id="Rectangle_1970" data-name="Rectangle 1970" width="278.633" height="245.812" transform="translate(0 0)" fill="#fff"/>
      </g>
    </g>
    <g id="Group_22434" data-name="Group 22434" transform="translate(324.951 130.12)">
      <g id="Group_22433" data-name="Group 22433" clip-path="url(#clip-path-30)">
        <rect id="Rectangle_1971" data-name="Rectangle 1971" width="108.987" height="109.173" transform="translate(0)" fill="#fff"/>
      </g>
    </g>
    <g id="Group_22436" data-name="Group 22436" transform="translate(351.801 163.591)">
      <g id="Group_22435" data-name="Group 22435" clip-path="url(#clip-path-31)">
        <rect id="Rectangle_1972" data-name="Rectangle 1972" width="115.792" height="115.879" transform="translate(-41.508 39.418) rotate(-43.52)" fill="#fff"/>
      </g>
    </g>
    <g id="Group_22438" data-name="Group 22438" transform="translate(450.285 93.124)">
      <g id="Group_22437" data-name="Group 22437" clip-path="url(#clip-path-32)">
        <rect id="Rectangle_1973" data-name="Rectangle 1973" width="196.484" height="168.748" transform="translate(-41.815 23.364) rotate(-29.194)" fill="#fff"/>
      </g>
    </g>
    <g id="Group_22440" data-name="Group 22440" transform="translate(615.683 33.105)">
      <g id="Group_22439" data-name="Group 22439" clip-path="url(#clip-path-33)">
        <rect id="Rectangle_1974" data-name="Rectangle 1974" width="318.335" height="77.156" transform="translate(-1.651 317.939) rotate(-89.702)" fill="#fff"/>
      </g>
    </g>
    <g id="Group_22442" data-name="Group 22442" transform="translate(625.845 283.171)">
      <g id="Group_22441" data-name="Group 22441" clip-path="url(#clip-path-34)">
        <rect id="Rectangle_1975" data-name="Rectangle 1975" width="15.387" height="90.466" transform="translate(0 0)" fill="#fff"/>
      </g>
    </g>
    <g id="Group_22444" data-name="Group 22444" transform="translate(259.235 6.954)">
      <g id="Group_22443" data-name="Group 22443" clip-path="url(#clip-path-35)">
        <rect id="Rectangle_1976" data-name="Rectangle 1976" width="8.256" height="186.569" transform="translate(0 0)" fill="#fff"/>
      </g>
    </g>
    <g id="Group_22446" data-name="Group 22446" transform="translate(237.446 50.281)">
      <g id="Group_22445" data-name="Group 22445" clip-path="url(#clip-path-36)">
        <rect id="Rectangle_1977" data-name="Rectangle 1977" width="18.434" height="204.501" transform="translate(0 0)" fill="#fff"/>
      </g>
    </g>
    <g id="Group_22448" data-name="Group 22448" transform="translate(158.485 36.071)">
      <g id="Group_22447" data-name="Group 22447" clip-path="url(#clip-path-37)">
        <rect id="Rectangle_1978" data-name="Rectangle 1978" width="19.347" height="31.715" transform="translate(0 0)" fill="#fff"/>
      </g>
    </g>
    <g id="Group_22450" data-name="Group 22450" transform="translate(350.56 48.885)">
      <g id="Group_22449" data-name="Group 22449" clip-path="url(#clip-path-38)">
        <rect id="Rectangle_1979" data-name="Rectangle 1979" width="116.528" height="60.329" transform="translate(0 0)" fill="#fff"/>
      </g>
    </g>
    <g id="Group_22452" data-name="Group 22452" transform="translate(330.476 118.403)">
      <g id="Group_22451" data-name="Group 22451" clip-path="url(#clip-path-39)">
        <rect id="Rectangle_1980" data-name="Rectangle 1980" width="81.304" height="81.304" transform="translate(0 0)" fill="#fff"/>
      </g>
    </g>
    <g id="Group_22454" data-name="Group 22454" transform="translate(561.616 222.563)">
      <g id="Group_22453" data-name="Group 22453" clip-path="url(#clip-path-40)">
        <rect id="Rectangle_1981" data-name="Rectangle 1981" width="49.035" height="142.67" transform="translate(0 0)" fill="#fff"/>
      </g>
    </g>
    <g id="Group_22456" data-name="Group 22456" transform="translate(514.797 277.735)">
      <g id="Group_22455" data-name="Group 22455" clip-path="url(#clip-path-41)">
        <rect id="Rectangle_1982" data-name="Rectangle 1982" width="45.79" height="131.258" transform="translate(-0.451 0.002) rotate(-0.197)" fill="#fff"/>
      </g>
    </g>
    <g id="Group_22458" data-name="Group 22458" transform="translate(416.288 24.529)">
      <g id="Group_22457" data-name="Group 22457" clip-path="url(#clip-path-42)">
        <rect id="Rectangle_1983" data-name="Rectangle 1983" width="50.077" height="19.816" transform="translate(0 0)" fill="#fff"/>
      </g>
    </g>
    <g id="Group_22460" data-name="Group 22460" transform="translate(603.848 76.799)">
      <g id="Group_22459" data-name="Group 22459" clip-path="url(#clip-path-43)">
        <rect id="Rectangle_1984" data-name="Rectangle 1984" width="65.666" height="174.494" transform="translate(0 0)" fill="#fff"/>
      </g>
    </g>
    <g id="Group_22462" data-name="Group 22462" transform="translate(219.793 6.961)">
      <g id="Group_22461" data-name="Group 22461" clip-path="url(#clip-path-44)">
        <rect id="Rectangle_1985" data-name="Rectangle 1985" width="6.818" height="240.485" transform="translate(0 0)" fill="#fff"/>
      </g>
    </g>
    <g id="Group_22464" data-name="Group 22464" transform="translate(277.32 324.358)">
      <g id="Group_22463" data-name="Group 22463" clip-path="url(#clip-path-45)">
        <rect id="Rectangle_1986" data-name="Rectangle 1986" width="104.335" height="46.978" transform="translate(0 0)" fill="#fff"/>
      </g>
    </g>
    <g id="Group_22466" data-name="Group 22466" transform="translate(126.45 517.955)">
      <g id="Group_22465" data-name="Group 22465" clip-path="url(#clip-path-46)">
        <rect id="Rectangle_1987" data-name="Rectangle 1987" width="198.955" height="178.21" fill="#fff"/>
      </g>
    </g>
    <g id="Group_22468" data-name="Group 22468" transform="translate(437.062 404.267)">
      <g id="Group_22467" data-name="Group 22467" clip-path="url(#clip-path-47)">
        <rect id="Rectangle_1988" data-name="Rectangle 1988" width="64.774" height="26.597" transform="translate(0 0)" fill="#fff"/>
      </g>
    </g>
    <g id="Group_22470" data-name="Group 22470" transform="translate(136.814 471.264)">
      <g id="Group_22469" data-name="Group 22469" clip-path="url(#clip-path-48)">
        <rect id="Rectangle_1989" data-name="Rectangle 1989" width="209.367" height="72.406" transform="translate(0)" fill="#fff"/>
      </g>
    </g>
    <g id="Group_22472" data-name="Group 22472" transform="translate(427.95 360.765)">
      <g id="Group_22471" data-name="Group 22471" clip-path="url(#clip-path-49)">
        <rect id="Rectangle_1990" data-name="Rectangle 1990" width="95.107" height="37.938" fill="#fff"/>
      </g>
    </g>
    <g id="Group_22474" data-name="Group 22474" transform="translate(337.903 417.255)">
      <g id="Group_22473" data-name="Group 22473" clip-path="url(#clip-path-50)">
        <rect id="Rectangle_1991" data-name="Rectangle 1991" width="153.381" height="156.657" fill="#fff"/>
      </g>
    </g>
    <g id="Group_22476" data-name="Group 22476" transform="translate(536.218 175.804)">
      <g id="Group_22475" data-name="Group 22475" clip-path="url(#clip-path-51)">
        <rect id="Rectangle_1992" data-name="Rectangle 1992" width="209.572" height="52.378" transform="matrix(0.037, -0.999, 0.999, 0.037, -7.639, 207.787)" fill="#fff"/>
      </g>
    </g>
  </g>
</svg>
